<svg xmlns="http://www.w3.org/2000/svg" xmlns:xlink="http://www.w3.org/1999/xlink" width="751.03" height="747.25" viewBox="0 0 198.71 197.71" xmlns:v="https://vecta.io/nano"><style><![CDATA[.B{fill:#1b0200}.C{fill:#fff}.D{fill:#702000}.E{fill:#c7c7c7}.F{fill:#868686}.G{fill:#fce3d3}.H{fill:#ac5d3d}.I{fill:#c06846}]]></style><defs><radialGradient id="A" cx="152.611" cy="178.867" fx="152.611" fy="178.867" r="98.355" gradientTransform="matrix(0.99574288,-0.26135906,0.31147247,1.1866682,-58.906041,3.3921427)" gradientUnits="userSpaceOnUse"><stop offset="0" stop-color="#d6e2f0"/><stop offset=".5" stop-color="#6a96c8"/><stop offset="1" stop-color="#6492c7"/></radialGradient><path id="B" d="M-65.255 210.89s.978 8.378 7.824 14.018c3.466 2.856 5.904 5.832 6.357 10.54.486 5.056-2.53 10.54-8.096 10.94 0 0-16.518.942-16.572 0s.49-2.68 3.586-2.735 3.804.11 3.804.11-5.45-1.872-4.945-8.803c.38-5.216 5-6.112 5-6.112-1.467-6.14 1.78-15.676 1.78-15.676l-3.14-1.902"/></defs><g transform="translate(-49.145 -49.145)"><circle cx="148.5" cy="148.5" r="98.355" fill="url(#A)"/><path d="M235.81 193.594l-14.302-1.763c-5.83-.628-11.778-1.18-17.822-1.656l-18.374-1.19-18.74-.708-18.922-.223-13.12.133-18.797.604-18.47 1.085-17.957 1.555a567.04 567.04 0 0 0-17.266 2.01l-.927.138a98.36 98.36 0 0 0 174.695.013z" fill="#42833d"/><g transform="matrix(-.528293 0 0 .528293 146.04355 74.364868)"><path d="M-34.4 238.354c0 3.702-3 6.703-6.703 6.703s-6.703-3-6.703-6.703 6.15-4.95 9.1-9.124c.254-.36 4.316 5.422 4.316 9.124m-25.046-44.578s2.53-24.106 10.097-23.048-4.573 24.283-7.427 25.106-2.67-2.058-2.67-2.058m-9.896 2.042s-10.87-21.664-3.93-24.854 9.246 22.915 7.287 25.147-3.358-.293-3.358-.293" fill="#adadad"/><path d="M-58.624 195.128s3.544-19.5 6.808-18.344-5.397 18.344-5.397 18.344zm-8.8.678s-7.85-18.2-4.498-19.043 5.672 18.26 5.672 18.26z" class="G"/><g fill="#adadad"><path d="M-68.035 214.832s-7.353 3.784-8.673 8.318c-.743 2.552.462 4.624 1.785 4.493s3.353-3.434 3.353-3.434 10.654.38 10.92-1.838-7.383-7.538-7.383-7.538"/><use xlink:href="#B"/></g><path d="M-67.278 208.498l-1.685 14.073c-.955 7.958-3.695 14.725 2.227 19.723 7.474 6.31 17.822-.652 16.083-7.39s-9.754-23.034-9.754-23.034z" class="G"/><g class="E"><path d="M-55.324 210.89s.978 8.378 7.824 14.018c3.466 2.856 5.904 5.832 6.357 10.54.486 5.056-2.53 10.54-8.096 10.94 0 0-16.517.942-16.572 0s.49-2.68 3.586-2.735 3.804.11 3.804.11-5.45-1.872-4.945-8.803c.38-5.216 5-6.112 5-6.112-1.467-6.14-4.78-16.328-4.78-16.328l3.423-1.25"/><path d="M-50.56 205.955c-2.475 9.626-11.51 9.57-12.824 9.513-1.323.056-10.35.113-12.824-9.513 0 0 2.484-1.453 2.768-4.456.277-2.987 3.255-10.033 10.056-7.995 6.802-2.038 9.78 5.008 10.057 7.995.285 3.003 2.768 4.456 2.768 4.456"/></g><path d="M-50.56 205.955c-2.475 9.626-11.51 9.57-12.824 9.513-1.323.056-10.35.113-12.824-9.513 0 0 5.202 2.938 8.344.78 3.14-2.167 4.48-2.427 4.48-2.427s1.34.26 4.48 2.427c3.14 2.16 8.343-.78 8.343-.78" class="G"/><path d="M-63.477 205.836s-1.682-1.356-1.138-1.8 2.228-.4 2.364.072-.672 1.74-1.225 1.74m-4.414-3.988a.801.801 0 1 1-1.603 0 .801.801 0 1 1 1.603 0" class="B"/><path d="M-62.612 208.24l-.13.8c-.122.192-.642.082-.642.082l-.617-.08c-.052-.018-.13-.34-.217-.73.627-.782.79-2.086.826-2.417.052.383.05 1.595.78 2.343" class="C"/><g class="E"><path d="M-60.27 208.74c-.073.08-.165.14-.26.196-.1.04-.198.1-.308.115l-.163.034-.167.001-.168-.001-.163-.035c-.108-.024-.22-.04-.32-.096l-.302-.14c-.1-.066-.182-.112-.27-.2-.092-.077-.16-.17-.226-.25s-.136-.165-.188-.268l-.16-.295c-.085-.203-.168-.405-.222-.616a5.5 5.5 0 0 1-.137-.636 5.15 5.15 0 0 1-.059-.645h0l-.002-.088.016.086v.001l.135.628c.05.207.108.413.18.612l.1.298.13.288c.044.095.1.18.15.268.044.09.114.173.182.257s.128.168.2.23c.06.07.167.133.242.188l.278.14c.09.055.19.077.3.107l.15.044.154.012.155.01.155-.02c.106-.002.203-.045.305-.074.096-.044.193-.088.278-.155"/><path d="M-66.496 208.74s.064.054.192.114a1.05 1.05 0 0 0 .238.087c.092.033.205.028.32.048.118-.018.248 0 .378-.048.13-.04.27-.07.4-.147l.2-.102c.056-.02.123-.1.186-.132l.096-.074.074-.085c.047-.06.104-.1.145-.173.09-.136.197-.267.257-.407l.106-.204.086-.212c.114-.28.196-.552.26-.787l.132-.576.043-.222-.008.225-.07.593c-.048.242-.102.528-.21.82-.05.147-.11.3-.19.448-.07.157-.17.283-.26.42-.05.074-.115.134-.173.2l-.09.096-.097.073c-.07.047-.115.1-.207.14l-.22.1c-.14.078-.296.1-.437.13-.14.04-.284.012-.41.02-.124-.027-.242-.038-.334-.084-.095-.038-.175-.076-.234-.12-.123-.078-.175-.143-.175-.143"/></g><path d="M-57.823 201.85a.8.8 0 1 1-1.603 0 .8.8 0 0 1 1.603 0" class="B"/><path d="M-58.136 201.53c0 .098-.08.177-.177.177s-.176-.08-.176-.177.08-.176.176-.176.177.08.177.176m-10.034 0c0 .098-.08.177-.176.177s-.176-.08-.176-.177.08-.176.176-.176.176.08.176.176m4.456 2.653c0 .07-.08.126-.177.126s-.176-.056-.176-.126.08-.127.176-.127.177.056.177.127" class="C"/><path d="M-62.003 215.477s-5.886 1.818-8.428 8.05c-1.783 4.373.586 4.6 1.91 4.47s3.23-3.4 3.23-3.4 10.654.38 10.92-1.838-7.63-7.27-7.63-7.27" class="E"/></g><path d="M148.315 166.976s-11.216 6.85-18.665-2.37c0 0-12.417 2.634-15.213-7.11 0 0-14.902-1.052-14.282-10.8 0 0-18.005-7.374-6.207-21.335 0 0-11.488-8.692 1.55-18.437 0 0-9.933-12.642 7.452-16.33 0 0 1.554-15.015 18.938-11.59 0 0 4.655-12.643 21.42-7.902 0 0 15.06-9.5 23.595 3.162 0 0 16.457-1.844 19.558 9.746 0 0 15.834 1.844 14.28 15.277 0 0 12.156 9.482 4.392 20.807 0 0 7.74 18.862-9.05 20.545 0 0 .536 8.353-9.4 12.04 0 0-1.777 10.085-12.33 8.502 0 0-8.073 7.64-13.97 3.426z" fill="#b4cb34"/><path d="M200.743 99.286c1.554-13.432-14.28-15.277-14.28-15.277 7.882 28.962-11.373 66.02-41.29 69.32s-45.02-6.632-45.02-6.632c-.62 9.747 14.283 10.8 14.283 10.8 2.795 9.745 15.212 7.1 15.212 7.1 7.45 9.22 18.665 2.37 18.665 2.37l12.07-2.37c5.897 4.215 13.97-3.426 13.97-3.426 10.553 1.583 12.33-8.502 12.33-8.502 9.937-3.688 9.4-12.04 9.4-12.04 16.79-1.683 9.05-20.546 9.05-20.546 7.763-11.325-4.393-20.807-4.393-20.807" fill="#aab72c"/><path d="M129.65 142.678s17.383 1.532 18.626 9.187-1.862 69.403-1.862 69.403h18.627s-8.073-69.405-5.278-74.435 11.797-7.873 11.797-7.873-10.247-.218-13.66 2.407-7.763 3.28-12.42 2.626-9.312-1.75-15.83-1.314" fill="#695020"/><g transform="matrix(.94858 0 0 .94858 190.36886 65.865553)"><path d="M-44.037 165.1c6.114-10.984-26.45-3.336-41.157-15.313-9.175-7.468-11.634-16.29-11.497-23.84.17-9.705 4.622-17.322 4.622-17.322 1.115 4.652 2.747 8.253 4.76 11.055 12.874 17.938 41.34 3.098 49.678 21.19 7.512 16.302-6.406 24.232-6.406 24.232" fill="#f04f00"/><g fill="#ff5e00"><path d="M-59.708 141.714s-7.485-1.498-9.232 7.236-.584 12.105-.584 12.105-4.72 1.68-4.407 3.677 22.77.036 22.77.036.498-14.695-3.37-26.547-13.63-19.556-13.63-19.556 8.67 12.695 8.453 23.05"/><path d="M-73.083 121.3l.74 16.513s16.085 10.957 23.128 8.14c3.24-1.296 7.138 4.884 6.95 2.162-.397-5.75-4.665-15.405-5.933-17.814-2.348-4.46-9.47-13.696-9.47-13.696l-15.887 4.46"/></g><path d="M-57.044 148.95c-1.747 8.733 4.693 13.395 4.693 13.395s-10.007 1.185-9.695 3.18 18-.424 18-.424 5.65-8.148 1.78-20-13.042-4.884-14.788 3.85m-8.456-6.996c-.814 3.926-.834 8.672-1.826 12.667l-2.607 10.168c-.322 1.302-5.332 1.644-5.904.44-.326-.68 1.365-1.55 2.176-2.163 0 0 .56-.504.642-.732.92-2.623 1.06-6.947.986-11.608-.145-9.035-2.125-19.374.244-21.017 3.594-2.498 8.162 3.197 6.3 12.245" fill="#ff7719"/><path d="M-67.326 154.62l-2.607 10.168c-.322 1.302-5.33 1.644-5.904.44-.326-.68 1.365-1.55 2.176-2.163 0 0 .56-.504.642-.732.92-2.623 1.06-6.947.986-11.608.645-1.45 1.396-2.72 1.897-2.27.742.666 2.14 3.603 2.81 6.164" class="D"/><path d="M-58.886 142.7c-.814 3.926-1.9 8.474-2.892 12.47l-2.608 10.167c-.323 1.302-5.33 1.644-5.904.442-.326-.68 1.365-1.55 2.176-2.163 0 0 .56-.504.642-.733.92-2.623 1.06-6.946.986-11.607-.144-9.035-1.095-19.344 1.274-20.987 3.594-2.498 8.2 3.366 6.327 12.412" fill="#ff7719"/><path d="M-61.78 155.17l-2.608 10.167c-.323 1.302-5.33 1.644-5.904.442-.326-.68 1.365-1.55 2.176-2.163 0 0 .56-.504.642-.732.92-2.624 1.06-6.947.986-11.608.645-1.45 1.397-2.72 1.897-2.27.743.667 2.142 3.603 2.812 6.164" class="D"/><path d="M-74.986 120.828s-2.106 13.7 8.224 20.734c0 0 17.45-8.813 12.105-24.245z" fill="#ffc286"/><path d="M-71.12 103.932s-4.483-7.617-5.912-5.95-2.14 4.84-1.07 6.625 4.84 1.35 6.982-.675" class="D"/><path d="M-51.962 113.756c-.13.29-5.04 10.788-21.12 7.544-5-1.008-7.4-3.15-8.55-4.896-.413-.798-.764-1.668-1.05-2.614v-.006c-.004-.01-.006-.02-.01-.028.122-.113 1.997-1.89 3.315-4.633 1.73-3.593 4.078-8.43 12.048-8.314 7.422-.742 11.017 5.206 12.05 8.314.99 2.98 3.315 4.633 3.315 4.633" fill="#ff5e00"/><path d="M-64.715 103.735s4.482-7.616 5.91-5.95 2.142 4.84 1.07 6.625-4.84 1.35-6.982-.675" class="D"/><path d="M-51.962 113.756c-.13.29-5.04 10.788-21.12 7.544-5-1.008-7.4-3.15-8.55-4.896-.87-1.315-1.027-2.404-1.05-2.614v-.006c-.004-.022-.004-.03-.004-.03s3.052-.225 5.454-3.722 5.557 1.813 5.44 7.08c0 0 1.706-8.145 5.413-8.606s7.182 6.94 14.416 5.25" fill="#ffd09b"/><path d="M-71.865 118.664s-1.695-1.226-1.33-1.54 3.13-.183 2.843.208-1.513 1.33-1.513 1.33m6.525-6.432a.711.711 0 1 1-1.422 0 .711.711 0 1 1 1.422 0" class="B"/><path d="M-65.618 111.945c0 .087-.07.156-.157.156s-.157-.07-.157-.156.07-.156.157-.156.157.07.157.156" class="C"/><path d="M-73.844 112.102a.71.71 0 1 1-1.422 0 .71.71 0 1 1 1.422 0" class="B"/><path d="M-74.122 111.816c0 .087-.07.157-.157.157s-.157-.07-.157-.157.07-.157.157-.157.157.07.157.157" class="C"/><path d="M-87.31 119.68l-1.94 4.026-1.02-1.36c-2.805 4.166-2.04 8.247-2.04 8.247-2.213-1.547-3.563-3.183-4.383-4.645.17-9.705 4.622-17.322 4.622-17.322 1.115 4.652 2.747 8.253 4.76 11.055" fill="#ffc286"/><path d="M-54.834 162.71s-2.576.534-4.233 0-4.3 2.045-3.017 3.263 9.478 0 9.478 0 .816-3.197-2.227-3.263" class="D"/></g><g transform="matrix(-.399842 0 0 .445927 102.98293 124.52733)"><path d="M-100.028 195.023a18.93 18.93 0 0 1-.423 1.94l-1.627 4.977c-3.097 7.9-6.156 7.744-6.156 7.744l-.826-6.43 1.704-.4s.102-.452.102-1.175c0-.794-.116-1.92-.617-3.133-.328-.794-.822-1.626-1.556-2.427-1.023-1.118-2.508-2.177-4.66-2.99-.998-.377-2.138-.702-3.44-.956-.007 0-.018-.004-.025-.004h-.004l-6.83-1.485-3.58-.974c-2.477-.75-4.572-1.58-6.346-2.56-1.34-.74-2.494-1.57-3.493-2.515-2.635-2.505-4.15-5.842-5.006-10.612 0 0 2.558 2.043 7.497 3.302 1.468.374 3.143.677 5.024.84 1.704.145 3.577.173 5.62.025.183-.007.37-.02.56-.04a40.19 40.19 0 0 1 4.389-.138c2.42.06 4.72.353 6.837.86 1.8.434 3.49 1.03 4.995 1.778 2.854 1.415 5.104 3.372 6.49 5.817 1.362 2.4 1.898 5.267 1.37 8.555" fill="#b9b9b9"/><path d="M-130.3 178.163c-.24 2.684-1.2 6.047-4.022 8.985-1.34-.74-2.494-1.57-3.493-2.515 1.094-1.842 2.16-4.315 2.5-7.3a31.27 31.27 0 0 0 5.024.84m10.57-.16c.007 3.253-.758 8.234-4.664 12.672-1.274-.3-2.466-.635-3.58-.974 1.436-2.177 3.514-6.27 3.295-11.52a11.25 11.25 0 0 0 .561-.039c1.496-.127 2.963-.173 4.4-.138m11.83 2.637c-.24 3.418-1.503 8.407-6.198 12.478a21.23 21.23 0 0 0-3.44-.956c-.007 0-.018-.004-.025-.004 1.55-1.827 4.942-6.618 4.667-13.296 1.8.434 3.5 1.03 4.995 1.778m7.86 14.373c-1.965 1.312-4.576 2.66-7.842 3.524-.328-.794-.822-1.626-1.556-2.427 2.54-1.57 6.15-4.572 8.03-9.652 1.362 2.4 1.898 5.267 1.37 8.555m-2.052 6.917c-3.097 7.9-6.156 7.743-6.156 7.743l-.826-6.43 1.704-.4s.102-.452.102-1.175c1.002.388 2.692.726 5.175.26m-29.105 28.38s1.002 4.498 5.6 6.35c0 0 2.403.617 2.462 1.03s-4.78 2.175-4.036 3.704 12.268-2.146 12.327-5.54-2.822-16.016-7.056-15.4-9.307 9.485-9.307 9.485" class="F"/><path d="M-146.012 226.633s16.67 10.738 30.78 2.58-3.087-18.05-9.613-15.925-21.52 13.344-21.52 13.344" fill="#dadada"/><path d="M-158.1 226.114s1.466 8.23 0 9.878-4.202 2.705-2.63 4.292 6.514.798 7.82-3.116l2.7-9.52-7.356-2.064m1.524-31.454s4.65-7.9 6.132-6.173 2.223 5.02 1.1 6.872-5.02 1.4-7.243-.7m-7.895 1.49s-6.868-6.073-7.742-3.97-.56 5.462 1.07 6.88 5.208-.224 6.67-2.908" class="F"/><path d="M-107.354 202.855c-4.814-4.266-14.97-4.625-20.844.415-15.08 12.938-22.724 2.052-22.724 2.052s-10.906 9.194-10.995 14.397 10.042 13.72 10.936 16.404c.94 2.822-1.08 3.104-1.68 3.97-1.905 2.734 2.622 2.734 2.622 2.734 9.35.062 4.057-17.756 13.582-17.286 4.19.207 8.86-.734 10.19-.777 0 0-.304 2.443-.253 3.26.47 7.5 8.555 6.707 10.453 7.854 4.364 2.635-5.295 4.7-3.95 7.056 1.215 2.127 9.61-1.222 10.903-2.515s4.174-2.587 1.447-5.527 1.248-6.638 1.248-6.638c13.955-15.722-.933-25.395-.933-25.395" fill="#b9b9b9"/><path d="M-138.008 201.652c-.046.907-.162 1.774-.34 2.607-.744 3.507-2.586 6.38-4.79 8.67l-1.55 1.468c-4.378 3.814-9.454 5.616-10.39 5.768-.963.244-7.003.833-12.972-1.02-.62-.194-1.238-.413-1.852-.66-3.006-1.214-5.856-3.143-7.863-6.152-.374-.557-.716-1.15-1.027-1.785 0 0 4.103-3.574 5.584-7.147 2.452-5.913 5-10.142 12.446-10.83 6.604-1.842 11.374 3.18 14.482 5.45 3.06 2.233 8.27 3.63 8.27 3.63" class="E"/><path d="M-144.686 214.398c-4.378 3.814-9.454 5.616-10.39 5.768-.963.243-7.003.833-12.972-1.02 1.4-3.14 3.164-6.565 5.08-8.795 3.19-3.715 5.002-4.21 5.002-4.21s1.887-.314 6.258 1.89c2.946 1.49 5.295 3.993 7.02 6.364" fill="#dadada"/><path d="M-138.347 204.26c-.744 3.507-2.586 6.382-4.8 8.67-1.923-1.764-6.78-6.075-11.47-8.004-5.913-2.435-1.55-8.68 5.486-4.435 4.332 2.614 8.336 3.485 10.774 3.768m-23.94 2.47c-3.627 3.567-6.505 9.416-7.613 11.758-3.006-1.213-5.856-3.143-7.863-6.152 2.138-1.15 5.613-3.482 8.72-7.642 4.914-6.6 11.3-2.448 6.756 2.036" class="F"/><path d="M-157.686 208.088s-2.464-1.268-1.9-1.98 2.698-1.066 2.988-.52-.394 2.36-1.1 2.502m-5.195-4.133a1.03 1.03 0 0 1-.799 1.215 1.03 1.03 0 0 1-1.215-.8 1.03 1.03 0 0 1 .8-1.215 1.03 1.03 0 0 1 1.214.8" class="B"/><path d="M-152.906 210.9c-.035.06-.083.1-.126.165l-.152.143c-.116.076-.224.172-.358.22l-.196.083-.207.043-.2.04-.212-.004c-.14-.004-.286.005-.42-.04l-.412-.1c-.14-.057-.258-.093-.386-.18-.133-.07-.242-.17-.346-.252a1.74 1.74 0 0 1-.303-.288l-.275-.326-.442-.7a6.95 6.95 0 0 1-.342-.758 6.96 6.96 0 0 1-.25-.79h0l-.027-.1.04.105.323.758a6.96 6.96 0 0 0 .379.727l.213.35.235.332c.08.108.176.2.263.3.08.104.2.188.297.276s.205.18.315.24c.098.074.244.125.358.175l.4.1c.13.045.262.045.396.056l.2.016.198-.026.2-.03.2-.067c.133-.032.243-.114.363-.177.108-.082.218-.164.306-.272m-7.843 1.6s.093.054.27.098a1.39 1.39 0 0 0 .322.053c.124.02.266-.014.418-.018l.23-.065c.08-.02.162-.043.237-.1.155-.084.325-.156.47-.286l.23-.18c.07-.043.134-.145.202-.216l.102-.118.072-.13c.045-.087.104-.168.14-.26.078-.193.18-.385.22-.58l.08-.287.052-.3c.04-.2.053-.38.077-.556s.024-.347.036-.504l.008-.76-.01-.3.043.286.058.762-.007.512c-.013.182-.015.375-.054.57l-.048.3-.08.307c-.044.213-.138.398-.213.595-.043.103-.1.194-.163.3l-.086.14-.104.116c-.076.076-.12.156-.222.226l-.246.185c-.152.135-.34.202-.5.28-.082.044-.17.065-.257.08l-.247.053c-.162-.001-.3.017-.44-.015-.13-.022-.24-.047-.325-.085-.175-.064-.26-.13-.26-.13" class="F"/><path d="M-163.233 203.665c.025.123-.053.242-.176.268s-.242-.054-.267-.176.053-.242.176-.267.242.053.267.176" class="C"/><path d="M-152.927 201.936c.115.557-.243 1.1-.8 1.214s-1.1-.243-1.214-.8a1.03 1.03 0 0 1 .799-1.215 1.03 1.03 0 0 1 1.214.8" class="B"/><path d="M-153.404 201.613c.025.123-.053.242-.176.268s-.242-.054-.267-.176.054-.242.176-.267.243.053.268.176m-5.01 4.46c.018.087-.067.18-.2.204s-.236-.025-.254-.112.067-.18.2-.205.237.025.255.113" class="C"/></g><g transform="matrix(.372236 .032566 -.032566 .372236 183.69848 79.166132)"><path d="M-81.613 173.844s21.068 1.164 18.61-17.87c-2.453-18.983-17.088-25.888-8.973-41.392 0 0-22.372 1.81-22.827 24.776-.49 24.816 10.004 29.414 10.004 29.414l2.463 6.085" class="H"/><path d="M-106.045 156.52c0 3.826-2.092 6.926-4.673 6.926s-4.673-3.1-4.673-6.926 2.092-6.926 4.673-6.926 4.673 3.1 4.673 6.926" class="I"/><path d="M-105.704 153.34c0 1.503-2.407.724-5.177.724s-4.85.78-4.85-.724 2.245-4.555 5.014-4.555 5.014 3.052 5.014 4.555" class="H"/><use xlink:href="#B" x="-36.213" y="-65.663" class="I"/><path d="M-103.49 142.837l-1.685 14.073c-.955 7.958-3.695 14.725 2.228 19.723 7.474 6.308 17.822-.652 16.083-7.39s-9.754-23.034-9.754-23.034z" fill="#ffb169"/><path d="M-99.474 126.488s-1.203-4.097-.75-7.473-2.184-.854-3.146 4.203c-.603 3.17-1.957 4.57-1.957 4.57zm3.957.615s2.4-3.54 2.983-6.893 2.34-.15 1.722 4.96c-.387 3.203.478 4.948.478 4.948z" class="I"/><path d="M-91.538 145.227s.978 8.378 7.824 14.018c3.466 2.856 5.904 5.832 6.357 10.54.486 5.056-2.53 10.54-8.096 10.94 0 0-16.518.942-16.572 0s.49-2.68 3.586-2.735 3.804.11 3.804.11-5.45-1.872-4.945-8.803c.38-5.216 5-6.112 5-6.112-1.467-6.14-4.782-16.328-4.782-16.328l3.423-1.25" fill="#dd7952"/><path d="M-86.024 142.447c-4.203 9.78-13.755 8.236-15.137 7.96-1.4-.158-10.972-1.582-12.01-12.177 0 0 2.868-1.13 3.662-4.26.784-3.116 5.095-10.083 11.958-6.808 7.534-1.038 9.528 6.908 9.33 10.116-.193 3.225 2.196 5.17 2.196 5.17" fill="#dd7b51"/><path d="M-108.87 157.018s3.8.326 6.843-3.043 4.252-6.944 7.94-4.233 2.005 9.587-3.917 11.23-12.008-.803-13.15-2.54.526-3.28 1.214-2.735c.994.788 1.07 1.323 1.07 1.323" fill="#dd7952"/><path d="M-86.024 142.447c-4.203 9.78-13.755 8.236-15.137 7.96-1.4-.158-10.972-1.582-12.01-12.177 0 0 5.023 3.966 8.703 2.197 3.68-1.777 5.14-1.83 5.14-1.83s1.374.495 4.343 3.305c2.97 2.802 8.96.548 8.96.548" fill="#ffb169"/><path d="M-99.654 140.1s-1.454-1.598-.847-1.964 2.26-.043 2.324.434-.93 1.615-1.477 1.53m-3.748-4.624a.801.801 0 1 1-1.584-.246.801.801 0 1 1 1.584.246" class="B"/><path d="M-99.168 142.6l-.25.772c-.15.17-.647-.018-.647-.018l-.598-.172c-.05-.025-.077-.355-.103-.755.74-.677 1.102-1.94 1.187-2.26-.008.386-.196 1.583.41 2.435" class="C"/><g fill="#dd7b51"><path d="M-96.932 143.453c-.084.068-.185.114-.286.154-.105.025-.21.067-.322.067l-.167.008-.165-.024-.165-.028-.156-.06c-.103-.04-.213-.074-.3-.143l-.278-.184c-.1-.08-.163-.138-.236-.238-.08-.09-.133-.193-.185-.282s-.11-.184-.144-.294l-.114-.316c-.053-.213-.104-.426-.124-.643a5.48 5.48 0 0 1-.038-.649 5.2 5.2 0 0 1 .041-.646h0l.012-.087.002.087v.001l.037.64a5.41 5.41 0 0 0 .084.632l.063.31.084.304c.03.1.073.192.108.29.03.096.086.188.14.282s.1.186.163.258c.048.078.145.157.21.223l.253.18c.08.068.177.105.27.15l.14.067.15.036.152.035.156.004c.105.014.207-.014.313-.026.102-.03.204-.057.3-.1"/><path d="M-103.082 142.498a.89.89 0 0 0 .173.142c.056.044.132.083.222.123.086.046.198.06.31.096.12 0 .246.038.38.01.135-.02.277-.027.416-.085l.215-.07c.058-.01.135-.07.204-.102l.107-.058.086-.073c.056-.05.12-.093.17-.15.11-.12.236-.234.316-.363l.136-.186.118-.196a6.35 6.35 0 0 0 .376-.738l.22-.55.077-.212-.043.222-.16.575c-.085.232-.182.506-.334.78-.07.138-.154.278-.257.413-.092.145-.21.253-.32.376-.06.065-.134.114-.2.17l-.103.08-.107.056c-.077.036-.128.08-.226.105l-.232.066c-.15.056-.307.053-.452.063-.145.017-.282-.03-.407-.043-.12-.046-.233-.075-.318-.134-.088-.053-.16-.102-.213-.154-.1-.096-.15-.17-.15-.17"/></g><path d="M-110.392 149.22s.065-2.554-1.15-2.527.633 1.196.715 2.527.435.11.435.11" class="H"/><path d="M-93.455 137.02a.8.8 0 1 1-1.584-.246.8.8 0 1 1 1.584.246" class="B"/><path d="M-93.715 136.655c-.015.096-.105.162-.2.147s-.162-.105-.147-.2.105-.162.202-.147.162.105.147.2m-9.917-1.54c-.015.096-.105.162-.2.147s-.163-.105-.147-.2.105-.162.2-.147.162.105.147.2m3.996 3.305c-.01.07-.097.113-.194.097s-.166-.083-.155-.15.097-.113.194-.098.166.083.155.152" class="C"/></g></g></svg>