<?xml version="1.0" encoding="UTF-8"?>
<svg viewBox="0 0 85.602676 121.61824" xmlns="http://www.w3.org/2000/svg">
 <g transform="translate(-21.558 -2)" fill-rule="evenodd">
  <path d="m64.359 2c-20.072 0-36.231 16.159-36.231 36.231v40.257h10.064v-40.257c0-14.496 11.67-26.167 26.167-26.167s26.167 11.67 26.167 26.167v40.257h10.064v-40.257c0-20.072-16.159-36.231-36.231-36.231z"/>
  <path d="m22.05779,57.35913h84.60268a.5,.5 0 0,1 .5.5v65.25911a.5,.5 0 0,1 -.5.5h-84.60268a.5,.5 0 0,1 -.5-.5v-65.25911a.5,.5 0 0,1 .5-.5"/>
 </g>
</svg>
