<?xml version="1.0" encoding="UTF-8" standalone="no"?>
<svg
   xmlns:dc="http://purl.org/dc/elements/1.1/"
   xmlns:cc="http://creativecommons.org/ns#"
   xmlns:rdf="http://www.w3.org/1999/02/22-rdf-syntax-ns#"
   xmlns:svg="http://www.w3.org/2000/svg"
   xmlns="http://www.w3.org/2000/svg"
   xmlns:sodipodi="http://sodipodi.sourceforge.net/DTD/sodipodi-0.dtd"
   xmlns:inkscape="http://www.inkscape.org/namespaces/inkscape"
   viewBox="0 0 141.5322 136.61824"
   id="svg2"
   version="1.1"
   inkscape:version="0.48.5 r10040"
   width="100%"
   height="100%"
   sodipodi:docname="unlock-red.svg">
  <metadata
     id="metadata14">
    <rdf:RDF>
      <cc:Work
         rdf:about="">
        <dc:format>image/svg+xml</dc:format>
        <dc:type
           rdf:resource="http://purl.org/dc/dcmitype/StillImage" />
        <dc:title></dc:title>
      </cc:Work>
    </rdf:RDF>
  </metadata>
  <defs
     id="defs12" />
  <sodipodi:namedview
     pagecolor="#ffffff"
     bordercolor="#666666"
     borderopacity="1"
     objecttolerance="10"
     gridtolerance="10"
     guidetolerance="10"
     inkscape:pageopacity="0"
     inkscape:pageshadow="2"
     inkscape:window-width="1536"
     inkscape:window-height="801"
     id="namedview10"
     showgrid="false"
     inkscape:zoom="2.442971"
     inkscape:cx="-36.127834"
     inkscape:cy="57.217723"
     inkscape:window-x="-8"
     inkscape:window-y="-8"
     inkscape:window-maximized="1"
     inkscape:current-layer="g4" />
  <g
     transform="translate(-7.1987 -4.1909)"
     fill-rule="evenodd"
     id="g4">
    <path
       inkscape:connector-curvature="0"
       d="m 50.004391,18.976697 c -20.072,0 -36.231,16.159 -36.231,36.231 v 40.257 h 10.064 v -40.257 c 0,-14.496 11.67,-26.167 26.167,-26.167 14.497,0 26.167,11.67 26.167,26.167 v 40.257 h 10.064 v -40.257 c 0,-20.072 -16.159,-36.231 -36.231,-36.231 z"
       id="path6-7"
       style="fill:#55aa55;fill-opacity:1" />
    <path
       d="m 7.7031807,74.335827 80.6026803,0 c 0.2618,0 4.5,-0.0133 4.5,4.5 l 0,57.259103 c 0,4.49789 -4.2382,4.5 -4.5,4.5 0,0 -49.73512,0 -76.60268,0 -0.2618,0 -4.5000003,-0.0932 -4.5000003,-4.5 0,-20.4197 0,-57.259103 0,-57.259103 0,-4.42956 4.2382003,-4.5 4.5000003,-4.5"
       id="path8"
       inkscape:connector-curvature="0"
       sodipodi:nodetypes="csssssssc"
       style="fill:#55aa55;fill-opacity:1" />
  </g>
</svg>
