<?xml version="1.0" encoding="UTF-8" standalone="no"?>
<svg
   xmlns:dc="http://purl.org/dc/elements/1.1/"
   xmlns:cc="http://creativecommons.org/ns#"
   xmlns:rdf="http://www.w3.org/1999/02/22-rdf-syntax-ns#"
   xmlns:svg="http://www.w3.org/2000/svg"
   xmlns="http://www.w3.org/2000/svg"
   xmlns:sodipodi="http://sodipodi.sourceforge.net/DTD/sodipodi-0.dtd"
   xmlns:inkscape="http://www.inkscape.org/namespaces/inkscape"
   viewBox="0 0 85.602676 121.61824"
   id="svg2"
   version="1.1"
   inkscape:version="0.48.5 r10040"
   width="100%"
   height="100%"
   sodipodi:docname="lock-green.svg">
  <metadata
     id="metadata14">
    <rdf:RDF>
      <cc:Work
         rdf:about="">
        <dc:format>image/svg+xml</dc:format>
        <dc:type
           rdf:resource="http://purl.org/dc/dcmitype/StillImage" />
        <dc:title></dc:title>
      </cc:Work>
    </rdf:RDF>
  </metadata>
  <defs
     id="defs12" />
  <sodipodi:namedview
     pagecolor="#ffffff"
     bordercolor="#666666"
     borderopacity="1"
     objecttolerance="10"
     gridtolerance="10"
     guidetolerance="10"
     inkscape:pageopacity="0"
     inkscape:pageshadow="2"
     inkscape:window-width="1536"
     inkscape:window-height="801"
     id="namedview10"
     showgrid="false"
     inkscape:zoom="1.9404984"
     inkscape:cx="-137.31484"
     inkscape:cy="68.487286"
     inkscape:window-x="-8"
     inkscape:window-y="-8"
     inkscape:window-maximized="1"
     inkscape:current-layer="g4" />
  <g
     transform="translate(-21.558 -2)"
     fill-rule="evenodd"
     id="g4">
    <path
       d="m64.359 2c-20.072 0-36.231 16.159-36.231 36.231v40.257h10.064v-40.257c0-14.496 11.67-26.167 26.167-26.167s26.167 11.67 26.167 26.167v40.257h10.064v-40.257c0-20.072-16.159-36.231-36.231-36.231z"
       id="path6"
       style="fill:#ff9900;fill-opacity:1" />
    <path
       d="m 22.05779,57.35913 80.60268,0 c 0.2618,0 4.5,-0.01328 4.5,4.5 l 0,57.25911 c 0,4.49789 -4.2382,4.5 -4.5,4.5 0,0 -49.73512,0 -76.60268,0 -0.261799,0 -4.5,-0.0932 -4.5,-4.5 0,-20.4197 0,-57.25911 0,-57.25911 0,-4.42956 4.238201,-4.5 4.5,-4.5"
       id="path8"
       inkscape:connector-curvature="0"
       sodipodi:nodetypes="csssssssc"
       style="fill:#ff9900;fill-opacity:1" />
  </g>
</svg>
