<?xml version="1.0" encoding="UTF-8" standalone="no"?>
<!-- Created with Inkscape (http://www.inkscape.org/) -->

<svg
   xmlns:dc="http://purl.org/dc/elements/1.1/"
   xmlns:cc="http://creativecommons.org/ns#"
   xmlns:rdf="http://www.w3.org/1999/02/22-rdf-syntax-ns#"
   xmlns:svg="http://www.w3.org/2000/svg"
   xmlns="http://www.w3.org/2000/svg"
   xmlns:sodipodi="http://sodipodi.sourceforge.net/DTD/sodipodi-0.dtd"
   xmlns:inkscape="http://www.inkscape.org/namespaces/inkscape"
   width="253"
   height="253"
   id="svg4149"
   version="1.1"
   inkscape:version="0.48.5 r10040"
   sodipodi:docname="logo-crown2.svg">
  <defs
     id="defs4151">
    <clipPath
       id="c"
       clipPathUnits="userSpaceOnUse">
      <path
         inkscape:connector-curvature="0"
         d="m 20427.9,881.301 -2865,3.398 62.2,82.703 2802.8,-19.101 v -67 m 0,340.099 h -2611.7 l 49.8,66.2 h 371.2 v 387.8 l -80.6,-1.5 24.7,32.7 496.4,-3.4 c -28,-45.7 -44.2,-99.4 -44.2,-157 0,-163.9 131.3,-297.2 294.5,-300.4 29.3,-9.6 60.6,-14.8 93.2,-14.8 166,0 300.5,134.6 300.5,300.6 0,62 -18.8,119.7 -51,167.6 l 923.4,-6.3 c -22.7,-48.1 -36,-106.2 -36,-168.7 0,-166 93.7,-300.5 209.2,-300.5 21.1,0 41.4,4.5 60.6,12.8 v -15.1 m -857.5,456.7 v -380.5 h 380.5 v 387.8 l -7.3,-7.3 7.3,7.3 -380.5,-7.3 m 857.5,286.3 h -2052.7 l 283.2,376.4 1769.5,17.5 v -393.9 m -685.7,14.8 c 10.9,-3.5 22.6,-5.5 34.7,-5.5 61.9,0 112,50.2 112,112 0,61.1 -48.9,110.7 -109.7,111.9 -10.9,3.6 -22.6,5.5 -34.7,5.5 -61.9,0 -112,-50.1 -112,-111.9 0,-61.1 48.9,-110.7 109.7,-112"
         id="path13" />
    </clipPath>
  </defs>
  <sodipodi:namedview
     id="base"
     pagecolor="#ffffff"
     bordercolor="#666666"
     borderopacity="1.0"
     inkscape:pageopacity="0.0"
     inkscape:pageshadow="2"
     inkscape:zoom="0.7"
     inkscape:cx="-271.68985"
     inkscape:cy="9.0208332"
     inkscape:document-units="px"
     inkscape:current-layer="layer1"
     showgrid="false"
     fit-margin-top="1"
     fit-margin-left="1"
     fit-margin-right="1"
     fit-margin-bottom="1"
     inkscape:window-width="1920"
     inkscape:window-height="1017"
     inkscape:window-x="-8"
     inkscape:window-y="1072"
     inkscape:window-maximized="1" />
  <metadata
     id="metadata4154">
    <rdf:RDF>
      <cc:Work
         rdf:about="">
        <dc:format>image/svg+xml</dc:format>
        <dc:type
           rdf:resource="http://purl.org/dc/dcmitype/StillImage" />
        <dc:title></dc:title>
      </cc:Work>
    </rdf:RDF>
  </metadata>
  <g
     inkscape:label="Layer 1"
     inkscape:groupmode="layer"
     id="layer1"
     transform="translate(-150.94477,-381.14375)">
    <g
       transform="matrix(1.25,0,0,-1.25,103.26841,967.36591)"
       id="g4105">
      <g
         transform="translate(161.0415,288.0728)"
         id="g20">
        <path
           inkscape:connector-curvature="0"
           id="path22"
           style="fill:#ac5d3d;fill-opacity:1;fill-rule:nonzero;stroke:none"
           d="m 0,0 c 0,0 59.721,-3.3 52.749,50.653 -6.954,53.81 -48.437,73.384 -25.436,117.331 0,0 -63.417,-5.134 -64.706,-70.232 -1.392,-70.344 28.357,-83.377 28.357,-83.377 l 6.983,-17.25" />
      </g>
      <g
         transform="translate(91.7842,337.1763)"
         id="g24">
        <path
           inkscape:connector-curvature="0"
           id="path26"
           style="fill:#c06846;fill-opacity:1;fill-rule:nonzero;stroke:none"
           d="m 0,0 c 0,-10.844 -5.93,-19.634 -13.246,-19.634 -7.316,0 -13.245,8.79 -13.245,19.634 0,10.842 5.929,19.632 13.245,19.632 C -5.93,19.632 0,10.842 0,0" />
      </g>
      <g
         transform="translate(92.7505,346.1899)"
         id="g28">
        <path
           inkscape:connector-curvature="0"
           id="path30"
           style="fill:#ac5d3d;fill-opacity:1;fill-rule:nonzero;stroke:none"
           d="m 0,0 c 0,-4.26 -6.824,-2.053 -14.674,-2.053 -7.849,0 -13.751,-2.207 -13.751,2.053 0,4.261 6.364,12.912 14.213,12.912 C -6.362,12.912 0,4.261 0,0" />
      </g>
      <g
         transform="translate(104.7583,369.1904)"
         id="g32">
        <path
           inkscape:connector-curvature="0"
           id="path34"
           style="fill:#c06846;fill-opacity:1;fill-rule:nonzero;stroke:none"
           d="m 0,0 c 0,0 2.773,-23.749 22.179,-39.737 9.824,-8.096 16.737,-16.532 18.02,-29.88 1.378,-14.331 -7.17,-29.878 -22.949,-31.009 0,0 -46.822,-2.67 -46.976,0 -0.154,2.67 1.386,7.598 10.165,7.752 8.779,0.154 10.782,-0.308 10.782,-0.308 0,0 -15.448,5.307 -14.016,24.952 1.078,14.785 14.17,17.324 14.17,17.324 -4.159,17.405 5.046,44.437 5.046,44.437 l -8.897,5.391" />
      </g>
      <g
         transform="translate(99.0234,375.9673)"
         id="g36">
        <path
           inkscape:connector-curvature="0"
           id="path38"
           style="fill:#ffb169;fill-opacity:1;fill-rule:nonzero;stroke:none"
           d="M 0,0 C 0,0 -2.28,-19.107 -4.775,-39.891 -7.482,-62.45 -15.248,-81.63 1.54,-95.8 c 21.186,-17.882 50.519,1.848 45.59,20.946 -4.929,19.099 -27.649,65.293 -27.649,65.293 L 0,0 z" />
      </g>
      <g
         transform="translate(110.4106,422.3096)"
         id="g40">
        <path
           inkscape:connector-curvature="0"
           id="path42"
           style="fill:#c06846;fill-opacity:1;fill-rule:nonzero;stroke:none"
           d="m 0,0 c 0,0 -3.41,11.614 -2.13,21.184 1.28,9.57 -6.191,2.421 -8.918,-11.915 -1.708,-8.983 -5.547,-12.956 -5.547,-12.956 L 0,0 z" />
      </g>
      <g
         transform="translate(121.6274,420.5669)"
         id="g44">
        <path
           inkscape:connector-curvature="0"
           id="path46"
           style="fill:#c06846;fill-opacity:1;fill-rule:nonzero;stroke:none"
           d="m 0,0 c 0,0 6.773,10.032 8.457,19.539 1.685,9.507 6.634,0.428 4.882,-14.06 -1.097,-9.078 1.355,-14.027 1.355,-14.027 L 0,0 z" />
      </g>
      <g
         transform="translate(132.9077,369.1904)"
         id="g48">
        <path
           inkscape:connector-curvature="0"
           id="path50"
           style="fill:#dd7952;fill-opacity:1;fill-rule:nonzero;stroke:none"
           d="m 0,0 c 0,0 2.773,-23.749 22.179,-39.737 9.824,-8.096 16.737,-16.532 18.02,-29.88 1.378,-14.331 -7.17,-29.878 -22.949,-31.009 0,0 -46.822,-2.67 -46.976,0 -0.154,2.67 1.386,7.598 10.165,7.752 8.779,0.154 10.782,-0.308 10.782,-0.308 0,0 -15.448,5.307 -14.016,24.952 1.078,14.785 14.17,17.324 14.17,17.324 -4.159,17.405 -13.554,46.285 -13.554,46.285 l 9.703,3.543" />
      </g>
      <g
         transform="translate(148.5356,377.0708)"
         id="g52">
        <path
           inkscape:connector-curvature="0"
           id="path54"
           style="fill:#dd7b51;fill-opacity:1;fill-rule:nonzero;stroke:none"
           d="m 0,0 c -11.914,-27.726 -38.99,-23.345 -42.908,-22.562 -3.996,0.447 -31.101,4.484 -34.04,34.518 0,0 8.129,3.201 10.38,12.078 2.221,8.833 14.442,28.581 33.898,19.298 C -11.315,46.274 -5.662,23.749 -6.226,14.658 -6.773,5.517 0,0 0,0" />
      </g>
      <g
         transform="translate(83.7754,335.7681)"
         id="g56">
        <path
           inkscape:connector-curvature="0"
           id="path58"
           style="fill:#dd7952;fill-opacity:1;fill-rule:nonzero;stroke:none"
           d="m 0,0 c 0,0 10.771,-0.925 19.397,8.625 8.626,9.551 12.052,19.684 22.511,11.998 10.459,-7.685 5.684,-27.176 -11.104,-31.831 -16.788,-4.656 -34.038,2.275 -37.273,7.204 -3.234,4.928 1.49,9.297 3.44,7.753 C -0.21,1.516 0,0 0,0" />
      </g>
      <g
         transform="translate(148.5356,377.0708)"
         id="g60">
        <path
           inkscape:connector-curvature="0"
           id="path62"
           style="fill:#ffb169;fill-opacity:1;fill-rule:nonzero;stroke:none"
           d="m 0,0 c -11.914,-27.726 -38.99,-23.345 -42.908,-22.562 -3.996,0.447 -31.101,4.484 -34.04,34.518 0,0 14.239,-11.241 24.669,-6.227 10.434,5.037 14.573,5.191 14.573,5.191 0,0 3.896,-1.402 12.31,-9.368 C -16.978,-6.39 0,0 0,0" />
      </g>
      <g
         transform="translate(109.9019,383.7529)"
         id="g64">
        <path
           inkscape:connector-curvature="0"
           id="path66"
           style="fill:#1a0200;fill-opacity:1;fill-rule:nonzero;stroke:none"
           d="M 0,0 C 0,0 -4.121,4.529 -2.401,5.568 -0.681,6.607 4.009,5.689 4.188,4.337 4.368,2.984 1.549,-0.241 0,0" />
      </g>
      <g
         transform="translate(99.2773,396.833)"
         id="g68">
        <path
           inkscape:connector-curvature="0"
           id="path70"
           style="fill:#1a0200;fill-opacity:1;fill-rule:nonzero;stroke:none"
           d="m 0,0 c -0.193,-1.24 -1.354,-2.089 -2.593,-1.896 -1.241,0.192 -2.089,1.354 -1.897,2.594 0.193,1.239 1.354,2.089 2.594,1.896 C -0.656,2.401 0.192,1.24 0,0" />
      </g>
      <g
         transform="translate(111.2783,376.6382)"
         id="g72">
        <path
           inkscape:connector-curvature="0"
           id="path74"
           style="fill:#ffffff;fill-opacity:1;fill-rule:nonzero;stroke:none"
           d="m 0,0 c -0.295,-0.776 -0.586,-2.034 -0.71,-2.188 -0.425,-0.484 -1.835,0.051 -1.835,0.051 0,0 -1.369,0.338 -1.694,0.488 -0.139,0.072 -0.219,1.005 -0.292,2.14 2.095,1.919 3.125,5.5 3.366,6.41 C -1.141,6.898 -1.141,6.898 -1.12,6.869 -1.187,5.807 -1.72,2.413 0,0" />
      </g>
      <g
         transform="translate(117.6177,374.2187)"
         id="g76">
        <path
           inkscape:connector-curvature="0"
           id="path78"
           style="fill:#dd7b51;fill-opacity:1;fill-rule:nonzero;stroke:none"
           d="M 0,0 C -0.238,-0.193 -0.523,-0.322 -0.811,-0.437 -1.109,-0.509 -1.409,-0.628 -1.724,-0.626 L -2.196,-0.65 c -0.156,0.015 -0.311,0.046 -0.467,0.068 l -0.469,0.078 -0.441,0.169 c -0.293,0.115 -0.603,0.209 -0.85,0.405 L -5.21,0.591 c -0.254,0.228 -0.463,0.39 -0.669,0.676 -0.225,0.257 -0.376,0.548 -0.525,0.799 -0.156,0.261 -0.309,0.522 -0.409,0.833 -0.108,0.299 -0.241,0.595 -0.323,0.896 -0.149,0.604 -0.296,1.207 -0.352,1.823 -0.074,0.611 -0.107,1.227 -0.108,1.84 -0.001,0.613 0.042,1.226 0.117,1.832 l 0,-10e-4 0.033,0.247 0.007,-0.247 0,-0.002 C -7.425,8.678 -7.395,8.072 -7.333,7.469 -7.287,6.867 -7.21,6.266 -7.094,5.677 -7.027,5.384 -6.992,5.084 -6.916,4.795 L -6.678,3.933 C -6.596,3.648 -6.472,3.389 -6.373,3.115 -6.29,2.842 -6.128,2.581 -5.974,2.317 -5.815,2.042 -5.687,1.79 -5.511,1.585 -5.374,1.364 -5.101,1.141 -4.913,0.954 L -4.196,0.44 C -3.967,0.247 -3.694,0.143 -3.43,0.015 l 0.399,-0.19 0.426,-0.101 c 0.143,-0.032 0.286,-0.072 0.43,-0.098 l 0.441,-0.012 c 0.298,-0.04 0.588,0.039 0.886,0.074 C -0.56,-0.23 -0.269,-0.15 0,0" />
      </g>
      <g
         transform="translate(100.1826,376.9277)"
         id="g80">
        <path
           inkscape:connector-curvature="0"
           id="path82"
           style="fill:#dd7b51;fill-opacity:1;fill-rule:nonzero;stroke:none"
           d="M 0,0 C 0,0 0.155,-0.181 0.489,-0.402 0.647,-0.527 0.864,-0.638 1.117,-0.75 1.36,-0.881 1.679,-0.918 1.994,-1.023 2.332,-1.024 2.69,-1.13 3.073,-1.054 c 0.382,0.056 0.784,0.076 1.18,0.24 0.201,0.064 0.404,0.13 0.61,0.197 0.163,0.029 0.384,0.199 0.577,0.289 l 0.302,0.165 0.245,0.206 c 0.158,0.144 0.339,0.263 0.481,0.421 0.309,0.342 0.668,0.663 0.896,1.029 0.13,0.177 0.259,0.352 0.386,0.526 0.113,0.188 0.225,0.374 0.335,0.557 0.442,0.732 0.79,1.46 1.067,2.093 0.265,0.638 0.488,1.173 0.62,1.557 0.138,0.382 0.217,0.601 0.217,0.601 0,0 -0.045,-0.228 -0.123,-0.628 C 9.772,5.803 9.642,5.232 9.415,4.568 9.175,3.911 8.899,3.133 8.468,2.359 8.266,1.968 8.032,1.57 7.739,1.189 7.479,0.777 7.142,0.472 6.833,0.122 6.662,-0.062 6.452,-0.202 6.262,-0.363 L 5.971,-0.593 5.667,-0.753 C 5.449,-0.854 5.304,-0.981 5.026,-1.052 4.804,-1.115 4.584,-1.177 4.368,-1.239 3.945,-1.399 3.497,-1.389 3.086,-1.417 c -0.411,-0.048 -0.8,0.089 -1.153,0.121 -0.336,0.129 -0.661,0.212 -0.9,0.381 -0.25,0.149 -0.457,0.29 -0.604,0.437 C 0.117,-0.206 0,0 0,0" />
      </g>
      <g
         transform="translate(79.4629,357.8701)"
         id="g84">
        <path
           inkscape:connector-curvature="0"
           id="path86"
           style="fill:#ac5d3d;fill-opacity:1;fill-rule:nonzero;stroke:none"
           d="M 0,0 C 0,0 0.183,7.239 -3.258,7.162 -6.7,7.085 -1.463,3.773 -1.232,0 -1.001,-3.773 0.001,-0.308 0.001,-0.308" />
      </g>
      <g
         transform="translate(127.4736,392.4521)"
         id="g88">
        <path
           inkscape:connector-curvature="0"
           id="path90"
           style="fill:#1a0200;fill-opacity:1;fill-rule:nonzero;stroke:none"
           d="m 0,0 c -0.193,-1.24 -1.354,-2.089 -2.594,-1.896 -1.24,0.192 -2.089,1.354 -1.896,2.594 0.193,1.239 1.354,2.089 2.594,1.896 C -0.656,2.401 0.192,1.24 0,0" />
      </g>
      <g
         transform="translate(126.7358,393.4897)"
         id="g92">
        <path
           inkscape:connector-curvature="0"
           id="path94"
           style="fill:#ffffff;fill-opacity:1;fill-rule:nonzero;stroke:none"
           d="m 0,0 c -0.042,-0.273 -0.298,-0.46 -0.571,-0.417 -0.274,0.042 -0.46,0.297 -0.418,0.571 0.043,0.273 0.298,0.46 0.572,0.417 C -0.144,0.529 0.042,0.273 0,0" />
      </g>
      <g
         transform="translate(98.6313,397.8564)"
         id="g96">
        <path
           inkscape:connector-curvature="0"
           id="path98"
           style="fill:#ffffff;fill-opacity:1;fill-rule:nonzero;stroke:none"
           d="m 0,0 c -0.042,-0.273 -0.298,-0.46 -0.571,-0.417 -0.274,0.042 -0.461,0.297 -0.418,0.571 0.042,0.273 0.298,0.46 0.571,0.417 C -0.144,0.529 0.042,0.273 0,0" />
      </g>
      <g
         transform="translate(109.9565,388.4863)"
         id="g100">
        <path
           inkscape:connector-curvature="0"
           id="path102"
           style="fill:#ffffff;fill-opacity:1;fill-rule:nonzero;stroke:none"
           d="m 0,0 c -0.03,-0.195 -0.276,-0.319 -0.55,-0.276 -0.273,0.042 -0.47,0.234 -0.439,0.429 0.03,0.197 0.276,0.32 0.549,0.278 C -0.166,0.388 0.031,0.196 0,0" />
      </g>
    </g>
    <g
       id="g4809"
       transform="matrix(0.44442615,0.06586212,-0.06586212,0.44442615,163.68492,238.85007)">
      <path
         id="path731"
         d="m 208.84862,400.07423 c 0,0 -3.32405,0.88561 -3.98414,-5.51228 -0.65487,-6.39529 4.14347,-13.75456 4.14347,-13.75456 0,0 5.84832,8.05115 6.65783,11.01206 1.76375,6.46392 -3.10321,8.17138 -3.10321,8.17138 l -3.71413,0.0834 m 85.83715,8.7e-4 c 0,0 3.33673,0.83818 3.9082,-5.56563 0.56887,-6.40675 -4.3299,-13.69774 -4.3299,-13.69774 0,0 -5.7399,8.12934 -6.50736,11.10119 -1.67393,6.48825 3.21685,8.12951 3.21685,8.12951 l 3.71221,0.0327"
         inkscape:connector-curvature="0"
         style="fill:#e2b33d" />
      <path
         id="path733"
         d="M 328.29618,455.68616 H 174.42834 v -28.8668 h 153.86749 v 28.8668"
         inkscape:connector-curvature="0"
         style="fill:#e8cc42" />
      <path
         id="path735"
         d="M 330.40327,450.48264 H 172.36851 v -2.67752 h 158.03476 v 2.67752"
         inkscape:connector-curvature="0"
         style="fill:#f4d347" />
      <path
         id="path737"
         d="m 174.42852,450.48594 v 2.59585 l 153.86749,1.05276 v -3.64861 H 174.42852"
         inkscape:connector-curvature="0"
         style="fill:#e2b33d" />
      <path
         id="path739"
         d="M 330.40327,436.9769 H 172.36851 v -2.67752 h 158.03476 v 2.67752"
         inkscape:connector-curvature="0"
         style="fill:#f4d347" />
      <path
         id="path741"
         d="m 174.42852,436.97916 v 2.59585 l 153.86749,1.05277 v -3.64862 H 174.42852"
         inkscape:connector-curvature="0"
         style="fill:#e2b33d" />
      <path
         id="path743"
         d="M 251.36,426.82109 V 363.399 c 0,0 -5.11474,22.74501 -11.45547,37.97907 -8.69368,20.88638 -18.58782,25.44302 -17.49457,25.44302 H 251.36 m 0.0259,-0.003 v -63.42088 c 0,0 5.11856,22.74449 11.45721,37.97993 8.69542,20.88673 18.59025,25.44077 17.49544,25.44077 H 251.3859 m -76.9565,7e-4 -10.84908,-64.51517 c 0,0 10.38464,23.90064 19.94273,40.45816 15.58973,26.99846 20.95398,24.05701 19.86073,24.05701 H 174.4294 m 153.88069,0.001 10.85012,-64.51378 c 0,0 -8.69629,24.99666 -19.941,40.45763 -17.01849,23.40041 -20.95276,24.05597 -19.8609,24.05597 h 28.95178"
         inkscape:connector-curvature="0"
         style="fill:#e8cc42" />
      <path
         id="path745"
         d="m 194.63396,426.82179 c 0,0 4.93369,0.654 8.91731,-3.93826 3.98361,-4.59227 6.17236,-31.27241 6.17236,-31.27241 0,0 5.87404,21.12355 9.84097,27.55602 5.26295,8.53071 14.3997,8.79794 14.3997,8.79794 l -39.33034,-1.14329 m 113.47832,0.45888 c 0,0 -4.9422,0.57199 -8.84867,-4.087 -3.90664,-4.65898 -5.63913,-31.3744 -5.63913,-31.3744 0,0 -6.23596,21.02087 -10.30905,27.38471 -5.40577,8.44052 -14.546,8.55155 -14.546,8.55155 l 39.34268,-0.47486 m -43.99471,-69.50863 -12.63838,11.91957 -11.91973,-11.91957 11.91973,-12.63854 12.63838,12.63854"
         inkscape:connector-curvature="0"
         style="fill:#e8cc42" />
      <path
         id="path747"
         d="m 260.32161,357.65876 -8.73017,8.23741 -8.2348,-8.23759 8.2348,-8.72999 8.73017,8.73017"
         inkscape:connector-curvature="0"
         style="fill:#f2501d" />
      <path
         id="path749"
         d="m 251.59144,348.92859 -1.16814,1.23694 7.49045,7.49323 -7.49045,7.06927 1.16814,1.16553 8.73017,-8.2348 -8.73017,-8.73017"
         inkscape:connector-curvature="0"
         style="fill:#c13d1a" />
      <path
         id="path751"
         d="m 249.96894,363.39952 h -0.008 c -0.16332,-0.0526 -5.2513,-5.88046 -5.09076,-5.98836 0.15794,-0.10529 5.55138,-5.80158 5.55138,-5.80158 -0.005,0.0528 0.93982,1.16883 0.93982,1.16883 l -4.32746,4.63275 3.87727,4.31426 c 0,0 -0.76607,1.6741 -0.94243,1.6741"
         inkscape:connector-curvature="0"
         style="fill:#f9a88e" />
      <path
         id="path753"
         d="m 170.32884,355.2542 -5.10692,14.00268 -11.53453,-8.95987 4.4133,-14.54426 12.22815,9.50145"
         inkscape:connector-curvature="0"
         style="fill:#e8cc42" />
      <path
         id="path755"
         d="m 167.72395,355.92767 -3.52717,9.67121 -7.96722,-6.18905 3.04552,-10.04704 8.44887,6.56488"
         inkscape:connector-curvature="0"
         style="fill:#f2501d" />
      <path
         id="path757"
         d="m 159.27508,349.36279 -0.43125,1.42355 7.25015,5.63357 -3.02971,8.30326 1.13251,0.87571 3.52717,-9.67382 -8.44887,-6.56227"
         inkscape:connector-curvature="0"
         style="fill:#c13d1a" />
      <path
         id="path759"
         d="m 162.3703,363.54617 h -0.003 c -0.12614,-0.0184 -5.26294,-4.55057 -5.18667,-4.68453 0.0789,-0.13413 2.07929,-6.69293 2.07929,-6.69293 0.0132,0.0525 0.97545,0.92523 0.97545,0.92523 l -1.58792,5.32342 3.87762,3.33326 c 0,0 -0.0316,1.79555 -0.15516,1.79555"
         inkscape:connector-curvature="0"
         style="fill:#f9a88e" />
      <path
         id="path761"
         d="m 332.05218,355.16229 5.10692,14.00198 11.53609,-8.95848 -4.41417,-14.54339 -12.22884,9.50006"
         inkscape:connector-curvature="0"
         style="fill:#e8cc42" />
      <path
         id="path763"
         d="m 334.65898,355.83523 3.52769,9.67364 7.96705,-6.1913 -3.049,-10.04687 -8.44557,6.56436"
         inkscape:connector-curvature="0"
         style="fill:#f2501d" />
      <path
         id="path765"
         d="m 343.10646,349.26914 0.4342,1.42511 -7.25102,5.63444 3.02972,8.29891 -1.13165,0.88006 -3.52682,-9.67295 8.44557,-6.56557"
         inkscape:connector-curvature="0"
         style="fill:#c13d1a" />
      <path
         id="path767"
         d="m 340.01454,363.45287 c -0.12024,0 -0.15325,-1.7966 -0.15325,-1.7966 l 3.87589,-3.33517 -1.58636,-5.32098 c 0,0 0.96137,-0.87432 0.97336,-0.92541 0,0 2.0011,6.55584 2.08224,6.69119 0.0751,0.13518 -5.06574,4.6689 -5.18893,4.68697 h -0.003"
         inkscape:connector-curvature="0"
         style="fill:#f9a88e" />
      <path
         id="path769"
         d="m 186.43113,442.53575 -5.58786,5.27059 -5.27042,-5.27059 5.27042,-5.59013 5.58786,5.59013"
         inkscape:connector-curvature="0"
         style="fill:#fff250" />
      <path
         id="path771"
         d="m 184.7539,442.48484 -3.86198,3.64184 -3.64184,-3.64184 3.64184,-3.85956 3.86198,3.85956"
         inkscape:connector-curvature="0"
         style="fill:#f2501d" />
      <path
         id="path773"
         d="m 180.89192,438.62528 -0.51657,0.54663 3.31519,3.31293 -3.31519,3.12528 0.51657,0.51656 3.86198,-3.64184 -3.86198,-3.85956"
         inkscape:connector-curvature="0"
         style="fill:#c13d1a" />
      <path
         id="path775"
         d="m 180.17606,445.02388 h -0.005 c -0.0695,-0.0231 -2.32133,-2.60159 -2.25183,-2.64798 0.0719,-0.0462 2.45581,-2.56684 2.45581,-2.56684 0,0.0255 0.41701,0.51656 0.41701,0.51656 l -1.91371,2.05028 1.71216,1.90675 c 0,0 -0.3383,0.74123 -0.41475,0.74123"
         inkscape:connector-curvature="0"
         style="fill:#f9a88e" />
      <path
         id="path777"
         d="m 180.84327,447.80634 h 2.28657 l 5.1408,-5.03186 -5.09215,-5.79636 -2.33522,-0.0325 5.58786,5.59013 -5.58786,5.27059 m -5.27042,-5.27059 c 0,0 1.27412,3.00017 1.67723,3.14387 0.40536,0.14126 2.11977,2.12672 2.30968,2.12672 h 1.28351 l -5.27042,-5.27059"
         inkscape:connector-curvature="0"
         style="fill:#e2b33d" />
      <path
         id="path779"
         d="m 214.4377,442.53575 -5.5903,5.27059 -5.27042,-5.27059 5.27042,-5.59013 5.5903,5.59013"
         inkscape:connector-curvature="0"
         style="fill:#fff250" />
      <path
         id="path781"
         d="m 212.75804,442.48484 -3.85956,3.64184 -3.64184,-3.64184 3.64184,-3.85956 3.85956,3.85956"
         inkscape:connector-curvature="0"
         style="fill:#f2501d" />
      <path
         id="path783"
         d="m 208.89848,438.62528 -0.51673,0.54663 3.31293,3.31293 -3.31293,3.12528 0.51673,0.51656 3.85956,-3.64184 -3.85956,-3.85956"
         inkscape:connector-curvature="0"
         style="fill:#c13d1a" />
      <path
         id="path785"
         d="m 208.18019,445.02388 h -0.002 c -0.0718,-0.0231 -2.32358,-2.60159 -2.25182,-2.64798 0.0695,-0.0462 2.45564,-2.56684 2.45564,-2.56684 -0.002,0.0255 0.41474,0.51656 0.41474,0.51656 l -1.91353,2.05028 1.71424,1.90675 c 0,0 -0.33812,0.74123 -0.41701,0.74123"
         inkscape:connector-curvature="0"
         style="fill:#f9a88e" />
      <path
         id="path787"
         d="m 208.8474,447.80634 h 2.28658 l 5.1408,-5.03186 -5.09215,-5.79636 -2.33523,-0.0325 5.5903,5.59013 -5.5903,5.27059 m -5.27042,-5.27059 c 0,0 1.27412,3.00017 1.67966,3.14387 0.40537,0.14126 2.11734,2.12672 2.30743,2.12672 h 1.28333 l -5.27042,-5.27059"
         inkscape:connector-curvature="0"
         style="fill:#e2b33d" />
      <path
         id="path789"
         d="m 242.44009,442.53644 -5.58734,5.27181 -5.27164,-5.27163 5.27164,-5.58995 5.58734,5.58977"
         inkscape:connector-curvature="0"
         style="fill:#fff250" />
      <path
         id="path791"
         d="m 240.76339,442.48692 -3.86147,3.64185 -3.64184,-3.64185 3.64184,-3.86164 3.86164,3.86164"
         inkscape:connector-curvature="0"
         style="fill:#f2501d" />
      <path
         id="path793"
         d="m 236.90435,438.62303 -0.51778,0.54818 3.31345,3.31345 -3.31345,3.12407 0.51778,0.51778 3.85904,-3.64185 -3.85904,-3.86163"
         inkscape:connector-curvature="0"
         style="fill:#c13d1a" />
      <path
         id="path795"
         d="m 236.18711,445.02179 h -0.002 c -0.0726,-0.0233 -2.32498,-2.60089 -2.25252,-2.64763 0.0724,-0.0469 2.45598,-2.56597 2.45598,-2.56597 -0.002,0.0235 0.41388,0.51691 0.41388,0.51691 l -1.91318,2.04906 1.71441,1.90866 c 0,0 -0.33917,0.73897 -0.41631,0.73897"
         inkscape:connector-curvature="0"
         style="fill:#f9a88e" />
      <path
         id="path797"
         d="m 236.8564,447.80408 h 2.28484 l 5.14167,-5.02977 -5.09406,-5.79776 -2.33245,-0.0309 5.58786,5.58787 -5.58786,5.27059 m -5.27181,-5.27094 c 0,0 1.27256,3.00122 1.6774,3.14404 0.40467,0.14265 2.11943,2.12881 2.30882,2.12881 h 1.28437 l -5.27059,-5.27285"
         inkscape:connector-curvature="0"
         style="fill:#e2b33d" />
      <path
         id="path799"
         d="m 270.44457,442.53592 -5.58716,5.27164 -5.27164,-5.27164 5.27164,-5.5896 5.58716,5.5896"
         inkscape:connector-curvature="0"
         style="fill:#fff250" />
      <path
         id="path801"
         d="m 268.76787,442.48779 -3.86095,3.64028 -3.64288,-3.64028 3.64288,-3.86112 3.86095,3.86112"
         inkscape:connector-curvature="0"
         style="fill:#f2501d" />
      <path
         id="path803"
         d="m 264.90692,438.62667 -0.51708,0.54767 3.31588,3.31345 -3.31588,3.12319 0.51708,0.51709 3.86095,-3.64028 -3.86095,-3.86112"
         inkscape:connector-curvature="0"
         style="fill:#c13d1a" />
      <path
         id="path805"
         d="m 264.19141,445.02405 h -0.005 c -0.0704,-0.0226 -2.32254,-2.60107 -2.25235,-2.64642 0.0704,-0.0478 2.45564,-2.56597 2.45564,-2.56597 0,0.0226 0.41683,0.51466 0.41683,0.51466 l -1.91318,2.05131 1.71493,1.90572 c 0,0 -0.3416,0.7407 -0.41701,0.7407"
         inkscape:connector-curvature="0"
         style="fill:#f9a88e" />
      <path
         id="path807"
         d="m 264.86019,447.80426 h 2.28553 l 5.14167,-5.03169 -5.09302,-5.79602 -2.33418,-0.0332 5.5889,5.59133 -5.5889,5.26956 m -5.27147,-5.26938 c 0,0 1.27552,3.0007 1.6774,3.14144 0.40676,0.14299 2.11943,2.12933 2.31021,2.12933 h 1.28316 l -5.27077,-5.27077"
         inkscape:connector-curvature="0"
         style="fill:#e2b33d" />
      <path
         id="path809"
         d="m 298.45253,442.53488 -5.58925,5.27129 -5.27129,-5.27129 5.27129,-5.58943 5.58942,5.58943"
         inkscape:connector-curvature="0"
         style="fill:#fff250" />
      <path
         id="path811"
         d="m 296.77235,442.48588 -3.86008,3.6408 -3.6408,-3.6408 3.6408,-3.86007 3.86008,3.86007"
         inkscape:connector-curvature="0"
         style="fill:#f2501d" />
      <path
         id="path813"
         d="m 292.91227,438.62581 -0.51708,0.54679 3.31328,3.31345 -3.31328,3.12632 0.51708,0.51431 3.86008,-3.6408 -3.86008,-3.86007"
         inkscape:connector-curvature="0"
         style="fill:#c13d1a" />
      <path
         id="path815"
         d="m 292.19398,445.02579 c 0,0 -0.003,0 -0.003,-0.003 -0.0698,-0.0214 -2.32307,-2.59933 -2.25079,-2.64764 0.0698,-0.0457 2.4546,-2.56458 2.4546,-2.56458 0,0.0242 0.41579,0.51779 0.41579,0.51779 l -1.91267,2.04679 1.71424,1.90728 c 0,0 -0.33812,0.74314 -0.41857,0.74314"
         inkscape:connector-curvature="0"
         style="fill:#f9a88e" />
      <path
         id="path817"
         d="m 292.86102,447.80756 h 2.28657 l 5.14028,-5.03134 -5.09128,-5.79532 -2.33557,-0.0327 5.59064,5.58786 -5.59064,5.27164"
         inkscape:connector-curvature="0"
         style="fill:#e2b33d" />
      <path
         id="path819"
         d="m 287.59459,442.53297 c 0,0 1.27187,3.00226 1.67949,3.14439 0.40519,0.14213 2.11682,2.12759 2.30743,2.12759 h 1.28229 l -5.26921,-5.27198"
         inkscape:connector-curvature="0"
         style="fill:#e2b33d" />
      <path
         id="path821"
         d="m 326.45702,442.53418 -5.58735,5.27251 -5.26955,-5.27251 5.26955,-5.58751 5.58735,5.58751"
         inkscape:connector-curvature="0"
         style="fill:#fff250" />
      <path
         id="path823"
         d="m 324.78048,442.48571 -3.86337,3.64167 -3.6415,-3.64167 3.6415,-3.86043 3.86337,3.86043"
         inkscape:connector-curvature="0"
         style="fill:#f2501d" />
      <path
         id="path825"
         d="m 320.91711,438.62528 -0.51518,0.54698 3.31345,3.31345 -3.31345,3.12354 0.51518,0.51813 3.86337,-3.64167 -3.86337,-3.86043"
         inkscape:connector-curvature="0"
         style="fill:#c13d1a" />
      <path
         id="path827"
         d="m 320.19969,445.02388 c -0.0742,-0.0257 -2.32342,-2.60055 -2.252,-2.64903 0.0712,-0.0457 2.45476,-2.56614 2.45476,-2.56614 -0.003,0.0257 0.41666,0.51674 0.41666,0.51674 l -1.91527,2.0494 1.71268,1.90676 c 0,0 -0.33691,0.74227 -0.41683,0.74227"
         inkscape:connector-curvature="0"
         style="fill:#f9a88e" />
      <path
         id="path829"
         d="m 320.86828,447.80599 h 2.28554 l 5.14219,-5.02907 -5.09285,-5.79776 -2.3347,-0.0318 5.5889,5.58891 -5.5889,5.2699 m -5.27008,-5.27008 c 0,0 1.27048,3.00035 1.67584,3.14318 0.40537,0.14265 2.12099,2.12672 2.30934,2.12672 h 1.28472 l -5.2699,-5.2699 m -123.49129,0.54871 c 0,1.07275 -0.86876,1.93908 -1.93907,1.93908 -1.07032,0 -1.93682,-0.86633 -1.93682,-1.93908 0,-1.07031 0.8665,-1.93664 1.93682,-1.93664 1.07031,0 1.93907,0.86633 1.93907,1.93664"
         inkscape:connector-curvature="0"
         style="fill:#e2b33d" />
      <path
         id="path831"
         d="m 191.18968,442.70724 c 0,0.97301 -0.79005,1.76306 -1.76306,1.76306 -0.97527,0 -1.76532,-0.79005 -1.76532,-1.76306 0,-0.97527 0.79005,-1.76306 1.76532,-1.76306 0.97301,0 1.76306,0.78779 1.76306,1.76306"
         inkscape:connector-curvature="0"
         style="fill:#fff250" />
      <path
         id="path833"
         d="m 188.5556,443.20991 c -0.0742,0 -0.14839,-0.0184 -0.2132,-0.0556 -0.15759,-0.0879 -0.25246,-0.26167 -0.27331,-0.44011 -0.0186,-0.17844 0.0278,-0.35914 0.10651,-0.52126 0.1529,-0.31501 0.48425,-0.6533 0.82932,-0.75981 0.0556,-0.0186 0.12753,-0.0255 0.21094,-0.0255 0.28026,0 0.65087,0.10651 0.63697,0.37999 -0.007,0.0949 -0.0695,0.17601 -0.14595,0.23161 -0.0765,0.0556 -0.16437,0.0926 -0.24551,0.139"
         inkscape:connector-curvature="0"
         style="fill:#fffdde" />
      <path
         id="path835"
         d="m 197.3822,443.0848 c 0,1.07275 -0.8665,1.93908 -1.93681,1.93908"
         inkscape:connector-curvature="0"
         style="fill:#e2b33d" />
      <path
         id="path837"
         d="m 196.46479,442.70724 c 0,0.97301 -0.79005,1.76306 -1.76306,1.76306 -0.97527,0 -1.76306,-0.79005 -1.76306,-1.76306"
         inkscape:connector-curvature="0"
         style="fill:#fff250" />
      <path
         id="path839"
         d="m 193.83071,443.20991 c -0.0742,0 -0.14839,-0.0184 -0.21319,-0.0556 -0.1576,-0.0879 -0.25247,-0.26167 -0.27332,-0.44011 -0.0186,-0.17844 0.0301,-0.35914 0.10651,-0.52126 0.15291,-0.31501 0.48425,-0.6533 0.82932,-0.75981 0.0556,-0.0186 0.12979,-0.0255 0.21094,-0.0255 0.28026,0 0.65087,0.10651 0.63697,0.37999 -0.007,0.0949 -0.0695,0.17601 -0.14595,0.23161 -0.074,0.0556 -0.16211,0.0926 -0.24325,0.139"
         inkscape:connector-curvature="0"
         style="fill:#fffdde" />
      <path
         id="path841"
         d="m 202.65731,443.0848 c 0,1.07275 -0.8665,1.93908 -1.93681,1.93908 -1.07031,0 -1.93907,-0.86633 -1.93907,-1.93908 0,-1.07031 0.86876,-1.93664 1.93907,-1.93664 1.07031,0 1.93681,0.86633 1.93681,1.93664"
         inkscape:connector-curvature="0"
         style="fill:#e2b33d" />
      <path
         id="path843"
         d="m 201.7399,442.70724 c 0,0.97301 -0.79005,1.76306 -1.76306,1.76306 -0.97301,0 -1.76306,-0.79005 -1.76306,-1.76306 0,-0.97527 0.79005,-1.76306 1.76306,-1.76306 0.97301,0 1.76306,0.78779 1.76306,1.76306"
         inkscape:connector-curvature="0"
         style="fill:#fff250" />
      <path
         id="path845"
         d="m 199.10582,443.20991 c -0.0742,0 -0.14838,-0.0184 -0.21319,-0.0556 -0.15516,-0.0879 -0.25246,-0.26167 -0.27106,-0.44011 -0.0208,-0.17844 0.0278,-0.35914 0.10651,-0.52126 0.15291,-0.31501 0.48199,-0.6533 0.8295,-0.75981 0.0532,-0.0186 0.12736,-0.0255 0.2085,-0.0255 0.28026,0 0.65087,0.10651 0.63697,0.37999 -0.005,0.0949 -0.0695,0.17601 -0.14595,0.23161 -0.074,0.0556 -0.16211,0.0926 -0.24325,0.139"
         inkscape:connector-curvature="0"
         style="fill:#fffdde" />
      <path
         id="path847"
         d="m 220.11122,443.1868 c 0,1.07257 -0.86876,1.93907 -1.93907,1.93907 -1.07031,0 -1.93907,-0.8665 -1.93907,-1.93907 0,-1.07032 0.86876,-1.93682 1.93907,-1.93682 1.07031,0 1.93907,0.8665 1.93907,1.93682"
         inkscape:connector-curvature="0"
         style="fill:#e2b33d" />
      <path
         id="path849"
         d="m 219.19155,442.80923 c 0,0.97301 -0.78779,1.76289 -1.76306,1.76289 -0.97301,0 -1.76306,-0.78988 -1.76306,-1.76289 0,-0.97544 0.79005,-1.76306 1.76306,-1.76306"
         inkscape:connector-curvature="0"
         style="fill:#fff250" />
      <path
         id="path851"
         d="m 216.55747,443.3119 c -0.0742,0 -0.14838,-0.0186 -0.21319,-0.0556 -0.15516,-0.0881 -0.2502,-0.26185 -0.27105,-0.44012 -0.0208,-0.17844 0.0278,-0.35914 0.10651,-0.52125 0.1529,-0.31519 0.48198,-0.65331 0.82949,-0.75999 0.0532,-0.0184 0.12736,-0.0254 0.2085,-0.0254 0.28026,0 0.65331,0.10651 0.63698,0.37982 -0.005,0.095 -0.0695,0.17618 -0.14352,0.23179 -0.0764,0.0556 -0.16455,0.0926 -0.24569,0.139"
         inkscape:connector-curvature="0"
         style="fill:#fffdde" />
      <path
         id="path853"
         d="m 225.38633,443.1868 c 0,1.07257 -0.86876,1.93907 -1.93907,1.93907 -1.07031,0 -1.93907,-0.8665 -1.93907,-1.93907 0,-1.07032 0.86876,-1.93682 1.93907,-1.93682 1.07031,0 1.93907,0.8665 1.93907,1.93682"
         inkscape:connector-curvature="0"
         style="fill:#e2b33d" />
      <path
         id="path855"
         d="m 224.46666,442.80923 c 0,0.97301 -0.78779,1.76289 -1.76306,1.76289 -0.97301,0 -1.76306,-0.78988 -1.76306,-1.76289 0,-0.97544 0.79005,-1.76306 1.76306,-1.76306"
         inkscape:connector-curvature="0"
         style="fill:#fff250" />
      <path
         id="path857"
         d="m 221.83484,443.3119 c -0.0742,0 -0.15064,-0.0186 -0.21319,-0.0556 -0.15742,-0.0881 -0.25246,-0.26185 -0.27331,-0.44012 -0.0208,-0.17844 0.0278,-0.35914 0.10651,-0.52125 0.1529,-0.31519 0.48424,-0.65331 0.82949,-0.75999 0.0532,-0.0184 0.12736,-0.0254 0.2085,-0.0254 0.28026,0 0.65331,0.10651 0.63698,0.37982 -0.005,0.095 -0.0695,0.17618 -0.14352,0.23179 -0.0765,0.0556 -0.16455,0.0926 -0.24569,0.139"
         inkscape:connector-curvature="0"
         style="fill:#fffdde" />
      <path
         id="path859"
         d="m 230.66145,443.1868 c 0,1.07257 -0.86876,1.93907 -1.93908,1.93907 -1.07031,0 -1.93681,-0.8665 -1.93681,-1.93907 0,-1.07032 0.8665,-1.93682 1.93681,-1.93682 1.07032,0 1.93908,0.8665 1.93908,1.93682"
         inkscape:connector-curvature="0"
         style="fill:#e2b33d" />
      <path
         id="path861"
         d="m 229.74403,442.80923 c 0,0.97301 -0.79005,1.76289 -1.76532,1.76289 -0.97301,0 -1.76306,-0.78988 -1.76306,-1.76289 0,-0.97544 0.79005,-1.76306 1.76306,-1.76306 0.97527,0 1.76532,0.78762 1.76532,1.76306"
         inkscape:connector-curvature="0"
         style="fill:#fff250" />
      <path
         id="path863"
         d="m 227.10995,443.3119 c -0.0742,0 -0.14821,-0.0186 -0.21319,-0.0556 -0.15742,-0.0881 -0.25246,-0.26185 -0.27331,-0.44012 -0.0186,-0.17844 0.0278,-0.35914 0.10651,-0.52125 0.1529,-0.31519 0.48425,-0.65331 0.82949,-0.75999 0.0556,-0.0184 0.12736,-0.0254 0.21076,-0.0254 0.28026,0 0.65105,0.10651 0.63472,0.37982 -0.005,0.095 -0.0671,0.17618 -0.14352,0.23179 -0.0765,0.0556 -0.16454,0.0926 -0.24569,0.139"
         inkscape:connector-curvature="0"
         style="fill:#fffdde" />
      <path
         id="path865"
         d="m 248.18381,442.91262 c 0,1.06961 -0.86719,1.93664 -1.93681,1.93664 -1.06944,0 -1.93907,-0.86703 -1.93907,-1.93664 0,-1.07205 0.86963,-1.93908 1.93907,-1.93908 1.06962,0 1.93681,0.86703 1.93681,1.93908"
         inkscape:connector-curvature="0"
         style="fill:#e2b33d" />
      <path
         id="path867"
         d="m 247.26623,442.53175 c 0,0.97562 -0.79057,1.76376 -1.7641,1.76376 -0.97076,0 -1.7615,-0.78814 -1.7615,-1.76393 0,-0.97319 0.79057,-1.7615 1.7615,-1.7615 0.97335,0 1.7641,0.78831 1.7641,1.7615"
         inkscape:connector-curvature="0"
         style="fill:#fff250" />
      <path
         id="path869"
         d="m 244.63441,443.03546 c -0.0744,0 -0.14856,-0.0191 -0.2132,-0.0551 -0.15568,-0.0886 -0.25385,-0.26358 -0.27313,-0.44081 -0.0191,-0.17966 0.0288,-0.35915 0.10546,-0.51969 0.15569,-0.31849 0.48373,-0.65626 0.83106,-0.76156 0.0526,-0.0168 0.12684,-0.0264 0.2085,-0.0264 0.28009,0 0.6514,0.10773 0.63698,0.38087 -0.005,0.0957 -0.0695,0.17722 -0.14595,0.2323 -0.0744,0.0551 -0.16055,0.091 -0.24204,0.139"
         inkscape:connector-curvature="0"
         style="fill:#fffdde" />
      <path
         id="path871"
         d="m 253.46292,442.90966 c 0,1.0717 -0.86911,1.93838 -1.93838,1.93838 -1.0717,0 -1.94081,-0.86668 -1.94081,-1.93838 0,-1.06927 0.86911,-1.93838 1.94081,-1.93838 1.06927,0 1.93838,0.86911 1.93838,1.93838"
         inkscape:connector-curvature="0"
         style="fill:#e2b33d" />
      <path
         id="path873"
         d="M 252.54151,442.53245"
         inkscape:connector-curvature="0"
         style="fill:#fff250" />
      <path
         id="path875"
         d="M 249.909,443.03424"
         inkscape:connector-curvature="0"
         style="fill:#fffdde" />
      <path
         id="path877"
         d="m 258.73821,442.90897 c 0,1.07118 -0.86824,1.93942 -1.93908,1.93942 -1.07118,0 -1.93942,-0.86824 -1.93942,-1.93942 0,-1.06858 0.86824,-1.93682 1.93925,-1.93682 1.07101,0 1.93925,0.86824 1.93925,1.93682"
         inkscape:connector-curvature="0"
         style="fill:#e2b33d" />
      <path
         id="path879"
         d="m 257.8168,442.53331 c 0,0.97232 -0.7871,1.7622 -1.76202,1.7622 -0.97475,0 -1.76462,-0.78988 -1.76462,-1.7622 0,-0.97474 0.78987,-1.76462 1.76462,-1.76462 0.97475,0 1.76202,0.78988 1.76202,1.76462"
         inkscape:connector-curvature="0"
         style="fill:#fff250" />
      <path
         id="path881"
         d="M 255.18793,443.03355"
         inkscape:connector-curvature="0"
         style="fill:#fffdde" />
      <path
         id="path883"
         d="m 276.73179,443.18697 c 0,1.06979 -0.86806,1.93803 -1.93785,1.93803 -1.0724,0 -1.94064,-0.86824 -1.94064,-1.93803 0,-1.06962 0.86824,-1.93786 1.94064,-1.93786 1.06979,0 1.93803,0.86824 1.93803,1.93786"
         inkscape:connector-curvature="0"
         style="fill:#e2b33d" />
      <path
         id="path885"
         d="m 275.81056,442.80889 c 0,0.97474 -0.7864,1.76358 -1.76358,1.76358 -0.97197,0 -1.76359,-0.78884 -1.76359,-1.76358 0,-0.97458 0.79162,-1.76359 1.76359,-1.76359 0.97718,0 1.76358,0.78901 1.76358,1.76359"
         inkscape:connector-curvature="0"
         style="fill:#fff250" />
      <path
         id="path887"
         d="m 273.17926,443.31068 c -0.0747,0 -0.14908,-0.0181 -0.21076,-0.0539 -0.15673,-0.0876 -0.25194,-0.2648 -0.27245,-0.4422 -0.0231,-0.17723 0.0257,-0.35984 0.1053,-0.51917 0.15429,-0.31884 0.4832,-0.65539 0.83018,-0.76347 0.0514,-0.0153 0.12597,-0.0257 0.20833,-0.0257 0.28009,0 0.65279,0.10807 0.63733,0.38312 -0.005,0.0924 -0.0695,0.17462 -0.14387,0.23109 -0.0772,0.0566 -0.16454,0.0926 -0.24673,0.139"
         inkscape:connector-curvature="0"
         style="fill:#fffdde" />
      <path
         id="path889"
         d="m 282.00725,443.18819 c 0,1.06996 -0.86859,1.93855 -1.93872,1.93855 -1.06997,0 -1.93873,-0.86859 -1.93873,-1.93855 0,-1.07275 0.86876,-1.93873 1.93873,-1.93873 1.07013,0 1.93872,0.86598 1.93872,1.93873"
         inkscape:connector-curvature="0"
         style="fill:#e2b33d" />
      <path
         id="path891"
         d="m 281.08967,442.80732 c 0,0.97388 -0.7911,1.7648 -1.7648,1.7648 -0.97388,0 -1.7622,-0.79092 -1.7622,-1.7648"
         inkscape:connector-curvature="0"
         style="fill:#fff250" />
      <path
         id="path893"
         d="M 278.45246,443.31311"
         inkscape:connector-curvature="0"
         style="fill:#fffdde" />
      <path
         id="path895"
         d="m 287.28271,443.18784 c 0,1.07014 -0.86876,1.9389 -1.9389,1.9389 -1.07014,0 -1.93612,-0.86876 -1.93612,-1.9389 0,-1.07275 0.86598,-1.9389 1.93612,-1.9389 1.07014,0 1.9389,0.86615 1.9389,1.9389"
         inkscape:connector-curvature="0"
         style="fill:#e2b33d" />
      <path
         id="path897"
         d="m 286.36495,442.80819 c 0,0.97266 -0.79022,1.76306 -1.76289,1.76306 -0.97527,0 -1.76549,-0.7904 -1.76549,-1.76306 0,-0.97527 0.79022,-1.76289 1.76549,-1.76289 0.97267,0 1.76289,0.78762 1.76289,1.76289"
         inkscape:connector-curvature="0"
         style="fill:#fff250" />
      <path
         id="path899"
         d="m 283.7274,443.31277 c -0.0738,0 -0.14769,-0.0184 -0.21337,-0.0553 -0.15551,-0.0869 -0.25038,-0.26097 -0.2714,-0.44011 -0.0186,-0.17914 0.0262,-0.35828 0.10529,-0.5216 0.1529,-0.31623 0.48477,-0.65349 0.83001,-0.75895 0.0554,-0.0184 0.1291,-0.0264 0.21077,-0.0264 0.27939,0 0.65087,0.10807 0.63767,0.38225 -0.008,0.0921 -0.0712,0.17375 -0.14752,0.22918 -0.0765,0.0579 -0.16333,0.0921 -0.24499,0.13952"
         inkscape:connector-curvature="0"
         style="fill:#fffdde" />
      <path
         id="path901"
         d="m 304.73628,443.01218 c 0,1.06927 -0.86807,1.93733 -1.94012,1.93733 -1.06909,0 -1.93456,-0.86806 -1.93456,-1.93733 0,-1.07205 0.86529,-1.93995 1.93456,-1.93995 1.07205,0 1.94012,0.86807 1.94012,1.93995"
         inkscape:connector-curvature="0"
         style="fill:#e2b33d" />
      <path
         id="path903"
         d="m 303.81869,442.63218 c 0,0.97353 -0.78935,1.76567 -1.76288,1.76567 -0.97632,0 -1.7655,-0.79214 -1.7655,-1.76567 0,-0.97353 0.78918,-1.76289 1.7655,-1.76289 0.97353,0 1.76288,0.78936 1.76288,1.76289"
         inkscape:connector-curvature="0"
         style="fill:#fff250" />
      <path
         id="path905"
         d="m 301.18635,443.13537 c -0.074,0 -0.14804,-0.0191 -0.21389,-0.0549 -0.15638,-0.0877 -0.25229,-0.26323 -0.27418,-0.44133 -0.0165,-0.17844 0.0274,-0.35932 0.10685,-0.52126 0.1536,-0.31518 0.4853,-0.65243 0.83089,-0.75929"
         inkscape:connector-curvature="0"
         style="fill:#fffdde" />
      <path
         id="path907"
         d="m 310.01174,443.01148 c 0,1.07066 -0.86703,1.93786 -1.93786,1.93786 -1.07066,0 -1.93768,-0.86703 -1.93768,-1.93786 0,-1.07066 0.86702,-1.93768 1.93768,-1.93768 1.07066,0 1.93786,0.86702 1.93786,1.93768"
         inkscape:connector-curvature="0"
         style="fill:#e2b33d" />
      <path
         id="path909"
         d="m 309.09398,442.63322 c 0,0.97388 -0.79023,1.76411 -1.76411,1.76411 -0.97388,0 -1.76132,-0.79023 -1.76132,-1.76411 0,-0.97388 0.78744,-1.7641 1.76132,-1.7641 0.97388,0 1.76411,0.79022 1.76411,1.7641"
         inkscape:connector-curvature="0"
         style="fill:#fff250" />
      <path
         id="path911"
         d="m 306.45625,443.13815 c -0.0721,0 -0.147,-0.0193 -0.21076,-0.0554 -0.15534,-0.086 -0.25246,-0.26063 -0.27453,-0.44098 -0.0196,-0.17758 0.0304,-0.35793 0.10529,-0.51883 0.15534,-0.31623 0.48547,-0.65487 0.8295,-0.76294 0.0556,-0.0167 0.13031,-0.025 0.21093,-0.025 0.28009,0 0.65192,0.10824 0.63802,0.38277 -0.008,0.0916 -0.0693,0.1748 -0.147,0.2304 -0.0721,0.0554 -0.16089,0.0916 -0.24151,0.13865"
         inkscape:connector-curvature="0"
         style="fill:#fffdde" />
      <path
         id="path913"
         d="m 315.28702,443.01252 c 0,1.0691 -0.8658,1.93769 -1.93768,1.93769 -1.06892,0 -1.93768,-0.86876 -1.93768,-1.93769 0,-1.0717 0.86876,-1.94046 1.93768,-1.94046 1.07188,0 1.93768,0.86876 1.93768,1.94046"
         inkscape:connector-curvature="0"
         style="fill:#e2b33d" />
      <path
         id="path915"
         d="m 314.36944,442.63374 c 0,0.97388 -0.79092,1.7622 -1.7622,1.7622 -0.97666,0 -1.7648,-0.78832 -1.7648,-1.7622 0,-0.97388 0.78814,-1.76497 1.7648,-1.76497 0.97128,0 1.7622,0.79109 1.7622,1.76497"
         inkscape:connector-curvature="0"
         style="fill:#fff250" />
      <path
         id="path917"
         d="m 311.73327,443.13867 c -0.0757,0 -0.14873,-0.0196 -0.21337,-0.0561 -0.15429,-0.0869 -0.25263,-0.26098 -0.27227,-0.44064 -0.0196,-0.17688 0.0281,-0.35915 0.10669,-0.51917 0.15429,-0.31727 0.48268,-0.65678 0.83071,-0.76347 0.0533,-0.0168 0.12631,-0.0252 0.2078,-0.0252 0.28061,0 0.65105,0.10946 0.63715,0.38156 -0.006,0.0956 -0.0702,0.17688 -0.14595,0.233 -0.073,0.0533 -0.1628,0.0898 -0.24429,0.13761"
         inkscape:connector-curvature="0"
         style="fill:#fffdde" />
      <path
         id="path919"
         d="m 233.96447,427.96438 c 0,0 4.1353,1.18933 9.39147,-8.46832 5.28571,-9.70927 8.16791,-36.96296 8.16791,-36.96296 l 0.31015,45.22104 -17.86953,0.21024 m 76.48286,-0.88996 c 0,0 5.23393,-0.48337 11.68205,-9.38921 8.28119,-11.43757 13.7834,-36.04242 13.7834,-36.04242 l -7.59749,45.22244 -17.86796,0.20919"
         inkscape:connector-curvature="0"
         style="fill:#e2b33d" />
      <path
         id="path921"
         d="m 269.68545,427.70167 c 0,0 -4.11844,1.24493 -9.50736,-8.33871 -5.41933,-9.63455 -8.67405,-36.84828 -8.67405,-36.84828 l 0.30998,45.22243 17.87143,-0.0354 m -77.04564,-0.63263 c 0,0 -4.97799,0.0367 -11.63669,-8.79099 -6.6587,-8.82277 -14.02561,-35.76007 -14.02561,-35.76007 l 7.79191,44.58772 17.87039,-0.0365 m 12.61683,0.68615 c 0.5296,-0.2509 3.02728,-2.14202 4.33998,-5.42732 1.3127,-3.28513 1.15927,-20.36634 0.97336,-19.9714 -0.18348,0.39268 2.00736,14.5837 3.86841,18.26377 1.86089,3.67798 7.06997,7.13495 7.06997,7.13495 h -16.25172 m 92.14243,-3.5e-4 c -0.53133,-0.24951 -3.0278,-2.14149 -4.34258,-5.42697 -1.312,-3.28548 -1.15754,-20.36599 -0.97301,-19.97279 0.18695,0.39563 -2.00614,14.58648 -3.86564,18.26498 -1.85967,3.67851 -7.0724,7.13478 -7.0724,7.13478 h 16.25363"
         inkscape:connector-curvature="0"
         style="fill:#e2b33d" />
      <path
         id="path923"
         d="m 237.76616,414.73855 c -0.66077,0 -1.32902,-0.34125 -1.51894,-0.9638 -0.18991,-0.62968 0.14422,-1.2882 0.47834,-1.85567 1.67532,-2.8504 3.57408,-5.58804 4.92483,-8.60455"
         inkscape:connector-curvature="0"
         style="fill:#f4e6a1" />
      <path
         id="path925"
         d="m 206.80616,394.28203 c -0.24447,0 -0.47921,-0.0799 -0.65105,-0.25889 -0.3098,-0.3197 -0.32178,-0.81576 -0.29034,-1.25866 0.12337,-1.80059 0.50093,-4.53319 1.6602,-5.98767 0.35098,-0.43802 0.57599,-0.61473 0.71882,-0.61473 0.55183,0 -0.196,2.67682 -0.24204,3.23822 -0.0773,0.93913 0.18157,1.87339 0.20572,2.81478 0.01,0.59076 -0.087,1.22234 -0.48164,1.66037 -0.22744,0.25403 -0.58328,0.40658 -0.91967,0.40658 m 83.03435,0.23961 c -0.0295,0 -0.0617,0 -0.0938,-0.005 -0.45854,-0.0537 -0.79892,-0.4879 -0.89274,-0.94104 -0.0912,-0.45297 0.0108,-0.92228 0.12336,-1.36986 0.28148,-1.11792 1.46647,-5.63791 3.16872,-5.63791 0.1152,0 0.23317,0.0216 0.35393,0.0643 0.0242,1.32712 -0.87137,2.52549 -1.14746,3.8017 -0.17966,0.83887 -0.13135,1.71024 -0.2681,2.55745 -0.0563,0.36992 -0.15551,0.74522 -0.3753,1.04807 -0.20381,0.27627 -0.53081,0.48269 -0.86876,0.48269"
         inkscape:connector-curvature="0"
         style="fill:#f1d99e" />
    </g>
  </g>
</svg>
