<?xml version="1.0" encoding="UTF-8" standalone="no"?>
<!-- Created with Inkscape (http://www.inkscape.org/) -->

<svg
   xmlns:dc="http://purl.org/dc/elements/1.1/"
   xmlns:cc="http://creativecommons.org/ns#"
   xmlns:rdf="http://www.w3.org/1999/02/22-rdf-syntax-ns#"
   xmlns:svg="http://www.w3.org/2000/svg"
   xmlns="http://www.w3.org/2000/svg"
   xmlns:sodipodi="http://sodipodi.sourceforge.net/DTD/sodipodi-0.dtd"
   xmlns:inkscape="http://www.inkscape.org/namespaces/inkscape"
   width="253"
   height="253"
   id="svg4149"
   version="1.1"
   inkscape:version="0.48.5 r10040"
   sodipodi:docname="logo.svg">
  <defs
     id="defs4151">
    <clipPath
       id="c"
       clipPathUnits="userSpaceOnUse">
      <path
         inkscape:connector-curvature="0"
         d="m 20427.9,881.301 -2865,3.398 62.2,82.703 2802.8,-19.101 v -67 m 0,340.099 h -2611.7 l 49.8,66.2 h 371.2 v 387.8 l -80.6,-1.5 24.7,32.7 496.4,-3.4 c -28,-45.7 -44.2,-99.4 -44.2,-157 0,-163.9 131.3,-297.2 294.5,-300.4 29.3,-9.6 60.6,-14.8 93.2,-14.8 166,0 300.5,134.6 300.5,300.6 0,62 -18.8,119.7 -51,167.6 l 923.4,-6.3 c -22.7,-48.1 -36,-106.2 -36,-168.7 0,-166 93.7,-300.5 209.2,-300.5 21.1,0 41.4,4.5 60.6,12.8 v -15.1 m -857.5,456.7 v -380.5 h 380.5 v 387.8 l -7.3,-7.3 7.3,7.3 -380.5,-7.3 m 857.5,286.3 h -2052.7 l 283.2,376.4 1769.5,17.5 v -393.9 m -685.7,14.8 c 10.9,-3.5 22.6,-5.5 34.7,-5.5 61.9,0 112,50.2 112,112 0,61.1 -48.9,110.7 -109.7,111.9 -10.9,3.6 -22.6,5.5 -34.7,5.5 -61.9,0 -112,-50.1 -112,-111.9 0,-61.1 48.9,-110.7 109.7,-112"
         id="path13" />
    </clipPath>
  </defs>
  <sodipodi:namedview
     id="base"
     pagecolor="#ffffff"
     bordercolor="#666666"
     borderopacity="1.0"
     inkscape:pageopacity="0.0"
     inkscape:pageshadow="2"
     inkscape:zoom="0.7"
     inkscape:cx="-277.64292"
     inkscape:cy="99.755008"
     inkscape:document-units="px"
     inkscape:current-layer="layer1"
     showgrid="false"
     fit-margin-top="1"
     fit-margin-left="1"
     fit-margin-right="1"
     fit-margin-bottom="1"
     inkscape:window-width="1920"
     inkscape:window-height="1017"
     inkscape:window-x="-8"
     inkscape:window-y="1072"
     inkscape:window-maximized="1" />
  <metadata
     id="metadata4154">
    <rdf:RDF>
      <cc:Work
         rdf:about="">
        <dc:format>image/svg+xml</dc:format>
        <dc:type
           rdf:resource="http://purl.org/dc/dcmitype/StillImage" />
        <dc:title></dc:title>
      </cc:Work>
    </rdf:RDF>
  </metadata>
  <g
     inkscape:label="Layer 1"
     inkscape:groupmode="layer"
     id="layer1"
     transform="translate(-150.94477,-381.14375)">
    <g
       transform="matrix(1.25,0,0,-1.25,103.26841,966.66018)"
       id="g4105">
      <g
         transform="translate(161.0415,288.0728)"
         id="g20">
        <path
           inkscape:connector-curvature="0"
           id="path22"
           style="fill:#ac5d3d;fill-opacity:1;fill-rule:nonzero;stroke:none"
           d="m 0,0 c 0,0 59.721,-3.3 52.749,50.653 -6.954,53.81 -48.437,73.384 -25.436,117.331 0,0 -63.417,-5.134 -64.706,-70.232 -1.392,-70.344 28.357,-83.377 28.357,-83.377 l 6.983,-17.25" />
      </g>
      <g
         transform="translate(91.7842,337.1763)"
         id="g24">
        <path
           inkscape:connector-curvature="0"
           id="path26"
           style="fill:#c06846;fill-opacity:1;fill-rule:nonzero;stroke:none"
           d="m 0,0 c 0,-10.844 -5.93,-19.634 -13.246,-19.634 -7.316,0 -13.245,8.79 -13.245,19.634 0,10.842 5.929,19.632 13.245,19.632 C -5.93,19.632 0,10.842 0,0" />
      </g>
      <g
         transform="translate(92.7505,346.1899)"
         id="g28">
        <path
           inkscape:connector-curvature="0"
           id="path30"
           style="fill:#ac5d3d;fill-opacity:1;fill-rule:nonzero;stroke:none"
           d="m 0,0 c 0,-4.26 -6.824,-2.053 -14.674,-2.053 -7.849,0 -13.751,-2.207 -13.751,2.053 0,4.261 6.364,12.912 14.213,12.912 C -6.362,12.912 0,4.261 0,0" />
      </g>
      <g
         transform="translate(104.7583,369.1904)"
         id="g32">
        <path
           inkscape:connector-curvature="0"
           id="path34"
           style="fill:#c06846;fill-opacity:1;fill-rule:nonzero;stroke:none"
           d="m 0,0 c 0,0 2.773,-23.749 22.179,-39.737 9.824,-8.096 16.737,-16.532 18.02,-29.88 1.378,-14.331 -7.17,-29.878 -22.949,-31.009 0,0 -46.822,-2.67 -46.976,0 -0.154,2.67 1.386,7.598 10.165,7.752 8.779,0.154 10.782,-0.308 10.782,-0.308 0,0 -15.448,5.307 -14.016,24.952 1.078,14.785 14.17,17.324 14.17,17.324 -4.159,17.405 5.046,44.437 5.046,44.437 l -8.897,5.391" />
      </g>
      <g
         transform="translate(99.0234,375.9673)"
         id="g36">
        <path
           inkscape:connector-curvature="0"
           id="path38"
           style="fill:#ffb169;fill-opacity:1;fill-rule:nonzero;stroke:none"
           d="M 0,0 C 0,0 -2.28,-19.107 -4.775,-39.891 -7.482,-62.45 -15.248,-81.63 1.54,-95.8 c 21.186,-17.882 50.519,1.848 45.59,20.946 -4.929,19.099 -27.649,65.293 -27.649,65.293 L 0,0 z" />
      </g>
      <g
         transform="translate(110.4106,422.3096)"
         id="g40">
        <path
           inkscape:connector-curvature="0"
           id="path42"
           style="fill:#c06846;fill-opacity:1;fill-rule:nonzero;stroke:none"
           d="m 0,0 c 0,0 -3.41,11.614 -2.13,21.184 1.28,9.57 -6.191,2.421 -8.918,-11.915 -1.708,-8.983 -5.547,-12.956 -5.547,-12.956 L 0,0 z" />
      </g>
      <g
         transform="translate(121.6274,420.5669)"
         id="g44">
        <path
           inkscape:connector-curvature="0"
           id="path46"
           style="fill:#c06846;fill-opacity:1;fill-rule:nonzero;stroke:none"
           d="m 0,0 c 0,0 6.773,10.032 8.457,19.539 1.685,9.507 6.634,0.428 4.882,-14.06 -1.097,-9.078 1.355,-14.027 1.355,-14.027 L 0,0 z" />
      </g>
      <g
         transform="translate(132.9077,369.1904)"
         id="g48">
        <path
           inkscape:connector-curvature="0"
           id="path50"
           style="fill:#dd7952;fill-opacity:1;fill-rule:nonzero;stroke:none"
           d="m 0,0 c 0,0 2.773,-23.749 22.179,-39.737 9.824,-8.096 16.737,-16.532 18.02,-29.88 1.378,-14.331 -7.17,-29.878 -22.949,-31.009 0,0 -46.822,-2.67 -46.976,0 -0.154,2.67 1.386,7.598 10.165,7.752 8.779,0.154 10.782,-0.308 10.782,-0.308 0,0 -15.448,5.307 -14.016,24.952 1.078,14.785 14.17,17.324 14.17,17.324 -4.159,17.405 -13.554,46.285 -13.554,46.285 l 9.703,3.543" />
      </g>
      <g
         transform="translate(148.5356,377.0708)"
         id="g52">
        <path
           inkscape:connector-curvature="0"
           id="path54"
           style="fill:#dd7b51;fill-opacity:1;fill-rule:nonzero;stroke:none"
           d="m 0,0 c -11.914,-27.726 -38.99,-23.345 -42.908,-22.562 -3.996,0.447 -31.101,4.484 -34.04,34.518 0,0 8.129,3.201 10.38,12.078 2.221,8.833 14.442,28.581 33.898,19.298 C -11.315,46.274 -5.662,23.749 -6.226,14.658 -6.773,5.517 0,0 0,0" />
      </g>
      <g
         transform="translate(83.7754,335.7681)"
         id="g56">
        <path
           inkscape:connector-curvature="0"
           id="path58"
           style="fill:#dd7952;fill-opacity:1;fill-rule:nonzero;stroke:none"
           d="m 0,0 c 0,0 10.771,-0.925 19.397,8.625 8.626,9.551 12.052,19.684 22.511,11.998 10.459,-7.685 5.684,-27.176 -11.104,-31.831 -16.788,-4.656 -34.038,2.275 -37.273,7.204 -3.234,4.928 1.49,9.297 3.44,7.753 C -0.21,1.516 0,0 0,0" />
      </g>
      <g
         transform="translate(148.5356,377.0708)"
         id="g60">
        <path
           inkscape:connector-curvature="0"
           id="path62"
           style="fill:#ffb169;fill-opacity:1;fill-rule:nonzero;stroke:none"
           d="m 0,0 c -11.914,-27.726 -38.99,-23.345 -42.908,-22.562 -3.996,0.447 -31.101,4.484 -34.04,34.518 0,0 14.239,-11.241 24.669,-6.227 10.434,5.037 14.573,5.191 14.573,5.191 0,0 3.896,-1.402 12.31,-9.368 C -16.978,-6.39 0,0 0,0" />
      </g>
      <g
         transform="translate(109.9019,383.7529)"
         id="g64">
        <path
           inkscape:connector-curvature="0"
           id="path66"
           style="fill:#1a0200;fill-opacity:1;fill-rule:nonzero;stroke:none"
           d="M 0,0 C 0,0 -4.121,4.529 -2.401,5.568 -0.681,6.607 4.009,5.689 4.188,4.337 4.368,2.984 1.549,-0.241 0,0" />
      </g>
      <g
         transform="translate(99.2773,396.833)"
         id="g68">
        <path
           inkscape:connector-curvature="0"
           id="path70"
           style="fill:#1a0200;fill-opacity:1;fill-rule:nonzero;stroke:none"
           d="m 0,0 c -0.193,-1.24 -1.354,-2.089 -2.593,-1.896 -1.241,0.192 -2.089,1.354 -1.897,2.594 0.193,1.239 1.354,2.089 2.594,1.896 C -0.656,2.401 0.192,1.24 0,0" />
      </g>
      <g
         transform="translate(111.2783,376.6382)"
         id="g72">
        <path
           inkscape:connector-curvature="0"
           id="path74"
           style="fill:#ffffff;fill-opacity:1;fill-rule:nonzero;stroke:none"
           d="m 0,0 c -0.295,-0.776 -0.586,-2.034 -0.71,-2.188 -0.425,-0.484 -1.835,0.051 -1.835,0.051 0,0 -1.369,0.338 -1.694,0.488 -0.139,0.072 -0.219,1.005 -0.292,2.14 2.095,1.919 3.125,5.5 3.366,6.41 C -1.141,6.898 -1.141,6.898 -1.12,6.869 -1.187,5.807 -1.72,2.413 0,0" />
      </g>
      <g
         transform="translate(117.6177,374.2187)"
         id="g76">
        <path
           inkscape:connector-curvature="0"
           id="path78"
           style="fill:#dd7b51;fill-opacity:1;fill-rule:nonzero;stroke:none"
           d="M 0,0 C -0.238,-0.193 -0.523,-0.322 -0.811,-0.437 -1.109,-0.509 -1.409,-0.628 -1.724,-0.626 L -2.196,-0.65 c -0.156,0.015 -0.311,0.046 -0.467,0.068 l -0.469,0.078 -0.441,0.169 c -0.293,0.115 -0.603,0.209 -0.85,0.405 L -5.21,0.591 c -0.254,0.228 -0.463,0.39 -0.669,0.676 -0.225,0.257 -0.376,0.548 -0.525,0.799 -0.156,0.261 -0.309,0.522 -0.409,0.833 -0.108,0.299 -0.241,0.595 -0.323,0.896 -0.149,0.604 -0.296,1.207 -0.352,1.823 -0.074,0.611 -0.107,1.227 -0.108,1.84 -0.001,0.613 0.042,1.226 0.117,1.832 l 0,-10e-4 0.033,0.247 0.007,-0.247 0,-0.002 C -7.425,8.678 -7.395,8.072 -7.333,7.469 -7.287,6.867 -7.21,6.266 -7.094,5.677 -7.027,5.384 -6.992,5.084 -6.916,4.795 L -6.678,3.933 C -6.596,3.648 -6.472,3.389 -6.373,3.115 -6.29,2.842 -6.128,2.581 -5.974,2.317 -5.815,2.042 -5.687,1.79 -5.511,1.585 -5.374,1.364 -5.101,1.141 -4.913,0.954 L -4.196,0.44 C -3.967,0.247 -3.694,0.143 -3.43,0.015 l 0.399,-0.19 0.426,-0.101 c 0.143,-0.032 0.286,-0.072 0.43,-0.098 l 0.441,-0.012 c 0.298,-0.04 0.588,0.039 0.886,0.074 C -0.56,-0.23 -0.269,-0.15 0,0" />
      </g>
      <g
         transform="translate(100.1826,376.9277)"
         id="g80">
        <path
           inkscape:connector-curvature="0"
           id="path82"
           style="fill:#dd7b51;fill-opacity:1;fill-rule:nonzero;stroke:none"
           d="M 0,0 C 0,0 0.155,-0.181 0.489,-0.402 0.647,-0.527 0.864,-0.638 1.117,-0.75 1.36,-0.881 1.679,-0.918 1.994,-1.023 2.332,-1.024 2.69,-1.13 3.073,-1.054 c 0.382,0.056 0.784,0.076 1.18,0.24 0.201,0.064 0.404,0.13 0.61,0.197 0.163,0.029 0.384,0.199 0.577,0.289 l 0.302,0.165 0.245,0.206 c 0.158,0.144 0.339,0.263 0.481,0.421 0.309,0.342 0.668,0.663 0.896,1.029 0.13,0.177 0.259,0.352 0.386,0.526 0.113,0.188 0.225,0.374 0.335,0.557 0.442,0.732 0.79,1.46 1.067,2.093 0.265,0.638 0.488,1.173 0.62,1.557 0.138,0.382 0.217,0.601 0.217,0.601 0,0 -0.045,-0.228 -0.123,-0.628 C 9.772,5.803 9.642,5.232 9.415,4.568 9.175,3.911 8.899,3.133 8.468,2.359 8.266,1.968 8.032,1.57 7.739,1.189 7.479,0.777 7.142,0.472 6.833,0.122 6.662,-0.062 6.452,-0.202 6.262,-0.363 L 5.971,-0.593 5.667,-0.753 C 5.449,-0.854 5.304,-0.981 5.026,-1.052 4.804,-1.115 4.584,-1.177 4.368,-1.239 3.945,-1.399 3.497,-1.389 3.086,-1.417 c -0.411,-0.048 -0.8,0.089 -1.153,0.121 -0.336,0.129 -0.661,0.212 -0.9,0.381 -0.25,0.149 -0.457,0.29 -0.604,0.437 C 0.117,-0.206 0,0 0,0" />
      </g>
      <g
         transform="translate(79.4629,357.8701)"
         id="g84">
        <path
           inkscape:connector-curvature="0"
           id="path86"
           style="fill:#ac5d3d;fill-opacity:1;fill-rule:nonzero;stroke:none"
           d="M 0,0 C 0,0 0.183,7.239 -3.258,7.162 -6.7,7.085 -1.463,3.773 -1.232,0 -1.001,-3.773 0.001,-0.308 0.001,-0.308" />
      </g>
      <g
         transform="translate(127.4736,392.4521)"
         id="g88">
        <path
           inkscape:connector-curvature="0"
           id="path90"
           style="fill:#1a0200;fill-opacity:1;fill-rule:nonzero;stroke:none"
           d="m 0,0 c -0.193,-1.24 -1.354,-2.089 -2.594,-1.896 -1.24,0.192 -2.089,1.354 -1.896,2.594 0.193,1.239 1.354,2.089 2.594,1.896 C -0.656,2.401 0.192,1.24 0,0" />
      </g>
      <g
         transform="translate(126.7358,393.4897)"
         id="g92">
        <path
           inkscape:connector-curvature="0"
           id="path94"
           style="fill:#ffffff;fill-opacity:1;fill-rule:nonzero;stroke:none"
           d="m 0,0 c -0.042,-0.273 -0.298,-0.46 -0.571,-0.417 -0.274,0.042 -0.46,0.297 -0.418,0.571 0.043,0.273 0.298,0.46 0.572,0.417 C -0.144,0.529 0.042,0.273 0,0" />
      </g>
      <g
         transform="translate(98.6313,397.8564)"
         id="g96">
        <path
           inkscape:connector-curvature="0"
           id="path98"
           style="fill:#ffffff;fill-opacity:1;fill-rule:nonzero;stroke:none"
           d="m 0,0 c -0.042,-0.273 -0.298,-0.46 -0.571,-0.417 -0.274,0.042 -0.461,0.297 -0.418,0.571 0.042,0.273 0.298,0.46 0.571,0.417 C -0.144,0.529 0.042,0.273 0,0" />
      </g>
      <g
         transform="translate(109.9565,388.4863)"
         id="g100">
        <path
           inkscape:connector-curvature="0"
           id="path102"
           style="fill:#ffffff;fill-opacity:1;fill-rule:nonzero;stroke:none"
           d="m 0,0 c -0.03,-0.195 -0.276,-0.319 -0.55,-0.276 -0.273,0.042 -0.47,0.234 -0.439,0.429 0.03,0.197 0.276,0.32 0.549,0.278 C -0.166,0.388 0.031,0.196 0,0" />
      </g>
    </g>
    <path
       style="fill:#c13d1a"
       inkscape:connector-curvature="0"
       d="m 296.73619,433.66558 c -0.64953,-5.88962 -8.07456,-17.00038 -18.77274,-18.49265 -9.35313,-1.3053 -18.13419,-3.4117 -20.19409,-3.92188 l 0.002,-0.008 c 0,0 -0.0784,-0.016 -0.22763,-0.0483 -0.14984,-0.0365 -0.22747,-0.0565 -0.22747,-0.0565 l -0.002,0.008 c -2.07565,-0.44173 -10.89392,-2.38609 -19.87664,-5.30111 -10.27243,-3.33449 -21.80915,3.4119 -24.96819,8.42491 -3.1607,5.01383 2.22716,24.46348 2.22716,24.46348 l 69.34179,15.96023 c 0,0 13.34855,-15.13713 12.69775,-21.02825"
       id="path1571" />
    <path
       style="fill:#a52f17"
       inkscape:connector-curvature="0"
       d="m 297.08438,433.74555 c -0.64936,-5.8896 -8.0749,-17.00057 -18.772,-18.49248 -7.93567,-1.10771 -15.45778,-2.791 -18.81525,-3.58786 1.82534,2.20421 4.73611,4.03775 7.04735,4.98094 3.36146,1.37344 6.94801,2.39604 9.8213,4.61541 2.8749,2.21848 4.88938,6.09735 3.62444,9.50144 -1.16857,3.14744 -4.75662,4.82322 -8.11244,4.91643 -3.35602,0.0942 -6.60394,-1.04397 -9.84668,-1.91432 -6.21011,-1.66846 -12.67082,-2.3897 -19.10042,-2.20714 -3.77843,0.10764 -7.56278,0.52407 -11.33059,0.2279 -5.32397,-0.41767 -10.49174,-2.24898 -15.82933,-2.33077 -0.93764,-0.015 -1.89595,0.0324 -2.79758,0.26614 0.9257,4.95183 2.07079,9.0922 2.07079,9.0922 l 69.34361,15.96066 c 0,0 13.34738,-15.13759 12.6968,-21.02855"
       id="path1573" />
    <path
       style="fill:#e2b33d"
       inkscape:connector-curvature="0"
       d="m 210.73585,437.82195 c 0,0 -3.55548,-17.93527 -4.20766,-25.52897 -0.65344,-7.59382 2.30335,-15.33536 12.45888,-15.8926 10.15441,-0.55743 31.99606,13.26687 31.99606,13.26687 l -2.28201,1.84305 c 0,0 -20.17187,-11.0238 -26.44376,-11.31336 -7.58351,-0.34982 -11.88201,3.07011 -11.42714,11.52116 0.45609,8.45124 6.77478,27.6849 6.41218,27.60145 l -6.50655,-1.4976 m 75.78264,17.52203 c 0,0 10.74869,-14.79078 14.5258,-21.41063 3.77711,-6.61985 4.34078,-14.88686 -4.64484,-19.6526 -8.98445,-4.76423 -34.61015,-1.3749 -34.61015,-1.3749 l 1.29736,2.63074 c 0,0 22.93736,-1.54746 28.75028,0.81836 7.03259,2.86404 9.5017,7.77205 5.54378,15.25306 -3.95792,7.48098 -17.7616,22.28977 -17.3972,22.36653 0.36432,0.0777 6.53497,1.36944 6.53497,1.36944"
       id="path1575" />
    <path
       style="fill:#e8cc42"
       inkscape:connector-curvature="0"
       d="m 269.89192,391.19195 c -0.74342,-2.74359 -4.15391,-1.64589 -4.15391,-1.64589 0,0 1.89186,-1.13341 1.68501,-3.50233 -0.20826,-2.36916 -3.73421,-2.9307 -3.73421,-2.9307 0,0 -3.41914,-1.03699 -4.64088,1.00303 -1.22298,2.03982 -0.017,3.88625 -0.017,3.88625 0,0 -2.58612,-2.47793 -4.4529,-0.33511 -1.28128,1.46752 -0.80797,3.66463 0.90924,4.2822 1.97673,0.71104 1.9184,-0.77864 2.92351,-0.70238 1.28781,0.0981 1.92784,1.25633 1.48679,3.1036 -0.43933,1.8463 -0.80898,3.33107 -0.80821,3.32772 l 2.36601,0.54458 c -6.7e-4,0.003 0.31734,-1.49328 0.72918,-3.34591 0.41117,-1.85415 1.49416,-2.61583 2.69399,-2.14132 0.93851,0.3711 0.23363,1.68502 2.32096,1.90949 1.81441,0.19529 3.20071,-1.57379 2.6924,-3.45323"
       id="path1577" />
    <path
       style="fill:#e2b33d"
       inkscape:connector-curvature="0"
       d="m 265.78393,390.33334 c -0.75841,-0.21663 -3.09975,0.3443 -3.09975,0.3443 0,0 1.50629,-1.15238 1.74956,-3.47774 0.19821,-1.88622 -0.99666,-3.04957 -1.043,-3.04103 -0.0404,-0.0286 -1.614,0.5218 -2.2314,2.31495 -0.76204,2.21201 0.11712,3.89188 0.11712,3.89188 0,0 -1.8872,-1.49708 -2.66559,-1.62096 -2.54647,-0.40579 -2.55618,0.89386 -2.55618,0.89386 0,0 1.07276,-0.92272 2.36485,-0.21546 2.2795,1.24847 2.78427,4.23169 2.7666,4.62541 -0.003,0.0246 0.007,0.005 0.0234,-0.051 -0.0102,0.0578 -0.009,0.0797 2.9e-4,0.0554 0.1501,-0.36323 1.86701,-2.85556 4.46191,-3.02293 1.46884,-0.0947 2.05095,1.19332 2.05095,1.19332 0,0 0.54038,-1.18112 -1.93886,-1.88989"
       id="path1579" />
    <path
       style="fill:#e8cc42"
       inkscape:connector-curvature="0"
       d="m 282.67933,472.13624 -75.8243,-17.4523 3.88109,-16.86202 75.8243,17.4523 -3.88107,16.86195"
       id="path1581" />
    <path
       style="fill:#f4d347"
       inkscape:connector-curvature="0"
       d="m 284.30761,469.81222 -77.87778,-17.92494 0.30375,-1.31972 77.87778,17.92495 -0.30375,1.31971"
       id="path1583" />
    <path
       style="fill:#e2b33d"
       inkscape:connector-curvature="0"
       d="m 207.44495,452.12093 -0.29482,1.2809 75.70527,17.96947 0.41386,-1.79808 -75.82431,-17.45229"
       id="path1585" />
    <path
       style="fill:#f4d347"
       inkscape:connector-curvature="0"
       d="m 286.25996,461.32989 -77.87778,-17.92494 0.30377,-1.31977 77.87778,17.92494 -0.30375,1.31971"
       id="path1587" />
    <path
       style="fill:#e2b33d"
       inkscape:connector-curvature="0"
       d="m 209.39731,443.6386 -0.29483,1.28095 75.70529,17.96936 0.41386,-1.79808 -75.8243,-17.4523"
       id="path1589" />
    <path
       style="fill:#e2b33d"
       inkscape:connector-curvature="0"
       d="m 249.1535,456.74303 c -0.43619,1.89508 -2.32639,3.07693 -4.22018,2.64104 -1.89509,-0.43619 -3.07833,-2.32544 -2.64215,-4.22052 0.43621,-1.89518 2.32631,-3.07695 4.2214,-2.64076 1.89378,0.43589 3.07714,2.32507 2.64093,4.22024"
       id="path1591" />
    <path
       style="fill:#f4d347"
       inkscape:connector-curvature="0"
       d="m 248.19838,456.34647 c -0.43619,1.89509 -2.32585,3.07697 -4.21983,2.64104 -1.89523,-0.43622 -3.07918,-2.32555 -2.64299,-4.22064 0.43623,-1.89525 2.32699,-3.07679 4.22222,-2.64057 1.89398,0.43593 3.07683,2.32492 2.6406,4.22017"
       id="path1593" />
    <path
       style="fill:#f2501d"
       inkscape:connector-curvature="0"
       d="m 247.59362,456.20728 c -0.35946,1.56175 -1.91704,2.53518 -3.47752,2.17601 -1.56161,-0.35944 -2.53696,-1.91586 -2.1775,-3.47761 0.35947,-1.56176 1.91708,-2.53507 3.47869,-2.17564 1.56048,0.35917 2.5358,1.91548 2.17633,3.47724"
       id="path1595" />
    <path
       style="fill:#c13d1a"
       inkscape:connector-curvature="0"
       d="m 246.79685,453.48385 c 0.33861,0.6069 0.4638,1.33651 0.29565,2.06705 -0.35923,1.56073 -1.91698,2.53528 -3.47745,2.17611"
       id="path1597" />
    <path
       style="fill:#f9a88e"
       inkscape:connector-curvature="0"
       d="m 243.56123,454.73812 c -0.27285,-0.0628 -0.46013,-0.36666 -0.44327,-0.65263 0.0198,-0.30921 0.22252,-0.5798 0.46682,-0.76889 0.43348,-0.33534 1.0244,-0.44944 1.55709,-0.32683 0.031,0.007 0.062,0.0143 0.0925,0.0233 0.25072,0.0722 0.38218,0.17108 0.49269,0.40552 0.14246,0.30201 0.0382,0.56418 -0.33274,0.55687 -0.14597,-0.003 -0.29296,-0.041 -0.43806,-0.0213 -0.26319,0.0369 -0.46083,0.24735 -0.64716,0.43526 -0.1866,0.18903 -0.41604,0.37904 -0.67998,0.35923 -0.0234,-0.002 -0.045,-0.006 -0.0676,-0.0115 m -0.79144,0.99728 c -0.099,-0.0228 -0.19185,-0.0779 -0.2662,-0.14901 -0.12869,-0.12587 -0.20324,-0.30886 -0.18925,-0.48831 0.0305,-0.35362 0.26556,-0.4582 0.50137,-0.40392 0.20994,0.0483 0.41792,0.2235 0.47495,0.46148 0.0598,0.24701 -0.0984,0.54112 -0.34816,0.5847"
       id="path1599" />
    <path
       style="fill:#e2b33d"
       inkscape:connector-curvature="0"
       d="m 229.27091,452.00199 c -0.43619,1.89507 -2.32654,3.07805 -4.22052,2.64212 -1.8951,-0.43619 -3.07808,-2.32656 -2.64189,-4.22163 0.43593,-1.89397 2.32629,-3.07695 4.22139,-2.64076 1.89398,0.43593 3.07695,2.32629 2.64102,4.22027"
       id="path1601" />
    <path
       style="fill:#f4d347"
       inkscape:connector-curvature="0"
       d="m 228.31485,451.60638 c -0.43593,1.89399 -2.32619,3.07698 -4.22139,2.64077 -1.89393,-0.43592 -3.07686,-2.32626 -2.64093,-4.22025 0.43619,-1.89509 2.32651,-3.07809 4.22044,-2.64217 1.89519,0.43621 3.07807,2.32656 2.64188,4.22165"
       id="path1603" />
    <path
       style="fill:#f2501d"
       inkscape:connector-curvature="0"
       d="m 227.71095,451.46738 c -0.35921,1.56066 -1.91668,2.53526 -3.47847,2.17578 -1.56054,-0.35918 -2.53526,-1.91661 -2.17605,-3.47726 0.35947,-1.56176 1.917,-2.53645 3.47753,-2.17726 1.5618,0.35947 2.53646,1.91699 2.17699,3.47874"
       id="path1605" />
    <path
       style="fill:#c13d1a"
       inkscape:connector-curvature="0"
       d="M 226.91448,448.74402"
       id="path1607" />
    <path
       style="fill:#f9a88e"
       inkscape:connector-curvature="0"
       d="m 223.67822,449.99821 c -0.27286,-0.0628 -0.461,-0.36818 -0.44341,-0.65381 0.0182,-0.3084 0.22254,-0.57989 0.46678,-0.76889 0.43393,-0.33406 1.02425,-0.44949 1.55623,-0.32704 0.032,0.007 0.0627,0.0153 0.0933,0.0235 0.25028,0.0721 0.38112,0.17186 0.49295,0.40675 0.14209,0.30202 0.0385,0.56422 -0.33224,0.5558 -0.14698,-0.004 -0.29346,-0.0411 -0.4389,-0.0203 -0.26304,0.0355 -0.46057,0.24615 -0.64717,0.43527 -0.18636,0.18791 -0.41656,0.3789 -0.68101,0.35771 -0.0224,-0.002 -0.0448,-0.004 -0.0664,-0.009 m -0.79067,0.99613 c -0.0993,-0.0229 -0.19268,-0.0768 -0.26618,-0.14911 -0.12859,-0.12564 -0.20441,-0.30788 -0.18965,-0.48723 0.0298,-0.35378 0.26543,-0.45823 0.49944,-0.40437 0.21003,0.0483 0.41967,0.22408 0.47672,0.46198 0.0597,0.24699 -0.0979,0.54005 -0.34857,0.58452"
       id="path1609" />
    <path
       style="fill:#e2b33d"
       inkscape:connector-curvature="0"
       d="m 219.40958,443.20833 c -0.16239,0.70553 -0.86601,1.14584 -1.57152,0.98345 -0.70555,-0.16239 -1.14696,-0.86625 -0.98457,-1.57178 0.16267,-0.70673 0.86737,-1.14678 1.57291,-0.98439 0.70552,0.16239 1.14585,0.86599 0.98318,1.57272"
       id="path1611" />
    <path
       style="fill:#f4d347"
       inkscape:connector-curvature="0"
       d="m 219.05415,443.06033 c -0.1624,0.70555 -0.866,1.14586 -1.57262,0.98322 -0.70556,-0.1624 -1.14584,-0.86599 -0.98345,-1.57154 0.16239,-0.70551 0.86622,-1.14696 1.57178,-0.98456 0.70663,0.16264 1.14668,0.86737 0.98429,1.57288"
       id="path1613" />
    <path
       style="fill:#d9d9ed"
       inkscape:connector-curvature="0"
       d="m 218.82924,443.00857 c -0.13376,0.58113 -0.71374,0.94415 -1.29596,0.81014 -0.58115,-0.13376 -0.94413,-0.71382 -0.81037,-1.29495 0.13401,-0.58222 0.71402,-0.94514 1.29518,-0.81138 0.58222,0.13401 0.94516,0.71397 0.81115,1.29619"
       id="path1615" />
    <path
       style="fill:#c5caea"
       inkscape:connector-curvature="0"
       d="M 218.53256,441.99426"
       id="path1617" />
    <path
       style="fill:#f9f9fc"
       inkscape:connector-curvature="0"
       d="m 217.3265,442.46074 c -0.10171,-0.0234 -0.17049,-0.13673 -0.16519,-0.24358 0.007,-0.11492 0.0833,-0.21524 0.17397,-0.2857 0.16219,-0.12495 0.38231,-0.1669 0.57973,-0.12146 l 0.0355,0.008 c 0.0923,0.0274 0.14154,0.0639 0.1827,0.15146 0.0534,0.11195 0.0154,0.21029 -0.12342,0.20718 -0.0552,-8.1e-4 -0.1095,-0.0149 -0.16299,-0.008 -0.098,0.0135 -0.17249,0.0914 -0.24159,0.16203 -0.0691,0.0706 -0.15506,0.14102 -0.25328,0.13401 -0.008,-9.3e-4 -0.0172,-0.003 -0.0252,-0.005 m -0.2937,0.37238 c -0.0377,-0.009 -0.0725,-0.0299 -0.0999,-0.0567 -0.0483,-0.046 -0.0757,-0.11492 -0.0701,-0.18088 0.0111,-0.13204 0.0981,-0.1709 0.18614,-0.15064 0.0787,0.0181 0.15634,0.083 0.17685,0.17171 0.0233,0.0919 -0.0351,0.2011 -0.12947,0.21786"
       id="path1619" />
    <path
       style="fill:#e2b33d"
       inkscape:connector-curvature="0"
       d="m 238.18993,447.53934 c -0.16239,0.70553 -0.86626,1.14696 -1.5729,0.98432 -0.70551,-0.16239 -1.14558,-0.86712 -0.98319,-1.57265 0.16239,-0.70553 0.86601,-1.14584 1.57152,-0.98345 0.70664,0.16264 1.14697,0.86625 0.98457,1.57178"
       id="path1621" />
    <path
       style="fill:#f4d347"
       inkscape:connector-curvature="0"
       d="m 237.83338,447.39119 c -0.16265,0.70664 -0.86627,1.14696 -1.57178,0.98457 -0.70552,-0.16238 -1.14705,-0.86628 -0.9844,-1.57292 0.16238,-0.70552 0.86722,-1.14556 1.57273,-0.98317 0.70551,0.16238 1.14584,0.866 0.98345,1.57152"
       id="path1623" />
    <path
       style="fill:#d9d9ed"
       inkscape:connector-curvature="0"
       d="m 237.60843,447.33941 c -0.13401,0.58223 -0.71404,0.94515 -1.29506,0.81142 -0.58224,-0.13401 -0.94526,-0.71398 -0.81125,-1.29622 0.13376,-0.58113 0.71382,-0.94411 1.29606,-0.81009 0.58101,0.13373 0.94401,0.71377 0.81025,1.29489"
       id="path1625" />
    <path
       style="fill:#c5caea"
       inkscape:connector-curvature="0"
       d="M 237.3118,446.32501"
       id="path1627" />
    <path
       style="fill:#f9f9fc"
       inkscape:connector-curvature="0"
       d="m 236.10658,446.79295 c -0.10161,-0.0234 -0.17169,-0.1369 -0.16519,-0.24357 0.007,-0.11492 0.0825,-0.21661 0.17425,-0.28691 0.16081,-0.124 0.38107,-0.16708 0.5797,-0.12136 0.0115,0.003 0.0229,0.005 0.034,0.009 0.0938,0.0257 0.14273,0.0641 0.18391,0.15165 0.0535,0.11206 0.014,0.21005 -0.12461,0.20699 -0.0538,-0.001 -0.10841,-0.0147 -0.16272,-0.009 -0.098,0.0135 -0.17164,0.0927 -0.24047,0.1622 -0.0704,0.0703 -0.15535,0.14211 -0.25438,0.13376 -0.008,-9.3e-4 -0.0165,-0.002 -0.0243,-0.004 m -0.29456,0.37099 c -0.0366,-0.008 -0.0715,-0.0287 -0.0991,-0.0552 -0.0481,-0.0471 -0.0768,-0.11507 -0.0711,-0.18225 0.0112,-0.13213 0.0994,-0.17069 0.18615,-0.15072 0.0788,0.0181 0.15622,0.084 0.17807,0.17199 0.022,0.0928 -0.0372,0.20185 -0.12956,0.21784"
       id="path1629" />
    <path
       style="fill:#e2b33d"
       inkscape:connector-curvature="0"
       d="m 260.08809,452.62756 c -0.16267,0.70673 -0.86595,1.14712 -1.57243,0.98452 -0.70527,-0.16233 -1.14643,-0.86614 -0.98377,-1.57287 0.1624,-0.70554 0.86685,-1.14565 1.57212,-0.98332 0.70648,0.16261 1.14647,0.86614 0.98408,1.57167"
       id="path1631" />
    <path
       style="fill:#f4d347"
       inkscape:connector-curvature="0"
       d="m 259.73195,452.48067 c -0.16241,0.70562 -0.86594,1.14593 -1.57241,0.98332 -0.70528,-0.16233 -1.14672,-0.86617 -0.98433,-1.57171 0.16265,-0.70665 0.86738,-1.14669 1.57266,-0.98435 0.70647,0.1626 1.14671,0.86618 0.98408,1.57274"
       id="path1633" />
    <path
       style="fill:#d9d9ed"
       inkscape:connector-curvature="0"
       d="m 259.50674,452.42901 c -0.13371,0.58094 -0.71322,0.94416 -1.29579,0.81007 -0.58136,-0.13381 -0.94375,-0.71382 -0.81004,-1.29476 0.13401,-0.58223 0.71349,-0.94536 1.29485,-0.81155 0.58257,0.13409 0.94499,0.71402 0.81098,1.29624"
       id="path1635" />
    <path
       style="fill:#c5caea"
       inkscape:connector-curvature="0"
       d="M 259.20964,451.41449"
       id="path1637" />
    <path
       style="fill:#f9f9fc"
       inkscape:connector-curvature="0"
       d="m 258.00308,451.88096 c -0.10119,-0.0233 -0.16965,-0.13653 -0.16493,-0.24352 0.008,-0.11477 0.0841,-0.21507 0.1748,-0.28551 0.16196,-0.125 0.3822,-0.16816 0.57947,-0.12275 0.0116,0.003 0.0237,0.006 0.0353,0.009 0.0921,0.0274 0.14101,0.0637 0.18205,0.15132 0.0541,0.11229 0.0156,0.21033 -0.12227,0.20755 -0.0556,-0.002 -0.10979,-0.015 -0.16332,-0.008 -0.0989,0.0133 -0.17282,0.0912 -0.24233,0.16178 -0.0681,0.0708 -0.15493,0.14114 -0.25314,0.13415 -0.008,-9.5e-4 -0.0166,-0.003 -0.0255,-0.005 m -0.29386,0.37107 c -0.0365,-0.008 -0.0718,-0.0284 -0.1,-0.0554 -0.0476,-0.047 -0.0757,-0.1149 -0.0699,-0.18061 0.0118,-0.13209 0.099,-0.17079 0.18589,-0.1508 0.0782,0.018 0.15733,0.0832 0.17673,0.17159 0.0239,0.0921 -0.0342,0.20129 -0.1284,0.21812"
       id="path1639" />
    <path
       style="fill:#e2b33d"
       inkscape:connector-curvature="0"
       d="m 279.69025,456.96992 c -0.1624,0.70555 -0.86685,1.14683 -1.57308,0.98428 -0.70484,-0.16223 -1.14549,-0.86708 -0.9831,-1.57262 0.16239,-0.70554 0.86659,-1.14571 1.57143,-0.98348 0.70623,0.16255 1.14714,0.86629 0.98475,1.57182"
       id="path1641" />
    <path
       style="fill:#f4d347"
       inkscape:connector-curvature="0"
       d="m 279.33244,456.82168 c -0.16262,0.70655 -0.86579,1.14687 -1.57232,0.98425 -0.70639,-0.16259 -1.14639,-0.86603 -0.98377,-1.57258 0.1624,-0.70554 0.86557,-1.14595 1.57206,-0.98334 0.70653,0.16262 1.14642,0.86613 0.98403,1.57167"
       id="path1643" />
    <path
       style="fill:#d9d9ed"
       inkscape:connector-curvature="0"
       d="m 279.10921,456.77002 c -0.13401,0.58224 -0.71347,0.94528 -1.29569,0.81127 -0.58205,-0.13397 -0.94464,-0.71384 -0.81063,-1.29607 0.13374,-0.58104 0.71336,-0.94414 1.29541,-0.81017 0.58223,0.13401 0.94465,0.71394 0.81091,1.29497"
       id="path1645" />
    <path
       style="fill:#c5caea"
       inkscape:connector-curvature="0"
       d="M 278.81315,455.75575"
       id="path1647" />
    <path
       style="fill:#e2b33d"
       inkscape:connector-curvature="0"
       d="m 212.41902,448.0354 c -0.43621,1.89519 -1.85937,3.18443 -3.17799,2.88093 -1.3197,-0.30376 -2.03599,-2.08543 -1.59978,-3.98062 0.43619,-1.89507 1.8593,-3.18433 3.17901,-2.88057 1.31861,0.3035 2.03494,2.08519 1.59876,3.98026"
       id="path1649" />
    <path
       style="fill:#f4d347"
       inkscape:connector-curvature="0"
       d="m 211.7658,447.70834 c -0.43621,1.89518 -1.8594,3.18442 -3.17909,2.88067 -1.31968,-0.30375 -2.03485,-2.08517 -1.59864,-3.98035 0.43619,-1.89508 1.85818,-3.1846 3.17787,-2.88085 1.31969,0.30375 2.03604,2.08545 1.59986,3.98053"
       id="path1651" />
    <path
       style="fill:#f2501d"
       inkscape:connector-curvature="0"
       d="m 211.34455,447.61138 c -0.35947,1.56177 -1.5323,2.625 -2.6191,2.37485 -1.08681,-0.25015 -1.67678,-1.71912 -1.31731,-3.28088 0.35946,-1.56175 1.53199,-2.6238 2.6188,-2.37365 1.0868,0.25015 1.67707,1.71794 1.31761,3.27968"
       id="path1653" />
    <path
       style="fill:#c13d1a"
       inkscape:connector-curvature="0"
       d="m 210.95876,444.98371 c 0.20083,0.57403 0.24067,1.28398 0.0725,2.01461 -0.35947,1.56177 -1.53204,2.62388 -2.61886,2.37374 -0.37673,-0.0867 -0.6934,-0.31954 -0.93207,-0.65091 0.22935,0.65377 0.66633,1.13185 1.24512,1.26507 1.08681,0.25015 2.25963,-0.81307 2.6191,-2.37484 0.23492,-1.02062 0.0639,-2.00124 -0.38579,-2.62767"
       id="path1655" />
    <path
       style="fill:#f9a88e"
       inkscape:connector-curvature="0"
       d="m 208.57328,446.43257 c -0.1907,-0.0439 -0.30371,-0.33073 -0.27241,-0.6132 0.0344,-0.30585 0.19613,-0.58596 0.38336,-0.78812 0.33142,-0.3589 0.75829,-0.51066 1.12929,-0.42527 0.0217,0.005 0.0434,0.0109 0.0647,0.0169 0.17269,0.0542 0.26049,0.14287 0.32316,0.3665 0.0815,0.28807 -0.01,0.55439 -0.27317,0.57068 -0.10466,0.006 -0.20674,-0.0212 -0.31108,0.009 -0.18882,0.0527 -0.34411,0.27304 -0.48926,0.47043 -0.14544,0.19852 -0.32077,0.40104 -0.5078,0.39883 -0.0165,-7.1e-4 -0.0319,-0.003 -0.0466,-0.007 m -0.62878,1.03455 c -0.0698,-0.0161 -0.13196,-0.064 -0.1795,-0.12895 -0.084,-0.1155 -0.12569,-0.28977 -0.1026,-0.46838 0.0446,-0.35036 0.21968,-0.46875 0.38298,-0.43116 0.14615,0.0336 0.2827,0.19245 0.30772,0.42299 0.0254,0.24025 -0.1062,0.5394 -0.28713,0.59992"
       id="path1657" />
    <path
       style="fill:#e2b33d"
       inkscape:connector-curvature="0"
       d="m 281.28834,464.08757 c -0.43623,1.89527 0.27966,3.67687 1.59835,3.98039 1.32016,0.30386 2.74289,-0.9855 3.17912,-2.88077 0.43617,-1.89498 -0.27981,-3.6767 -1.59987,-3.98053 -1.31869,-0.30352 -2.74144,0.98592 -3.1776,2.88091"
       id="path1659" />
    <path
       style="fill:#f4d347"
       inkscape:connector-curvature="0"
       d="m 282.01951,464.07926 c -0.43616,1.89499 0.28003,3.67674 1.59973,3.98049 1.31816,0.3034 2.74126,-0.98595 3.17745,-2.88105 0.43618,-1.89507 -0.28006,-3.67674 -1.59823,-3.98014 -1.3197,-0.30375 -2.74274,0.98553 -3.17892,2.8806"
       id="path1661" />
    <path
       style="fill:#f2501d"
       inkscape:connector-curvature="0"
       d="m 282.43857,464.17571 c -0.35947,1.56176 0.23242,3.02991 1.31888,3.27998 1.08648,0.25007 2.2592,-0.812 2.61865,-2.37369 0.35947,-1.56175 -0.23096,-3.02957 -1.31743,-3.27964 -1.08646,-0.25007 -2.26064,0.81159 -2.6201,2.37335"
       id="path1663" />
    <path
       style="fill:#c13d1a"
       inkscape:connector-curvature="0"
       d="m 283.93501,461.9802 c -0.43232,0.42935 -0.77839,1.05042 -0.94657,1.78113 -0.35947,1.56173 0.23046,3.02944 1.31744,3.27963 0.37724,0.0868 0.76339,0.016 1.12359,-0.17882 -0.4927,0.48759 -1.09354,0.72678 -1.67228,0.59358 -1.087,-0.2502 -1.6784,-1.7184 -1.31897,-3.28 0.23491,-1.02062 0.81652,-1.82801 1.49679,-2.19552"
       id="path1665" />
    <path
       style="fill:#f9a88e"
       inkscape:connector-curvature="0"
       d="m 285.44728,464.32727 c -0.0143,-0.003 -0.0288,-0.008 -0.0438,-0.0142 -0.16952,-0.0798 -0.23879,-0.3386 -0.28306,-0.58077 -0.0447,-0.24108 -0.0879,-0.5071 -0.23344,-0.63797 -0.0342,-0.0293 -0.0719,-0.0502 -0.11143,-0.0689 l 0.20785,-0.903 c 0.0266,0.002 0.0536,0.004 0.0816,0.008 0.0222,0.003 0.0438,0.008 0.0653,0.013 0.37125,0.0855 0.68934,0.40868 0.83016,0.8763 0.0802,0.26377 0.10299,0.58629 -2.2e-4,0.87637 -0.095,0.26791 -0.32324,0.4761 -0.51314,0.4324 m 0.11311,1.20541 c -0.039,-0.009 -0.0755,-0.0286 -0.10625,-0.0593 -0.13772,-0.1338 -0.12484,-0.46015 0.003,-0.66416 0.12417,-0.19619 0.31632,-0.27945 0.46189,-0.24594 0.16429,0.0378 0.26944,0.2207 0.15604,0.55523 -0.0573,0.16956 -0.17142,0.30918 -0.29619,0.37676 -0.0724,0.0374 -0.14886,0.0534 -0.21804,0.0374"
       id="path1667" />
    <path
       style="fill:#e2b33d"
       inkscape:connector-curvature="0"
       d="m 271.75843,461.80522 c -0.43619,1.89508 -2.32588,3.07822 -4.22044,2.64215 -1.89458,-0.43607 -3.07826,-2.3266 -2.64208,-4.22168 0.43594,-1.89399 2.32698,-3.07673 4.22157,-2.64065 1.89456,0.43606 3.07688,2.32619 2.64095,4.22018"
       id="path1669" />
    <path
       style="fill:#f4d347"
       inkscape:connector-curvature="0"
       d="m 270.80306,461.40978 c -0.43592,1.89396 -2.32673,3.07693 -4.2209,2.64096 -1.89412,-0.43597 -3.07751,-2.32652 -2.64158,-4.22048 0.43619,-1.8951 2.32698,-3.07798 4.2211,-2.64201 1.89418,0.43598 3.07757,2.32643 2.64138,4.22153"
       id="path1671" />
    <path
       style="fill:#f2501d"
       inkscape:connector-curvature="0"
       d="m 270.1983,461.27068 c -0.35919,1.56056 -1.91613,2.53537 -3.47727,2.17604 -1.56248,-0.35963 -2.53663,-1.91702 -2.17744,-3.47757 0.35947,-1.56178 1.9164,-2.53659 3.47893,-2.17695 1.56108,0.35931 2.53525,1.9167 2.17578,3.47848"
       id="path1673" />
    <path
       style="fill:#c13d1a"
       inkscape:connector-curvature="0"
       d="m 269.402,458.54725 c 0.33875,0.60577 0.46343,1.33644 0.29552,2.06595 -0.35946,1.56175 -1.91786,2.53624 -3.47755,2.17725 -0.54151,-0.12463 -1.01299,-0.39302 -1.38087,-0.75537 0.38577,0.68987 1.05034,1.22024 1.88193,1.41164 1.56108,0.35932 3.11808,-0.61549 3.47727,-2.17605 0.23491,-1.02063 -0.1005,-2.04025 -0.7963,-2.72342"
       id="path1675" />
    <path
       style="fill:#f4d347"
       inkscape:connector-curvature="0"
       d="m 236.86462,456.54346 -4.34415,-0.99988 0.99985,-4.34399 4.34414,0.99988 -0.99984,4.34399"
       id="path1677" />
    <path
       style="fill:#e2b33d"
       inkscape:connector-curvature="0"
       d="m 232.53982,455.45905 5.34409,-3.34409 -0.99984,4.344 -4.34415,-0.99988"
       id="path1679" />
    <path
       style="fill:#d3a43c"
       inkscape:connector-curvature="0"
       d="m 235.21119,453.7875 1.67288,2.67146 -4.34415,-0.99988 2.67127,-1.67158"
       id="path1681" />
    <path
       style="fill:#fff250"
       inkscape:connector-curvature="0"
       d="m 233.52022,451.19956 1.69097,2.58794 2.67272,-1.67253 -4.36361,-0.9153"
       id="path1683" />
    <path
       style="fill:#f4d347"
       inkscape:connector-curvature="0"
       d="m 258.73693,461.74122 -4.34417,-0.99989 0.99982,-4.3439 4.34418,0.99989 -0.99983,4.3439"
       id="path1685" />
    <path
       style="fill:#e2b33d"
       inkscape:connector-curvature="0"
       d="m 254.41193,460.65802 5.34402,-3.34409 -0.99984,4.34398 -4.34418,-0.99989"
       id="path1687" />
    <path
       style="fill:#d3a43c"
       inkscape:connector-curvature="0"
       d="m 257.08466,458.98561 1.67135,2.67228 -4.34408,-0.99987 2.67275,-1.67249"
       id="path1689" />
    <path
       style="fill:#fff250"
       inkscape:connector-curvature="0"
       d="m 255.39258,456.39743 1.6921,2.5881 2.67117,-1.67162 -4.36328,-0.91645"
       id="path1691" />
    <path
       style="fill:#f4d347"
       inkscape:connector-curvature="0"
       d="m 278.32645,466.1299 -4.34434,-0.99992 0.99982,-4.34389 4.34434,0.99993 -0.99982,4.34388"
       id="path1693" />
    <path
       style="fill:#e2b33d"
       inkscape:connector-curvature="0"
       d="m 274.00128,465.04667 5.34417,-3.34397 -0.99983,4.3439 -4.34434,-0.99993"
       id="path1695" />
    <path
       style="fill:#d3a43c"
       inkscape:connector-curvature="0"
       d="m 276.67429,463.37423 1.67133,2.67237 -4.34434,-0.99993 2.67301,-1.67244"
       id="path1697" />
    <path
       style="fill:#fff250"
       inkscape:connector-curvature="0"
       d="m 274.98193,460.78609 1.69236,2.58814 2.67116,-1.67153 -4.3635,-0.9167"
       id="path1699" />
    <path
       style="fill:#f4d347"
       inkscape:connector-curvature="0"
       d="m 218.48827,452.22493 -4.3439,-0.99982 0.99985,-4.34399 4.3439,0.99983 -0.99985,4.34398"
       id="path1701" />
    <path
       style="fill:#e2b33d"
       inkscape:connector-curvature="0"
       d="m 214.16357,451.14171 5.34373,-3.34408 -0.99983,4.3439 z"
       id="path1703" />
    <path
       style="fill:#d3a43c"
       inkscape:connector-curvature="0"
       d="m 216.835,449.46898 1.67247,2.67255 -4.3439,-0.99982 z"
       id="path1705" />
    <path
       style="fill:#fff250"
       inkscape:connector-curvature="0"
       d="m 215.14422,446.88112 1.69078,2.58786 2.6723,-1.67135 z"
       id="path1707" />
    <g
       clip-path="url(#c)"
       transform="matrix(0.01141608,0.00262761,0.00262761,-0.01141608,47.150426,428.51941)"
       id="g1709">
      <path
         style="fill:#dfbb3f"
         inkscape:connector-curvature="0"
         d="m 17562.92,2358.303 h 2865.055 V 881.304 H 17562.92"
         id="path1711" />
    </g>
    <path
       style="fill:#e6bf42"
       inkscape:connector-curvature="0"
       d="m 284.30761,469.81222 -31.84814,-7.33041 1.29681,-1.09114 30.85508,7.10184 -0.30375,1.31971"
       id="path1713" />
    <path
       style="fill:#dcad3d"
       inkscape:connector-curvature="0"
       d="m 282.8554,471.3713 -31.94719,-7.58284 1.55116,-1.30667 30.80989,7.09143 -0.41386,1.79808"
       id="path1715" />
    <path
       style="fill:#e6bf42"
       inkscape:connector-curvature="0"
       d="m 286.25996,461.32989 -25.46592,-5.86143 1.29691,-1.09118 24.47278,5.63284 -0.30375,1.31971"
       id="path1717" />
    <path
       style="fill:#dcad3d"
       inkscape:connector-curvature="0"
       d="m 282.14226,462.25619 -10.52531,-2.49831 c -0.39729,-1.03631 -1.2774,-1.86639 -2.42961,-2.15557"
       id="path1719" />
    <path
       style="fill:#e6bf42"
       inkscape:connector-curvature="0"
       d="m 277.76012,457.80593 -0.025,-0.006 c -0.69195,-0.17476 -1.11925,-0.86944 -0.95873,-1.56682 0.16239,-0.70554 0.86556,-1.14595 1.57205,-0.98334 0.13913,0.032 0.26763,0.0844 0.382,0.1539 0.4734,0.28452 0.73267,0.85025 0.60204,1.41776 -0.16262,0.70654 -0.86579,1.14687 -1.57233,0.98425 m 0.0518,-0.22485 c 0.58136,0.13381 1.16131,-0.22911 1.2953,-0.81125 l 0.002,-0.008 4.5e-4,-0.002 0.001,-0.006 4.5e-4,-0.002 10e-4,-0.006 1.9e-4,-8.5e-4 0.002,-0.008 4.5e-4,-0.002 c 4.4e-4,-0.002 8.9e-4,-0.004 10e-4,-0.006 l 4.5e-4,-0.002 0.002,-0.008 0.002,-0.01 0.002,-0.009 0.002,-0.008 c 0.001,-0.006 0.003,-0.0115 0.001,-0.0177 l 2e-4,-8.5e-4 0.002,-0.008 c 0.0682,-0.54446 -0.28391,-1.06305 -0.83051,-1.18886 -0.5813,-0.1338 -1.16127,0.22913 -1.29504,0.81035 -0.0856,0.37211 0.0314,0.74156 0.27867,0.99693 l 0.003,0.004 h 0 c -2e-4,8.6e-4 0.003,0.003 0.003,0.004 h 0 c -1.9e-4,8.6e-4 0.003,0.003 0.003,0.004 h 0 c -2e-4,8.5e-4 0.003,0.003 0.004,0.004 l -2e-4,8.5e-4"
       id="path1721" />
    <path
       style="fill:#d6c2a1"
       inkscape:connector-curvature="0"
       d="m 277.81361,457.58131 -0.006,-10e-4 0.006,10e-4 m -0.009,-0.002 -0.006,-0.001 0.006,0.001 m -0.009,-0.002 -0.004,-9e-4 0.004,9e-4 m -0.006,-0.001 -0.004,-9e-4 0.004,9e-4 m -0.009,-0.002 c 2e-4,-8.6e-4 2e-4,-8.6e-4 -0.003,-0.002 0,0 0.003,6.7e-4 0.003,0.002 m -0.006,-0.002 -0.003,-6.7e-4 0.003,6.7e-4 m -0.006,-0.001 -0.003,-6.8e-4 0.003,6.8e-4 m -0.006,-10e-4 -0.004,-9e-4 0.004,9e-4 m -0.006,-0.002 -0.004,-9e-4 0.004,9e-4 m -0.009,-0.002 -0.003,-6.7e-4 0.003,6.7e-4 m -0.006,-10e-4 -0.003,-6.7e-4 0.003,6.7e-4 m -0.006,-0.002 -0.003,-6.7e-4 0.003,6.7e-4 m -0.006,-10e-4 -0.003,-6.8e-4 0.003,6.8e-4 m -0.006,-0.002 h 0 0 m -0.006,-0.001 h 0 0 m -0.0174,-0.006 h 0 0 m -0.005,-0.002 -0.003,-6.7e-4 0.003,6.7e-4 m -0.006,-10e-4 c 0,0 -0.003,-6.8e-4 -0.003,-0.002 -2e-4,8.6e-4 -2e-4,8.6e-4 0.003,0.002 m -0.006,-0.002 -0.003,-6.7e-4 0.003,6.7e-4 m -0.006,-0.002 h 0 0 m -0.006,-0.002 h 0 0 m -0.006,-0.002 h 0 0 m -0.006,-10e-4 2e-4,-8.7e-4 -2e-4,8.7e-4 m -0.005,-0.002 2e-4,-8.6e-4 -2e-4,8.6e-4 m -0.006,-0.002 2e-4,-8.5e-4 -2e-4,8.5e-4 m -0.006,-0.002 c 2e-4,-8.6e-4 2e-4,-8.6e-4 2e-4,-8.6e-4 0,0 0,0 -2e-4,8.6e-4 m -0.006,-0.002 c 2e-4,-8.6e-4 2e-4,-8.6e-4 2e-4,-8.6e-4 0,0 0,0 -2e-4,8.6e-4 m -0.004,-0.003 h 0 0 m -0.0421,-0.0199 h 0 0 m -0.0118,-0.005 2e-4,-8.6e-4 -2e-4,8.6e-4 m -0.005,-0.003 h 0 0 m -0.006,-0.002 2e-4,-8.5e-4 -2e-4,8.5e-4 m -0.004,-0.003 h 0 0 m -0.006,-0.002 2e-4,-8.6e-4 -2e-4,8.6e-4 m -0.005,-0.003 h 0 0 m -0.0631,-0.0373 h 0 0 m -0.005,-0.003 h 0 0 m -0.004,-0.003 h 0 0 m -0.005,-0.003 -0.003,-6.7e-4 0.003,6.7e-4 m -0.005,-0.003 h 0 0 m -0.004,-0.003 -0.003,-6.8e-4 0.003,6.8e-4 m -0.005,-0.003 c 0,0 0,0 -0.003,-0.002 -2e-4,8.6e-4 -2e-4,8.6e-4 0.003,0.002 m -0.005,-0.003 2e-4,-8.7e-4 -2e-4,8.7e-4 m -0.005,-0.003 2e-4,-8.5e-4 -2e-4,8.5e-4 m -0.0299,-0.0224 c 2e-4,-8.6e-4 2e-4,-8.6e-4 2e-4,-8.6e-4 0,0 0,0 -2e-4,8.6e-4 m -0.004,-0.004 -0.003,-6.7e-4 0.003,6.7e-4 m -0.005,-0.003 c 0,0 2e-4,-8.5e-4 -0.003,-0.002 0,0 -2e-4,8.6e-4 0.003,0.002 m -0.004,-0.003 c 1.9e-4,-8.5e-4 1.9e-4,-8.5e-4 -0.003,-0.002 0,0 0,0 0.003,0.002 m -0.005,-0.004 c 0,0 2e-4,-8.6e-4 2e-4,-8.6e-4 0,0 -2e-4,8.6e-4 -2e-4,8.6e-4 m -0.004,-0.003 c 2e-4,-8.5e-4 2e-4,-8.5e-4 4.5e-4,-0.002 -2e-4,8.4e-4 -2e-4,8.4e-4 -4.5e-4,0.002 m -0.004,-0.004 c 0,0 1.9e-4,-8.5e-4 -0.003,-0.002 0,0 -1.9e-4,8.5e-4 0.003,0.002 m -0.005,-0.003 c 2e-4,-8.5e-4 -0.003,-0.002 -0.002,-0.003 -2e-4,8.7e-4 -2e-4,8.7e-4 0.002,0.003 m -0.004,-0.004 c 2e-4,-8.5e-4 -0.003,-0.002 -0.003,-0.003 -1.9e-4,8.5e-4 0.003,0.002 0.003,0.003 m -0.005,-0.004 c 0,0 -0.003,-0.002 -0.004,-0.002 0,0 0.003,0.002 0.004,0.002 m -0.004,-0.003 c -0.003,-0.002 -0.003,-0.003 -0.004,-0.003 0,0 0.003,0.002 0.004,0.003 m -0.004,-0.004 c -0.003,-0.002 -0.004,-0.002 -0.005,-0.003 -1.9e-4,8.6e-4 0.003,0.002 0.005,0.003 m -0.005,-0.004 c -0.005,-0.005 -0.0134,-0.0113 -0.0206,-0.0182 0.008,0.006 0.015,0.0117 0.0206,0.0182 m -0.0219,-0.0195 c 1.9e-4,-8.5e-4 -0.002,-0.003 -0.003,-0.003 0,0 0.004,0.002 0.003,0.003 m -0.005,-0.004 c 2e-4,-8.6e-4 -0.002,-0.003 -0.003,-0.003 0,0 0.004,0.002 0.003,0.003 m -0.004,-0.004 c 2e-4,-8.7e-4 -0.002,-0.003 -0.003,-0.003 0,0 0.003,0.002 0.003,0.003 m -0.004,-0.004 -0.003,-0.004 0.003,0.004 m -0.005,-0.004 -0.003,-0.004 0.003,0.004 m -0.004,-0.004 c 1.9e-4,-8.5e-4 -0.003,-0.003 -0.003,-0.004 -1.9e-4,8.6e-4 0.002,0.003 0.003,0.004 m -0.004,-0.004 c 2e-4,-8.6e-4 -0.003,-0.003 -0.004,-0.004 -2e-4,8.5e-4 0.003,0.003 0.004,0.004 m -0.004,-0.004 c -0.24692,-0.25519 -0.36383,-0.6247 -0.27816,-0.9969 0.13373,-0.58104 0.7132,-0.94417 1.29544,-0.81016 0.54592,0.12565 0.89913,0.6445 0.83078,1.18892"
       id="path1723" />
    <path
       style="fill:#cbba9f"
       inkscape:connector-curvature="0"
       d="m 277.81361,457.58131 -0.006,-10e-4 -0.006,-10e-4 -0.0178,-0.004 c 1.9e-4,-8.6e-4 1.9e-4,-8.6e-4 -0.003,-0.002 l -0.004,-9e-4 -0.006,-10e-4 -0.01,-0.002 c 0,0 -0.003,-6.8e-4 -0.003,-0.002 l -0.009,-0.002 -0.006,-10e-4 -0.003,-6.7e-4 c 2e-4,-8.7e-4 2e-4,-8.7e-4 -0.004,-0.002 l -0.003,-6.7e-4 -0.004,-9e-4 -0.003,-6.7e-4 c 0,0 1.9e-4,-8.5e-4 -0.004,-0.002 l -0.009,-0.002 c 2e-4,-8.7e-4 -0.003,-0.002 -0.006,-0.002 -0.003,-6.7e-4 -0.006,-0.002 -0.0109,-0.003 h 0 c 0,0 -0.003,-6.7e-4 -0.004,-0.002 l -0.006,-10e-4 c 0,0 0,0 -0.003,-0.002 l -0.006,-10e-4 c 0,0 -0.003,-0.002 -0.004,-0.002 h 0 c 0,0 -0.003,-6.8e-4 -0.005,-0.002 h 0 c 0,0 -0.003,-6.7e-4 -0.005,-0.002 l -0.006,-10e-4 1.9e-4,-8.4e-4 -0.005,-10e-4 2e-4,-8.5e-4 -0.006,-10e-4 2e-4,-8.7e-4 -0.005,-10e-4 c 1.9e-4,-8.5e-4 1.9e-4,-8.5e-4 1.9e-4,-8.5e-4 l -0.005,-0.001 c 2e-4,-8.6e-4 2e-4,-8.6e-4 2e-4,-8.6e-4 0,0 -0.003,-6.8e-4 -0.004,-0.002 h 0 c 0,0 -0.004,-9e-4 -0.005,-0.002 -0.0107,-0.005 -0.0202,-0.008 -0.0306,-0.0132 0,0 -0.004,-9e-4 -0.006,-0.002 h 0 c 0,0 -0.003,-0.002 -0.005,-0.002 -0.003,-0.002 -0.004,-0.002 -0.005,-0.002 l 1.9e-4,-8.5e-4 c 0,0 -0.004,-0.002 -0.006,-0.002 h 0 c 1.9e-4,-8.5e-4 -0.003,-0.002 -0.005,-0.002 l 2e-4,-8.7e-4 c -0.003,-6.7e-4 -0.004,-9e-4 -0.006,-0.002 h 0 c 2e-4,-8.6e-4 -0.003,-0.002 -0.005,-0.002 l 1.9e-4,-8.6e-4 c -0.003,-6.7e-4 -0.004,-0.002 -0.005,-0.002 h 0 c 1.9e-4,-8.6e-4 -0.004,-0.002 -0.005,-0.003 0,0 -0.004,-0.002 -0.006,-0.002 -0.0139,-0.009 -0.0295,-0.018 -0.045,-0.0272 l -0.005,-0.003 h 0 c 2e-4,-8.7e-4 2e-4,-8.7e-4 -0.003,-0.003 h 0 c 2e-4,-8.6e-4 -0.003,-0.002 -0.003,-0.003 h 0 c -0.003,-0.002 -0.004,-0.002 -0.003,-0.003 l -0.003,-6.7e-4 c 2e-4,-8.6e-4 -0.003,-0.002 -0.003,-0.003 h 0 c 1.9e-4,-8.4e-4 -0.004,-0.002 -0.003,-0.003 l -0.003,-6.8e-4 c 1.9e-4,-8.5e-4 -0.003,-0.002 -0.002,-0.003 0,0 0,0 -0.003,-0.002 0,0 -0.003,-0.002 -0.004,-0.002 l 2e-4,-8.7e-4 c 0,0 -0.004,-0.002 -0.005,-0.002 l 2e-4,-8.7e-4 c -0.003,-6.7e-4 -0.004,-0.002 -0.005,-0.003 -0.008,-0.005 -0.0141,-0.009 -0.0211,-0.0161 0,0 -0.003,-0.002 -0.004,-0.002 2e-4,-8.5e-4 2e-4,-8.5e-4 2e-4,-8.5e-4 1.9e-4,-8.6e-4 -0.003,-0.002 -0.003,-0.003 l -0.003,-6.7e-4 c 2e-4,-8.6e-4 -0.003,-0.002 -0.002,-0.003 0,0 2e-4,-8.6e-4 -0.003,-0.002 0,0 -0.003,-0.002 -0.003,-0.002 2e-4,-8.5e-4 2e-4,-8.5e-4 -0.003,-0.002 2e-4,-8.5e-4 -0.003,-0.002 -0.003,-0.003 0,0 2e-4,-8.5e-4 2e-4,-8.5e-4 0,0 -0.003,-0.002 -0.004,-0.002 1.9e-4,-8.4e-4 1.9e-4,-8.4e-4 4.5e-4,-0.002 0,0 -0.003,-6.8e-4 -0.004,-0.002 0,0 2e-4,-8.7e-4 -0.003,-0.002 2e-4,-8.6e-4 2e-4,-8.6e-4 -0.003,-0.002 1.9e-4,-8.6e-4 -0.003,-0.002 -0.002,-0.003 0,0 -0.003,-0.002 -0.003,-0.002 2e-4,-8.7e-4 -0.003,-0.002 -0.003,-0.003 0,0 0,0 2e-4,-8.6e-4 0,0 -0.003,-0.002 -0.004,-0.002 2e-4,-8.6e-4 2e-4,-8.6e-4 2e-4,-8.6e-4 -0.003,-0.002 -0.003,-0.003 -0.005,-0.003 l 2e-4,-8.7e-4 c -0.003,-0.002 -0.004,-0.002 -0.004,-0.003 0,0 2e-4,-8.6e-4 2e-4,-8.6e-4 -0.005,-0.005 -0.0135,-0.0113 -0.0206,-0.0182 2e-4,-8.7e-4 2e-4,-8.7e-4 2e-4,-8.7e-4 1.9e-4,-8.5e-4 -0.002,-0.003 -0.003,-0.003 2e-4,-8.7e-4 2e-4,-8.7e-4 2e-4,-8.7e-4 1.9e-4,-8.5e-4 -0.002,-0.003 -0.003,-0.003 1.9e-4,-8.5e-4 1.9e-4,-8.5e-4 1.9e-4,-8.5e-4 2e-4,-8.7e-4 -0.002,-0.003 -0.003,-0.003 1.9e-4,-8.6e-4 1.9e-4,-8.6e-4 1.9e-4,-8.6e-4 l -0.003,-0.004 h 0 l -0.003,-0.004 h 0 c 2e-4,-8.6e-4 -0.003,-0.003 -0.003,-0.004 h 0 c 1.9e-4,-8.5e-4 -0.003,-0.003 -0.005,-0.004"
       id="path1725" />
    <path
       style="fill:#e9d4a9"
       inkscape:connector-curvature="0"
       d="m 277.60758,456.22369 c -0.10245,-0.0236 -0.17256,-0.1371 -0.16552,-0.24365 0.006,-0.1151 0.0816,-0.21562 0.17364,-0.28579 0.16134,-0.12515 0.38136,-0.16837 0.5806,-0.12251 0.0111,0.003 0.0223,0.005 0.033,0.009 0.0947,0.0259 0.14275,0.0641 0.18407,0.15057 0.0527,0.113 0.014,0.21123 -0.12377,0.20828 -0.0538,-0.001 -0.10862,-0.0158 -0.16298,-0.008 -0.099,0.0122 -0.17124,0.0918 -0.24253,0.16055 -0.0686,0.0708 -0.15379,0.14248 -0.25239,0.13424"
       id="path1727" />
    <path
       style="fill:#dcad3d"
       inkscape:connector-curvature="0"
       d="m 282.88657,468.06784 c -1.31778,-0.30331 -2.03452,-2.08518 -1.59835,-3.9802 0.16426,-0.71366 0.46864,-1.34189 0.85394,-1.83147 0.62709,-0.79333 1.46855,-1.22227 2.27647,-1.06048 -1.06053,0.22833 -2.0487,1.36047 -2.39926,2.88353 -0.43591,1.89388 0.27913,3.67654 1.59832,3.98018 l -0.005,0.0216 c -0.24072,0.0443 -0.48434,0.0424 -0.72613,-0.0132"
       id="path1729" />
    <path
       style="fill:#e6bf42"
       inkscape:connector-curvature="0"
       d="m 283.61769,468.0594 c -1.31919,-0.30364 -2.03431,-2.0863 -1.5984,-3.9802 0.35056,-1.52305 1.33885,-2.65509 2.39924,-2.88353 0.25825,-0.0547 0.52086,-0.0568 0.7784,0.002 l -0.13901,0.60398 c -1.04444,-0.24039 -2.16931,0.73289 -2.57259,2.19675 -6.7e-4,0.003 -0.002,0.008 -0.003,0.0115 l -0.006,0.0249 c -6.7e-4,0.003 -0.001,0.006 -0.002,0.01 l -0.006,0.0263 c -6.7e-4,0.003 -10e-4,0.006 -0.002,0.0106 l -0.0168,0.073 c -6.8e-4,0.003 -10e-4,0.006 -0.002,0.01 l -0.003,0.0137 c -0.35921,1.56067 0.23072,3.02944 1.31813,3.27972 l -0.13902,0.60399"
       id="path1731" />
    <path
       style="fill:#e5742a"
       inkscape:connector-curvature="0"
       d="m 283.8907,466.87326 c -0.81333,-0.48535 -1.21072,-1.7632 -0.90036,-3.1116 0.16818,-0.7307 0.51451,-1.3517 0.94634,-1.78118 -0.63994,0.34543 -1.19345,1.08121 -1.45135,2.01837 0.40313,-1.4639 1.52815,-2.43714 2.57259,-2.19675 l -0.0736,0.31963 c -0.13645,-0.003 -0.24064,0.0505 -0.36913,0.19632 -0.20047,0.22316 -0.23443,0.50143 -0.004,0.63255 0.0535,0.0292 0.10949,0.0481 0.16525,0.0742 l -0.8858,3.84848 m -1.45212,-2.69757 0.003,-0.0115 -0.003,0.0115 m 0.003,-0.0137 c 6.7e-4,-0.003 10e-4,-0.006 0.002,-0.01 -6.7e-4,0.003 -10e-4,0.006 -0.002,0.01 m 0.003,-0.0114 0.002,-0.01 -0.002,0.01 m 0.003,-0.0116 0.002,-0.0106 -0.002,0.0106 m 0.003,-0.0124 0.002,-0.01 -0.002,0.01 m 0.003,-0.0126 0.002,-0.008 -0.002,0.008 m 0.002,-0.0106 0.003,-0.0115 -0.003,0.0115 m 0.003,-0.0126 0.002,-0.0106 -0.002,0.0106 m 0.003,-0.0113 c 6.7e-4,-0.003 10e-4,-0.006 0.002,-0.0106 -6.7e-4,0.003 -0.001,0.006 -0.002,0.0106 m 0.003,-0.0115 0.005,-0.0228 -0.005,0.0228 m 0.006,-0.0251 c 6.7e-4,-0.003 10e-4,-0.006 0.002,-0.01 -6.7e-4,0.003 -10e-4,0.006 -0.002,0.01 m 0.002,-0.0106 0.006,-0.024 -0.006,0.024 m 0.006,-0.024 c 6.8e-4,-0.003 0.002,-0.008 0.003,-0.0114 -6.8e-4,0.003 -0.002,0.008 -0.003,0.0115"
       id="path1733" />
    <path
       style="fill:#c96929"
       inkscape:connector-curvature="0"
       d="m 283.7567,467.45543 c -1.08739,-0.25029 -1.67734,-1.71908 -1.31813,-3.27972 l 0.003,-0.0115 4.5e-4,-0.002 c 6.8e-4,-0.003 10e-4,-0.006 0.002,-0.01 l 4.4e-4,-0.002 0.002,-0.01 4.5e-4,-0.002 0.002,-0.0106 4.5e-4,-0.002 0.002,-0.01 6.8e-4,-0.003 0.002,-0.008 4.5e-4,-0.002 0.003,-0.0126 0.003,-0.0112 c 6.7e-4,-0.003 0.001,-0.006 0.002,-0.0106 l 1.9e-4,-8.6e-4 0.005,-0.0228 4.5e-4,-0.002 c 6.7e-4,-0.003 0.001,-0.006 0.002,-0.01 l 2e-4,-8.6e-4 0.006,-0.024 c 6.7e-4,-0.003 0.002,-0.008 0.003,-0.0112 0.25788,-0.93718 0.81143,-1.67294 1.45137,-2.01836 -0.43183,0.42947 -0.77816,1.05047 -0.94634,1.78117 -0.31036,1.3484 0.087,2.62626 0.90036,3.11161 l -0.134,0.58216"
       id="path1735" />
    <path
       style="fill:#e9a66b"
       inkscape:connector-curvature="0"
       d="m 284.77649,463.0248 c -0.0557,-0.0261 -0.11173,-0.045 -0.16525,-0.0742 -0.23035,-0.13111 -0.1965,-0.40937 0.004,-0.63259 0.12838,-0.14582 0.23246,-0.19877 0.36903,-0.19636 l -0.20788,0.90314"
       id="path1737" />
    <path
       style="fill:#dcad3d"
       inkscape:connector-curvature="0"
       d="m 267.53799,464.44737 c -0.37212,-0.0857 -0.71576,-0.22724 -1.02481,-0.41375 0.0227,0.006 0.0445,0.0112 0.0689,0.0168 1.89458,0.43607 3.78425,-0.74707 4.22016,-2.64096 0.3508,-1.52408 -0.34521,-3.04388 -1.61585,-3.80768 1.15321,0.28955 2.03229,1.11943 2.4307,2.1559"
       id="path1739" />
    <path
       style="fill:#e6bf42"
       inkscape:connector-curvature="0"
       d="m 266.58216,464.05075 c -0.0229,-0.005 -0.0459,-0.0106 -0.0685,-0.0167 -1.85473,-0.46549 -3.00389,-2.3323 -2.5732,-4.20351 0.15136,-0.65757 0.47696,-1.22816 0.91768,-1.67597 0.82983,-0.84413 2.06543,-1.25106 3.30346,-0.96611 0.37186,0.0856 0.71514,0.2272 1.02537,0.41408 1.27108,0.76364 1.96677,2.28344 1.61597,3.80752 -0.43593,1.89399 -2.32673,3.07695 -4.22089,2.64098 m 0.13904,-0.60407 c 1.5614,0.35939 3.11905,-0.61509 3.47828,-2.17583 l 0.003,-0.0112 6.8e-4,-0.003 10e-4,-0.006 9e-4,-0.004 0.002,-0.008 4.5e-4,-0.002 0.002,-0.0106 6.7e-4,-0.003 c 6.7e-4,-0.003 0.001,-0.006 0.002,-0.008 l 6.8e-4,-0.003 0.002,-0.008 6.7e-4,-0.003 0.002,-0.0106 6.7e-4,-0.003 10e-4,-0.006 8.9e-4,-0.004 c 4.5e-4,-0.002 9e-4,-0.004 10e-4,-0.006 l 6.7e-4,-0.003 0.002,-0.0106 4.5e-4,-0.002 c 6.7e-4,-0.003 10e-4,-0.006 0.002,-0.01 l 6.7e-4,-0.003 0.002,-0.008 4.5e-4,-0.002 c 0.002,-0.008 0.003,-0.0148 0.005,-0.0216 l 6.7e-4,-0.003 c 4.5e-4,-0.002 10e-4,-0.005 0.002,-0.008 l 4.5e-4,-0.002 0.002,-0.01 4.5e-4,-0.002 0.002,-0.0106 4.5e-4,-0.002 c 6.7e-4,-0.003 0.001,-0.006 0.002,-0.01 l 4.5e-4,-0.002 c 6.7e-4,-0.003 0.001,-0.006 0.002,-0.01 l 4.5e-4,-0.002 c 6.7e-4,-0.003 10e-4,-0.006 0.002,-0.0106 l 4.5e-4,-0.002 0.002,-0.01 c 1.9e-4,-8.5e-4 1.9e-4,-8.5e-4 4.4e-4,-0.002 l 0.002,-0.01 4.5e-4,-0.002 c 10e-4,-0.006 0.003,-0.0148 0.005,-0.0215 l 4.5e-4,-0.002 c 4.5e-4,-0.002 10e-4,-0.006 0.002,-0.01 l 1.9e-4,-8.7e-4 c 0.002,-0.008 4.9e-4,-0.0155 0.001,-0.0236 l 2e-4,-8.7e-4 c 6.8e-4,-0.003 10e-4,-0.006 0.002,-0.0106 l 1.9e-4,-8.6e-4 c 0.003,-0.0115 0.005,-0.0228 0.005,-0.035 0.14058,-1.43066 -0.80061,-2.77724 -2.23806,-3.10809 -1.5614,-0.35939 -3.11909,0.61526 -3.47856,2.17703 -0.33319,1.44761 0.48074,2.89114 1.84481,3.38054 h 0 l 0.0646,0.021 c 0.003,6.7e-4 0.006,0.001 0.01,0.003 l 0.01,0.002 -2e-4,8.7e-4 0.0108,0.002 c 0,0 0.004,0.002 0.006,0.002 l 0.008,0.002"
       id="path1741" />
    <path
       style="fill:#e5742a"
       inkscape:connector-curvature="0"
       d="m 266.72103,463.44672 -0.0107,-0.002 0.0107,0.002 m -0.0121,-0.003 -0.006,-10e-4 0.006,10e-4 m -0.0107,-0.002 -0.005,-10e-4 0.005,10e-4 m -0.0106,-0.002 -0.004,-9e-4 0.004,9e-4 m -0.008,-0.002 -0.006,-0.001 0.006,0.001 m -0.0108,-0.002 -0.005,-10e-4 0.005,10e-4 m -0.01,-0.003 -0.004,-9e-4 0.004,9e-4 m -0.01,-0.002 -0.004,-8.9e-4 0.004,8.9e-4 m -0.01,-0.002 -0.005,-10e-4 0.005,10e-4 m -0.008,-0.002 -0.006,-10e-4 0.006,10e-4 m -0.0106,-0.002 c 0,0 -0.004,-0.002 -0.005,-0.002 0,0 0.004,0.002 0.005,0.002 m -0.01,-0.003 -0.005,-10e-4 0.005,10e-4 m -0.01,-0.002 -0.006,-10e-4 0.006,10e-4 m -0.008,-0.002 c -0.003,-6.7e-4 -0.005,-0.002 -0.006,-0.002 0,0 0.004,0.002 0.006,0.002 m -0.01,-0.003 c -0.006,-10e-4 -0.0134,-0.003 -0.02,-0.006 0.006,0.002 0.0132,0.004 0.02,0.006 m -0.02,-0.006 -0.008,-0.002 0.008,0.002 m -0.01,-0.002 c -0.004,-9e-4 -0.005,-0.001 -0.008,-0.003 0.003,0.002 0.004,0.002 0.008,0.003 m -0.0119,-0.004 -0.006,-10e-4 0.006,10e-4 m -0.01,-0.002 c 0,0 -0.004,-9e-4 -0.006,-0.002"
       id="path1743" />
    <path
       style="fill:#c96929"
       inkscape:connector-curvature="0"
       d="m 266.72103,463.44672 -0.0577,-0.0133 c 0,0 -0.003,-6.8e-4 -0.004,-0.002 l -0.0335,-0.008 -0.004,-8.9e-4 c 0,0 -0.004,-0.002 -0.005,-0.002 l -0.0201,-0.005 h 0 c -0.003,-6.7e-4 -0.005,-0.002 -0.006,-0.002 l -0.003,-6.7e-4 c -0.006,-0.001 -0.0134,-0.003 -0.02,-0.006 l -0.01,-0.002 c -0.004,-9e-4 -0.005,-10e-4 -0.008,-0.003 l -0.0107,-0.002 -0.003,-6.7e-4 c 0,0 -0.004,-9e-4 -0.006,-0.002 l -0.0121,-0.003 c 0,0 -0.004,-0.002 -0.005,-0.002 l -0.0107,-0.002 c 0,0 2e-4,-8.6e-4 -0.003,-0.002 l -0.006,-0.001 h 0 c -0.003,-6.7e-4 -0.005,-0.002 -0.006,-0.002 l -0.0106,-0.002 2e-4,-8.7e-4 -0.01,-0.002 c -0.003,-0.002 -0.006,-0.002 -0.01,-0.003 l -0.0645,-0.021 h 0"
       id="path1745" />
    <path
       style="fill:#e9a66b"
       inkscape:connector-curvature="0"
       d="m 266.16582,459.80148 c -0.2727,-0.0628 -0.45885,-0.36771 -0.44339,-0.65382 0.0191,-0.3081 0.22303,-0.57977 0.46655,-0.76771 0.43567,-0.33491 1.0253,-0.45047 1.55865,-0.32771 0.0307,0.007 0.061,0.0149 0.0913,0.0231 0.25089,0.0722 0.38197,0.17207 0.4932,0.40681 0.14193,0.30197 0.0382,0.56417 -0.3324,0.55579 -0.1476,-0.004 -0.29341,-0.0398 -0.43929,-0.0206 -0.26314,0.0358 -0.46009,0.24635 -0.64643,0.43554 -0.18607,0.18797 -0.41629,0.37893 -0.6804,0.35783 -0.0234,-0.002 -0.0452,-0.004 -0.0678,-0.009 m -0.79062,0.99622 c -0.0988,-0.0227 -0.1932,-0.0769 -0.26679,-0.14924 -0.12779,-0.12557 -0.20379,-0.30774 -0.18893,-0.48706 0.03,-0.35373 0.26509,-0.4583 0.50095,-0.40401 0.20952,0.0482 0.41746,0.22365 0.4751,0.46168 0.0597,0.24699 -0.0979,0.54004 -0.34824,0.58458 -0.0567,0.011 -0.11543,0.007 -0.17209,-0.006"
       id="path1747" />
    <path
       style="fill:#e6bf42"
       inkscape:connector-curvature="0"
       d="m 258.73693,461.74122 -4.23816,-0.97548 0.0817,-0.0689 4.17557,0.96109 -0.0192,0.0833 m -3.48293,-1.6095 1.66342,-1.40111 0.16726,0.2549 -1.83079,1.14619"
       id="path1749" />
    <path
       style="fill:#dcad3d"
       inkscape:connector-curvature="0"
       d="m 258.75611,461.65791 -1.67134,-2.67236 2.67118,-1.67162 -0.99984,4.34398 m -3.50211,-1.52618 1.83077,-1.14618 -1.83077,1.14618"
       id="path1751" />
    <path
       style="fill:#d3a43c"
       inkscape:connector-curvature="0"
       d="m 258.75611,461.65791 -4.17558,-0.96108 0.67347,-0.5651 1.83077,-1.14618 1.67134,2.67236"
       id="path1753" />
    <path
       style="fill:#ecd047"
       inkscape:connector-curvature="0"
       d="m 257.08466,458.98561 -0.16725,-0.25498 1.91491,-1.61127 0.92352,0.19461 -2.67117,1.67161"
       id="path1755" />
    <path
       style="fill:#e6bf42"
       inkscape:connector-curvature="0"
       d="m 278.32645,466.1299 -4.34434,-0.99992 0.99982,-4.34389 1.69236,2.58814 -2.67301,1.67244 4.34434,0.99993 -0.0192,0.0832 m -1.65216,-2.75567 2.56814,-1.6075 -2.56814,1.6075"
       id="path1757" />
    <path
       style="fill:#dcad3d"
       inkscape:connector-curvature="0"
       d="m 278.34562,466.0466 -1.67133,-2.67237 2.56814,-1.60751 0.10306,-0.0639 -0.99982,4.3439"
       id="path1759" />
    <path
       style="fill:#d3a43c"
       inkscape:connector-curvature="0"
       d="m 278.34562,466.0466 -4.34434,-0.99993 2.67301,-1.67244 1.67133,2.67237"
       id="path1761" />
    <path
       style="fill:#ecd047"
       inkscape:connector-curvature="0"
       d="m 276.67429,463.37423 -1.69236,-2.58814 4.36349,0.91671 -0.10296,0.0639 -2.56815,1.60751"
       id="path1763" />
    <path
       style="fill:#e8cc42"
       inkscape:connector-curvature="0"
       d="m 265.7797,408.81845 c -2.92571,-2.61481 -7.51211,-3.96139 -7.51211,-3.96139 0,0 -4.7124,-0.7937 -8.48684,0.27895 -3.77472,1.07383 -6.71653,3.30947 -6.71653,3.30947 0,0 3.74683,3.76903 4.47133,11.80609 0.5451,6.04827 -4.49719,25.00518 -4.49719,25.00518 l 11.26555,2.59297 c 0,0 3.7512,-19.25408 6.88565,-24.45544 4.1653,-6.91159 9.18275,-8.66336 9.18275,-8.66336 0,0 -1.66846,-3.29678 -4.59261,-5.91247"
       id="path1765" />
    <path
       style="fill:#e8cc42"
       inkscape:connector-curvature="0"
       d="m 261.58063,408.68492 -7.17629,-1.65175 1.5017,-6.52436 7.17628,1.65175 -1.50171,6.52446"
       id="path1767" />
    <path
       style="fill:#e8cc42"
       inkscape:connector-curvature="0"
       d="m 266.3809,401.01618 c -0.48953,2.12686 -3.7842,3.18488 -7.35909,2.36205 -3.57486,-0.82281 -6.07545,-3.21479 -5.58594,-5.34158 0.48979,-2.12798 3.78449,-3.18607 7.35935,-2.36325 3.57488,0.82282 6.07547,3.2148 5.58568,5.34278"
       id="path1769" />
    <path
       style="fill:#e2b33d"
       inkscape:connector-curvature="0"
       d="m 261.72453,395.90893 c 2.0042,1.12126 3.18026,2.77562 2.83055,4.295 -0.48981,2.12806 -3.78423,3.18496 -7.35906,2.36215 -0.31757,-0.0731 -0.62572,-0.15849 -0.92484,-0.25494 0.80051,0.44879 1.73444,0.81161 2.75535,1.04659 3.57489,0.82282 6.86957,-0.23527 7.35911,-2.36214 0.44618,-1.9385 -1.59105,-4.09634 -4.66112,-5.08662"
       id="path1771" />
    <path
       style="fill:#d3a43c"
       inkscape:connector-curvature="0"
       d="m 255.58441,401.90618 7.17629,1.65174 -0.42911,1.86435 -6.96187,-2.58332 0.21469,-0.93277"
       id="path1773" />
    <path
       style="fill:#f4e6a1"
       inkscape:connector-curvature="0"
       d="m 255.39966,399.22263 c -0.1579,-0.0363 -0.30847,-0.12642 -0.44268,-0.2209 -0.24158,-0.16866 -0.4786,-0.37937 -0.54716,-0.66564 -0.0994,-0.4064 0.18021,-0.8097 0.49139,-1.0879 0.67077,-0.59329 1.56051,-0.89825 2.45098,-0.9746 0.27322,-0.0236 1.35237,0.0228 2.2741,0.23492 0.85425,0.19661 1.57308,0.53519 1.39281,1.09235 -0.096,0.29534 -0.48927,0.34538 -0.79953,0.32085 -0.65655,-0.0524 -1.30747,-0.19517 -1.96622,-0.18325 -0.65847,0.0107 -1.35408,0.2052 -1.78181,0.70786 -0.25745,0.30264 -0.45723,0.73502 -0.85139,0.78857"
       id="path1775" />
    <path
       style="fill:#f4e6a1"
       inkscape:connector-curvature="0"
       d="m 254.79846,407.12388 -0.39336,-0.0905 0.13744,-0.59712 c 0.18228,0.15373 0.29856,0.35127 0.27417,0.59197 -0.004,0.0327 -0.0108,0.0649 -0.0189,0.0956 m 2.04464,0.15236 c -0.28214,-0.0649 -0.56226,-0.17159 -0.75621,-0.38331 -0.22451,-0.24399 -0.28486,-0.66306 -0.0512,-0.89779 0.19048,-0.19057 0.46999,-0.19116 0.74375,-0.12814 0.11883,0.0274 0.23503,0.0662 0.34327,0.10671 l 0.0896,0.0939 c 0.0512,0.009 0.10176,0.0193 0.15459,0.0315 0.37933,0.0873 0.78196,0.27152 0.79378,0.64316 0.008,0.25179 -0.20123,0.473 -0.43998,0.55508 -0.23769,0.0824 -0.50049,0.0542 -0.74874,0.007 -0.0423,-0.009 -0.0845,-0.0174 -0.12889,-0.0276"
       id="path1777" />
    <path
       style="fill:#e2b33d"
       inkscape:connector-curvature="0"
       d="m 260.40345,412.92236 c -0.42986,1.86761 -2.29178,3.03315 -4.15835,2.60353 -1.86778,-0.42991 -3.03281,-2.29205 -2.60292,-4.15976 0.4299,-1.86776 2.29151,-3.03202 4.15928,-2.60212 1.86658,0.42962 3.03189,2.29058 2.60199,4.15835"
       id="path1779" />
    <path
       style="fill:#f4d347"
       inkscape:connector-curvature="0"
       d="m 259.46257,412.53253 c -0.4296,1.86648 -2.29144,3.03204 -4.15981,2.602 -1.86707,-0.42973 -3.03322,-2.29224 -2.60362,-4.15872 0.42992,-1.86787 2.29299,-3.03298 4.16001,-2.60325 1.8683,0.43002 3.03332,2.29219 2.60342,4.15997"
       id="path1781" />
    <path
       style="fill:#d9d9ed"
       inkscape:connector-curvature="0"
       d="m 258.86704,412.39563 c -0.35394,1.53778 -1.88944,2.49826 -3.42734,2.14428 -1.53914,-0.35426 -2.49896,-1.88908 -2.14501,-3.42685 0.35423,-1.53899 1.88844,-2.49974 3.42758,-2.14548 1.5379,0.35397 2.499,1.88906 2.14477,3.42805"
       id="path1783" />
    <path
       style="fill:#c5caea"
       inkscape:connector-curvature="0"
       d="m 258.08226,409.7122 c 0.33342,0.59723 0.45642,1.31552 0.2906,2.03595 -0.35422,1.53898 -1.88932,2.49819 -3.4273,2.14419"
       id="path1785" />
    <path
       style="fill:#f9f9fc"
       inkscape:connector-curvature="0"
       d="m 254.89251,410.94699 c -0.26853,-0.0618 -0.45323,-0.36163 -0.43624,-0.64379 0.0181,-0.30364 0.2185,-0.57126 0.45959,-0.75739 0.42798,-0.3294 1.00956,-0.4433 1.5346,-0.32245 0.0311,0.007 0.0597,0.0147 0.0907,0.0229 0.24737,0.0714 0.37624,0.16951 0.48589,0.40053 0.14095,0.29795 0.0385,0.55684 -0.32814,0.54819 -0.14445,-0.003 -0.28868,-0.04 -0.43088,-0.0199 -0.25932,0.0353 -0.45596,0.24254 -0.63868,0.42768 -0.18298,0.18636 -0.40932,0.37462 -0.67093,0.35408 -0.0224,-0.002 -0.0441,-0.006 -0.0656,-0.011 m -0.77807,0.98306 c -0.0972,-0.0224 -0.18983,-0.0761 -0.26227,-0.14687 -0.12755,-0.12428 -0.20207,-0.30502 -0.18758,-0.48198 0.03,-0.3477 0.26235,-0.45045 0.49371,-0.3972 0.20764,0.0478 0.41278,0.21997 0.4701,0.45441 0.0574,0.24401 -0.0978,0.53285 -0.34523,0.57689"
       id="path1787" />
    <path
       style="fill:#e2b33d"
       inkscape:connector-curvature="0"
       d="m 258.22623,419.7854 c -0.34869,1.51493 -1.85927,2.46077 -3.37461,2.11198 -1.51526,-0.34876 -2.46034,-1.85981 -2.11166,-3.37474 0.34869,-1.51491 1.85926,-2.46074 3.37452,-2.11198 1.51534,0.34878 2.46043,1.85983 2.11175,3.37474"
       id="path1789" />
    <path
       style="fill:#f4d347"
       inkscape:connector-curvature="0"
       d="m 257.46236,419.46903 c -0.34869,1.51492 -1.85925,2.46075 -3.37571,2.11171 -1.51535,-0.34878 -2.46034,-1.8598 -2.11166,-3.37472 0.34896,-1.51612 1.85928,-2.46082 3.37454,-2.11206 1.51646,0.34904 2.4617,1.85894 2.11276,3.37497"
       id="path1791" />
    <path
       style="fill:#d9d9ed"
       inkscape:connector-curvature="0"
       d="m 256.98039,419.35783 c -0.28744,1.2488 -1.53323,2.02729 -2.78219,1.73982 -1.2478,-0.2872 -2.02674,-1.53172 -1.73931,-2.78052 0.28747,-1.24897 1.53235,-2.02875 2.78014,-1.74155 1.24897,0.28747 2.02889,1.53329 1.74142,2.78227"
       id="path1793" />
    <path
       style="fill:#c5caea"
       inkscape:connector-curvature="0"
       d="m 256.34372,417.17974 c 0.27057,0.4853 0.37089,1.06864 0.23634,1.65319 -0.28717,1.24768 -1.53325,2.0272 -2.78221,1.73972"
       id="path1795" />
    <path
       style="fill:#f9f9fc"
       inkscape:connector-curvature="0"
       d="m 253.75446,418.18284 c -0.21835,-0.0503 -0.36808,-0.29389 -0.35452,-0.52283 0.0138,-0.24675 0.17735,-0.4629 0.37238,-0.61393 0.34846,-0.26835 0.82037,-0.35934 1.24498,-0.26161 0.025,0.006 0.0505,0.0116 0.0755,0.0183 0.19894,0.0578 0.30435,0.13737 0.39376,0.32504 0.11378,0.2413 0.0302,0.45054 -0.26644,0.44472 -0.11691,-0.003 -0.23506,-0.0325 -0.34987,-0.0167 -0.21023,0.0297 -0.36885,0.19756 -0.51852,0.34831 -0.14832,0.15086 -0.33252,0.30322 -0.54453,0.28579 -0.0174,-9.3e-4 -0.0356,-0.004 -0.0523,-0.008 m -0.63181,0.797 c -0.0809,-0.0186 -0.15488,-0.062 -0.2132,-0.11875 -0.10334,-0.10074 -0.16365,-0.24683 -0.15176,-0.39078 0.0237,-0.28306 0.21195,-0.36596 0.3999,-0.3227 0.16783,0.0386 0.33453,0.1792 0.37991,0.36875 0.0484,0.1975 -0.0785,0.43273 -0.27826,0.46852"
       id="path1797" />
    <path
       style="fill:#e2b33d"
       inkscape:connector-curvature="0"
       d="m 255.85591,426.07368 c -0.26069,1.13262 -1.38992,1.83922 -2.52263,1.5785 -1.1339,-0.26099 -1.83938,-1.38987 -1.57868,-2.52249 0.26063,-1.13235 1.38863,-1.83922 2.52253,-1.57823 1.13272,0.26072 1.83941,1.38987 1.57878,2.52222"
       id="path1799" />
    <path
       style="fill:#f4d347"
       inkscape:connector-curvature="0"
       d="m 255.28545,425.83637 c -0.26067,1.13254 -1.38955,1.83919 -2.52249,1.57843 -1.13282,-0.26074 -1.83923,-1.38982 -1.57856,-2.52236 0.26066,-1.13246 1.38955,-1.83912 2.52242,-1.57837 1.13294,0.26077 1.83938,1.38986 1.57872,2.52232"
       id="path1801" />
    <path
       style="fill:#d9d9ed"
       inkscape:connector-curvature="0"
       d="m 254.92445,425.75347 c -0.21492,0.93378 -1.14556,1.51542 -2.07848,1.30069 -0.93415,-0.21501 -1.51563,-1.14469 -1.3007,-2.07847 0.21469,-0.93278 1.14444,-1.51589 2.07852,-1.30089 0.93292,0.21473 1.51538,1.1458 1.30066,2.07867"
       id="path1803" />
    <path
       style="fill:#c5caea"
       inkscape:connector-curvature="0"
       d="M 254.44774,424.12535"
       id="path1805" />
    <path
       style="fill:#f9f9fc"
       inkscape:connector-curvature="0"
       d="m 252.51221,424.87502 c -0.16183,-0.0372 -0.274,-0.21941 -0.26365,-0.39004 0.0118,-0.18364 0.13245,-0.34583 0.27848,-0.45892 0.25964,-0.20106 0.61232,-0.26901 0.92997,-0.19589 0.0191,0.004 0.0384,0.009 0.056,0.0138 0.15051,0.0428 0.22785,0.1018 0.29373,0.24324 0.0859,0.18078 0.0234,0.33716 -0.19757,0.33192 -0.0879,-0.002 -0.17605,-0.0248 -0.26352,-0.0125 -0.15648,0.0217 -0.27371,0.14725 -0.38667,0.25947 -0.11081,0.11406 -0.24805,0.2278 -0.40557,0.21571 -0.0136,-0.002 -0.0268,-0.004 -0.0413,-0.007 m -0.471,0.59583"
       id="path1807" />
    <path
       style="fill:#ca5a3c"
       inkscape:connector-curvature="0"
       d="m 222.51841,424.11293 c -1.02174,-0.23517 -1.97167,-0.77712 -2.64464,-1.58242 -1.40031,-1.67702 -1.46031,-4.33069 -0.13682,-6.06969 0.89769,-1.17939 2.27251,-1.88237 3.38199,-2.86399 1.04932,-0.92937 1.86464,-2.11086 2.98326,-2.95459 1.26544,-0.9541 2.82673,-1.40735 4.35038,-1.83805 1.65847,-0.4682 3.50616,-0.71369 5.2026,-0.32323 0.70211,0.1616 1.37787,0.43253 2.00533,0.84021 1.91056,1.24641 4.69097,3.75925 3.53073,6.30874 -0.38111,0.83552 -1.16418,1.43307 -2.00615,1.80071 -2.58139,1.12481 -5.75587,0.36654 -8.20297,1.75913 -2.0056,1.14075 -3.10445,3.51209 -5.1618,4.55926 -1.01058,0.51508 -2.19789,0.61803 -3.30191,0.36392"
       id="path1809" />
    <path
       style="fill:#e2b33d"
       inkscape:connector-curvature="0"
       d="m 216.53024,395.45748 c -0.30665,1.33229 -1.63516,2.16369 -2.96746,1.85704 -1.33231,-0.30666 -2.16375,-1.6352 -1.8571,-2.9675 0.30665,-1.33228 1.63525,-2.16375 2.96757,-1.8571 1.33229,0.30666 2.16364,1.63527 1.85699,2.96756 m -5.43769,3.43903 c -0.30665,1.33228 -1.63528,2.16374 -2.96757,1.85709 -1.3323,-0.30665 -2.16367,-1.63527 -1.85702,-2.96756 0.30665,-1.33229 1.63518,-2.16366 2.96748,-1.85701 1.33229,0.30665 2.16376,1.63518 1.85711,2.96748 m -3.34545,6.24071 c -0.30639,1.33118 -1.63631,2.16351 -2.96858,1.85686 -1.33229,-0.30665 -2.1635,-1.63639 -1.8571,-2.96758 0.30664,-1.33227 1.63552,-2.16475 2.96782,-1.8581 1.33226,0.30664 2.16451,1.63654 1.85786,2.96882"
       id="path1811" />
    <path
       style="fill:#f1d99e"
       inkscape:connector-curvature="0"
       d="m 213.08287,395.91054 c -0.0799,-0.0184 -0.1591,-0.0558 -0.22889,-0.0971 -0.28913,-0.17475 -0.55055,-0.45967 -0.55456,-0.79724 -0.002,-0.2264 0.11178,-0.43706 0.22824,-0.63142 0.2825,-0.46511 0.74634,-1.07005 1.34847,-1.11657 0.0489,-0.003 0.11553,0.005 0.19312,0.0228 0.39044,0.0899 1.02199,0.42754 0.65812,0.75491 -0.0774,0.0699 -0.19036,0.08 -0.29451,0.0837 -0.18094,0.008 -0.3676,0.009 -0.52918,0.0898 -0.38597,0.19363 -0.43921,0.71755 -0.41331,1.14789 0.0117,0.18416 0.0106,0.40275 -0.14061,0.50615 -0.0786,0.0541 -0.17224,0.0589 -0.26703,0.0371 m -5.47445,3.17578 c -0.08,-0.0184 -0.15911,-0.0558 -0.22892,-0.0971 -0.28912,-0.17476 -0.55081,-0.45858 -0.55463,-0.79727 -0.002,-0.22642 0.11178,-0.43706 0.22825,-0.63141 0.28259,-0.4651 0.74639,-1.07006 1.34827,-1.11546 0.049,-0.004 0.11689,0.004 0.19336,0.0217 0.39046,0.0899 1.02199,0.42755 0.65814,0.75491 -0.0774,0.07 -0.19035,0.0801 -0.29487,0.0849 -0.18055,0.006 -0.36755,0.009 -0.5289,0.0886 -0.38589,0.19365 -0.43924,0.71754 -0.41325,1.1479 0.0117,0.18417 0.0106,0.40275 -0.14061,0.50615 -0.0786,0.0542 -0.17337,0.0587 -0.26696,0.0372 m -3.28106,6.53568 c -0.0798,-0.0184 -0.15937,-0.0546 -0.22891,-0.0971 -0.28913,-0.17475 -0.55082,-0.45857 -0.55456,-0.79726 -0.002,-0.22648 0.11178,-0.43704 0.22799,-0.6303 0.2825,-0.4651 0.74657,-1.07118 1.34844,-1.11657 0.0491,-0.004 0.11689,0.004 0.19336,0.0217 0.39044,0.0899 1.022,0.42753 0.65813,0.75491 -0.0773,0.0698 -0.19035,0.08 -0.29476,0.0848 -0.18066,0.006 -0.36761,0.009 -0.52804,0.0901 -0.38687,0.19225 -0.44011,0.71617 -0.41447,1.14762 0.012,0.1831 0.0109,0.40155 -0.14042,0.5062 -0.0786,0.0541 -0.17316,0.0576 -0.26675,0.0361"
       id="path1813" />
    <path
       style="fill:#e2b33d"
       inkscape:connector-curvature="0"
       d="m 287.02681,399.88802 c 0,1.36713 1.1082,2.47533 2.47435,2.47533 1.36775,0 2.47593,-1.10811 2.47593,-2.47533 0,-1.36713 -1.10818,-2.47541 -2.47593,-2.47541 -1.36625,0 -2.47435,1.10828 -2.47435,2.47541 m 4.52653,4.57134 c 0,1.36712 1.10837,2.47525 2.47638,2.47525 1.36651,0 2.47488,-1.10821 2.47488,-2.47525 0,-1.36729 -1.10837,-2.4755 -2.47488,-2.4755 -1.36801,0 -2.47638,1.10821 -2.47638,2.4755 m 1.86072,6.8322 c 0,1.36704 1.10715,2.47506 2.47444,2.47506 1.36714,0 2.47595,-1.10802 2.47595,-2.47506 0,-1.3673 -1.10881,-2.47541 -2.47595,-2.47541 -1.36729,0 -2.47444,1.10811 -2.47444,2.47533"
       id="path1815" />
    <path
       style="fill:#f1d99e"
       inkscape:connector-curvature="0"
       d="m 301.99179,416.91311 c -0.0944,-0.0217 -0.17571,-0.067 -0.22331,-0.15012 -0.0922,-0.15952 0.004,-0.35606 0.094,-0.51696 0.21219,-0.37544 0.39283,-0.86996 0.13007,-1.21299 -0.11006,-0.14308 -0.2773,-0.22611 -0.43623,-0.312 -0.0912,-0.0486 -0.1896,-0.10737 -0.22804,-0.20395 -0.18449,-0.4535 0.53174,-0.48098 0.92123,-0.39133 0.0768,0.0177 0.14174,0.0388 0.18405,0.0641 0.52164,0.30524 0.67441,1.05203 0.72381,1.59343 0.021,0.22601 0.0311,0.46518 -0.0713,0.66755 -0.1492,0.30358 -0.50923,0.44421 -0.84564,0.47488 -0.0808,0.007 -0.16902,0.006 -0.24874,-0.0126 m 3.53648,5.24979 c -0.0946,-0.0218 -0.17753,-0.0674 -0.22483,-0.15057 -0.0915,-0.15929 0.004,-0.35604 0.0938,-0.51703 0.21295,-0.37528 0.39481,-0.86959 0.13041,-1.21293 -0.10824,-0.14156 -0.27714,-0.22607 -0.4347,-0.31166 -0.0933,-0.049 -0.19051,-0.10727 -0.22837,-0.20402 -0.18525,-0.45376 0.53168,-0.48106 0.92091,-0.39147 0.0767,0.0177 0.14139,0.0387 0.18442,0.0652 0.52033,0.30386 0.67413,1.05208 0.72387,1.59239 0.0207,0.22602 0.0306,0.46505 -0.0715,0.66749 -0.15055,0.30326 -0.50889,0.44438 -0.84675,0.47472 -0.0807,0.007 -0.16747,0.006 -0.24718,-0.0123 m 0.0931,7.31331 c -0.0938,-0.0216 -0.17727,-0.0673 -0.22357,-0.15017 -0.092,-0.16065 0.004,-0.35724 0.0935,-0.51688 0.21265,-0.37672 0.39492,-0.87093 0.13104,-1.21297 -0.10895,-0.14281 -0.27755,-0.22734 -0.43649,-0.31207 -0.092,-0.05 -0.18865,-0.10827 -0.22846,-0.2052 -0.18404,-0.45351 0.53296,-0.48078 0.9234,-0.39091 0.0756,0.0174 0.14087,0.0386 0.18264,0.0647 0.52118,0.30407 0.67415,1.05197 0.7247,1.59383 0.0198,0.2257 0.0303,0.46381 -0.0721,0.66618 -0.14947,0.30343 -0.50862,0.44427 -0.84547,0.47491 -0.0815,0.008 -0.16894,0.007 -0.24916,-0.0115"
       id="path1817" />
  </g>
</svg>
