<?xml version="1.0" encoding="UTF-8" standalone="no"?>
<!-- Created with Inkscape (http://www.inkscape.org/) -->

<svg
   xmlns:dc="http://purl.org/dc/elements/1.1/"
   xmlns:cc="http://creativecommons.org/ns#"
   xmlns:rdf="http://www.w3.org/1999/02/22-rdf-syntax-ns#"
   xmlns:svg="http://www.w3.org/2000/svg"
   xmlns="http://www.w3.org/2000/svg"
   xmlns:sodipodi="http://sodipodi.sourceforge.net/DTD/sodipodi-0.dtd"
   xmlns:inkscape="http://www.inkscape.org/namespaces/inkscape"
   width="238"
   height="238"
   id="svg4149"
   version="1.1"
   inkscape:version="0.48.5 r10040"
   sodipodi:docname="New document 4">
  <defs
     id="defs4151" />
  <sodipodi:namedview
     id="base"
     pagecolor="#ffffff"
     bordercolor="#666666"
     borderopacity="1.0"
     inkscape:pageopacity="0.0"
     inkscape:pageshadow="2"
     inkscape:zoom="0.7"
     inkscape:cx="-249.34138"
     inkscape:cy="297.90838"
     inkscape:document-units="px"
     inkscape:current-layer="layer1"
     showgrid="false"
     fit-margin-top="1"
     fit-margin-left="1"
     fit-margin-right="1"
     fit-margin-bottom="1"
     inkscape:window-width="1536"
     inkscape:window-height="801"
     inkscape:window-x="-8"
     inkscape:window-y="-8"
     inkscape:window-maximized="1" />
  <metadata
     id="metadata4154">
    <rdf:RDF>
      <cc:Work
         rdf:about="">
        <dc:format>image/svg+xml</dc:format>
        <dc:type
           rdf:resource="http://purl.org/dc/dcmitype/StillImage" />
        <dc:title></dc:title>
      </cc:Work>
    </rdf:RDF>
  </metadata>
  <g
     inkscape:label="Layer 1"
     inkscape:groupmode="layer"
     id="layer1"
     transform="translate(-150.94477,-396.14375)">
    <g
       transform="matrix(1.25,0,0,-1.25,95.768409,967.36591)"
       id="g4105">
      <g
         transform="translate(161.0415,288.0728)"
         id="g20">
        <path
           inkscape:connector-curvature="0"
           id="path22"
           style="fill:#ac5d3d;fill-opacity:1;fill-rule:nonzero;stroke:none"
           d="m 0,0 c 0,0 59.721,-3.3 52.749,50.653 -6.954,53.81 -48.437,73.384 -25.436,117.331 0,0 -63.417,-5.134 -64.706,-70.232 -1.392,-70.344 28.357,-83.377 28.357,-83.377 l 6.983,-17.25" />
      </g>
      <g
         transform="translate(91.7842,337.1763)"
         id="g24">
        <path
           inkscape:connector-curvature="0"
           id="path26"
           style="fill:#c06846;fill-opacity:1;fill-rule:nonzero;stroke:none"
           d="m 0,0 c 0,-10.844 -5.93,-19.634 -13.246,-19.634 -7.316,0 -13.245,8.79 -13.245,19.634 0,10.842 5.929,19.632 13.245,19.632 C -5.93,19.632 0,10.842 0,0" />
      </g>
      <g
         transform="translate(92.7505,346.1899)"
         id="g28">
        <path
           inkscape:connector-curvature="0"
           id="path30"
           style="fill:#ac5d3d;fill-opacity:1;fill-rule:nonzero;stroke:none"
           d="m 0,0 c 0,-4.26 -6.824,-2.053 -14.674,-2.053 -7.849,0 -13.751,-2.207 -13.751,2.053 0,4.261 6.364,12.912 14.213,12.912 C -6.362,12.912 0,4.261 0,0" />
      </g>
      <g
         transform="translate(104.7583,369.1904)"
         id="g32">
        <path
           inkscape:connector-curvature="0"
           id="path34"
           style="fill:#c06846;fill-opacity:1;fill-rule:nonzero;stroke:none"
           d="m 0,0 c 0,0 2.773,-23.749 22.179,-39.737 9.824,-8.096 16.737,-16.532 18.02,-29.88 1.378,-14.331 -7.17,-29.878 -22.949,-31.009 0,0 -46.822,-2.67 -46.976,0 -0.154,2.67 1.386,7.598 10.165,7.752 8.779,0.154 10.782,-0.308 10.782,-0.308 0,0 -15.448,5.307 -14.016,24.952 1.078,14.785 14.17,17.324 14.17,17.324 -4.159,17.405 5.046,44.437 5.046,44.437 l -8.897,5.391" />
      </g>
      <g
         transform="translate(99.0234,375.9673)"
         id="g36">
        <path
           inkscape:connector-curvature="0"
           id="path38"
           style="fill:#ffb169;fill-opacity:1;fill-rule:nonzero;stroke:none"
           d="M 0,0 C 0,0 -2.28,-19.107 -4.775,-39.891 -7.482,-62.45 -15.248,-81.63 1.54,-95.8 c 21.186,-17.882 50.519,1.848 45.59,20.946 -4.929,19.099 -27.649,65.293 -27.649,65.293 L 0,0 z" />
      </g>
      <g
         transform="translate(110.4106,422.3096)"
         id="g40">
        <path
           inkscape:connector-curvature="0"
           id="path42"
           style="fill:#c06846;fill-opacity:1;fill-rule:nonzero;stroke:none"
           d="m 0,0 c 0,0 -3.41,11.614 -2.13,21.184 1.28,9.57 -6.191,2.421 -8.918,-11.915 -1.708,-8.983 -5.547,-12.956 -5.547,-12.956 L 0,0 z" />
      </g>
      <g
         transform="translate(121.6274,420.5669)"
         id="g44">
        <path
           inkscape:connector-curvature="0"
           id="path46"
           style="fill:#c06846;fill-opacity:1;fill-rule:nonzero;stroke:none"
           d="m 0,0 c 0,0 6.773,10.032 8.457,19.539 1.685,9.507 6.634,0.428 4.882,-14.06 -1.097,-9.078 1.355,-14.027 1.355,-14.027 L 0,0 z" />
      </g>
      <g
         transform="translate(132.9077,369.1904)"
         id="g48">
        <path
           inkscape:connector-curvature="0"
           id="path50"
           style="fill:#dd7952;fill-opacity:1;fill-rule:nonzero;stroke:none"
           d="m 0,0 c 0,0 2.773,-23.749 22.179,-39.737 9.824,-8.096 16.737,-16.532 18.02,-29.88 1.378,-14.331 -7.17,-29.878 -22.949,-31.009 0,0 -46.822,-2.67 -46.976,0 -0.154,2.67 1.386,7.598 10.165,7.752 8.779,0.154 10.782,-0.308 10.782,-0.308 0,0 -15.448,5.307 -14.016,24.952 1.078,14.785 14.17,17.324 14.17,17.324 -4.159,17.405 -13.554,46.285 -13.554,46.285 l 9.703,3.543" />
      </g>
      <g
         transform="translate(148.5356,377.0708)"
         id="g52">
        <path
           inkscape:connector-curvature="0"
           id="path54"
           style="fill:#dd7b51;fill-opacity:1;fill-rule:nonzero;stroke:none"
           d="m 0,0 c -11.914,-27.726 -38.99,-23.345 -42.908,-22.562 -3.996,0.447 -31.101,4.484 -34.04,34.518 0,0 8.129,3.201 10.38,12.078 2.221,8.833 14.442,28.581 33.898,19.298 C -11.315,46.274 -5.662,23.749 -6.226,14.658 -6.773,5.517 0,0 0,0" />
      </g>
      <g
         transform="translate(83.7754,335.7681)"
         id="g56">
        <path
           inkscape:connector-curvature="0"
           id="path58"
           style="fill:#dd7952;fill-opacity:1;fill-rule:nonzero;stroke:none"
           d="m 0,0 c 0,0 10.771,-0.925 19.397,8.625 8.626,9.551 12.052,19.684 22.511,11.998 10.459,-7.685 5.684,-27.176 -11.104,-31.831 -16.788,-4.656 -34.038,2.275 -37.273,7.204 -3.234,4.928 1.49,9.297 3.44,7.753 C -0.21,1.516 0,0 0,0" />
      </g>
      <g
         transform="translate(148.5356,377.0708)"
         id="g60">
        <path
           inkscape:connector-curvature="0"
           id="path62"
           style="fill:#ffb169;fill-opacity:1;fill-rule:nonzero;stroke:none"
           d="m 0,0 c -11.914,-27.726 -38.99,-23.345 -42.908,-22.562 -3.996,0.447 -31.101,4.484 -34.04,34.518 0,0 14.239,-11.241 24.669,-6.227 10.434,5.037 14.573,5.191 14.573,5.191 0,0 3.896,-1.402 12.31,-9.368 C -16.978,-6.39 0,0 0,0" />
      </g>
      <g
         transform="translate(109.9019,383.7529)"
         id="g64">
        <path
           inkscape:connector-curvature="0"
           id="path66"
           style="fill:#1a0200;fill-opacity:1;fill-rule:nonzero;stroke:none"
           d="M 0,0 C 0,0 -4.121,4.529 -2.401,5.568 -0.681,6.607 4.009,5.689 4.188,4.337 4.368,2.984 1.549,-0.241 0,0" />
      </g>
      <g
         transform="translate(99.2773,396.833)"
         id="g68">
        <path
           inkscape:connector-curvature="0"
           id="path70"
           style="fill:#1a0200;fill-opacity:1;fill-rule:nonzero;stroke:none"
           d="m 0,0 c -0.193,-1.24 -1.354,-2.089 -2.593,-1.896 -1.241,0.192 -2.089,1.354 -1.897,2.594 0.193,1.239 1.354,2.089 2.594,1.896 C -0.656,2.401 0.192,1.24 0,0" />
      </g>
      <g
         transform="translate(111.2783,376.6382)"
         id="g72">
        <path
           inkscape:connector-curvature="0"
           id="path74"
           style="fill:#ffffff;fill-opacity:1;fill-rule:nonzero;stroke:none"
           d="m 0,0 c -0.295,-0.776 -0.586,-2.034 -0.71,-2.188 -0.425,-0.484 -1.835,0.051 -1.835,0.051 0,0 -1.369,0.338 -1.694,0.488 -0.139,0.072 -0.219,1.005 -0.292,2.14 2.095,1.919 3.125,5.5 3.366,6.41 C -1.141,6.898 -1.141,6.898 -1.12,6.869 -1.187,5.807 -1.72,2.413 0,0" />
      </g>
      <g
         transform="translate(117.6177,374.2187)"
         id="g76">
        <path
           inkscape:connector-curvature="0"
           id="path78"
           style="fill:#dd7b51;fill-opacity:1;fill-rule:nonzero;stroke:none"
           d="M 0,0 C -0.238,-0.193 -0.523,-0.322 -0.811,-0.437 -1.109,-0.509 -1.409,-0.628 -1.724,-0.626 L -2.196,-0.65 c -0.156,0.015 -0.311,0.046 -0.467,0.068 l -0.469,0.078 -0.441,0.169 c -0.293,0.115 -0.603,0.209 -0.85,0.405 L -5.21,0.591 c -0.254,0.228 -0.463,0.39 -0.669,0.676 -0.225,0.257 -0.376,0.548 -0.525,0.799 -0.156,0.261 -0.309,0.522 -0.409,0.833 -0.108,0.299 -0.241,0.595 -0.323,0.896 -0.149,0.604 -0.296,1.207 -0.352,1.823 -0.074,0.611 -0.107,1.227 -0.108,1.84 -0.001,0.613 0.042,1.226 0.117,1.832 l 0,-10e-4 0.033,0.247 0.007,-0.247 0,-0.002 C -7.425,8.678 -7.395,8.072 -7.333,7.469 -7.287,6.867 -7.21,6.266 -7.094,5.677 -7.027,5.384 -6.992,5.084 -6.916,4.795 L -6.678,3.933 C -6.596,3.648 -6.472,3.389 -6.373,3.115 -6.29,2.842 -6.128,2.581 -5.974,2.317 -5.815,2.042 -5.687,1.79 -5.511,1.585 -5.374,1.364 -5.101,1.141 -4.913,0.954 L -4.196,0.44 C -3.967,0.247 -3.694,0.143 -3.43,0.015 l 0.399,-0.19 0.426,-0.101 c 0.143,-0.032 0.286,-0.072 0.43,-0.098 l 0.441,-0.012 c 0.298,-0.04 0.588,0.039 0.886,0.074 C -0.56,-0.23 -0.269,-0.15 0,0" />
      </g>
      <g
         transform="translate(100.1826,376.9277)"
         id="g80">
        <path
           inkscape:connector-curvature="0"
           id="path82"
           style="fill:#dd7b51;fill-opacity:1;fill-rule:nonzero;stroke:none"
           d="M 0,0 C 0,0 0.155,-0.181 0.489,-0.402 0.647,-0.527 0.864,-0.638 1.117,-0.75 1.36,-0.881 1.679,-0.918 1.994,-1.023 2.332,-1.024 2.69,-1.13 3.073,-1.054 c 0.382,0.056 0.784,0.076 1.18,0.24 0.201,0.064 0.404,0.13 0.61,0.197 0.163,0.029 0.384,0.199 0.577,0.289 l 0.302,0.165 0.245,0.206 c 0.158,0.144 0.339,0.263 0.481,0.421 0.309,0.342 0.668,0.663 0.896,1.029 0.13,0.177 0.259,0.352 0.386,0.526 0.113,0.188 0.225,0.374 0.335,0.557 0.442,0.732 0.79,1.46 1.067,2.093 0.265,0.638 0.488,1.173 0.62,1.557 0.138,0.382 0.217,0.601 0.217,0.601 0,0 -0.045,-0.228 -0.123,-0.628 C 9.772,5.803 9.642,5.232 9.415,4.568 9.175,3.911 8.899,3.133 8.468,2.359 8.266,1.968 8.032,1.57 7.739,1.189 7.479,0.777 7.142,0.472 6.833,0.122 6.662,-0.062 6.452,-0.202 6.262,-0.363 L 5.971,-0.593 5.667,-0.753 C 5.449,-0.854 5.304,-0.981 5.026,-1.052 4.804,-1.115 4.584,-1.177 4.368,-1.239 3.945,-1.399 3.497,-1.389 3.086,-1.417 c -0.411,-0.048 -0.8,0.089 -1.153,0.121 -0.336,0.129 -0.661,0.212 -0.9,0.381 -0.25,0.149 -0.457,0.29 -0.604,0.437 C 0.117,-0.206 0,0 0,0" />
      </g>
      <g
         transform="translate(79.4629,357.8701)"
         id="g84">
        <path
           inkscape:connector-curvature="0"
           id="path86"
           style="fill:#ac5d3d;fill-opacity:1;fill-rule:nonzero;stroke:none"
           d="M 0,0 C 0,0 0.183,7.239 -3.258,7.162 -6.7,7.085 -1.463,3.773 -1.232,0 -1.001,-3.773 0.001,-0.308 0.001,-0.308" />
      </g>
      <g
         transform="translate(127.4736,392.4521)"
         id="g88">
        <path
           inkscape:connector-curvature="0"
           id="path90"
           style="fill:#1a0200;fill-opacity:1;fill-rule:nonzero;stroke:none"
           d="m 0,0 c -0.193,-1.24 -1.354,-2.089 -2.594,-1.896 -1.24,0.192 -2.089,1.354 -1.896,2.594 0.193,1.239 1.354,2.089 2.594,1.896 C -0.656,2.401 0.192,1.24 0,0" />
      </g>
      <g
         transform="translate(126.7358,393.4897)"
         id="g92">
        <path
           inkscape:connector-curvature="0"
           id="path94"
           style="fill:#ffffff;fill-opacity:1;fill-rule:nonzero;stroke:none"
           d="m 0,0 c -0.042,-0.273 -0.298,-0.46 -0.571,-0.417 -0.274,0.042 -0.46,0.297 -0.418,0.571 0.043,0.273 0.298,0.46 0.572,0.417 C -0.144,0.529 0.042,0.273 0,0" />
      </g>
      <g
         transform="translate(98.6313,397.8564)"
         id="g96">
        <path
           inkscape:connector-curvature="0"
           id="path98"
           style="fill:#ffffff;fill-opacity:1;fill-rule:nonzero;stroke:none"
           d="m 0,0 c -0.042,-0.273 -0.298,-0.46 -0.571,-0.417 -0.274,0.042 -0.461,0.297 -0.418,0.571 0.042,0.273 0.298,0.46 0.571,0.417 C -0.144,0.529 0.042,0.273 0,0" />
      </g>
      <g
         transform="translate(109.9565,388.4863)"
         id="g100">
        <path
           inkscape:connector-curvature="0"
           id="path102"
           style="fill:#ffffff;fill-opacity:1;fill-rule:nonzero;stroke:none"
           d="m 0,0 c -0.03,-0.195 -0.276,-0.319 -0.55,-0.276 -0.273,0.042 -0.47,0.234 -0.439,0.429 0.03,0.197 0.276,0.32 0.549,0.278 C -0.166,0.388 0.031,0.196 0,0" />
      </g>
    </g>
  </g>
</svg>
