<?xml version="1.0" encoding="UTF-8" standalone="no"?>
<!-- Created with Inkscape (http://www.inkscape.org/) -->

<svg
   xmlns:dc="http://purl.org/dc/elements/1.1/"
   xmlns:cc="http://creativecommons.org/ns#"
   xmlns:rdf="http://www.w3.org/1999/02/22-rdf-syntax-ns#"
   xmlns:svg="http://www.w3.org/2000/svg"
   xmlns="http://www.w3.org/2000/svg"
   xmlns:sodipodi="http://sodipodi.sourceforge.net/DTD/sodipodi-0.dtd"
   xmlns:inkscape="http://www.inkscape.org/namespaces/inkscape"
   width="273"
   height="273"
   id="svg4149"
   version="1.1"
   inkscape:version="0.48.5 r10040"
   sodipodi:docname="logo-crown4.svg">
  <defs
     id="defs4151">
    <clipPath
       id="c"
       clipPathUnits="userSpaceOnUse">
      <path
         inkscape:connector-curvature="0"
         d="m 20427.9,881.301 -2865,3.398 62.2,82.703 2802.8,-19.101 v -67 m 0,340.099 h -2611.7 l 49.8,66.2 h 371.2 v 387.8 l -80.6,-1.5 24.7,32.7 496.4,-3.4 c -28,-45.7 -44.2,-99.4 -44.2,-157 0,-163.9 131.3,-297.2 294.5,-300.4 29.3,-9.6 60.6,-14.8 93.2,-14.8 166,0 300.5,134.6 300.5,300.6 0,62 -18.8,119.7 -51,167.6 l 923.4,-6.3 c -22.7,-48.1 -36,-106.2 -36,-168.7 0,-166 93.7,-300.5 209.2,-300.5 21.1,0 41.4,4.5 60.6,12.8 v -15.1 m -857.5,456.7 v -380.5 h 380.5 v 387.8 l -7.3,-7.3 7.3,7.3 -380.5,-7.3 m 857.5,286.3 h -2052.7 l 283.2,376.4 1769.5,17.5 v -393.9 m -685.7,14.8 c 10.9,-3.5 22.6,-5.5 34.7,-5.5 61.9,0 112,50.2 112,112 0,61.1 -48.9,110.7 -109.7,111.9 -10.9,3.6 -22.6,5.5 -34.7,5.5 -61.9,0 -112,-50.1 -112,-111.9 0,-61.1 48.9,-110.7 109.7,-112"
         id="path13" />
    </clipPath>
    <clipPath
       id="a"
       clipPathUnits="userSpaceOnUse">
      <path
         inkscape:connector-curvature="0"
         d="m 3039.42,1916.5 c -18.04,0 -34.26,16.4 -37.32,34.6 -3.3,19.7 5.57,39.7 18.23,55.1 22.45,27.4 57.9,43.1 93.16,43.1 2.05,0 4.09,0 6.14,-0.1 16.8,-0.9 26.48,-5.3 36.85,-18.4 13.36,-17 10.6,-35 -12.83,-39.8 -9.27,-1.9 -19.04,-1.7 -27.9,-5.1 -15.97,-6.1 -25.4,-22.2 -34.38,-36.7 -8.99,-14.6 -20.68,-29.9 -37.59,-32.4 -1.46,-0.2 -2.91,-0.3 -4.36,-0.3"
         id="path7" />
    </clipPath>
    <clipPath
       clipPathUnits="userSpaceOnUse"
       id="clipPath1036">
      <path
         inkscape:connector-curvature="0"
         d="m 96.9873,361.256 3.2117,0 0,-3.352 -3.2117,0 0,3.352 z"
         id="path1038" />
    </clipPath>
    <clipPath
       clipPathUnits="userSpaceOnUse"
       id="clipPath1016">
      <path
         inkscape:connector-curvature="0"
         d="m 96.7256,371.802 3.2119,0 0,-3.352 -3.2119,0 0,3.352 z"
         id="path1018" />
    </clipPath>
    <clipPath
       clipPathUnits="userSpaceOnUse"
       id="clipPath996">
      <path
         inkscape:connector-curvature="0"
         d="m 96.5107,381.677 3.212,0 0,-3.352 -3.212,0 0,3.352 z"
         id="path998" />
    </clipPath>
    <clipPath
       clipPathUnits="userSpaceOnUse"
       id="clipPath976">
      <path
         inkscape:connector-curvature="0"
         d="m 96.8413,390.643 3.2127,0 0,-3.352 -3.2127,0 0,3.352 z"
         id="path978" />
    </clipPath>
    <clipPath
       clipPathUnits="userSpaceOnUse"
       id="clipPath940">
      <path
         inkscape:connector-curvature="0"
         d="m 109.033,341.34 4.134,0 0,-4.114 -4.134,0 0,4.114 z"
         id="path942" />
    </clipPath>
    <clipPath
       clipPathUnits="userSpaceOnUse"
       id="clipPath896">
      <path
         inkscape:connector-curvature="0"
         d="m 84.3516,341.34 4.1338,0 0,-4.114 -4.1338,0 0,4.114 z"
         id="path898" />
    </clipPath>
    <clipPath
       clipPathUnits="userSpaceOnUse"
       id="clipPath844">
      <path
         inkscape:connector-curvature="0"
         d="m 99.2979,404.799 2.1251,0 0,-2.217 -2.1251,0 0,2.217 z"
         id="path846" />
    </clipPath>
    <clipPath
       clipPathUnits="userSpaceOnUse"
       id="clipPath824">
      <path
         inkscape:connector-curvature="0"
         d="m 103.854,404.799 2.126,0 0,-2.217 -2.126,0 0,2.217 z"
         id="path826" />
    </clipPath>
    <clipPath
       clipPathUnits="userSpaceOnUse"
       id="clipPath804">
      <path
         inkscape:connector-curvature="0"
         d="m 95.2803,404.799 2.1255,0 0,-2.217 -2.1255,0 0,2.217 z"
         id="path806" />
    </clipPath>
    <clipPath
       clipPathUnits="userSpaceOnUse"
       id="clipPath784">
      <path
         inkscape:connector-curvature="0"
         d="m 91.7778,404.799 2.125,0 0,-2.217 -2.125,0 0,2.217 z"
         id="path786" />
    </clipPath>
    <clipPath
       clipPathUnits="userSpaceOnUse"
       id="clipPath672">
      <path
         inkscape:connector-curvature="0"
         d="m 98.3218,409.091 4.8552,0 0,-3.039 -4.8552,0 0,3.039 z"
         id="path674" />
    </clipPath>
  </defs>
  <sodipodi:namedview
     id="base"
     pagecolor="#ffffff"
     bordercolor="#666666"
     borderopacity="1.0"
     inkscape:pageopacity="0.0"
     inkscape:pageshadow="2"
     inkscape:zoom="1.4"
     inkscape:cx="-138.38305"
     inkscape:cy="66.942429"
     inkscape:document-units="px"
     inkscape:current-layer="layer1"
     showgrid="false"
     fit-margin-top="1"
     fit-margin-left="1"
     fit-margin-right="1"
     fit-margin-bottom="1"
     inkscape:window-width="1920"
     inkscape:window-height="1017"
     inkscape:window-x="-8"
     inkscape:window-y="1072"
     inkscape:window-maximized="1" />
  <metadata
     id="metadata4154">
    <rdf:RDF>
      <cc:Work
         rdf:about="">
        <dc:format>image/svg+xml</dc:format>
        <dc:type
           rdf:resource="http://purl.org/dc/dcmitype/StillImage" />
        <dc:title></dc:title>
      </cc:Work>
    </rdf:RDF>
  </metadata>
  <g
     inkscape:label="Layer 1"
     inkscape:groupmode="layer"
     id="layer1"
     transform="translate(-182.67528,-361.14374)">
    <g
       transform="matrix(1.25,0,0,-1.25,144.99892,967.37745)"
       id="g4105">
      <g
         transform="translate(161.0415,288.0728)"
         id="g20">
        <path
           inkscape:connector-curvature="0"
           id="path22"
           style="fill:#ac5d3d;fill-opacity:1;fill-rule:nonzero;stroke:none"
           d="m 0,0 c 0,0 59.721,-3.3 52.749,50.653 -6.954,53.81 -48.437,73.384 -25.436,117.331 0,0 -63.417,-5.134 -64.706,-70.232 -1.392,-70.344 28.357,-83.377 28.357,-83.377 l 6.983,-17.25" />
      </g>
      <g
         transform="translate(91.7842,337.1763)"
         id="g24">
        <path
           inkscape:connector-curvature="0"
           id="path26"
           style="fill:#c06846;fill-opacity:1;fill-rule:nonzero;stroke:none"
           d="m 0,0 c 0,-10.844 -5.93,-19.634 -13.246,-19.634 -7.316,0 -13.245,8.79 -13.245,19.634 0,10.842 5.929,19.632 13.245,19.632 C -5.93,19.632 0,10.842 0,0" />
      </g>
      <g
         transform="translate(92.7505,346.1899)"
         id="g28">
        <path
           inkscape:connector-curvature="0"
           id="path30"
           style="fill:#ac5d3d;fill-opacity:1;fill-rule:nonzero;stroke:none"
           d="m 0,0 c 0,-4.26 -6.824,-2.053 -14.674,-2.053 -7.849,0 -13.751,-2.207 -13.751,2.053 0,4.261 6.364,12.912 14.213,12.912 C -6.362,12.912 0,4.261 0,0" />
      </g>
      <g
         transform="translate(104.7583,369.1904)"
         id="g32">
        <path
           inkscape:connector-curvature="0"
           id="path34"
           style="fill:#c06846;fill-opacity:1;fill-rule:nonzero;stroke:none"
           d="m 0,0 c 0,0 2.773,-23.749 22.179,-39.737 9.824,-8.096 16.737,-16.532 18.02,-29.88 1.378,-14.331 -7.17,-29.878 -22.949,-31.009 0,0 -46.822,-2.67 -46.976,0 -0.154,2.67 1.386,7.598 10.165,7.752 8.779,0.154 10.782,-0.308 10.782,-0.308 0,0 -15.448,5.307 -14.016,24.952 1.078,14.785 14.17,17.324 14.17,17.324 -4.159,17.405 5.046,44.437 5.046,44.437 l -8.897,5.391" />
      </g>
      <g
         transform="translate(99.0234,375.9673)"
         id="g36">
        <path
           inkscape:connector-curvature="0"
           id="path38"
           style="fill:#ffb169;fill-opacity:1;fill-rule:nonzero;stroke:none"
           d="M 0,0 C 0,0 -2.28,-19.107 -4.775,-39.891 -7.482,-62.45 -15.248,-81.63 1.54,-95.8 c 21.186,-17.882 50.519,1.848 45.59,20.946 -4.929,19.099 -27.649,65.293 -27.649,65.293 L 0,0 z" />
      </g>
      <g
         transform="translate(110.4106,422.3096)"
         id="g40">
        <path
           inkscape:connector-curvature="0"
           id="path42"
           style="fill:#c06846;fill-opacity:1;fill-rule:nonzero;stroke:none"
           d="m 0,0 c 0,0 -3.41,11.614 -2.13,21.184 1.28,9.57 -6.191,2.421 -8.918,-11.915 -1.708,-8.983 -5.547,-12.956 -5.547,-12.956 L 0,0 z" />
      </g>
      <g
         transform="translate(121.6274,420.5669)"
         id="g44">
        <path
           inkscape:connector-curvature="0"
           id="path46"
           style="fill:#c06846;fill-opacity:1;fill-rule:nonzero;stroke:none"
           d="m 0,0 c 0,0 6.773,10.032 8.457,19.539 1.685,9.507 6.634,0.428 4.882,-14.06 -1.097,-9.078 1.355,-14.027 1.355,-14.027 L 0,0 z" />
      </g>
      <g
         transform="translate(132.9077,369.1904)"
         id="g48">
        <path
           inkscape:connector-curvature="0"
           id="path50"
           style="fill:#dd7952;fill-opacity:1;fill-rule:nonzero;stroke:none"
           d="m 0,0 c 0,0 2.773,-23.749 22.179,-39.737 9.824,-8.096 16.737,-16.532 18.02,-29.88 1.378,-14.331 -7.17,-29.878 -22.949,-31.009 0,0 -46.822,-2.67 -46.976,0 -0.154,2.67 1.386,7.598 10.165,7.752 8.779,0.154 10.782,-0.308 10.782,-0.308 0,0 -15.448,5.307 -14.016,24.952 1.078,14.785 14.17,17.324 14.17,17.324 -4.159,17.405 -13.554,46.285 -13.554,46.285 l 9.703,3.543" />
      </g>
      <g
         transform="translate(148.5356,377.0708)"
         id="g52">
        <path
           inkscape:connector-curvature="0"
           id="path54"
           style="fill:#dd7b51;fill-opacity:1;fill-rule:nonzero;stroke:none"
           d="m 0,0 c -11.914,-27.726 -38.99,-23.345 -42.908,-22.562 -3.996,0.447 -31.101,4.484 -34.04,34.518 0,0 8.129,3.201 10.38,12.078 2.221,8.833 14.442,28.581 33.898,19.298 C -11.315,46.274 -5.662,23.749 -6.226,14.658 -6.773,5.517 0,0 0,0" />
      </g>
      <g
         transform="translate(83.7754,335.7681)"
         id="g56">
        <path
           inkscape:connector-curvature="0"
           id="path58"
           style="fill:#dd7952;fill-opacity:1;fill-rule:nonzero;stroke:none"
           d="m 0,0 c 0,0 10.771,-0.925 19.397,8.625 8.626,9.551 12.052,19.684 22.511,11.998 10.459,-7.685 5.684,-27.176 -11.104,-31.831 -16.788,-4.656 -34.038,2.275 -37.273,7.204 -3.234,4.928 1.49,9.297 3.44,7.753 C -0.21,1.516 0,0 0,0" />
      </g>
      <g
         transform="translate(148.5356,377.0708)"
         id="g60">
        <path
           inkscape:connector-curvature="0"
           id="path62"
           style="fill:#ffb169;fill-opacity:1;fill-rule:nonzero;stroke:none"
           d="m 0,0 c -11.914,-27.726 -38.99,-23.345 -42.908,-22.562 -3.996,0.447 -31.101,4.484 -34.04,34.518 0,0 14.239,-11.241 24.669,-6.227 10.434,5.037 14.573,5.191 14.573,5.191 0,0 3.896,-1.402 12.31,-9.368 C -16.978,-6.39 0,0 0,0" />
      </g>
      <g
         transform="translate(109.9019,383.7529)"
         id="g64">
        <path
           inkscape:connector-curvature="0"
           id="path66"
           style="fill:#1a0200;fill-opacity:1;fill-rule:nonzero;stroke:none"
           d="M 0,0 C 0,0 -4.121,4.529 -2.401,5.568 -0.681,6.607 4.009,5.689 4.188,4.337 4.368,2.984 1.549,-0.241 0,0" />
      </g>
      <g
         transform="translate(99.2773,396.833)"
         id="g68">
        <path
           inkscape:connector-curvature="0"
           id="path70"
           style="fill:#1a0200;fill-opacity:1;fill-rule:nonzero;stroke:none"
           d="m 0,0 c -0.193,-1.24 -1.354,-2.089 -2.593,-1.896 -1.241,0.192 -2.089,1.354 -1.897,2.594 0.193,1.239 1.354,2.089 2.594,1.896 C -0.656,2.401 0.192,1.24 0,0" />
      </g>
      <g
         transform="translate(111.2783,376.6382)"
         id="g72">
        <path
           inkscape:connector-curvature="0"
           id="path74"
           style="fill:#ffffff;fill-opacity:1;fill-rule:nonzero;stroke:none"
           d="m 0,0 c -0.295,-0.776 -0.586,-2.034 -0.71,-2.188 -0.425,-0.484 -1.835,0.051 -1.835,0.051 0,0 -1.369,0.338 -1.694,0.488 -0.139,0.072 -0.219,1.005 -0.292,2.14 2.095,1.919 3.125,5.5 3.366,6.41 C -1.141,6.898 -1.141,6.898 -1.12,6.869 -1.187,5.807 -1.72,2.413 0,0" />
      </g>
      <g
         transform="translate(117.6177,374.2187)"
         id="g76">
        <path
           inkscape:connector-curvature="0"
           id="path78"
           style="fill:#dd7b51;fill-opacity:1;fill-rule:nonzero;stroke:none"
           d="M 0,0 C -0.238,-0.193 -0.523,-0.322 -0.811,-0.437 -1.109,-0.509 -1.409,-0.628 -1.724,-0.626 L -2.196,-0.65 c -0.156,0.015 -0.311,0.046 -0.467,0.068 l -0.469,0.078 -0.441,0.169 c -0.293,0.115 -0.603,0.209 -0.85,0.405 L -5.21,0.591 c -0.254,0.228 -0.463,0.39 -0.669,0.676 -0.225,0.257 -0.376,0.548 -0.525,0.799 -0.156,0.261 -0.309,0.522 -0.409,0.833 -0.108,0.299 -0.241,0.595 -0.323,0.896 -0.149,0.604 -0.296,1.207 -0.352,1.823 -0.074,0.611 -0.107,1.227 -0.108,1.84 -0.001,0.613 0.042,1.226 0.117,1.832 l 0,-10e-4 0.033,0.247 0.007,-0.247 0,-0.002 C -7.425,8.678 -7.395,8.072 -7.333,7.469 -7.287,6.867 -7.21,6.266 -7.094,5.677 -7.027,5.384 -6.992,5.084 -6.916,4.795 L -6.678,3.933 C -6.596,3.648 -6.472,3.389 -6.373,3.115 -6.29,2.842 -6.128,2.581 -5.974,2.317 -5.815,2.042 -5.687,1.79 -5.511,1.585 -5.374,1.364 -5.101,1.141 -4.913,0.954 L -4.196,0.44 C -3.967,0.247 -3.694,0.143 -3.43,0.015 l 0.399,-0.19 0.426,-0.101 c 0.143,-0.032 0.286,-0.072 0.43,-0.098 l 0.441,-0.012 c 0.298,-0.04 0.588,0.039 0.886,0.074 C -0.56,-0.23 -0.269,-0.15 0,0" />
      </g>
      <g
         transform="translate(100.1826,376.9277)"
         id="g80">
        <path
           inkscape:connector-curvature="0"
           id="path82"
           style="fill:#dd7b51;fill-opacity:1;fill-rule:nonzero;stroke:none"
           d="M 0,0 C 0,0 0.155,-0.181 0.489,-0.402 0.647,-0.527 0.864,-0.638 1.117,-0.75 1.36,-0.881 1.679,-0.918 1.994,-1.023 2.332,-1.024 2.69,-1.13 3.073,-1.054 c 0.382,0.056 0.784,0.076 1.18,0.24 0.201,0.064 0.404,0.13 0.61,0.197 0.163,0.029 0.384,0.199 0.577,0.289 l 0.302,0.165 0.245,0.206 c 0.158,0.144 0.339,0.263 0.481,0.421 0.309,0.342 0.668,0.663 0.896,1.029 0.13,0.177 0.259,0.352 0.386,0.526 0.113,0.188 0.225,0.374 0.335,0.557 0.442,0.732 0.79,1.46 1.067,2.093 0.265,0.638 0.488,1.173 0.62,1.557 0.138,0.382 0.217,0.601 0.217,0.601 0,0 -0.045,-0.228 -0.123,-0.628 C 9.772,5.803 9.642,5.232 9.415,4.568 9.175,3.911 8.899,3.133 8.468,2.359 8.266,1.968 8.032,1.57 7.739,1.189 7.479,0.777 7.142,0.472 6.833,0.122 6.662,-0.062 6.452,-0.202 6.262,-0.363 L 5.971,-0.593 5.667,-0.753 C 5.449,-0.854 5.304,-0.981 5.026,-1.052 4.804,-1.115 4.584,-1.177 4.368,-1.239 3.945,-1.399 3.497,-1.389 3.086,-1.417 c -0.411,-0.048 -0.8,0.089 -1.153,0.121 -0.336,0.129 -0.661,0.212 -0.9,0.381 -0.25,0.149 -0.457,0.29 -0.604,0.437 C 0.117,-0.206 0,0 0,0" />
      </g>
      <g
         transform="translate(79.4629,357.8701)"
         id="g84">
        <path
           inkscape:connector-curvature="0"
           id="path86"
           style="fill:#ac5d3d;fill-opacity:1;fill-rule:nonzero;stroke:none"
           d="M 0,0 C 0,0 0.183,7.239 -3.258,7.162 -6.7,7.085 -1.463,3.773 -1.232,0 -1.001,-3.773 0.001,-0.308 0.001,-0.308" />
      </g>
      <g
         transform="translate(127.4736,392.4521)"
         id="g88">
        <path
           inkscape:connector-curvature="0"
           id="path90"
           style="fill:#1a0200;fill-opacity:1;fill-rule:nonzero;stroke:none"
           d="m 0,0 c -0.193,-1.24 -1.354,-2.089 -2.594,-1.896 -1.24,0.192 -2.089,1.354 -1.896,2.594 0.193,1.239 1.354,2.089 2.594,1.896 C -0.656,2.401 0.192,1.24 0,0" />
      </g>
      <g
         transform="translate(126.7358,393.4897)"
         id="g92">
        <path
           inkscape:connector-curvature="0"
           id="path94"
           style="fill:#ffffff;fill-opacity:1;fill-rule:nonzero;stroke:none"
           d="m 0,0 c -0.042,-0.273 -0.298,-0.46 -0.571,-0.417 -0.274,0.042 -0.46,0.297 -0.418,0.571 0.043,0.273 0.298,0.46 0.572,0.417 C -0.144,0.529 0.042,0.273 0,0" />
      </g>
      <g
         transform="translate(98.6313,397.8564)"
         id="g96">
        <path
           inkscape:connector-curvature="0"
           id="path98"
           style="fill:#ffffff;fill-opacity:1;fill-rule:nonzero;stroke:none"
           d="m 0,0 c -0.042,-0.273 -0.298,-0.46 -0.571,-0.417 -0.274,0.042 -0.461,0.297 -0.418,0.571 0.042,0.273 0.298,0.46 0.571,0.417 C -0.144,0.529 0.042,0.273 0,0" />
      </g>
      <g
         transform="translate(109.9565,388.4863)"
         id="g100">
        <path
           inkscape:connector-curvature="0"
           id="path102"
           style="fill:#ffffff;fill-opacity:1;fill-rule:nonzero;stroke:none"
           d="m 0,0 c -0.03,-0.195 -0.276,-0.319 -0.55,-0.276 -0.273,0.042 -0.47,0.234 -0.439,0.429 0.03,0.197 0.276,0.32 0.549,0.278 C -0.166,0.388 0.031,0.196 0,0" />
      </g>
    </g>
    <g
       id="g5509"
       transform="matrix(0.92976607,0.1840066,-0.1840066,0.92976607,165.27684,-27.749901)">
      <path
         d="m 226.37226,392.25679 0,-12.04875 -3.425,-0.05 0,-1.37125 3.425,0 0,-4.25375 1.95875,0 0,4.25375 3.42625,0.05 0,1.47375 -3.42625,-0.0512 0,11.9975 -1.95875,0 z"
         style="fill:#84bdbc;fill-opacity:1;fill-rule:nonzero;stroke:none"
         id="path658"
         inkscape:connector-curvature="0" />
      <path
         d="m 227.35251,385.91279 c -4.405,0 -7.97625,3.57125 -7.97625,7.97625 0,1.5675 0.45875,3.02625 1.24,4.25875 0.26375,-0.175 0.53375,-0.335 0.8225,-0.455 2.7775,-1.2075 3.865,0.84625 6.40375,1.32875 2.38125,0.45375 4.34,-1.305 6.57,-1.42625 0.5825,-1.10875 0.91625,-2.3675 0.91625,-3.70625 0,-4.405 -3.57125,-7.97625 -7.97625,-7.97625"
         style="fill:#fdb427;fill-opacity:1;fill-rule:nonzero;stroke:none"
         id="path662"
         inkscape:connector-curvature="0" />
      <path
         d="m 227.84201,399.02191 c -2.5375,-0.48375 -3.625,-2.5375 -6.40375,-1.32875 -0.28875,0.12 -0.55875,0.28 -0.82125,0.455 1.41375,2.23125 3.89875,3.7175 6.735,3.7175 3.06625,0 5.725,-1.7325 7.06,-4.27125 -2.22875,0.1225 -4.18875,1.88125 -6.57,1.4275"
         style="fill:#e38b15;fill-opacity:1;fill-rule:nonzero;stroke:none"
         id="path666"
         inkscape:connector-curvature="0" />
      <g
         id="g676"
         transform="matrix(1.25,0,0,-1.25,103.75326,898.30292)">
        <g
           clip-path="url(#clipPath672)"
           id="g678"
           style="opacity:0.39999396">
          <g
             transform="translate(98.981,408.8008)"
             id="g680">
            <path
               d="M 0,0 C -0.58,0.097 -0.87,-0.677 -0.483,-1.45 0,-2.223 2.61,-3.093 3.479,-2.61 5.8,-1.16 1.836,0.097 0.773,0.29 L 0,0 z"
               style="fill:#ffe289;fill-opacity:1;fill-rule:nonzero;stroke:none"
               id="path682"
               inkscape:connector-curvature="0" />
          </g>
        </g>
      </g>
      <path
         d="m 220.35176,391.89416 c 1.20875,0.24125 2.05375,2.77875 1.0875,3.625 -1.81375,1.8125 -1.81375,-2.175 -1.57125,-3.14125 l 0.48375,-0.48375 z"
         style="fill:#ea9914;fill-opacity:1;fill-rule:nonzero;stroke:none"
         id="path686"
         inkscape:connector-curvature="0" />
      <path
         d="m 223.61414,392.49841 c -0.72625,0.24125 -1.20875,1.57 -0.72625,2.6575 0.48375,1.08875 1.935,1.57125 2.53875,0.2425 0.4825,-1.2075 -0.60375,-1.69125 -1.33,-2.5375 l -0.4825,-0.3625 z"
         style="fill:#ea9914;fill-opacity:1;fill-rule:nonzero;stroke:none"
         id="path690"
         inkscape:connector-curvature="0" />
      <path
         d="m 228.68851,392.61929 c -1.32875,-0.12125 -1.8125,1.0875 -1.32875,2.175 1.45,2.77875 3.745,-0.96625 1.0875,-1.93375 l 0.24125,-0.24125 z"
         style="fill:#ea9914;fill-opacity:1;fill-rule:nonzero;stroke:none"
         id="path694"
         inkscape:connector-curvature="0" />
      <path
         d="m 234.12564,392.49841 c -0.24125,-0.48375 -1.57,0.3625 -1.6925,1.45 -0.24,2.5375 3.74625,1.93375 1.93375,-0.96625 l -0.24125,-0.48375 z"
         style="fill:#ea9914;fill-opacity:1;fill-rule:nonzero;stroke:none"
         id="path698"
         inkscape:connector-curvature="0" />
      <path
         d="m 265.32976,411.99741 c -4.24625,-1.48625 -8.4475,-1.90875 -12.4325,-1.65625 5.93875,3.6025 9.91125,9.46375 10.59625,16.835 0.43,5.59125 -0.42875,11.82625 -2.58,16.9875 -1.265,3.32125 -2.3025,7.68125 -4.045,11.12875 0.48375,0.1175 0.97,0.21625 1.465,0.2675 2.9975,0.26125 5.995,-0.26125 8.9925,-0.71375 5.72375,-7.015 6.50375,-16.52125 6.50375,-25.735 0,-3.68 -2.995,-11.6525 -8.5,-17.11375"
         style="fill:#d0232f;fill-opacity:1;fill-rule:nonzero;stroke:none"
         id="path702"
         inkscape:connector-curvature="0" />
      <path
         d="m 255.24189,454.78366 c 0.53125,0.19875 1.0675,0.37125 1.6125,0.50375 -0.54375,-0.13625 -1.08125,-0.30375 -1.6125,-0.50375 m -3.325,-1.58375 c 1.05125,0.5875 2.11375,1.12 3.19875,1.53625 -1.085,-0.4175 -2.1475,-0.94625 -3.19875,-1.53625 m -46.9425,0.585 c -0.0563,0.095 -0.11625,0.185 -0.1675,0.285 0.0513,-0.1 0.11125,-0.19 0.1675,-0.285 m 0.635,-0.8975 c -0.0737,0.0838 -0.145,0.17125 -0.21375,0.26 0.0687,-0.0888 0.14,-0.17625 0.21375,-0.26 m -2.75375,2.5275 c 0.0825,-0.03 0.16375,-0.0588 0.2475,-0.0925 -0.0838,0.0337 -0.165,0.0625 -0.2475,0.0925 m -0.5675,0.17125 c -0.0775,0.0175 -0.1575,0.0412 -0.235,0.0563 0.0775,-0.015 0.1575,-0.0388 0.235,-0.0563 m -2.005,0.0425 c 0.12,0.0213 0.24125,0.0375 0.36,0.0512 -0.11875,-0.0138 -0.24,-0.03 -0.36,-0.0512 m 0.78125,0.08 c 0.0987,0.002 0.195,0.0113 0.29375,0.007 -0.0975,0.004 -0.19625,-0.005 -0.29375,-0.007 m -2.05,-0.41125 c 0.3175,0.105 0.625,0.18875 0.9275,0.26 -0.30125,-0.07 -0.61125,-0.155 -0.9275,-0.26 m 7.3225,-3.13125 c -0.0687,0.0575 -0.1325,0.12125 -0.2,0.1825 0.0675,-0.0612 0.13125,-0.125 0.2,-0.1825 m 67.14125,-35.9225 c -2.70375,-1.92125 -5.435,-3.29625 -8.14875,-4.24625 5.50625,5.46125 8.5,13.43375 8.5,17.11375 0,9.21375 -0.77875,18.72 -6.50375,25.735 -2.9975,0.45375 -5.995,0.975 -8.9925,0.71375 -0.49375,-0.0512 -0.98125,-0.14875 -1.46375,-0.27 1.74125,-3.44625 2.77875,-7.80625 4.045,-11.12625 2.15,-5.16125 3.01,-11.39625 2.58,-16.9875 -0.68625,-7.37125 -4.65875,-13.2325 -10.5975,-16.835 -3.2225,0.20625 -6.30375,0.85 -9.15125,1.74 5.6,3.6825 7.29,10.03375 8.13625,16.6 0.835,7.8425 1.1375,16.07 -1.57625,23.5825 -3.68375,-2.2 -7.29375,-4.58375 -11.3175,-4.05875 1.76375,-4.77375 2.60125,-9.3525 2.78875,-14.5775 0.42875,-7.51625 0.8575,-13.10375 -1.28375,-20.40125 -6.60875,2.61 -11.5375,6.205 -13.335,7.62125 -1.20625,-0.98625 -6.12125,-4.7925 -13.015,-7.57125 -1.7675,6.345 -0.88125,12.10625 -0.32125,18.84625 0.62625,6.675 1.66625,13.35 3.69125,19.83001 -0.155,-0.09 -0.30875,-0.18001 -0.465,-0.26251 -2.97375,-1.33875 -7.07625,-1.74875 -9.89375,-0.1 0,0 0.001,0 0.001,-10e-4 -5.56125,-11.43501 -7.26625,-30.92751 1.5075,-40.13751 -3.2225,-0.84 -6.71125,-1.33375 -10.345,-1.2175 -4.51,4.32376 -5.93875,12.28 -5.78375,18.0175 0,5.59125 1.935,10.96625 3.655,16.1275 0.62125,2.17 1.57875,7.57125 2.78875,10.9075 -0.66,-0.22 -1.35625,-0.49875 -2.1425,-0.80125 -3.01,-1.29 -5.59125,0.645 -8.60125,-0.43 -3.87125,-1.505 -5.40375,-10.32125 -6.265,-13.9775 -1.075,-5.59 -0.40125,-10.96625 0.88875,-16.55625 1.10125,-4.56 2.7825,-7.7425 5.0325,-11.14 -2.36125,0.935 -4.73375,2.1875 -7.09,3.8625 0,0 -16.06,23.2725 10.885,48.35 0,0 5.7,4.71625 7.75,0 2.05125,-4.7175 3.54125,-4.7175 3.54125,-4.7175 0,0 14.94375,16.8775 23.98,-0.72875 l 0.0425,-3.34875 0.0838,-6.43625 0.15625,6.3825 0.0825,3.4025 c 9.03625,17.60625 23.98,0.72875 23.98,0.72875 0,0 1.49125,0 3.54125,4.7175 2.05,4.71625 7.74875,0 7.74875,0 3.79625,-3.57625 6.81375,-7.00375 9.19875,-10.26875 16.925,-23.175 1.6875,-38.08125 1.6875,-38.08125"
         style="fill:#a92529;fill-opacity:1;fill-rule:nonzero;stroke:none"
         id="path706"
         inkscape:connector-curvature="0" />
      <path
         d="m 214.14264,413.27666 c -1.715,-0.69125 -3.54625,-1.32125 -5.48,-1.825 -8.7725,9.21 -7.06875,28.70125 -1.50625,40.1375 2.81875,-1.6475 6.91875,-1.2375 9.89125,0.1 0.15625,0.0838 0.31125,0.17375 0.465,0.2625 -2.02375,-6.47875 -3.06375,-13.15375 -3.69,-19.83 -0.56125,-6.73875 -1.4475,-12.50125 0.32,-18.845"
         style="fill:#d0232f;fill-opacity:1;fill-rule:nonzero;stroke:none"
         id="path710"
         inkscape:connector-curvature="0" />
      <path
         d="m 251.88251,428.68129 c -0.8475,-6.56625 -2.5375,-12.9175 -8.13625,-16.6 -1.12125,0.35 -2.21,0.7325 -3.2525,1.145 2.14125,7.2975 1.71125,12.88375 1.2825,20.40125 -0.18625,5.225 -1.02375,9.80375 -2.7875,14.5775 4.02375,-0.525 7.63375,1.8575 11.3175,4.05875 2.7125,-7.51375 2.41125,-15.74125 1.57625,-23.5825"
         style="fill:#d0232f;fill-opacity:1;fill-rule:nonzero;stroke:none"
         id="path714"
         inkscape:connector-curvature="0" />
      <path
         d="m 192.53501,428.25166 c -0.15625,-5.73875 1.2725,-13.695 5.78375,-18.0175 -3.3825,0.10875 -6.89,0.74625 -10.4275,2.1475 -2.25,3.3975 -3.9325,6.57875 -5.0325,11.13875 -1.29,5.59125 -1.96375,10.96625 -0.88875,16.5575 0.86,3.655 2.39375,12.47125 6.26375,13.97625 3.01125,1.075 5.59125,-0.85875 8.60125,0.43 0.78625,0.30375 1.48375,0.58125 2.1425,0.80125 -1.21,-3.335 -2.1675,-8.73625 -2.7875,-10.9075 -1.72,-5.16 -3.655,-10.53625 -3.655,-16.12625"
         style="fill:#d0232f;fill-opacity:1;fill-rule:nonzero;stroke:none"
         id="path718"
         inkscape:connector-curvature="0" />
      <path
         d="m 216.83189,411.42054 -5.055,-1.9 c -6.85,-3.31375 -13.5475,-2.80375 -13.5475,-2.80375 -0.44,-0.0312 -0.86125,-0.0362 -1.28875,-0.05 -6.76125,2.47 -9.455,10.22375 -9.93,16.8775 -0.51,10.96375 2.55,22.69125 7.13875,32.635 1.235,3.175 3.2,6.10625 5.05375,9.04625 3.45875,-1.765 6.165,-5.34875 6.165,-5.34875 -4.845,-11.21875 -7.13875,-18.485 -6.375,-30.46875 0.25625,-7.13875 1.02,-16.3175 9.18,-18.6125 1.105,-0.4725 4.35875,-0.16375 6.91875,0.32125 l 1.74,0.30375 z"
         style="fill:#feb52a;fill-opacity:1;fill-rule:nonzero;stroke:none"
         id="path722"
         inkscape:connector-curvature="0" />
      <path
         d="m 173.49751,438.58679 c 1.9375,12.1075 15.59625,26.04375 21.23875,27.47 -1.39875,-1.06375 -2.61375,-2.3275 -3.90125,-3.75875 -8.15875,-9.68875 -12.49375,-19.88625 -12.2375,-32.89 0.195,-9.40625 7.63,-21.36375 18.34375,-22.74125 -19.495,-1.04625 -25.2875,20.39875 -23.44375,31.92"
         style="fill:#feb52a;fill-opacity:1;fill-rule:nonzero;stroke:none"
         id="path726"
         inkscape:connector-curvature="0" />
      <path
         d="m 186.22701,481.99304 c 0,1.7625 1.69375,3.19 3.7825,3.19 l 74.8775,0 c 2.08875,0 3.7825,-1.4275 3.7825,-3.19 l 0,-18.92625 c 0,-4.80875 -1.69375,-3.19 -3.7825,-3.19 l -74.8775,0 c -2.08875,0 -3.7825,-2.28 -3.7825,3.19 l 0,18.92625 z"
         style="fill:#feb52a;fill-opacity:1;fill-rule:nonzero;stroke:none"
         id="path730"
         inkscape:connector-curvature="0" />
      <path
         d="m 238.09901,411.59204 4.53,-2.07125 c 6.85,-3.31375 13.54625,-2.80375 13.54625,-2.80375 0.44,-0.0312 2.4025,-0.0375 2.83,-0.05 6.76,2.47 7.91375,10.22375 8.38875,16.8775 0.51,10.96375 -2.55,22.69125 -7.13875,32.63375 -1.235,3.175 -3.19875,6.1075 -5.05375,9.0475 -3.4575,-1.765 -6.165,-5.35 -6.165,-5.35 4.845,-11.2175 7.13875,-18.485 6.375,-30.4675 -0.255,-7.13875 -1.02,-16.3175 -9.17875,-18.6125 -1.105,-0.47375 -4.35875,-0.165 -6.92,0.32125 l -1.21375,0.475 z"
         style="fill:#feb52a;fill-opacity:1;fill-rule:nonzero;stroke:none"
         id="path734"
         inkscape:connector-curvature="0" />
      <path
         d="m 282.44839,438.58679 c -1.9375,12.1075 -15.59625,26.04375 -21.23875,27.47 1.39875,-1.06375 2.6125,-2.3275 3.90125,-3.75875 8.15875,-9.68875 12.4925,-19.88625 12.2375,-32.89 -0.195,-9.40625 -2.5725,-20.6175 -18.34375,-22.74125 23.70125,-1.23125 25.2875,20.39875 23.44375,31.92"
         style="fill:#feb52a;fill-opacity:1;fill-rule:nonzero;stroke:none"
         id="path738"
         inkscape:connector-curvature="0" />
      <path
         d="m 229.97464,459.55229 c 3.96375,-10.05375 9.11875,-21.68875 9.11875,-32.67625 0,-10.185 0,-23.05 -9.9425,-26.53375 l -3.89625,0 c -9.9425,3.48375 -9.9425,16.34875 -9.9425,26.53375 0,10.9875 2.63875,22.375 8.8025,32.305 0,0 3.395,6.6225 5.86,0.37125"
         style="fill:#feb52a;fill-opacity:1;fill-rule:nonzero;stroke:none"
         id="path742"
         inkscape:connector-curvature="0" />
      <path
         d="m 264.88664,459.87641 c 0,0 0.25,0.0875 0.73625,0.15125 0.48125,0.0562 1.21375,0.1 2.0825,-0.135 0.87,-0.21375 1.83625,-0.795 2.58875,-1.775 0.36375,-0.4875 0.6925,-1.07375 1.04375,-1.70625 0.3475,-0.62375 0.71375,-1.28 1.095,-1.965 0.745,-1.38 1.53375,-2.88375 2.29625,-4.50875 0.78125,-1.61625 1.5125,-3.35875 2.2675,-5.15875 0.7075,-1.81625 1.43125,-3.7025 1.97,-5.67125 0.315,-0.9725 0.505,-1.9825 0.76,-2.98 0.17,-1.0125 0.40875,-2.0225 0.49375,-3.045 0.32125,-2.03875 0.26375,-4.09 0.0588,-6.08 -0.275,-2.05625 -0.59375,-4.02625 -1.065,-5.9075 -0.47875,-1.87 -1.09,-3.63125 -1.95125,-5.155 -0.85625,-1.52625 -1.93375,-2.82 -3.105,-3.82375 -0.5525,-0.53875 -1.18375,-0.94 -1.73125,-1.38625 -0.59375,-0.38375 -1.14,-0.78125 -1.68875,-1.09875 -0.55375,-0.3125 -1.07125,-0.60375 -1.55125,-0.87375 -0.495,-0.2425 -0.94875,-0.465 -1.36,-0.66625 -0.82125,-0.40625 -1.49375,-0.66875 -1.94,-0.87625 -0.45,-0.19875 -0.69,-0.305 -0.69,-0.305 0,0 0.2475,0.0838 0.71375,0.24125 0.46125,0.17125 1.165,0.35625 2.0125,0.71625 0.4275,0.175 0.9,0.3675 1.415,0.57875 0.50125,0.24 1.045,0.5 1.62625,0.7775 0.57875,0.28625 1.1625,0.6525 1.7975,1.00625 0.5925,0.42 1.2525,0.82 1.855,1.3525 1.25875,0.99375 2.45625,2.3125 3.43,3.8925 0.98125,1.5775 1.71625,3.41125 2.2175,5.3475 0.51125,1.92875 0.86875,3.97625 1.16875,6.0075 0.25125,2.10875 0.33625,4.28625 0.0262,6.40625 -0.105,1.0675 -0.3625,2.105 -0.555,3.15 -0.27375,1.0225 -0.4875,2.06 -0.82125,3.05 -0.58,2.01125 -1.34125,3.91875 -2.085,5.755 -1.54375,3.655 -3.3475,6.88625 -4.9575,9.6025 -0.8325,1.35875 -1.535,2.57875 -2.39,3.61875 -0.88,1.0025 -1.965,1.55375 -2.89125,1.71625 -0.92625,0.1925 -1.66875,0.0587 -2.1475,-0.035 -0.485,-0.1075 -0.725,-0.2175 -0.725,-0.2175"
         style="fill:#d2770e;fill-opacity:1;fill-rule:nonzero;stroke:none"
         id="path746"
         inkscape:connector-curvature="0" />
      <path
         d="m 190.00939,459.87641 c 0,0 1.17,-0.0437 3.2175,-0.12125 2.0475,-0.05 4.9725,-0.1725 8.4825,-0.22875 3.50875,-0.0512 7.60375,-0.1675 11.99125,-0.19125 4.3875,-0.0263 9.0675,-0.055 13.7475,-0.0838 4.68,0.0288 9.35875,0.0562 13.7475,0.0825 4.38625,0.0213 8.48125,0.14 11.99125,0.19125 3.51,0.055 6.435,0.17875 8.4825,0.23 2.0475,0.0775 3.2175,0.12125 3.2175,0.12125 0,0 -1.17,0.0437 -3.2175,0.12125 -2.0475,0.0513 -4.9725,0.175 -8.4825,0.23 -3.51,0.0512 -7.605,0.17 -11.99125,0.19125 -4.38875,0.0263 -9.0675,0.0537 -13.7475,0.0825 -4.68,-0.0288 -9.36,-0.0575 -13.7475,-0.0838 -4.3875,-0.0238 -8.4825,-0.14 -11.99125,-0.19125 -3.51,-0.0563 -6.435,-0.17875 -8.4825,-0.22875 -2.0475,-0.0775 -3.2175,-0.12125 -3.2175,-0.12125"
         style="fill:#d2770e;fill-opacity:1;fill-rule:nonzero;stroke:none"
         id="path750"
         inkscape:connector-curvature="0" />
      <path
         d="m 181.60851,414.18979 c 0,0 -0.41875,0.7025 -1.1525,1.93 -0.38,0.60625 -0.85375,1.34 -1.21125,2.2625 -0.19875,0.44875 -0.41,0.92625 -0.63375,1.43 -0.10375,0.25375 -0.24125,0.49875 -0.3375,0.77125 -0.0863,0.27625 -0.17625,0.55875 -0.26625,0.8475 -0.18125,0.57625 -0.37,1.17625 -0.565,1.79625 -0.21125,0.615 -0.26375,1.29625 -0.40875,1.96875 -0.32,1.34625 -0.35,2.8075 -0.48375,4.3025 -0.0375,0.75 0.0213,1.51625 0.0275,2.28875 -0.009,0.77375 0.08,1.5525 0.16875,2.3375 0.12,1.57625 0.455,3.15375 0.77875,4.7275 l 0.58625,2.34 c 0.23875,0.76625 0.47625,1.53125 0.7125,2.28875 0.52125,1.50125 1.04375,2.97875 1.6375,4.3775 0.585,1.4 1.1775,2.74625 1.765,4.015 0.59625,1.245 1.15,2.515 1.7,3.54 0.30875,0.52125 0.5575,1.08125 0.87875,1.505 0.34,0.4 0.6275,0.825 0.965,1.165 0.3725,0.29875 0.70125,0.62125 1.05,0.85125 0.37,0.19 0.69625,0.41125 1.0225,0.535 0.65625,0.245 1.20125,0.36125 1.5825,0.39625 0.38,0.0275 0.585,0.01 0.585,0.01 0,0 -0.2,0.0413 -0.5875,0.0575 -0.385,0.005 -0.95625,-0.0288 -1.66,-0.235 -0.35,-0.0987 -0.7075,-0.29625 -1.1175,-0.46625 -0.3875,-0.20875 -0.76,-0.51375 -1.18625,-0.8025 -0.39125,-0.3325 -0.74875,-0.76125 -1.15875,-1.18375 -0.38625,-0.4375 -0.6325,-0.96125 -0.9775,-1.47125 -0.66375,-1.10125 -1.22875,-2.24375 -1.9125,-3.495 -0.65875,-1.245 -1.34125,-2.57125 -1.96,-3.98625 -0.63125,-1.4075 -1.235,-2.88875 -1.76875,-4.42375 -0.24875,-0.775 -0.5,-1.555 -0.75125,-2.33875 -0.2075,-0.79875 -0.415,-1.6 -0.6225,-2.40125 -0.32125,-1.625 -0.65,-3.25375 -0.76125,-4.8875 -0.09,-0.8125 -0.16125,-1.62125 -0.13,-2.425 0.0162,-0.8025 -0.0213,-1.59625 0.0375,-2.3725 0.16125,-1.5525 0.2925,-3.05625 0.69125,-4.43375 0.18625,-0.69 0.27875,-1.3825 0.52875,-2.00625 0.23375,-0.62875 0.46,-1.235 0.6775,-1.8175 0.36,-1.19 1.04375,-2.145 1.49375,-3.03875 0.4475,-0.9075 0.98,-1.59 1.41,-2.16375 0.86125,-1.1425 1.35375,-1.795 1.35375,-1.795"
         style="fill:#d2770e;fill-opacity:1;fill-rule:nonzero;stroke:none"
         id="path754"
         inkscape:connector-curvature="0" />
      <path
         d="m 186.69576,481.88817 c 0,0 1.2875,-0.0438 3.5425,-0.12125 2.25375,-0.05 5.475,-0.1725 9.33875,-0.22875 3.86375,-0.0525 8.3725,-0.1675 13.20375,-0.19125 4.83,-0.0263 9.9825,-0.055 15.13625,-0.0837 5.1525,0.0288 10.305,0.0562 15.135,0.0825 4.83125,0.0212 9.34,0.14 13.20375,0.19125 3.86375,0.055 7.085,0.17875 9.33875,0.23 2.255,0.0775 3.5425,0.12125 3.5425,0.12125 0,0 -1.2875,0.0438 -3.5425,0.12125 -2.25375,0.0512 -5.475,0.175 -9.33875,0.23 -3.86375,0.0513 -8.3725,0.17 -13.20375,0.19125 -4.83,0.0262 -9.9825,0.0537 -15.135,0.0825 -5.15375,-0.0288 -10.30625,-0.0575 -15.13625,-0.0838 -4.83125,-0.0237 -9.34,-0.13875 -13.20375,-0.19125 -3.86375,-0.0562 -7.085,-0.17875 -9.33875,-0.22875 -2.255,-0.0775 -3.5425,-0.12125 -3.5425,-0.12125"
         style="fill:#d2770e;fill-opacity:1;fill-rule:nonzero;stroke:none"
         id="path758"
         inkscape:connector-curvature="0" />
      <path
         d="m 206.45039,407.60654 c 0,0 -0.965,-0.0687 -2.595,0.235 -0.815,0.14625 -1.78,0.43375 -2.82375,0.88625 -1.03625,0.48 -2.1075,1.195 -3.1175,2.1375 -1.00375,0.96 -1.8125,2.24375 -2.47875,3.67625 -0.2475,0.75625 -0.60375,1.4925 -0.7475,2.32375 -0.0962,0.40625 -0.195,0.8175 -0.29375,1.23125 -0.0613,0.4275 -0.125,0.8575 -0.1875,1.2925 -0.265,1.77625 -0.325,3.53875 -0.335,5.41375 0,1.8575 0.0913,3.7475 0.25125,5.6325 0.1325,1.88625 0.31375,3.775 0.56375,5.62375 0.22375,1.8525 0.52875,3.66625 0.84375,5.41625 0.32,1.75 0.65875,3.435 0.9875,5.03375 0.365,1.58875 0.71375,3.0925 1.10125,4.46125 0.37125,1.375 0.755,2.6225 1.105,3.725 0.3675,1.0975 0.7025,2.05 1.03875,2.81 0.3,0.7775 0.60125,1.35625 0.80125,1.75625 0.19875,0.40125 0.305,0.615 0.305,0.615 0,0 -0.12625,-0.2025 -0.36375,-0.58125 -0.23375,-0.38125 -0.6125,-0.92625 -0.9625,-1.6875 -0.39625,-0.74125 -0.80375,-1.6725 -1.255,-2.75125 -0.43875,-1.08 -0.92,-2.31125 -1.3425,-3.68375 -0.45375,-1.365 -0.87375,-2.8625 -1.31375,-4.45 -0.405,-1.595 -0.83875,-3.27875 -1.16625,-5.045 -0.345,-1.7625 -0.68,-3.59 -0.93375,-5.46 -0.28125,-1.86625 -0.49625,-3.77375 -0.65375,-5.68875 -0.13375,-1.915 -0.19875,-3.83875 -0.17,-5.735 0.0325,-1.875 0.1375,-3.815 0.42875,-5.57 0.0725,-0.44875 0.14375,-0.89375 0.215,-1.33375 0.11875,-0.4375 0.23625,-0.86875 0.3525,-1.29625 0.19125,-0.86375 0.605,-1.645 0.90625,-2.43 0.7775,-1.5025 1.70875,-2.83375 2.82625,-3.81125 1.11375,-0.97375 2.30625,-1.6375 3.4175,-2.0525 1.12,-0.39125 2.1275,-0.61 2.965,-0.6975 0.8375,-0.0937 1.5,-0.085 1.9475,-0.0575 0.44875,0.0213 0.68375,0.0612 0.68375,0.0612"
         style="fill:#d2770e;fill-opacity:1;fill-rule:nonzero;stroke:none"
         id="path762"
         inkscape:connector-curvature="0" />
      <path
         d="m 250.18026,407.60654 c 0,0 0.235,-0.04 0.68375,-0.0612 0.4475,-0.0275 1.11,-0.0362 1.9475,0.0575 0.8375,0.0875 1.84625,0.30625 2.965,0.6975 1.11125,0.415 2.30375,1.07875 3.4175,2.0525 1.1175,0.9775 2.04875,2.30875 2.82625,3.81125 0.30125,0.785 0.715,1.56625 0.90625,2.43 0.11625,0.4275 0.23375,0.85875 0.3525,1.29625 0.0712,0.44 0.1425,0.885 0.215,1.33375 0.29125,1.755 0.39625,3.695 0.42875,5.57 0.0288,1.89625 -0.0362,3.82 -0.17,5.735 -0.1575,1.915 -0.3725,3.8225 -0.65375,5.68875 -0.25375,1.87 -0.58875,3.6975 -0.93375,5.46 -0.3275,1.76625 -0.76125,3.45 -1.16625,5.045 -0.44,1.5875 -0.86,3.085 -1.31375,4.45 -0.4225,1.3725 -0.90375,2.60375 -1.3425,3.68375 -0.45125,1.07875 -0.85875,2.01 -1.255,2.75125 -0.35,0.76125 -0.72875,1.30625 -0.9625,1.6875 -0.2375,0.37875 -0.36375,0.58125 -0.36375,0.58125 0,0 0.10625,-0.21375 0.305,-0.615 0.2,-0.4 0.50125,-0.97875 0.80125,-1.75625 0.33625,-0.76 0.67125,-1.7125 1.03875,-2.81 0.35,-1.1025 0.73375,-2.35 1.105,-3.725 0.3875,-1.36875 0.73625,-2.8725 1.10125,-4.46125 0.32875,-1.59875 0.6675,-3.28375 0.9875,-5.03375 0.315,-1.75 0.62,-3.56375 0.84375,-5.41625 0.25,-1.84875 0.43125,-3.7375 0.56375,-5.62375 0.16,-1.885 0.25125,-3.775 0.25125,-5.6325 -0.01,-1.875 -0.07,-3.6375 -0.335,-5.41375 -0.0625,-0.435 -0.12625,-0.865 -0.1875,-1.2925 -0.0987,-0.41375 -0.1975,-0.825 -0.29375,-1.23125 -0.14375,-0.83125 -0.5,-1.5675 -0.7475,-2.32375 -0.66625,-1.4325 -1.475,-2.71625 -2.47875,-3.67625 -1.01,-0.9425 -2.08125,-1.6575 -3.1175,-2.1375 -1.04375,-0.4525 -2.00875,-0.74 -2.82375,-0.88625 -1.63,-0.30375 -2.595,-0.235 -2.595,-0.235"
         style="fill:#d2770e;fill-opacity:1;fill-rule:nonzero;stroke:none"
         id="path766"
         inkscape:connector-curvature="0" />
      <path
         d="m 215.09239,411.11666 1.75125,0.23625 -0.0362,0.1325 -5.1125,-1.74625 -0.02,-0.007 c -1.08875,-0.39125 -2.13,-0.88875 -3.24375,-1.18875 l -1.65625,-0.4825 c -0.56,-0.13 -1.12625,-0.2325 -1.6875,-0.35125 -0.56,-0.13 -1.13125,-0.19875 -1.70125,-0.26875 -0.56875,-0.0763 -1.1375,-0.1525 -1.71,-0.17625 -0.5725,-0.0412 -1.14375,-0.08 -1.715,-0.075 -0.56875,-0.015 -1.15,0.002 -1.6925,0.0387 l -0.0463,10e-4 -0.0288,-10e-4 -1.26875,-0.0312 0.19875,-0.0312 c -0.99625,0.42125 -1.98625,0.88125 -2.8375,1.55875 -0.8775,0.6325 -1.65,1.40875 -2.33125,2.25875 -0.6975,0.8375 -1.2525,1.78875 -1.7725,2.75375 -0.48,0.9875 -0.9225,1.99875 -1.2475,3.05625 -0.35625,1.04625 -0.595,2.13125 -0.83125,3.2125 -0.21,1.08875 -0.3775,2.18875 -0.46875,3.2975 -0.06,1.0425 -0.0412,2.24125 -0.0662,3.355 -0.0525,1.1425 0.0788,2.24125 0.1325,3.36 l 0.1025,1.67125 c 0.055,0.5575 0.14,1.115 0.20875,1.6725 0.16625,1.11125 0.24625,2.23625 0.46125,3.34125 l 0.60125,3.32375 0.78375,3.29 c 0.235,1.105 0.60625,2.17375 0.915,3.25875 0.30625,1.0875 0.6225,2.1725 1.01125,3.235 0.38,1.06375 0.69625,2.155 1.13125,3.2 l 1.23375,3.16875 -1.46375,-3.07375 c -0.4975,-1.0225 -0.8775,-2.09375 -1.3225,-3.14 -0.44875,-1.04625 -0.84375,-2.1125 -1.19875,-3.195 -0.35,-1.08125 -0.7625,-2.14625 -1.04,-3.25125 l -0.91125,-3.295 -0.72875,-3.345 c -0.26875,-1.11125 -0.36375,-2.25375 -0.5425,-3.3825 -0.0762,-0.56625 -0.16875,-1.13 -0.2325,-1.69875 l -0.12625,-1.72 c -0.0675,-1.14375 -0.21375,-2.3025 -0.17375,-3.42875 0.0125,-1.1525 -0.0238,-2.225 0.03,-3.4425 0.18,-2.30125 0.5725,-4.6 1.33625,-6.79875 0.35625,-1.105 0.835,-2.1725 1.35875,-3.215 0.565,-1.0225 1.17125,-2.03125 1.93625,-2.93 0.74625,-0.90875 1.5975,-1.74375 2.565,-2.42625 0.94,-0.72625 2.03,-1.225 3.1225,-1.6675 0.0625,-0.025 0.135,-0.035 0.19875,-0.0312 l 1.3075,0.0675 -0.075,0 c 0.62,-0.02 1.2025,-0.015 1.7975,0.02 0.5925,0.0175 1.18125,0.0763 1.76875,0.14125 0.58875,0.0462 1.17125,0.14375 1.7525,0.24375 0.5825,0.0925 1.165,0.18375 1.735,0.33875 0.5725,0.14 1.14875,0.26625 1.71625,0.42 l 1.6775,0.555 c 0.5675,0.16125 1.10375,0.40625 1.6375,0.65625 l 1.60375,0.73 -0.02,-0.007 4.9975,2.0525 c 0.0362,0.0125 0.0563,0.0513 0.0438,0.0875 -0.0113,0.0325 -0.0475,0.05 -0.08,0.045 l -1.7275,-0.37125 z"
         style="fill:#ffe289;fill-opacity:1;fill-rule:nonzero;stroke:none"
         id="path770"
         inkscape:connector-curvature="0" />
      <path
         d="m 239.31239,411.11666 -1.19375,0.525 c -0.0275,0.0125 -0.0588,0 -0.07,-0.0275 -0.0125,-0.0263 0.003,-0.0575 0.0288,-0.0713 l 4.2425,-2.11125 c 0.72375,-0.34625 1.4375,-0.66125 2.1575,-0.99375 0.355,-0.17 0.7175,-0.33 1.105,-0.445 l 1.1425,-0.37875 c 0.38375,-0.11875 0.76125,-0.27375 1.1525,-0.35125 l 1.165,-0.28125 c 0.7725,-0.21125 1.56625,-0.3175 2.355,-0.45125 0.7875,-0.145 1.59,-0.19 2.3875,-0.27375 0.805,-0.045 1.595,-0.0875 2.43,-0.0537 l -0.075,0 2.84875,-0.0763 0.0175,0 c 0.065,-0.002 0.1275,0.01 0.18375,0.0325 1.01375,0.41 2.02375,0.88 2.8875,1.5725 0.9025,0.6425 1.635,1.48375 2.3,2.35125 0.61875,0.9025 1.1725,1.85 1.57375,2.855 0.4275,0.99375 0.745,2.02375 1.01125,3.05875 0.51875,2.0775 0.75375,4.1925 0.92875,6.28875 0.0275,0.54 0.0975,1.01625 0.09,1.6075 l 0.008,1.56625 c 0.0162,1.0425 0.015,2.08875 -0.0763,3.1525 -0.0863,1.05375 -0.085,2.12375 -0.24375,3.16375 -0.1275,1.045 -0.265,2.09 -0.42125,3.13 l -0.605,3.0975 c -0.2,1.03125 -0.495,2.0425 -0.7375,3.06375 -0.235,1.02375 -0.55125,2.025 -0.8575,3.02875 -0.31125,1.00125 -0.62375,2.00125 -1.005,2.98 -0.375,0.97875 -0.69875,1.97375 -1.11375,2.93625 l -1.24125,2.8825 1.01375,-2.96625 c 0.35375,-0.98125 0.61625,-1.99375 0.9275,-2.9875 0.31875,-0.9925 0.56625,-2.005 0.81625,-3.01625 0.265,-1.00625 0.5425,-2.00875 0.73625,-3.03125 0.20125,-1.02 0.45625,-2.02875 0.615,-3.05625 l 0.48125,-3.075 0.32625,-3.0925 c 0.145,-1.03 0.12875,-2.0575 0.20125,-3.085 0.0775,-1.02125 0.0662,-2.065 0.0362,-3.11125 l -0.0263,-1.5675 c 0.006,-0.45375 -0.0737,-1.01625 -0.10625,-1.51875 -0.1,-1.03125 -0.2075,-2.06 -0.36625,-3.07625 -0.1425,-1.02125 -0.3575,-2.0225 -0.58,-3.0175 -0.24125,-0.98875 -0.53,-1.96625 -0.9175,-2.895 -0.36125,-0.945 -0.86125,-1.81375 -1.41125,-2.6425 -0.59375,-0.78875 -1.2375,-1.555 -2.0375,-2.135 -0.7625,-0.63 -1.66375,-1.05875 -2.5775,-1.445 l 0.2025,0.0325 -2.80875,0.0225 -0.055,0 -0.0213,0 c -0.74125,-0.0587 -1.53125,-0.0487 -2.30375,-0.0337 -0.7725,0.0538 -1.55375,0.0663 -2.325,0.17875 -0.77125,0.1025 -1.54875,0.17625 -2.30875,0.355 l -1.14625,0.23125 c -0.38875,0.0613 -0.75,0.19625 -1.125,0.2975 -0.74,0.23875 -1.5,0.38125 -2.23125,0.69875 -0.73375,0.285 -1.4825,0.56375 -2.2025,0.85625 l -4.3725,1.82625 -0.0413,-0.0987 1.2325,-0.425 z"
         style="fill:#ffe289;fill-opacity:1;fill-rule:nonzero;stroke:none"
         id="path774"
         inkscape:connector-curvature="0" />
      <path
         d="m 233.60439,450.36591 c 0.715,-2.16125 1.44125,-4.3175 2.0825,-6.49375 0.30375,-1.09375 0.64875,-2.175 0.9025,-3.28 0.2825,-1.0975 0.57875,-2.19 0.79375,-3.30125 l 0.3525,-1.6575 0.265,-1.6725 c 0.20625,-1.11 0.295,-2.23375 0.4,-3.35375 0.15125,-1.11625 0.0763,-2.24375 0.14625,-3.3625 0.0225,-1.1225 -0.002,-2.27125 -0.0163,-3.4 -0.0362,-2.265 -0.10875,-4.52625 -0.31875,-6.7675 -0.12125,-1.1175 -0.24375,-2.23375 -0.445,-3.33375 -0.0775,-0.55625 -0.205,-1.09875 -0.32875,-1.64125 -0.11,-0.5475 -0.25,-1.085 -0.41375,-1.61375 -0.28375,-1.0725 -0.67,-2.11125 -1.13375,-3.10375 -0.46,-0.99625 -1.0325,-1.9325 -1.70125,-2.785 -0.6725,-0.85375 -1.46625,-1.59875 -2.34,-2.23375 -0.46375,-0.27875 -0.9,-0.60875 -1.38625,-0.84875 l -1.49375,-0.65875 0.18125,0.03 -3.89625,-0.0275 0.17125,-0.03 -1.25125,0.49125 -1.19,0.62375 -1.1075,0.76 c -0.335,0.2975 -0.6875,0.57875 -1.01,0.89125 -0.29875,0.33625 -0.63,0.64625 -0.905,1.005 -0.2625,0.3675 -0.56875,0.705 -0.7975,1.1 -0.22875,0.39125 -0.50125,0.75875 -0.69125,1.17625 -0.2025,0.40875 -0.43125,0.80625 -0.59375,1.23625 -0.3625,0.84125 -0.6825,1.705 -0.94625,2.59 -0.27125,0.8825 -0.4875,1.785 -0.675,2.6925 -0.36625,1.82 -0.605,3.67 -0.79125,5.52625 0.0338,-1.865 0.15875,-3.73375 0.435,-5.58875 0.1375,-0.92625 0.30625,-1.85125 0.5325,-2.76625 0.22125,-0.91375 0.48625,-1.825 0.84125,-2.70375 0.15375,-0.45 0.37625,-0.87125 0.5725,-1.305 0.18375,-0.44 0.45375,-0.8375 0.6825,-1.2575 0.22625,-0.42125 0.5375,-0.7925 0.8025,-1.19125 0.28,-0.39 0.62125,-0.735 0.93,-1.105 0.33375,-0.3475 0.7025,-0.6625 1.0525,-0.995 l 1.17,-0.8625 1.26375,-0.7175 1.33375,-0.57625 c 0.045,-0.02 0.09,-0.0288 0.13625,-0.03 l 0.035,0 3.89625,-0.0288 0.0263,0 c 0.0538,0 0.1075,0.0113 0.155,0.0312 l 1.635,0.7 c 0.53375,0.25625 1.02,0.61 1.53125,0.9125 0.97125,0.68875 1.855,1.50125 2.6025,2.4275 0.74375,0.92375 1.37375,1.93625 1.87875,2.9975 0.51,1.0575 0.93,2.15875 1.2425,3.27875 0.18125,0.55625 0.31,1.1225 0.4225,1.69125 0.12125,0.5675 0.2475,1.135 0.32125,1.7075 0.195,1.14 0.30875,2.28625 0.42,3.43 0.18875,2.2925 0.235,4.58125 0.2475,6.8625 0,1.145 0.0125,2.27125 -0.0225,3.42125 -0.0737,1.15 -0.0637,2.30875 -0.24875,3.44625 -0.14625,1.14 -0.27625,2.28125 -0.5225,3.4025 l -0.32625,1.6875 -0.41375,1.66625 c -0.2575,1.115 -0.58875,2.20875 -0.9175,3.30125 -0.3175,1.0975 -0.72375,2.165 -1.08875,3.245 -0.76375,2.15 -1.6,4.26625 -2.48875,6.36125"
         style="fill:#ffe289;fill-opacity:1;fill-rule:nonzero;stroke:none"
         id="path778"
         inkscape:connector-curvature="0" />
      <g
         id="g788"
         transform="matrix(1.25,0,0,-1.25,103.75326,898.30292)">
        <g
           clip-path="url(#clipPath784)"
           id="g790"
           style="opacity:0.69999701">
          <g
             transform="translate(93.9028,403.9033)"
             id="g792">
            <path
               d="M 0,0 C -0.197,0.5 -0.577,0.946 -1.088,0.892 -1.925,0.803 -2.252,0.164 -2.081,-0.607 -2.021,-0.878 -1.889,-1.131 -1.707,-1.322 -1.013,-1.304 -0.437,-0.704 0,0"
               style="fill:#ffffff;fill-opacity:1;fill-rule:nonzero;stroke:none"
               id="path794"
               inkscape:connector-curvature="0" />
          </g>
        </g>
      </g>
      <path
         d="m 221.13176,393.42379 c -0.54625,0.88 -1.26625,1.63 -2.13375,1.6525 0.3025,0.315 0.7175,0.4875 1.20875,0.35125 0.81625,-0.205 1.25375,-0.64125 1.07875,-1.48625 -0.0312,-0.17 -0.085,-0.34625 -0.15375,-0.5175"
         style="fill:#cbc8bd;fill-opacity:1;fill-rule:nonzero;stroke:none"
         id="path798"
         inkscape:connector-curvature="0" />
      <g
         id="g808"
         transform="matrix(1.25,0,0,-1.25,103.75326,898.30292)">
        <g
           clip-path="url(#clipPath804)"
           id="g810"
           style="opacity:0.69999701">
          <g
             transform="translate(97.4058,403.9033)"
             id="g812">
            <path
               d="M 0,0 C -0.198,0.5 -0.578,0.946 -1.089,0.892 -1.925,0.803 -2.253,0.164 -2.082,-0.607 -2.021,-0.878 -1.89,-1.131 -1.707,-1.322 -1.014,-1.304 -0.438,-0.704 0,0"
               style="fill:#ffffff;fill-opacity:1;fill-rule:nonzero;stroke:none"
               id="path814"
               inkscape:connector-curvature="0" />
          </g>
        </g>
      </g>
      <path
         d="m 225.51051,393.42379 c -0.5475,0.88 -1.2675,1.63 -2.13375,1.6525 0.30125,0.315 0.71625,0.4875 1.20875,0.35125 0.815,-0.205 1.2525,-0.64125 1.0775,-1.48625 -0.0312,-0.17 -0.085,-0.34625 -0.1525,-0.5175"
         style="fill:#cbc8bd;fill-opacity:1;fill-rule:nonzero;stroke:none"
         id="path818"
         inkscape:connector-curvature="0" />
      <g
         id="g828"
         transform="matrix(1.25,0,0,-1.25,103.75326,898.30292)">
        <g
           clip-path="url(#clipPath824)"
           id="g830"
           style="opacity:0.69999701">
          <g
             transform="translate(103.8545,403.9033)"
             id="g832">
            <path
               d="M 0,0 C 0.198,0.5 0.578,0.946 1.089,0.892 1.925,0.803 2.253,0.164 2.082,-0.607 2.021,-0.878 1.889,-1.131 1.707,-1.322 1.014,-1.304 0.437,-0.704 0,0"
               style="fill:#ffffff;fill-opacity:1;fill-rule:nonzero;stroke:none"
               id="path834"
               inkscape:connector-curvature="0" />
          </g>
        </g>
      </g>
      <path
         d="m 233.57139,393.42379 c 0.54625,0.88 1.2675,1.63 2.13375,1.6525 -0.30125,0.315 -0.71625,0.4875 -1.20875,0.35125 -0.815,-0.205 -1.2525,-0.64125 -1.07875,-1.48625 0.0325,-0.17 0.0863,-0.34625 0.15375,-0.5175"
         style="fill:#cbc8bd;fill-opacity:1;fill-rule:nonzero;stroke:none"
         id="path838"
         inkscape:connector-curvature="0" />
      <g
         id="g848"
         transform="matrix(1.25,0,0,-1.25,103.75326,898.30292)">
        <g
           clip-path="url(#clipPath844)"
           id="g850"
           style="opacity:0.69999701">
          <g
             transform="translate(99.2979,403.9033)"
             id="g852">
            <path
               d="M 0,0 C 0.198,0.5 0.578,0.946 1.089,0.892 1.925,0.803 2.252,0.164 2.081,-0.607 2.021,-0.878 1.889,-1.131 1.707,-1.322 1.014,-1.304 0.437,-0.704 0,0"
               style="fill:#ffffff;fill-opacity:1;fill-rule:nonzero;stroke:none"
               id="path854"
               inkscape:connector-curvature="0" />
          </g>
        </g>
      </g>
      <path
         d="m 227.87564,393.42379 c 0.54625,0.88 1.2675,1.63 2.13375,1.6525 -0.3025,0.315 -0.7175,0.4875 -1.20875,0.35125 -0.81625,-0.205 -1.25375,-0.64125 -1.07875,-1.48625 0.0325,-0.17 0.085,-0.34625 0.15375,-0.5175"
         style="fill:#cbc8bd;fill-opacity:1;fill-rule:nonzero;stroke:none"
         id="path858"
         inkscape:connector-curvature="0" />
      <path
         d="m 193.21001,470.54779 c -1.87375,-1.05375 -2.10875,2.45875 -2.10875,3.7475 -0.11625,3.045 -0.35,5.73875 3.28,5.73875 2.45875,0 6.20625,0.4675 6.7925,-2.3425 0.35125,-1.5225 0.35125,-5.62125 -1.05375,-6.44125 l -6.91,-0.7025 z"
         style="fill:#ea9914;fill-opacity:1;fill-rule:nonzero;stroke:none"
         id="path862"
         inkscape:connector-curvature="0" />
      <path
         d="m 211.30089,471.17954 c -3.51375,0.7025 -1.99,5.9725 1.5225,5.9725 1.87375,0 3.27875,-1.52125 2.81125,-3.5125 -0.46875,-1.99125 -2.3425,-2.46 -3.9825,-2.5775 l -0.35125,0.1175 z"
         style="fill:#ea9914;fill-opacity:1;fill-rule:nonzero;stroke:none"
         id="path866"
         inkscape:connector-curvature="0" />
      <path
         d="m 223.94976,470.59416 c -3.28,0.23375 -2.10875,8.54876 0.23375,9.13501 1.40625,0.35125 5.6225,-0.35125 7.0275,-1.055 1.2875,-0.81875 2.225,-5.62126 0.23375,-6.55751 l -7.495,-1.5225 z"
         style="fill:#ea9914;fill-opacity:1;fill-rule:nonzero;stroke:none"
         id="path870"
         inkscape:connector-curvature="0" />
      <path
         d="m 241.75064,471.41391 c -3.1625,-0.35125 -4.09875,5.50376 -0.585,6.20626 1.5225,0.3525 2.69375,-0.585 3.04375,-2.1075 0.3525,-1.75626 -0.81875,-2.81001 -1.99,-3.86501 l -0.46875,-0.23375 z"
         style="fill:#ea9914;fill-opacity:1;fill-rule:nonzero;stroke:none"
         id="path874"
         inkscape:connector-curvature="0" />
      <path
         d="m 260.37189,470.00829 c -0.585,-0.11625 -1.64,0.23375 -2.57625,0.46875 -0.82,0.1175 -3.045,-0.1175 -3.7475,0.35125 -1.28875,0.82 -0.7025,6.55875 0.4675,7.72875 0.9375,0.9375 6.79375,1.40625 7.73,0.3525 0.82,-1.055 0.58625,-7.14375 -0.4675,-8.19875 l -0.1175,0 -1.28875,-0.7025 z"
         style="fill:#ea9914;fill-opacity:1;fill-rule:nonzero;stroke:none"
         id="path878"
         inkscape:connector-curvature="0" />
      <path
         d="m 196.69939,477.08592 c -1.85,-2.77626 -3.70125,-3.79501 -5.65,-2.68626 l 0,2.23376 c 0,1.15875 0.94,2.09875 2.1,2.09875 l 4.8375,0 c 1.15875,0 2.09875,-0.94 2.09875,-2.09875 l 0,-1.22125 c -0.77625,-0.19375 -1.66625,0.32125 -3.38625,1.67375"
         style="fill:#a92529;fill-opacity:1;fill-rule:nonzero;stroke:none"
         id="path882"
         inkscape:connector-curvature="0" />
      <path
         d="m 197.98664,469.69579 -4.8375,0 c -1.16,0 -2.1,0.94 -2.1,2.09875 l 0,2.605 c 1.94875,-1.10875 3.8,-0.09 5.65,2.68625 1.72125,-1.35125 2.61125,-1.8675 3.3875,-1.67375 l 0,-3.6175 c 0,-1.15875 -0.94125,-2.09875 -2.1,-2.09875"
         style="fill:#d0232f;fill-opacity:1;fill-rule:nonzero;stroke:none"
         id="path886"
         inkscape:connector-curvature="0" />
      <path
         d="m 196.21239,470.64241 c -2.0875,0.5225 -0.20875,3.1325 1.3575,2.715 2.08875,-0.5225 0,-2.1925 -1.25375,-2.50625 l -0.10375,-0.20875 z"
         style="fill:#ef283d;fill-opacity:1;fill-rule:nonzero;stroke:none"
         id="path890"
         inkscape:connector-curvature="0" />
      <g
         id="g900"
         transform="matrix(1.25,0,0,-1.25,103.75326,898.30292)">
        <g
           clip-path="url(#clipPath896)"
           id="g902"
           style="opacity:0.69999701">
          <g
             transform="translate(88.4854,340.4966)"
             id="g904">
            <path
               d="m 0,0 c -0.43,0.512 -1.067,0.844 -1.788,0.844 -1.296,0 -2.346,-1.051 -2.346,-2.345 0,-0.71 0.322,-1.339 0.82,-1.77 C -1.959,-2.917 -0.716,-1.369 0,0"
               style="fill:#ffffff;fill-opacity:1;fill-rule:nonzero;stroke:none"
               id="path906"
               inkscape:connector-curvature="0" />
          </g>
        </g>
      </g>
      <path
         d="m 214.36001,472.68216 c -0.895,1.71125 -2.44875,3.64626 -4.1425,4.08876 0.51375,0.4425 1.175,0.72125 1.9075,0.72125 1.61875,0 2.9325,-1.31375 2.9325,-2.93375 0,-0.71751 -0.26875,-1.36626 -0.6975,-1.87626"
         style="fill:#cbc8bd;fill-opacity:1;fill-rule:nonzero;stroke:none"
         id="path910"
         inkscape:connector-curvature="0" />
      <path
         d="m 231.71414,474.16291 0,-2.36875 c 0,-1.15875 -0.94,-2.09875 -2.1,-2.09875 l -4.8375,0 c -1.16,0 -2.09875,0.94 -2.09875,2.09875 l 0,2.605 0,0.32126 c 1.14875,0.16 2.19125,0.93 3.64125,1.09125 2.735,0.365 4.03625,-0.0738 5.395,-1.64876"
         style="fill:#d0232f;fill-opacity:1;fill-rule:nonzero;stroke:none"
         id="path914"
         inkscape:connector-curvature="0" />
      <path
         d="m 226.31851,475.81142 c -1.44875,-0.16125 -2.49125,-0.93125 -3.64125,-1.09125 l 0,1.9125 c 0,1.16 0.94,2.1 2.1,2.1 l 4.8375,0 c 1.15875,0 2.09875,-0.94 2.09875,-2.1 l 0,-1.22125 0,-1.24876 c -1.35875,1.57501 -2.66,2.01376 -5.395,1.64876"
         style="fill:#a92529;fill-opacity:1;fill-rule:nonzero;stroke:none"
         id="path918"
         inkscape:connector-curvature="0" />
      <path
         d="m 226.98451,470.63816 c -1.75,0.15875 -3.565,0.90375 -3.31,2.0925 0.5225,2.29751 2.71375,-0.62625 3.54875,-0.73 0.41875,0 3.86375,1.775 2.71625,-0.6275 -0.3025,-0.63375 -1.61,-0.8575 -2.955,-0.735"
         style="fill:#ef283d;fill-opacity:1;fill-rule:nonzero;stroke:none"
         id="path922"
         inkscape:connector-curvature="0" />
      <path
         d="m 257.70526,477.08592 c 1.85,-2.77626 3.70125,-3.79501 5.65125,-2.68626 l 0,2.23376 c 0,1.15875 -0.94,2.09875 -2.1,2.09875 l -4.8375,0 c -1.16,0 -2.1,-0.94 -2.1,-2.09875 l 0,-1.22125 c 0.77625,-0.19375 1.66625,0.32125 3.38625,1.67375"
         style="fill:#a92529;fill-opacity:1;fill-rule:nonzero;stroke:none"
         id="path926"
         inkscape:connector-curvature="0" />
      <path
         d="m 256.41864,469.69579 4.8375,0 c 1.16,0 2.1,0.94 2.1,2.09875 l 0,2.605 c -1.94875,-1.10875 -3.8,-0.09 -5.65125,2.68625 -1.72,-1.35125 -2.61,-1.8675 -3.38625,-1.67375 l 0,-3.6175 c 0,-1.15875 0.94,-2.09875 2.1,-2.09875"
         style="fill:#d0232f;fill-opacity:1;fill-rule:nonzero;stroke:none"
         id="path930"
         inkscape:connector-curvature="0" />
      <path
         d="m 258.02639,471.06054 c -1.35625,-0.3125 -2.40125,2.40125 0.105,2.0875 2.1925,-0.3125 3.75875,-2.8175 0.52125,-2.1925 l -0.62625,0.105 z"
         style="fill:#ef283d;fill-opacity:1;fill-rule:nonzero;stroke:none"
         id="path934"
         inkscape:connector-curvature="0" />
      <g
         id="g944"
         transform="matrix(1.25,0,0,-1.25,103.75326,898.30292)">
        <g
           clip-path="url(#clipPath940)"
           id="g946"
           style="opacity:0.69999701">
          <g
             transform="translate(109.0332,340.4966)"
             id="g948">
            <path
               d="m 0,0 c 0.43,0.512 1.068,0.844 1.789,0.844 1.295,0 2.345,-1.051 2.345,-2.345 0,-0.71 -0.321,-1.339 -0.82,-1.77 C 1.96,-2.917 0.717,-1.369 0,0"
               style="fill:#ffffff;fill-opacity:1;fill-rule:nonzero;stroke:none"
               id="path950"
               inkscape:connector-curvature="0" />
          </g>
        </g>
      </g>
      <path
         d="m 240.04476,472.68216 c 0.89625,1.71125 2.45,3.64626 4.1425,4.08876 -0.51375,0.4425 -1.175,0.72125 -1.90625,0.72125 -1.62,0 -2.93375,-1.31375 -2.93375,-2.93375 0,-0.71751 0.26875,-1.36626 0.6975,-1.87626"
         style="fill:#cbc8bd;fill-opacity:1;fill-rule:nonzero;stroke:none"
         id="path954"
         inkscape:connector-curvature="0" />
      <path
         d="m 226.22514,447.01391 c -2.21375,-0.70375 -2.9175,3.62125 -0.905,4.72875 3.32,1.71 2.9175,-2.61625 1.4075,-4.22625 l -0.5025,-0.5025 z"
         style="fill:#ea9914;fill-opacity:1;fill-rule:nonzero;stroke:none"
         id="path958"
         inkscape:connector-curvature="0" />
      <path
         d="m 225.92301,433.53116 c -2.81625,-0.5025 -2.01125,3.62125 -0.20125,4.4275 1.30875,0.60375 2.315,0.5025 2.51625,-1.1075 0.1,-1.40875 -0.805,-2.21375 -1.61,-3.21875 l -0.705,-0.10125 z"
         style="fill:#ea9914;fill-opacity:1;fill-rule:nonzero;stroke:none"
         id="path962"
         inkscape:connector-curvature="0" />
      <path
         d="m 225.92301,421.25641 c -2.31375,-0.4025 -3.52125,2.515 -1.71,4.4275 1.00625,1.00625 2.415,1.00625 3.22,-0.3025 0.70375,-1.2075 -0.10125,-2.1125 -0.50375,-3.22 l -1.00625,-0.905 z"
         style="fill:#ea9914;fill-opacity:1;fill-rule:nonzero;stroke:none"
         id="path966"
         inkscape:connector-curvature="0" />
      <path
         d="m 226.52676,410.59179 c -0.30125,-0.3025 -1.20625,-0.50375 -1.81,0 -1.40875,0.905 -0.3025,2.515 0.5025,3.42 3.01875,3.11875 3.32,-1.51 1.61,-3.22 l -0.3025,-0.2 z"
         style="fill:#ea9914;fill-opacity:1;fill-rule:nonzero;stroke:none"
         id="path970"
         inkscape:connector-curvature="0" />
      <g
         id="g980"
         transform="matrix(1.25,0,0,-1.25,103.75326,898.30292)">
        <g
           clip-path="url(#clipPath976)"
           id="g982"
           style="opacity:0.69999701">
          <g
             transform="translate(100.0537,389.2886)"
             id="g984">
            <path
               d="m 0,0 c -0.299,0.754 -0.873,1.43 -1.646,1.348 -1.264,-0.134 -1.759,-1.1 -1.5,-2.266 0.091,-0.41 0.291,-0.792 0.566,-1.08 C -1.532,-1.972 -0.661,-1.064 0,0"
               style="fill:#ffffff;fill-opacity:1;fill-rule:nonzero;stroke:none"
               id="path986"
               inkscape:connector-curvature="0" />
          </g>
        </g>
      </g>
      <path
         d="m 228.82039,411.69216 c -0.82625,1.33 -1.915,2.465 -3.225,2.4975 0.45625,0.47625 1.08375,0.7375 1.8275,0.53125 1.2325,-0.31 1.89375,-0.97 1.62875,-2.24625 -0.0475,-0.25625 -0.12875,-0.5225 -0.23125,-0.7825"
         style="fill:#cbc8bd;fill-opacity:1;fill-rule:nonzero;stroke:none"
         id="path990"
         inkscape:connector-curvature="0" />
      <g
         id="g1000"
         transform="matrix(1.25,0,0,-1.25,103.75326,898.30292)">
        <g
           clip-path="url(#clipPath996)"
           id="g1002"
           style="opacity:0.69999701">
          <g
             transform="translate(99.7227,380.3228)"
             id="g1004">
            <path
               d="m 0,0 c -0.299,0.754 -0.873,1.43 -1.646,1.348 -1.264,-0.134 -1.759,-1.1 -1.5,-2.266 0.091,-0.41 0.291,-0.792 0.566,-1.08 C -1.532,-1.972 -0.661,-1.064 0,0"
               style="fill:#ffffff;fill-opacity:1;fill-rule:nonzero;stroke:none"
               id="path1006"
               inkscape:connector-curvature="0" />
          </g>
        </g>
      </g>
      <path
         d="m 228.40664,422.89941 c -0.82625,1.33 -1.915,2.465 -3.225,2.4975 0.45625,0.47625 1.08375,0.7375 1.8275,0.53125 1.2325,-0.31 1.89375,-0.97 1.62875,-2.24625 -0.0475,-0.25625 -0.12875,-0.5225 -0.23125,-0.7825"
         style="fill:#cbc8bd;fill-opacity:1;fill-rule:nonzero;stroke:none"
         id="path1010"
         inkscape:connector-curvature="0" />
      <g
         id="g1020"
         transform="matrix(1.25,0,0,-1.25,103.75326,898.30292)">
        <g
           clip-path="url(#clipPath1016)"
           id="g1022"
           style="opacity:0.69999701">
          <g
             transform="translate(99.9375,370.4478)"
             id="g1024">
            <path
               d="m 0,0 c -0.298,0.754 -0.873,1.43 -1.645,1.348 -1.264,-0.134 -1.759,-1.1 -1.5,-2.266 0.091,-0.41 0.291,-0.792 0.565,-1.08 C -1.532,-1.972 -0.661,-1.063 0,0"
               style="fill:#ffffff;fill-opacity:1;fill-rule:nonzero;stroke:none"
               id="path1026"
               inkscape:connector-curvature="0" />
          </g>
        </g>
      </g>
      <path
         d="m 228.67514,435.24316 c -0.82625,1.32875 -1.915,2.465 -3.225,2.4975 0.4575,0.47625 1.08375,0.7375 1.8275,0.53 1.23375,-0.30875 1.89375,-0.96875 1.63,-2.245 -0.0487,-0.2575 -0.12875,-0.5225 -0.2325,-0.7825"
         style="fill:#cbc8bd;fill-opacity:1;fill-rule:nonzero;stroke:none"
         id="path1030"
         inkscape:connector-curvature="0" />
      <g
         id="g1040"
         transform="matrix(1.25,0,0,-1.25,103.75326,898.30292)">
        <g
           clip-path="url(#clipPath1036)"
           id="g1042"
           style="opacity:0.69999701">
          <g
             transform="translate(100.1992,359.9019)"
             id="g1044">
            <path
               d="m 0,0 c -0.298,0.754 -0.873,1.43 -1.645,1.348 -1.265,-0.134 -1.76,-1.099 -1.5,-2.266 0.09,-0.41 0.29,-0.792 0.565,-1.08 C -1.532,-1.972 -0.661,-1.063 0,0"
               style="fill:#ffffff;fill-opacity:1;fill-rule:nonzero;stroke:none"
               id="path1046"
               inkscape:connector-curvature="0" />
          </g>
        </g>
      </g>
      <path
         d="m 229.00226,448.42554 c -0.82625,1.32875 -1.915,2.465 -3.225,2.4975 0.4575,0.475 1.08375,0.7375 1.8275,0.53 1.2325,-0.30875 1.89375,-0.96875 1.63,-2.245 -0.0488,-0.2575 -0.12875,-0.5225 -0.2325,-0.7825"
         style="fill:#cbc8bd;fill-opacity:1;fill-rule:nonzero;stroke:none"
         id="path1050"
         inkscape:connector-curvature="0" />
    </g>
  </g>
</svg>
