<?xml version="1.0" encoding="UTF-8" standalone="no"?>
<!-- Created with Inkscape (http://www.inkscape.org/) -->

<svg
   xmlns:dc="http://purl.org/dc/elements/1.1/"
   xmlns:cc="http://creativecommons.org/ns#"
   xmlns:rdf="http://www.w3.org/1999/02/22-rdf-syntax-ns#"
   xmlns:svg="http://www.w3.org/2000/svg"
   xmlns="http://www.w3.org/2000/svg"
   xmlns:sodipodi="http://sodipodi.sourceforge.net/DTD/sodipodi-0.dtd"
   xmlns:inkscape="http://www.inkscape.org/namespaces/inkscape"
   width="253"
   height="253"
   id="svg4149"
   version="1.1"
   inkscape:version="0.48.5 r10040"
   sodipodi:docname="logo-crown1.svg">
  <defs
     id="defs4151">
    <clipPath
       id="c"
       clipPathUnits="userSpaceOnUse">
      <path
         inkscape:connector-curvature="0"
         d="m 20427.9,881.301 -2865,3.398 62.2,82.703 2802.8,-19.101 v -67 m 0,340.099 h -2611.7 l 49.8,66.2 h 371.2 v 387.8 l -80.6,-1.5 24.7,32.7 496.4,-3.4 c -28,-45.7 -44.2,-99.4 -44.2,-157 0,-163.9 131.3,-297.2 294.5,-300.4 29.3,-9.6 60.6,-14.8 93.2,-14.8 166,0 300.5,134.6 300.5,300.6 0,62 -18.8,119.7 -51,167.6 l 923.4,-6.3 c -22.7,-48.1 -36,-106.2 -36,-168.7 0,-166 93.7,-300.5 209.2,-300.5 21.1,0 41.4,4.5 60.6,12.8 v -15.1 m -857.5,456.7 v -380.5 h 380.5 v 387.8 l -7.3,-7.3 7.3,7.3 -380.5,-7.3 m 857.5,286.3 h -2052.7 l 283.2,376.4 1769.5,17.5 v -393.9 m -685.7,14.8 c 10.9,-3.5 22.6,-5.5 34.7,-5.5 61.9,0 112,50.2 112,112 0,61.1 -48.9,110.7 -109.7,111.9 -10.9,3.6 -22.6,5.5 -34.7,5.5 -61.9,0 -112,-50.1 -112,-111.9 0,-61.1 48.9,-110.7 109.7,-112"
         id="path13" />
    </clipPath>
  </defs>
  <sodipodi:namedview
     id="base"
     pagecolor="#ffffff"
     bordercolor="#666666"
     borderopacity="1.0"
     inkscape:pageopacity="0.0"
     inkscape:pageshadow="2"
     inkscape:zoom="0.98994949"
     inkscape:cx="281.93243"
     inkscape:cy="-72.372515"
     inkscape:document-units="px"
     inkscape:current-layer="layer1"
     showgrid="false"
     fit-margin-top="1"
     fit-margin-left="1"
     fit-margin-right="1"
     fit-margin-bottom="1"
     inkscape:window-width="1920"
     inkscape:window-height="1017"
     inkscape:window-x="-8"
     inkscape:window-y="1072"
     inkscape:window-maximized="1" />
  <metadata
     id="metadata4154">
    <rdf:RDF>
      <cc:Work
         rdf:about="">
        <dc:format>image/svg+xml</dc:format>
        <dc:type
           rdf:resource="http://purl.org/dc/dcmitype/StillImage" />
        <dc:title></dc:title>
      </cc:Work>
    </rdf:RDF>
  </metadata>
  <g
     inkscape:label="Layer 1"
     inkscape:groupmode="layer"
     id="layer1"
     transform="translate(-150.94477,-381.14375)">
    <g
       transform="matrix(1.25,0,0,-1.25,103.26841,967.36591)"
       id="g4105">
      <g
         transform="translate(161.0415,288.0728)"
         id="g20">
        <path
           inkscape:connector-curvature="0"
           id="path22"
           style="fill:#ac5d3d;fill-opacity:1;fill-rule:nonzero;stroke:none"
           d="m 0,0 c 0,0 59.721,-3.3 52.749,50.653 -6.954,53.81 -48.437,73.384 -25.436,117.331 0,0 -63.417,-5.134 -64.706,-70.232 -1.392,-70.344 28.357,-83.377 28.357,-83.377 l 6.983,-17.25" />
      </g>
      <g
         transform="translate(91.7842,337.1763)"
         id="g24">
        <path
           inkscape:connector-curvature="0"
           id="path26"
           style="fill:#c06846;fill-opacity:1;fill-rule:nonzero;stroke:none"
           d="m 0,0 c 0,-10.844 -5.93,-19.634 -13.246,-19.634 -7.316,0 -13.245,8.79 -13.245,19.634 0,10.842 5.929,19.632 13.245,19.632 C -5.93,19.632 0,10.842 0,0" />
      </g>
      <g
         transform="translate(92.7505,346.1899)"
         id="g28">
        <path
           inkscape:connector-curvature="0"
           id="path30"
           style="fill:#ac5d3d;fill-opacity:1;fill-rule:nonzero;stroke:none"
           d="m 0,0 c 0,-4.26 -6.824,-2.053 -14.674,-2.053 -7.849,0 -13.751,-2.207 -13.751,2.053 0,4.261 6.364,12.912 14.213,12.912 C -6.362,12.912 0,4.261 0,0" />
      </g>
      <g
         transform="translate(104.7583,369.1904)"
         id="g32">
        <path
           inkscape:connector-curvature="0"
           id="path34"
           style="fill:#c06846;fill-opacity:1;fill-rule:nonzero;stroke:none"
           d="m 0,0 c 0,0 2.773,-23.749 22.179,-39.737 9.824,-8.096 16.737,-16.532 18.02,-29.88 1.378,-14.331 -7.17,-29.878 -22.949,-31.009 0,0 -46.822,-2.67 -46.976,0 -0.154,2.67 1.386,7.598 10.165,7.752 8.779,0.154 10.782,-0.308 10.782,-0.308 0,0 -15.448,5.307 -14.016,24.952 1.078,14.785 14.17,17.324 14.17,17.324 -4.159,17.405 5.046,44.437 5.046,44.437 l -8.897,5.391" />
      </g>
      <g
         transform="translate(99.0234,375.9673)"
         id="g36">
        <path
           inkscape:connector-curvature="0"
           id="path38"
           style="fill:#ffb169;fill-opacity:1;fill-rule:nonzero;stroke:none"
           d="M 0,0 C 0,0 -2.28,-19.107 -4.775,-39.891 -7.482,-62.45 -15.248,-81.63 1.54,-95.8 c 21.186,-17.882 50.519,1.848 45.59,20.946 -4.929,19.099 -27.649,65.293 -27.649,65.293 L 0,0 z" />
      </g>
      <g
         transform="translate(110.4106,422.3096)"
         id="g40">
        <path
           inkscape:connector-curvature="0"
           id="path42"
           style="fill:#c06846;fill-opacity:1;fill-rule:nonzero;stroke:none"
           d="m 0,0 c 0,0 -3.41,11.614 -2.13,21.184 1.28,9.57 -6.191,2.421 -8.918,-11.915 -1.708,-8.983 -5.547,-12.956 -5.547,-12.956 L 0,0 z" />
      </g>
      <g
         transform="translate(121.6274,420.5669)"
         id="g44">
        <path
           inkscape:connector-curvature="0"
           id="path46"
           style="fill:#c06846;fill-opacity:1;fill-rule:nonzero;stroke:none"
           d="m 0,0 c 0,0 6.773,10.032 8.457,19.539 1.685,9.507 6.634,0.428 4.882,-14.06 -1.097,-9.078 1.355,-14.027 1.355,-14.027 L 0,0 z" />
      </g>
      <g
         transform="translate(132.9077,369.1904)"
         id="g48">
        <path
           inkscape:connector-curvature="0"
           id="path50"
           style="fill:#dd7952;fill-opacity:1;fill-rule:nonzero;stroke:none"
           d="m 0,0 c 0,0 2.773,-23.749 22.179,-39.737 9.824,-8.096 16.737,-16.532 18.02,-29.88 1.378,-14.331 -7.17,-29.878 -22.949,-31.009 0,0 -46.822,-2.67 -46.976,0 -0.154,2.67 1.386,7.598 10.165,7.752 8.779,0.154 10.782,-0.308 10.782,-0.308 0,0 -15.448,5.307 -14.016,24.952 1.078,14.785 14.17,17.324 14.17,17.324 -4.159,17.405 -13.554,46.285 -13.554,46.285 l 9.703,3.543" />
      </g>
      <g
         transform="translate(148.5356,377.0708)"
         id="g52">
        <path
           inkscape:connector-curvature="0"
           id="path54"
           style="fill:#dd7b51;fill-opacity:1;fill-rule:nonzero;stroke:none"
           d="m 0,0 c -11.914,-27.726 -38.99,-23.345 -42.908,-22.562 -3.996,0.447 -31.101,4.484 -34.04,34.518 0,0 8.129,3.201 10.38,12.078 2.221,8.833 14.442,28.581 33.898,19.298 C -11.315,46.274 -5.662,23.749 -6.226,14.658 -6.773,5.517 0,0 0,0" />
      </g>
      <g
         transform="translate(83.7754,335.7681)"
         id="g56">
        <path
           inkscape:connector-curvature="0"
           id="path58"
           style="fill:#dd7952;fill-opacity:1;fill-rule:nonzero;stroke:none"
           d="m 0,0 c 0,0 10.771,-0.925 19.397,8.625 8.626,9.551 12.052,19.684 22.511,11.998 10.459,-7.685 5.684,-27.176 -11.104,-31.831 -16.788,-4.656 -34.038,2.275 -37.273,7.204 -3.234,4.928 1.49,9.297 3.44,7.753 C -0.21,1.516 0,0 0,0" />
      </g>
      <g
         transform="translate(148.5356,377.0708)"
         id="g60">
        <path
           inkscape:connector-curvature="0"
           id="path62"
           style="fill:#ffb169;fill-opacity:1;fill-rule:nonzero;stroke:none"
           d="m 0,0 c -11.914,-27.726 -38.99,-23.345 -42.908,-22.562 -3.996,0.447 -31.101,4.484 -34.04,34.518 0,0 14.239,-11.241 24.669,-6.227 10.434,5.037 14.573,5.191 14.573,5.191 0,0 3.896,-1.402 12.31,-9.368 C -16.978,-6.39 0,0 0,0" />
      </g>
      <g
         transform="translate(109.9019,383.7529)"
         id="g64">
        <path
           inkscape:connector-curvature="0"
           id="path66"
           style="fill:#1a0200;fill-opacity:1;fill-rule:nonzero;stroke:none"
           d="M 0,0 C 0,0 -4.121,4.529 -2.401,5.568 -0.681,6.607 4.009,5.689 4.188,4.337 4.368,2.984 1.549,-0.241 0,0" />
      </g>
      <g
         transform="translate(99.2773,396.833)"
         id="g68">
        <path
           inkscape:connector-curvature="0"
           id="path70"
           style="fill:#1a0200;fill-opacity:1;fill-rule:nonzero;stroke:none"
           d="m 0,0 c -0.193,-1.24 -1.354,-2.089 -2.593,-1.896 -1.241,0.192 -2.089,1.354 -1.897,2.594 0.193,1.239 1.354,2.089 2.594,1.896 C -0.656,2.401 0.192,1.24 0,0" />
      </g>
      <g
         transform="translate(111.2783,376.6382)"
         id="g72">
        <path
           inkscape:connector-curvature="0"
           id="path74"
           style="fill:#ffffff;fill-opacity:1;fill-rule:nonzero;stroke:none"
           d="m 0,0 c -0.295,-0.776 -0.586,-2.034 -0.71,-2.188 -0.425,-0.484 -1.835,0.051 -1.835,0.051 0,0 -1.369,0.338 -1.694,0.488 -0.139,0.072 -0.219,1.005 -0.292,2.14 2.095,1.919 3.125,5.5 3.366,6.41 C -1.141,6.898 -1.141,6.898 -1.12,6.869 -1.187,5.807 -1.72,2.413 0,0" />
      </g>
      <g
         transform="translate(117.6177,374.2187)"
         id="g76">
        <path
           inkscape:connector-curvature="0"
           id="path78"
           style="fill:#dd7b51;fill-opacity:1;fill-rule:nonzero;stroke:none"
           d="M 0,0 C -0.238,-0.193 -0.523,-0.322 -0.811,-0.437 -1.109,-0.509 -1.409,-0.628 -1.724,-0.626 L -2.196,-0.65 c -0.156,0.015 -0.311,0.046 -0.467,0.068 l -0.469,0.078 -0.441,0.169 c -0.293,0.115 -0.603,0.209 -0.85,0.405 L -5.21,0.591 c -0.254,0.228 -0.463,0.39 -0.669,0.676 -0.225,0.257 -0.376,0.548 -0.525,0.799 -0.156,0.261 -0.309,0.522 -0.409,0.833 -0.108,0.299 -0.241,0.595 -0.323,0.896 -0.149,0.604 -0.296,1.207 -0.352,1.823 -0.074,0.611 -0.107,1.227 -0.108,1.84 -0.001,0.613 0.042,1.226 0.117,1.832 l 0,-10e-4 0.033,0.247 0.007,-0.247 0,-0.002 C -7.425,8.678 -7.395,8.072 -7.333,7.469 -7.287,6.867 -7.21,6.266 -7.094,5.677 -7.027,5.384 -6.992,5.084 -6.916,4.795 L -6.678,3.933 C -6.596,3.648 -6.472,3.389 -6.373,3.115 -6.29,2.842 -6.128,2.581 -5.974,2.317 -5.815,2.042 -5.687,1.79 -5.511,1.585 -5.374,1.364 -5.101,1.141 -4.913,0.954 L -4.196,0.44 C -3.967,0.247 -3.694,0.143 -3.43,0.015 l 0.399,-0.19 0.426,-0.101 c 0.143,-0.032 0.286,-0.072 0.43,-0.098 l 0.441,-0.012 c 0.298,-0.04 0.588,0.039 0.886,0.074 C -0.56,-0.23 -0.269,-0.15 0,0" />
      </g>
      <g
         transform="translate(100.1826,376.9277)"
         id="g80">
        <path
           inkscape:connector-curvature="0"
           id="path82"
           style="fill:#dd7b51;fill-opacity:1;fill-rule:nonzero;stroke:none"
           d="M 0,0 C 0,0 0.155,-0.181 0.489,-0.402 0.647,-0.527 0.864,-0.638 1.117,-0.75 1.36,-0.881 1.679,-0.918 1.994,-1.023 2.332,-1.024 2.69,-1.13 3.073,-1.054 c 0.382,0.056 0.784,0.076 1.18,0.24 0.201,0.064 0.404,0.13 0.61,0.197 0.163,0.029 0.384,0.199 0.577,0.289 l 0.302,0.165 0.245,0.206 c 0.158,0.144 0.339,0.263 0.481,0.421 0.309,0.342 0.668,0.663 0.896,1.029 0.13,0.177 0.259,0.352 0.386,0.526 0.113,0.188 0.225,0.374 0.335,0.557 0.442,0.732 0.79,1.46 1.067,2.093 0.265,0.638 0.488,1.173 0.62,1.557 0.138,0.382 0.217,0.601 0.217,0.601 0,0 -0.045,-0.228 -0.123,-0.628 C 9.772,5.803 9.642,5.232 9.415,4.568 9.175,3.911 8.899,3.133 8.468,2.359 8.266,1.968 8.032,1.57 7.739,1.189 7.479,0.777 7.142,0.472 6.833,0.122 6.662,-0.062 6.452,-0.202 6.262,-0.363 L 5.971,-0.593 5.667,-0.753 C 5.449,-0.854 5.304,-0.981 5.026,-1.052 4.804,-1.115 4.584,-1.177 4.368,-1.239 3.945,-1.399 3.497,-1.389 3.086,-1.417 c -0.411,-0.048 -0.8,0.089 -1.153,0.121 -0.336,0.129 -0.661,0.212 -0.9,0.381 -0.25,0.149 -0.457,0.29 -0.604,0.437 C 0.117,-0.206 0,0 0,0" />
      </g>
      <g
         transform="translate(79.4629,357.8701)"
         id="g84">
        <path
           inkscape:connector-curvature="0"
           id="path86"
           style="fill:#ac5d3d;fill-opacity:1;fill-rule:nonzero;stroke:none"
           d="M 0,0 C 0,0 0.183,7.239 -3.258,7.162 -6.7,7.085 -1.463,3.773 -1.232,0 -1.001,-3.773 0.001,-0.308 0.001,-0.308" />
      </g>
      <g
         transform="translate(127.4736,392.4521)"
         id="g88">
        <path
           inkscape:connector-curvature="0"
           id="path90"
           style="fill:#1a0200;fill-opacity:1;fill-rule:nonzero;stroke:none"
           d="m 0,0 c -0.193,-1.24 -1.354,-2.089 -2.594,-1.896 -1.24,0.192 -2.089,1.354 -1.896,2.594 0.193,1.239 1.354,2.089 2.594,1.896 C -0.656,2.401 0.192,1.24 0,0" />
      </g>
      <g
         transform="translate(126.7358,393.4897)"
         id="g92">
        <path
           inkscape:connector-curvature="0"
           id="path94"
           style="fill:#ffffff;fill-opacity:1;fill-rule:nonzero;stroke:none"
           d="m 0,0 c -0.042,-0.273 -0.298,-0.46 -0.571,-0.417 -0.274,0.042 -0.46,0.297 -0.418,0.571 0.043,0.273 0.298,0.46 0.572,0.417 C -0.144,0.529 0.042,0.273 0,0" />
      </g>
      <g
         transform="translate(98.6313,397.8564)"
         id="g96">
        <path
           inkscape:connector-curvature="0"
           id="path98"
           style="fill:#ffffff;fill-opacity:1;fill-rule:nonzero;stroke:none"
           d="m 0,0 c -0.042,-0.273 -0.298,-0.46 -0.571,-0.417 -0.274,0.042 -0.461,0.297 -0.418,0.571 0.042,0.273 0.298,0.46 0.571,0.417 C -0.144,0.529 0.042,0.273 0,0" />
      </g>
      <g
         transform="translate(109.9565,388.4863)"
         id="g100">
        <path
           inkscape:connector-curvature="0"
           id="path102"
           style="fill:#ffffff;fill-opacity:1;fill-rule:nonzero;stroke:none"
           d="m 0,0 c -0.03,-0.195 -0.276,-0.319 -0.55,-0.276 -0.273,0.042 -0.47,0.234 -0.439,0.429 0.03,0.197 0.276,0.32 0.549,0.278 C -0.166,0.388 0.031,0.196 0,0" />
      </g>
    </g>
    <path
       style="fill:#d3a43c"
       inkscape:connector-curvature="0"
       d="m 230.19814,426.01382 c -0.61787,-1.02684 -1.58068,-1.75711 -2.61821,-2.23621 -2.1621,-1.00189 -4.72683,-0.96265 -6.91402,0.10557 -0.7016,0.34413 -1.37492,0.79678 -1.89054,1.42592"
       id="path1819" />
    <path
       style="fill:#e8cc42"
       inkscape:connector-curvature="0"
       d="m 281.48052,466.12126 -72.2778,-10.40521 3.35908,-23.3332 72.27772,10.4052 -3.35907,23.33312"
       id="path1821" />
    <path
       style="fill:#f4d347"
       inkscape:connector-curvature="0"
       d="m 282.82383,463.82071 -74.23605,-10.68711 0.18114,-1.25823 74.23596,10.68712 -0.18113,1.25821"
       id="path1823" />
    <path
       style="fill:#e2b33d"
       inkscape:connector-curvature="0"
       d="m 209.55437,453.27333 -0.17564,1.22008 72.20672,10.89902 0.24673,-1.71389 -72.27781,-10.40521"
       id="path1825" />
    <path
       style="fill:#f4d347"
       inkscape:connector-curvature="0"
       d="m 284.77118,450.29385 -74.23605,-10.68712 0.18114,-1.25823 74.23596,10.68712 -0.18113,1.25822"
       id="path1827" />
    <path
       style="fill:#e2b33d"
       inkscape:connector-curvature="0"
       d="m 211.5017,439.74661 -0.17568,1.22035 72.20675,10.89876 0.24674,-1.71388 -72.27781,-10.40523"
       id="path1829" />
    <path
       style="fill:#f4d347"
       inkscape:connector-curvature="0"
       d="m 285.49385,445.27397 -74.23604,-10.68714 0.18116,-1.25845 74.23597,10.68712 -0.18116,1.25838"
       id="path1831" />
    <path
       style="fill:#e2b33d"
       inkscape:connector-curvature="0"
       d="m 212.22439,434.72657 -0.17568,1.22034 72.20675,10.89876 0.24673,-1.71388 -72.2778,-10.40522"
       id="path1833" />
    <path
       style="fill:#e8cc42"
       inkscape:connector-curvature="0"
       d="m 238.63792,436.13688 c 0,0 2.72704,-0.61877 5.04723,-1.7595 3.63058,-1.78574 4.15684,-4.81749 2.09558,-7.15629 -2.11481,-2.40035 -5.3199,-4.30233 -4.88902,-7.36306 0.85543,-6.0912 6.48077,-5.57794 8.82021,-6.98739 2.13686,-1.29033 3.5958,-4.01094 3.5958,-4.01094 l -4.14499,28.79236 -10.52481,-1.51518 m 21.0522,3.03034 c 0,0 -2.44492,-1.36351 -4.34808,-3.11198 -2.9796,-2.73744 -2.62833,-5.79437 0.008,-7.45715 2.70526,-1.70635 6.31638,-2.62715 6.76859,-5.68447 0.8963,-6.08599 -4.64613,-7.18046 -6.49141,-9.19142 -1.68805,-1.84105 -2.31865,-4.86165 -2.31865,-4.86165 l -4.14484,28.7913 10.52621,1.51537"
       id="path1835" />
    <path
       style="fill:#e8cc42"
       inkscape:connector-curvature="0"
       d="m 234.77425,432.54239 c -1.18371,-0.39785 -2.10436,-1.48169 -2.17627,-2.72801 -0.072,-1.24642 0.5757,-2.46837 1.53374,-3.2686 0.9599,-0.79987 2.19283,-1.21387 3.43258,-1.36638 2.58388,-0.31798 5.28357,0.47954 7.27783,2.14957 0.64187,0.53661 1.21955,1.1697 1.57656,1.92572 0.50488,1.07156 0.53207,2.3062 0.42778,3.48675 -0.12268,1.38959 -0.47069,2.86705 -1.51594,3.79017 -1.08957,0.96216 -2.67208,1.09156 -4.12639,1.02899 -1.65994,-0.0711 -4.75004,-1.52707 -6.35085,-1.96839 2.33123,0.33561 3.78422,0.085 4.46566,-0.66006 1.90221,-2.08231 -0.3382,-4.09626 -0.3382,-4.09626 0,0 -0.23876,3.04164 -4.2065,1.7065 m 29.74569,4.28186 c 1.24821,-0.048 2.43685,-0.82801 2.85757,-2.00333 0.42082,-1.17556 0.14372,-2.53073 -0.55016,-3.56884 -0.69393,-1.03789 -1.76188,-1.7832 -2.90911,-2.27927 -2.38739,-1.03341 -5.20241,-1.02994 -7.58716,0.01 -0.76768,0.33377 -1.4997,0.77814 -2.05557,1.40266 -0.78737,0.88561 -1.16092,2.06264 -1.39418,3.22454 -0.27321,1.36793 -0.3594,2.88324 0.38404,4.06369 0.77545,1.23082 2.25828,1.80135 3.66978,2.15143 1.61263,0.39977 4.98929,-0.12507 6.64925,-0.0968 -2.33116,-0.33559 -3.65609,-0.98619 -4.09871,-1.893 -1.2394,-2.53457 1.47986,-3.83469 1.47986,-3.83469 0,0 -0.62982,2.98551 3.55439,2.82393 m -39.87867,-5.73943 c 1.09442,-0.0706 2.14893,-0.87078 2.53794,-2.051 0.3904,-1.17828 0.17165,-2.52563 -0.41777,-3.54805 -0.58926,-1.02421 -1.51149,-1.74706 -2.50563,-2.22141 -2.07321,-0.98801 -4.54055,-0.936 -6.64708,0.14358 -0.67819,0.34765 -1.32851,0.80429 -1.82504,1.43686 -0.70651,0.89741 -1.05396,2.0782 -1.27915,3.24034 -0.26425,1.37022 -0.36618,2.8831 0.26446,4.04706 0.65604,1.21363 1.94451,1.75635 3.17394,2.08013 1.40556,0.36996 4.37302,-0.21388 5.82843,-0.21504 -2.0375,-0.29333 -3.18557,-0.91838 -3.55784,-1.81506 -1.03851,-2.50523 1.36531,-3.85143 1.36531,-3.85143 0,0 -0.60594,2.98969 3.06251,2.75404"
       id="path1837" />
    <path
       style="fill:#e8cc42"
       inkscape:connector-curvature="0"
       d="m 212.56357,432.38335 c 0.002,-0.67823 0.80318,-6.11289 -0.26108,-11.17 -1.06608,-5.05737 -5.86888,-19.10187 -5.86888,-19.10187 0,0 0.52415,1.23219 3.00485,3.45669 2.48225,2.22638 6.92208,1.58026 8.72676,7.21166 1.80137,5.62909 -2.18866,6.57206 -2.37115,9.46461 -0.18281,2.89424 -0.87747,7.71955 1.67402,9.46496 2.55114,1.74728 5.19375,2.12771 4.84394,2.07735 l -9.74846,-1.4034 m 61.0389,5.78396 c -1.02925,-0.37585 -1.81642,-1.44015 -1.85656,-2.68215 -0.0422,-1.24196 0.54884,-2.47216 1.40287,-3.28718 0.85195,-0.81558 1.94155,-1.25021 3.0305,-1.42452 2.26685,-0.36354 4.61851,0.38406 6.33614,2.01392 0.55291,0.52379 1.04638,1.14502 1.34607,1.89253 0.42383,1.0599 0.42431,2.29094 0.31297,3.47056 -0.13267,1.38799 -0.46269,2.86802 -1.39535,3.8072 -0.97297,0.97927 -2.36073,1.13663 -3.63173,1.10052 -1.45438,-0.0419 -4.13513,-1.43862 -5.52977,-1.85042 2.0358,0.29307 3.31483,0.0177 3.9241,-0.73769 1.70365,-2.11098 -0.22308,-4.07995 -0.22308,-4.07995 0,0 -0.26399,3.03802 -3.71616,1.77718"
       id="path1839" />
    <path
       style="fill:#e8cc42"
       inkscape:connector-curvature="0"
       d="m 284.82379,442.82094 c 0.19216,-0.65073 0.95514,-6.09067 3.40152,-10.64222 2.45063,-4.55085 11.01932,-16.67055 11.01932,-16.67055 0,0 -0.84961,1.03427 -3.85696,2.4692 -3.00955,1.43477 -7.09017,-0.43689 -10.40506,4.45666 -3.31716,4.89313 0.2436,6.92347 -0.39838,9.74978 -0.63982,2.82687 -1.33452,7.6525 -4.27292,8.60859 -2.94058,0.95559 -5.5836,0.5751 -5.23484,0.6253 l 9.74732,1.40324"
       id="path1841" />
    <path
       style="fill:#e2b33d"
       inkscape:connector-curvature="0"
       d="m 244.21461,446.60539 c -0.14644,1.01728 -1.09092,1.72323 -2.10747,1.57689 -1.01841,-0.14661 -1.72352,-1.09005 -1.57707,-2.10732 0.14649,-1.01752 1.08907,-1.72367 2.10748,-1.57705 1.01655,0.14634 1.72354,1.08996 1.57706,2.10748"
       id="path1843" />
    <path
       style="fill:#f4d347"
       inkscape:connector-curvature="0"
       d="m 243.69366,446.43825 c -0.14647,1.01744 -1.08955,1.7236 -2.10805,1.57698 -1.01671,-0.14638 -1.72222,-1.08986 -1.57575,-2.10731 0.14648,-1.01744 1.08957,-1.72367 2.10619,-1.57732 1.01858,0.14664 1.72417,1.09022 1.57769,2.10766"
       id="path1845" />
    <path
       style="fill:#f2501d"
       inkscape:connector-curvature="0"
       d="m 243.36906,446.39161 c -0.12071,0.83844 -0.89875,1.42016 -1.73729,1.29944 -0.83657,-0.12043 -1.41893,-0.89799 -1.29823,-1.73644 0.12069,-0.83829 0.89872,-1.42001 1.73531,-1.29957 0.83853,0.12072 1.42089,0.89827 1.30021,1.73657"
       id="path1847" />
    <path
       style="fill:#c13d1a"
       inkscape:connector-curvature="0"
       d="M 242.83005,444.99231"
       id="path1849" />
    <path
       style="fill:#f9a88e"
       inkscape:connector-curvature="0"
       d="m 241.1794,445.79479 c -0.14643,-0.0211 -0.25864,-0.17328 -0.26178,-0.32452 -0.003,-0.16335 0.0914,-0.31525 0.21258,-0.42518 0.21405,-0.19579 0.51964,-0.28216 0.80491,-0.2411 0.0169,0.003 0.0338,0.005 0.0505,0.009 0.13612,0.0266 0.20789,0.0732 0.27698,0.19224 0.0891,0.15304 0.0456,0.29565 -0.15154,0.30726 -0.0774,0.005 -0.15406,-0.008 -0.23118,0.009 -0.13656,0.0308 -0.2324,0.15015 -0.32248,0.25748 -0.0884,0.10783 -0.20197,0.21835 -0.34195,0.21903"
       id="path1851" />
    <path
       style="fill:#e2b33d"
       inkscape:connector-curvature="0"
       d="m 243.01684,454.92548 c -0.14648,1.01751 -1.09096,1.72347 -2.10749,1.57712 -1.01843,-0.1466 -1.72354,-1.09003 -1.57704,-2.10756 0.14646,-1.01745 1.08903,-1.72351 2.10745,-1.5769 1.01654,0.14635 1.72355,1.08988 1.57708,2.10734"
       id="path1853" />
    <path
       style="fill:#f4d347"
       inkscape:connector-curvature="0"
       d="m 242.49587,454.7585 c -0.14647,1.01735 -1.08953,1.72343 -2.10803,1.57681 -1.01671,-0.14637 -1.72224,-1.08978 -1.57578,-2.10714 0.14648,-1.01744 1.08954,-1.72343 2.10616,-1.57709 1.01858,0.14665 1.7242,1.08999 1.57773,2.10743"
       id="path1855" />
    <path
       style="fill:#f2501d"
       inkscape:connector-curvature="0"
       d="m 242.17127,454.71185 c -0.12072,0.83853 -0.89874,1.42008 -1.73728,1.29937 -0.83657,-0.12044 -1.41896,-0.89783 -1.29824,-1.73629 0.12068,-0.83837 0.89874,-1.42024 1.73532,-1.2998 0.83854,0.12072 1.42086,0.89851 1.3002,1.73672"
       id="path1857" />
    <path
       style="fill:#c13d1a"
       inkscape:connector-curvature="0"
       d="M 241.63228,453.31239"
       id="path1859" />
    <path
       style="fill:#f9a88e"
       inkscape:connector-curvature="0"
       d="m 239.98163,454.11487 c -0.14642,-0.0211 -0.25865,-0.17319 -0.26182,-0.32427 -0.003,-0.16335 0.0914,-0.31524 0.21262,-0.42542 0.21402,-0.19562 0.51961,-0.28193 0.80487,-0.24086 0.0169,0.003 0.0338,0.005 0.0504,0.009 0.13613,0.0266 0.20792,0.0731 0.27701,0.192 0.0891,0.15312 0.0455,0.2959 -0.15158,0.30758 -0.0773,0.005 -0.15401,-0.008 -0.23117,0.009 -0.13653,0.0305 -0.23236,0.14992 -0.32249,0.2575 -0.0884,0.10774 -0.20194,0.2181 -0.34191,0.21878"
       id="path1861" />
    <path
       style="fill:#e2b33d"
       inkscape:connector-curvature="0"
       d="m 257.0636,448.54686 c -0.14645,1.01729 -1.08996,1.72355 -2.10765,1.57704 -1.01768,-0.14651 -1.72366,-1.09023 -1.57721,-2.10751 0.14647,-1.01745 1.08996,-1.72353 2.10765,-1.57703 1.01776,0.14653 1.72369,1.09007 1.57721,2.1075"
       id="path1863" />
    <path
       style="fill:#f4d347"
       inkscape:connector-curvature="0"
       d="m 256.54272,448.37991 c -0.14647,1.01736 -1.09059,1.72328 -2.10853,1.57673 -1.01597,-0.14625 -1.72255,-1.08981 -1.57609,-2.10718 0.14649,-1.0176 1.09054,-1.72353 2.10652,-1.57727 1.01793,0.14654 1.7246,1.09011 1.5781,2.10772"
       id="path1865" />
    <path
       style="fill:#f2501d"
       inkscape:connector-curvature="0"
       d="m 256.21811,448.33326 c -0.12067,0.83821 -0.89782,1.42013 -1.73611,1.29945 -0.83822,-0.12068 -1.42164,-0.89838 -1.30096,-1.73667 0.1207,-0.83845 0.89981,-1.42001 1.73802,-1.29934 0.8383,0.12068 1.41976,0.89811 1.29905,1.73656"
       id="path1867" />
    <path
       style="fill:#c13d1a"
       inkscape:connector-curvature="0"
       d="m 255.67817,446.93358 c 0.20656,0.30466 0.30233,0.68335 0.24586,1.0756 -0.1207,0.83845 -0.89774,1.42014 -1.73604,1.29945 -0.2885,-0.0415 -0.54971,-0.16228 -0.75903,-0.33671"
       id="path1869" />
    <path
       style="fill:#f9a88e"
       inkscape:connector-curvature="0"
       d="m 254.02887,447.73634 c -0.14471,-0.0208 -0.25856,-0.17318 -0.26072,-0.32428 -0.005,-0.16334 0.0893,-0.31555 0.21097,-0.42558 0.21387,-0.19564 0.51979,-0.28197 0.80529,-0.24088 0.0177,0.003 0.0352,0.005 0.0507,0.009 0.13392,0.0263 0.20903,0.0734 0.2758,0.19184 0.0899,0.15305 0.0452,0.29585 -0.14816,0.30807 -0.0785,0.005 -0.15647,-0.008 -0.23282,0.008 -0.13609,0.0304 -0.23122,0.15016 -0.32256,0.25739 -0.0892,0.10754 -0.20111,0.21822 -0.34094,0.21909"
       id="path1871" />
    <path
       style="fill:#e2b33d"
       inkscape:connector-curvature="0"
       d="m 255.86583,456.86704 c -0.14649,1.01743 -1.08997,1.72353 -2.10765,1.57702 -1.0177,-0.1465 -1.7237,-1.09006 -1.57722,-2.10751 0.14644,-1.01728 1.08995,-1.72354 2.10764,-1.57703 1.01778,0.14652 1.72367,1.09023 1.57723,2.10752"
       id="path1873" />
    <path
       style="fill:#f4d347"
       inkscape:connector-curvature="0"
       d="m 255.34495,456.69999 c -0.14649,1.01752 -1.09061,1.72344 -2.10855,1.5769 -1.01598,-0.14626 -1.72256,-1.08982 -1.57606,-2.10743 0.14646,-1.01735 1.0905,-1.72328 2.10648,-1.57703 1.01793,0.14655 1.72461,1.09012 1.57814,2.10748"
       id="path1875" />
    <path
       style="fill:#f2501d"
       inkscape:connector-curvature="0"
       d="m 255.02035,456.65327 c -0.12072,0.83854 -0.89785,1.42037 -1.73615,1.29969 -0.83822,-0.12068 -1.42163,-0.89838 -1.30093,-1.73684 0.12067,-0.83821 0.89979,-1.41984 1.738,-1.29917 0.83829,0.12068 1.41976,0.89811 1.29908,1.73639"
       id="path1877" />
    <path
       style="fill:#c13d1a"
       inkscape:connector-curvature="0"
       d="m 254.48036,455.25383 c 0.20658,0.30466 0.30235,0.68333 0.24588,1.07559 -0.12068,0.83829 -0.89774,1.42014 -1.73604,1.29946 -0.28851,-0.0415 -0.54969,-0.16245 -0.75901,-0.33687"
       id="path1879" />
    <path
       style="fill:#f9a88e"
       inkscape:connector-curvature="0"
       d="m 252.83107,456.05668 c -0.14472,-0.0209 -0.25854,-0.17344 -0.26071,-0.32445 -0.005,-0.16335 0.0893,-0.31555 0.211,-0.42566 0.21384,-0.19556 0.51977,-0.28191 0.80527,-0.2408 0.0177,0.003 0.0353,0.005 0.0507,0.009 0.13393,0.0263 0.20905,0.0734 0.27579,0.19198 0.0899,0.15315 0.0453,0.29561 -0.14814,0.30791 -0.0785,0.005 -0.15647,-0.008 -0.23281,0.008 -0.13611,0.0305 -0.23124,0.15025 -0.32256,0.25747 -0.0893,0.10753 -0.20115,0.21847 -0.34095,0.21901"
       id="path1881" />
    <path
       style="fill:#fff250"
       inkscape:connector-curvature="0"
       d="m 251.37273,456.4723 -8.33119,-1.19937 1.19944,-8.33167 8.33119,1.19937 -1.19943,8.33158"
       id="path1883" />
    <path
       style="fill:#e2b33d"
       inkscape:connector-curvature="0"
       d="m 250.76773,455.51812 -6.9099,-0.99476 0.99489,-6.91079 6.90989,0.99475 -0.99488,6.9108"
       id="path1885" />
    <path
       style="fill:#e8cc42"
       inkscape:connector-curvature="0"
       d="m 248.30767,448.10994 -3.97238,3.0974 2.97748,3.81349 3.95234,-2.95825 -2.95744,-3.95264"
       id="path1887" />
    <path
       style="fill:#fff250"
       inkscape:connector-curvature="0"
       d="m 244.33469,451.20751 3.47094,0.49967 0.5003,-3.59732 -3.97124,3.09765"
       id="path1889" />
    <path
       style="fill:#d3a43c"
       inkscape:connector-curvature="0"
       d="m 247.80567,451.70695 c -0.0186,0.11326 -0.49292,3.31388 -0.49292,3.31388 l 3.95233,-2.95825 -3.45944,-0.35564"
       id="path1891" />
    <path
       style="fill:#e2b33d"
       inkscape:connector-curvature="0"
       d="m 217.82401,442.62854 c -0.14647,1.01745 -1.08932,1.72371 -2.10677,1.57725 -1.01743,-0.14648 -1.72269,-1.09001 -1.57623,-2.10745 0.14649,-1.01745 1.08922,-1.72349 2.10666,-1.57701 1.01744,0.14646 1.72273,1.08976 1.57625,2.1072"
       id="path1893" />
    <path
       style="fill:#f4d347"
       inkscape:connector-curvature="0"
       d="m 217.30298,442.46206 c -0.1465,1.0176 -1.0894,1.72362 -2.10839,1.57692 -1.01728,-0.14644 -1.72273,-1.08976 -1.57624,-2.10737 0.14645,-1.01728 1.08936,-1.72344 2.10664,-1.577 1.019,0.1467 1.72442,1.09018 1.57799,2.10745"
       id="path1895" />
    <path
       style="fill:#f2501d"
       inkscape:connector-curvature="0"
       d="m 216.97826,442.41556 c -0.12069,0.83839 -0.89883,1.42016 -1.73581,1.29966 -0.83871,-0.12074 -1.42106,-0.89837 -1.30036,-1.73675 0.12069,-0.83837 0.89873,-1.41999 1.73742,-1.29926 0.837,0.12049 1.41945,0.89798 1.29875,1.73635"
       id="path1897" />
    <path
       style="fill:#c13d1a"
       inkscape:connector-curvature="0"
       d="m 216.43969,441.01609 c 0.20401,0.30453 0.30234,0.68341 0.24589,1.07559 -0.1207,0.83837 -0.89874,1.42015 -1.73746,1.29941 -0.29104,-0.0419 -0.54969,-0.16244 -0.76008,-0.33701"
       id="path1899" />
    <path
       style="fill:#f9a88e"
       inkscape:connector-curvature="0"
       d="m 214.7891,441.81874 c -0.14577,-0.021 -0.25863,-0.17328 -0.26136,-0.32454 -0.005,-0.16327 0.0908,-0.31516 0.21178,-0.42537 0.21378,-0.19558 0.52027,-0.28192 0.80496,-0.24094 0.0172,0.003 0.0342,0.005 0.0496,0.009 0.13613,0.0266 0.20993,0.0736 0.27866,0.19224 0.0881,0.15315 0.0449,0.29588 -0.15111,0.30773 -0.0777,0.005 -0.15629,-0.009 -0.23231,0.008 -0.13572,0.0307 -0.23166,0.15026 -0.3224,0.2575 -0.089,0.10765 -0.20299,0.21795 -0.34145,0.2191"
       id="path1901" />
    <path
       style="fill:#e2b33d"
       inkscape:connector-curvature="0"
       d="m 216.62622,450.9487 c -0.14646,1.01745 -1.08927,1.72348 -2.10672,1.57701 -1.01745,-0.14648 -1.72273,-1.08977 -1.57626,-2.10722 0.14646,-1.01735 1.0892,-1.72339 2.10663,-1.57692 1.01745,0.14648 1.72273,1.08977 1.57628,2.10712"
       id="path1903" />
    <path
       style="fill:#f4d347"
       inkscape:connector-curvature="0"
       d="m 216.10518,450.78231 c -0.14648,1.01743 -1.0894,1.72362 -2.10839,1.57692 -1.01727,-0.14645 -1.72271,-1.08992 -1.57624,-2.10737 0.14648,-1.01745 1.08937,-1.72346 2.10665,-1.577 1.01899,0.14669 1.72445,1.09 1.57798,2.10745"
       id="path1905" />
    <path
       style="fill:#f2501d"
       inkscape:connector-curvature="0"
       d="m 215.78049,450.73565 c -0.12072,0.83853 -0.89883,1.42015 -1.73582,1.29966 -0.83869,-0.12075 -1.42107,-0.89821 -1.30035,-1.73676 0.12069,-0.83837 0.89873,-1.42 1.73742,-1.29926 0.83699,0.12049 1.41945,0.89798 1.29875,1.73636"
       id="path1907" />
    <path
       style="fill:#c13d1a"
       inkscape:connector-curvature="0"
       d="m 215.2419,449.33632 c 0.20405,0.30431 0.30233,0.68343 0.24589,1.0756 -0.1207,0.83838 -0.89876,1.42017 -1.73746,1.29942 -0.29105,-0.0419 -0.5497,-0.16243 -0.76008,-0.33702"
       id="path1909" />
    <path
       style="fill:#f9a88e"
       inkscape:connector-curvature="0"
       d="m 213.59132,450.13891 c -0.14578,-0.021 -0.25865,-0.17327 -0.26136,-0.32454 -0.005,-0.16345 0.0908,-0.31517 0.21178,-0.42539 0.21377,-0.19557 0.52026,-0.28183 0.80495,-0.24085 0.0172,0.003 0.0342,0.005 0.0496,0.009 0.13614,0.0266 0.20997,0.0733 0.27866,0.19224 0.0882,0.15291 0.0449,0.29563 -0.15106,0.30748 -0.0778,0.005 -0.15632,-0.008 -0.23235,0.009 -0.13568,0.0304 -0.23163,0.1501 -0.32239,0.25741 -0.089,0.10748 -0.20303,0.2182 -0.34146,0.21911"
       id="path1911" />
    <path
       style="fill:#e2b33d"
       inkscape:connector-curvature="0"
       d="m 230.67292,444.57059 c -0.14648,1.01753 -1.09079,1.72351 -2.10773,1.57711 -1.01696,-0.1464 -1.72378,-1.09008 -1.5773,-2.10761 0.14646,-1.01736 1.09068,-1.72327 2.10771,-1.57685 1.01695,0.1464 1.72378,1.09 1.57732,2.10735"
       id="path1913" />
    <path
       style="fill:#f4d347"
       inkscape:connector-curvature="0"
       d="m 230.15194,444.40371 c -0.14645,1.01729 -1.0892,1.72347 -2.10795,1.57681 -1.01695,-0.1464 -1.72401,-1.0901 -1.57757,-2.10738 0.14648,-1.01753 1.09102,-1.7234 2.10798,-1.577 1.01875,0.14667 1.72403,1.09003 1.57754,2.10757"
       id="path1915" />
    <path
       style="fill:#f2501d"
       inkscape:connector-curvature="0"
       d="m 229.82734,444.35698 c -0.12068,0.83837 -0.89758,1.42024 -1.73686,1.29942 -0.83756,-0.12058 -1.42048,-0.89821 -1.29979,-1.73659 0.12067,-0.8382 0.89926,-1.41975 1.73683,-1.29917 0.83927,0.12082 1.4205,0.89813 1.29982,1.73634"
       id="path1917" />
    <path
       style="fill:#c13d1a"
       inkscape:connector-curvature="0"
       d="M 229.28787,442.95754"
       id="path1919" />
    <path
       style="fill:#f9a88e"
       inkscape:connector-curvature="0"
       d="m 227.63792,443.7602 c -0.14528,-0.0209 -0.25708,-0.17305 -0.26097,-0.32432 -0.004,-0.16335 0.0912,-0.31511 0.21149,-0.42567 0.21481,-0.19534 0.52025,-0.28175 0.80551,-0.24068 0.0162,0.003 0.0323,0.005 0.05,0.009 0.13532,0.0265 0.2092,0.0733 0.27636,0.19199 0.0896,0.1531 0.0453,0.29561 -0.14871,0.30782 -0.0776,0.005 -0.15623,-0.008 -0.23194,0.008 -0.13807,0.0308 -0.23215,0.15027 -0.3227,0.25779 -0.0888,0.10751 -0.20168,0.21813 -0.34282,0.21873"
       id="path1921" />
    <path
       style="fill:#e2b33d"
       inkscape:connector-curvature="0"
       d="m 229.47513,452.89093 c -0.14647,1.01736 -1.09079,1.72342 -2.10774,1.57702 -1.01696,-0.14641 -1.72376,-1.09016 -1.5773,-2.10753 0.14645,-1.01736 1.0907,-1.72352 2.10774,-1.5771 1.01695,0.1464 1.72375,1.09024 1.5773,2.10761"
       id="path1923" />
    <path
       style="fill:#f4d347"
       inkscape:connector-curvature="0"
       d="m 228.95415,452.72387 c -0.14645,1.01728 -1.08918,1.7234 -2.10793,1.57674 -1.01695,-0.14641 -1.72403,-1.09003 -1.57757,-2.10739 0.14647,-1.01745 1.091,-1.72322 2.10796,-1.57682 1.01874,0.14666 1.72403,1.08995 1.57756,2.10738"
       id="path1925" />
    <path
       style="fill:#f2501d"
       inkscape:connector-curvature="0"
       d="m 228.62956,452.67715 c -0.1207,0.83845 -0.89761,1.4204 -1.73689,1.29957 -0.83755,-0.12057 -1.42046,-0.89828 -1.29977,-1.73666 0.12068,-0.8383 0.89931,-1.42008 1.73687,-1.29951 0.83928,0.12083 1.42046,0.89838 1.29978,1.73668"
       id="path1927" />
    <path
       style="fill:#c13d1a"
       inkscape:connector-curvature="0"
       d="M 228.0901,451.27762"
       id="path1929" />
    <path
       style="fill:#f9a88e"
       inkscape:connector-curvature="0"
       d="m 226.44013,452.08044 c -0.14528,-0.021 -0.25708,-0.17305 -0.26094,-0.32448 -0.004,-0.16319 0.0912,-0.31519 0.21145,-0.4255 0.21483,-0.19543 0.52027,-0.28184 0.80551,-0.24077 0.0162,0.003 0.0324,0.005 0.05,0.009 0.13531,0.0265 0.20921,0.0732 0.27636,0.19191 0.0896,0.15303 0.0453,0.29561 -0.1487,0.30783 -0.0776,0.005 -0.15624,-0.008 -0.23198,0.008 -0.13804,0.0305 -0.23214,0.15012 -0.32268,0.25763 -0.0889,0.1076 -0.20167,0.21806 -0.3428,0.21865"
       id="path1931" />
    <path
       style="fill:#fff250"
       inkscape:connector-curvature="0"
       d="m 224.98387,452.49553 -8.33127,-1.19938 1.19946,-8.33175 8.33125,1.19938 -1.19944,8.33175"
       id="path1933" />
    <path
       style="fill:#e2b33d"
       inkscape:connector-curvature="0"
       d="m 224.37886,451.54145 -6.91023,-0.99481 0.99492,-6.91105 6.91023,0.99481 -0.99492,6.91105"
       id="path1935" />
    <path
       style="fill:#e8cc42"
       inkscape:connector-curvature="0"
       d="m 221.91867,444.133 -3.97262,3.09727 2.97769,3.81377 3.9526,-2.95829 -2.95767,-3.95275"
       id="path1937" />
    <path
       style="fill:#fff250"
       inkscape:connector-curvature="0"
       d="m 217.94494,447.23053 3.47184,0.49981 0.50176,-3.59703 -3.97361,3.09722"
       id="path1939" />
    <path
       style="fill:#d3a43c"
       inkscape:connector-curvature="0"
       d="m 221.41717,447.72997 c -0.0179,0.11357 -0.49341,3.31407 -0.49341,3.31407 l 3.95259,-2.95828 -3.45917,-0.35579"
       id="path1941" />
    <path
       style="fill:#e2b33d"
       inkscape:connector-curvature="0"
       d="m 268.60313,449.93878 c -0.14649,1.01753 -1.09102,1.72338 -2.10855,1.57689 -1.01745,-0.14646 -1.72248,-1.0898 -1.576,-2.10732 0.14647,-1.01745 1.08897,-1.7236 2.1065,-1.57711 1.01745,0.14646 1.72443,1.09008 1.57796,2.10753"
       id="path1943" />
    <path
       style="fill:#f4d347"
       inkscape:connector-curvature="0"
       d="m 268.08218,449.77164 c -0.14652,1.0177 -1.08973,1.72365 -2.10758,1.57713 -1.01785,-0.14653 -1.72363,-1.0899 -1.57712,-2.10758 0.14643,-1.0172 1.08969,-1.72341 2.10754,-1.57688 1.01785,0.14652 1.7236,1.09013 1.57716,2.10733"
       id="path1945" />
    <path
       style="fill:#f2501d"
       inkscape:connector-curvature="0"
       d="m 267.75746,449.72515 c -0.12068,0.83829 -0.89774,1.42022 -1.73563,1.2996 -0.83789,-0.12062 -1.42138,-0.89842 -1.30069,-1.73672 0.12066,-0.83822 0.89986,-1.41983 1.73775,-1.29921 0.83788,0.12062 1.41925,0.89803 1.29857,1.73633"
       id="path1947" />
    <path
       style="fill:#c13d1a"
       inkscape:connector-curvature="0"
       d="M 267.21792,448.32553"
       id="path1949" />
    <path
       style="fill:#e2b33d"
       inkscape:connector-curvature="0"
       d="m 267.40534,458.25893 c -0.14648,1.01746 -1.09102,1.72332 -2.10853,1.57683 -1.01745,-0.14647 -1.72248,-1.08981 -1.57602,-2.10725 0.14646,-1.01728 1.08897,-1.72352 2.1065,-1.57703 1.01744,0.14647 1.72441,1.09017 1.57796,2.10745"
       id="path1951" />
    <path
       style="fill:#f4d347"
       inkscape:connector-curvature="0"
       d="m 266.88436,458.09205 c -0.14644,1.0172 -1.0897,1.72342 -2.10755,1.57688 -1.01785,-0.14653 -1.72359,-1.09014 -1.57715,-2.10734 0.14646,-1.01744 1.08972,-1.72365 2.10757,-1.57712 1.01786,0.14654 1.72361,1.09014 1.57713,2.10758"
       id="path1953" />
    <path
       style="fill:#f2501d"
       inkscape:connector-curvature="0"
       d="m 266.55967,458.04539 c -0.12069,0.83847 -0.89776,1.4203 -1.73565,1.29968 -0.83788,-0.12062 -1.42139,-0.89833 -1.30068,-1.73679 0.12069,-0.83839 0.89988,-1.42001 1.73777,-1.29938 0.83789,0.12063 1.41926,0.89812 1.29856,1.73649"
       id="path1955" />
    <path
       style="fill:#c13d1a"
       inkscape:connector-curvature="0"
       d="M 266.02013,456.64577"
       id="path1957" />
    <path
       style="fill:#e2b33d"
       inkscape:connector-curvature="0"
       d="m 281.45212,451.88026 c -0.14647,1.01745 -1.08907,1.72375 -2.10783,1.57709 -1.01654,-0.14635 -1.72384,-1.09016 -1.57736,-2.10762 0.14647,-1.01745 1.09116,-1.72319 2.10778,-1.57684 1.01875,0.14666 1.72388,1.08992 1.57741,2.10737"
       id="path1959" />
    <path
       style="fill:#f4d347"
       inkscape:connector-curvature="0"
       d="m 280.93112,451.71345 c -0.14644,1.01728 -1.08986,1.72347 -2.10706,1.57703 -1.01711,-0.14643 -1.72303,-1.09006 -1.57657,-2.10742 0.14649,-1.01751 1.08989,-1.72354 2.107,-1.57711 1.0172,0.14644 1.72313,1.0899 1.57665,2.10741"
       id="path1961" />
    <path
       style="fill:#f2501d"
       inkscape:connector-curvature="0"
       d="m 280.60652,451.66672 c -0.1207,0.83845 -0.89675,1.4202 -1.73536,1.29948 -0.8387,-0.12075 -1.42118,-0.89807 -1.30046,-1.73661 0.12066,-0.83821 0.8988,-1.41998 1.73742,-1.29925 0.83879,0.12074 1.4191,0.89801 1.29842,1.7363"
       id="path1963" />
    <path
       style="fill:#c13d1a"
       inkscape:connector-curvature="0"
       d="m 280.0683,450.26729 c 0.2042,0.30432 0.30271,0.68365 0.24627,1.07573 -0.12068,0.83822 -0.89883,1.42015 -1.73753,1.29941 -0.28942,-0.0416 -0.54814,-0.1623 -0.76015,-0.33711 0.23475,0.34669 0.60847,0.59669 1.05427,0.66088 0.83871,0.12073 1.61466,-0.46103 1.73538,-1.29956"
       id="path1965" />
    <path
       style="fill:#e2b33d"
       inkscape:connector-curvature="0"
       d="m 280.25431,460.20058 c -0.14647,1.01745 -1.08904,1.72352 -2.10779,1.57685 -1.01654,-0.14634 -1.72388,-1.08993 -1.5774,-2.10736 0.14647,-1.01744 1.09121,-1.72345 2.10782,-1.5771 1.01875,0.14667 1.72385,1.09018 1.57737,2.10761"
       id="path1967" />
    <path
       style="fill:#f4d347"
       inkscape:connector-curvature="0"
       d="m 279.73336,460.03353 c -0.14646,1.01737 -1.08987,1.72339 -2.10707,1.57695 -1.01711,-0.14642 -1.72305,-1.08988 -1.57658,-2.10725 0.14645,-1.01727 1.08987,-1.72347 2.10699,-1.57705 1.0172,0.14644 1.72311,1.09008 1.57665,2.10743"
       id="path1969" />
    <path
       style="fill:#f2501d"
       inkscape:connector-curvature="0"
       d="m 279.40876,459.9868 c -0.12072,0.83855 -0.89679,1.42053 -1.73541,1.29981 -0.83871,-0.12075 -1.42116,-0.89831 -1.30044,-1.73676 0.12069,-0.83839 0.89881,-1.42007 1.73743,-1.29935 0.83878,0.12076 1.4191,0.89801 1.29842,1.7363"
       id="path1971" />
    <path
       style="fill:#c13d1a"
       inkscape:connector-curvature="0"
       d="M 278.87048,458.5877"
       id="path1973" />
    <path
       style="fill:#fff250"
       inkscape:connector-curvature="0"
       d="m 275.76114,459.80585 -8.33086,-1.19933 1.19943,-8.3316 8.33086,1.19932 -1.19944,8.33168"
       id="path1975" />
    <path
       style="fill:#e2b33d"
       inkscape:connector-curvature="0"
       d="m 275.15797,458.85168 -6.91129,-0.99496 0.99491,-6.91096 6.91129,0.99496 -0.99492,6.91103"
       id="path1977" />
    <path
       style="fill:#e8cc42"
       inkscape:connector-curvature="0"
       d="m 272.69613,451.44308 -3.97204,3.09744 2.9772,3.81361 3.95415,-2.95806 -2.95921,-3.95298"
       id="path1979" />
    <path
       style="fill:#fff250"
       inkscape:connector-curvature="0"
       d="m 268.72289,454.54076 3.47119,0.49972 0.50101,-3.5968 -3.97217,3.09709"
       id="path1981" />
    <path
       style="fill:#d3a43c"
       inkscape:connector-curvature="0"
       d="m 272.19536,455.04025 c -0.0187,0.11336 -0.49409,3.31387 -0.49409,3.31387 l 3.95414,-2.95805 -3.46007,-0.35583"
       id="path1983" />
    <path
       style="fill:#e2b33d"
       inkscape:connector-curvature="0"
       d="m 238.09581,450.30901 c -0.31621,2.19657 -1.98681,3.77353 -3.73138,3.52238 -1.74646,-0.25142 -2.9044,-2.23558 -2.58817,-4.43215 0.31621,-2.19649 1.98681,-3.77346 3.73326,-3.52203 1.74457,0.25115 2.9025,2.23531 2.58629,4.4318"
       id="path1985" />
    <path
       style="fill:#fff250"
       inkscape:connector-curvature="0"
       d="m 237.49651,449.57917 c -0.31622,2.19649 -1.98722,3.77339 -3.73342,3.52201 -1.74426,-0.25111 -2.90268,-2.23534 -2.58647,-4.43183 0.31623,-2.19657 1.98732,-3.77347 3.73156,-3.52236 1.7462,0.25138 2.90455,2.23561 2.58833,4.43218"
       id="path1987" />
    <path
       style="fill:#4cc15f"
       inkscape:connector-curvature="0"
       d="m 236.99544,449.58876 c -0.27119,1.88381 -1.68713,3.23861 -3.16236,3.02622 -1.47345,-0.21212 -2.44792,-1.91103 -2.17672,-3.79485 0.2712,-1.88389 1.68533,-3.23893 3.15869,-3.02683 1.47532,0.21239 2.45158,1.91165 2.1804,3.79539"
       id="path1989" />
    <path
       style="fill:#3f9e4a"
       inkscape:connector-curvature="0"
       d="m 236.08986,446.4546 c 0.2681,0.62843 0.37249,1.38415 0.2589,2.17323 -0.27118,1.88365 -1.68524,3.23871 -3.16055,3.02632 -0.48807,-0.0702 -0.9204,-0.30437 -1.27205,-0.65391 0.37263,0.87225 1.05995,1.4982 1.91595,1.62143 1.47524,0.21238 2.89118,-1.14248 3.16236,-3.02622 0.18134,-1.2596 -0.19656,-2.43601 -0.90461,-3.14085"
       id="path1991" />
    <path
       style="fill:#a6e0af"
       inkscape:connector-curvature="0"
       d="m 233.18349,448.69809 c -0.17989,-0.0259 -0.34198,-0.1627 -0.41688,-0.33219 -0.0933,-0.21054 -0.073,-0.45587 -0.008,-0.6767 0.12169,-0.4027 0.39568,-0.75781 0.75349,-0.9783 0.2405,-0.14807 0.77365,-0.325 1.17196,-0.26766 0.17809,0.0256 0.32885,0.0976 0.41521,0.23948 0.0777,0.12447 0.068,0.29635 -0.0235,0.41098 -0.13778,0.17579 -0.39569,0.18497 -0.60006,0.2771 -0.31453,0.14207 -0.48655,0.47762 -0.63985,0.78729 -0.11403,0.23301 -0.26377,0.49205 -0.51961,0.53826"
       id="path1993" />
    <path
       style="fill:#e2b33d"
       inkscape:connector-curvature="0"
       d="m 213.83106,446.71951 c -0.31622,2.19657 -1.5642,3.83438 -2.7865,3.65842 -1.22223,-0.17595 -1.95591,-2.09905 -1.63968,-4.29571 0.31619,-2.19631 1.56257,-3.83452 2.78478,-3.65857 1.22223,0.17595 1.95768,2.09947 1.64148,4.29587"
       id="path1995" />
    <path
       style="fill:#fff250"
       inkscape:connector-curvature="0"
       d="m 213.43753,446.01979 c -0.31622,2.19649 -1.56422,3.83447 -2.78775,3.65833 -1.22181,-0.1759 -1.9572,-2.09941 -1.64098,-4.29589 0.3162,-2.19649 1.56422,-3.83445 2.78603,-3.65856 1.22353,0.17614 1.9589,2.09964 1.6427,4.29612"
       id="path1997" />
    <path
       style="fill:#4cc15f"
       inkscape:connector-curvature="0"
       d="m 213.08187,446.05049 c -0.2712,1.8839 -1.32841,3.29025 -2.36145,3.14153 -1.03303,-0.14872 -1.65053,-1.79617 -1.37933,-3.68005 0.27118,-1.88365 1.32834,-3.29025 2.36138,-3.14153 1.03311,0.14872 1.65057,1.79641 1.3794,3.68005"
       id="path1999" />
    <path
       style="fill:#3f9e4a"
       inkscape:connector-curvature="0"
       d="m 212.57458,442.97376 c 0.16355,0.61328 0.20552,1.36002 0.0919,2.1491 -0.27119,1.88381 -1.32843,3.29025 -2.36145,3.14153 -0.34207,-0.0492 -0.63782,-0.26385 -0.87136,-0.5964 0.22669,0.85115 0.68675,1.44465 1.28583,1.53089 1.03303,0.14872 2.09018,-1.25781 2.36136,-3.14153 0.1813,-1.25936 -0.0348,-2.4128 -0.50628,-3.08368"
       id="path2001" />
    <path
       style="fill:#a6e0af"
       inkscape:connector-curvature="0"
       d="m 210.42725,445.32584 c -0.1252,-0.018 -0.23456,-0.14723 -0.27982,-0.31253 -0.0584,-0.2056 -0.0337,-0.45013 0.0225,-0.6724 0.10326,-0.40543 0.3112,-0.76996 0.57302,-1.00419 0.17645,-0.15737 0.56088,-0.35562 0.84018,-0.31541 0.12357,0.0178 0.22811,0.0832 0.28438,0.22072 0.0483,0.12018 0.034,0.2914 -0.0348,0.40936 -0.10543,0.18036 -0.28791,0.20023 -0.43549,0.30062 -0.22781,0.15482 -0.36322,0.49538 -0.48453,0.80966 -0.091,0.23639 -0.20848,0.50025 -0.39113,0.55668"
       id="path2003" />
    <path
       style="fill:#e2b33d"
       inkscape:connector-curvature="0"
       d="m 279.88252,456.69766 c -0.31619,2.19641 0.41811,4.11983 1.64212,4.29605 1.22181,0.17589 2.46886,-1.4623 2.78506,-3.65871 0.31622,-2.19657 -0.41811,-4.11983 -1.63992,-4.29573 -1.22402,-0.17621 -2.47103,1.46181 -2.78726,3.65839"
       id="path2005" />
    <path
       style="fill:#fff250"
       inkscape:connector-curvature="0"
       d="m 280.45604,456.13675 c -0.31622,2.19656 0.4195,4.12003 1.64091,4.29586 1.22131,0.17583 2.4698,-1.46199 2.78602,-3.65856 0.31621,-2.19648 -0.41957,-4.11997 -1.64091,-4.2958 -1.2214,-0.17582 -2.4698,1.462 -2.78603,3.65858"
       id="path2007" />
    <path
       style="fill:#4cc15f"
       inkscape:connector-curvature="0"
       d="m 280.78721,456.26622 c -0.27116,1.88358 0.34811,3.53152 1.37992,3.68007 1.03392,0.14884 2.09076,-1.25781 2.36193,-3.14147 0.27119,-1.88372 -0.34596,-3.53127 -1.37989,-3.68012 -1.03181,-0.14854 -2.09075,1.25771 -2.36194,3.14144"
       id="path2009" />
    <path
       style="fill:#3f9e4a"
       inkscape:connector-curvature="0"
       d="m 282.14273,453.45733 c -0.32903,0.54255 -0.58108,1.24704 -0.69462,2.0358 -0.27124,1.88405 0.34716,3.53163 1.37986,3.6803 0.34214,0.0492 0.68715,-0.0731 1.00512,-0.32634 -0.45753,0.75281 -1.06638,1.19226 -1.66733,1.10574 -1.0327,-0.14867 -1.65107,-1.7964 -1.37988,-3.68021 0.18131,-1.25944 0.71583,-2.30457 1.35685,-2.81529"
       id="path2011" />
    <path
       style="fill:#a6e0af"
       inkscape:connector-curvature="0"
       d="m 283.54016,456.32064 c -0.03,-0.005 -0.0611,-0.0151 -0.0868,-0.0334 -0.15923,-0.10564 -0.19871,-0.39225 -0.21913,-0.64444 -0.0214,-0.26002 -0.0448,-0.53713 -0.13659,-0.74795 l 0.15256,-1.05973 c 0.22728,0.10299 0.44803,0.32709 0.54708,0.48789 0.18592,0.29878 0.28413,0.70747 0.26758,1.12562 -0.009,0.22865 -0.0546,0.47042 -0.16579,0.65161 -0.0908,0.14555 -0.23286,0.23848 -0.35887,0.22033 m -0.11086,1.24509 c -0.0193,-0.003 -0.0378,-0.0109 -0.0551,-0.0263 -0.0328,-0.0299 -0.0536,-0.082 -0.068,-0.13425 -0.0312,-0.10155 -0.0521,-0.21378 -0.0442,-0.32886 0.0103,-0.11498 0.0489,-0.23372 0.11806,-0.30491 0.0689,-0.0694 0.13358,-0.0946 0.18907,-0.0866 0.12399,0.0179 0.20644,0.20201 0.18536,0.42424 -0.014,0.14077 -0.0706,0.27892 -0.15159,0.37131 -0.0514,0.0551 -0.11594,0.0936 -0.17356,0.0853"
       id="path2013" />
    <path
       style="fill:#e2b33d"
       inkscape:connector-curvature="0"
       d="m 263.55639,454.11839 c -0.31618,2.19625 -1.98715,3.77341 -3.73179,3.52224 -1.74466,-0.25115 -2.90491,-2.23599 -2.58875,-4.43215 0.31622,-2.19657 1.9892,-3.77328 3.73385,-3.52213 1.74466,0.25118 2.90291,2.23547 2.58669,4.43204"
       id="path2015" />
    <path
       style="fill:#fff250"
       inkscape:connector-curvature="0"
       d="m 262.9572,453.38831 c -0.31623,2.19666 -1.98822,3.77343 -3.7332,3.52222 -1.74499,-0.25121 -2.90439,-2.23559 -2.58816,-4.43225 0.31623,-2.19657 1.98822,-3.77333 3.73327,-3.52211 1.74498,0.25121 2.9043,2.23557 2.58807,4.43223"
       id="path2017" />
    <path
       style="fill:#4cc15f"
       inkscape:connector-curvature="0"
       d="m 262.45429,453.39798 c -0.27119,1.88373 -1.6861,3.23891 -3.15978,3.02676 -1.47564,-0.21243 -2.45082,-1.9117 -2.17964,-3.79543 0.27118,-1.88373 1.68599,-3.23877 3.16171,-3.02632 1.47369,0.21216 2.44889,1.91127 2.17771,3.79499"
       id="path2019" />
    <path
       style="fill:#3f9e4a"
       inkscape:connector-curvature="0"
       d="m 261.54855,450.2638 c 0.26973,0.62865 0.37377,1.3845 0.26022,2.17325 -0.27122,1.88398 -1.68609,3.23891 -3.15978,3.02677 -0.48921,-0.0704 -0.92211,-0.30462 -1.27488,-0.6544 0.37375,0.8724 1.06133,1.4984 1.91945,1.62193 1.47368,0.21216 2.88857,-1.14287 3.15975,-3.0266 0.1813,-1.25936 -0.19584,-2.43582 -0.90476,-3.14095"
       id="path2021" />
    <path
       style="fill:#a6e0af"
       inkscape:connector-curvature="0"
       d="m 258.64476,452.50774 c -0.18127,-0.0262 -0.3445,-0.16307 -0.41776,-0.3324 -0.0957,-0.21096 -0.0747,-0.45595 -0.008,-0.67649 0.12114,-0.40328 0.39581,-0.75813 0.75286,-0.97856 0.24084,-0.1481 0.77261,-0.3253 1.17296,-0.26768 0.17727,0.0255 0.32751,0.0977 0.41481,0.2395 0.0776,0.12464 0.0671,0.29625 -0.0224,0.41114 -0.1392,0.17574 -0.39667,0.18482 -0.60102,0.2767 -0.31522,0.14231 -0.4856,0.47802 -0.63793,0.78791 -0.11484,0.23289 -0.26794,0.49143 -0.52262,0.53775 -0.0438,0.008 -0.0887,0.008 -0.13043,0.003 m -0.27463,1.22126 c -0.0813,-0.0116 -0.15987,-0.0706 -0.20856,-0.14032"
       id="path2023" />
    <path
       style="fill:#e2b33d"
       inkscape:connector-curvature="0"
       d="m 242.22042,432.11228 c -0.0229,-1.12461 -0.70383,-2.16521 -1.61224,-2.83 -0.9065,-0.66484 -2.01729,-0.9962 -3.12824,-1.18071 0.42515,0.26314 1.03115,1.90368 -0.10691,3.05913 -1.66297,1.69069 -3.57384,0.7099 -3.72891,0.72797 0.3263,0.2884 0.71075,0.51595 1.1288,0.65652 3.96909,1.33509 4.20697,-1.70668 4.20697,-1.70668 0,0 2.24224,2.01439 0.34003,4.09669 -0.40449,0.44062 -1.07925,0.70704 -2.04653,0.78215 0.5967,0.064 1.19905,0.0488 1.79298,-0.0799 1.67159,-0.3611 3.19006,-1.81592 3.15413,-3.52518 m 15.30607,2.20275 c 0.33907,-1.07236 1.28632,-1.87865 2.34482,-2.26043 1.0586,-0.38187 2.21676,-0.3865 3.33414,-0.25022 -0.48292,0.13242 -1.52632,1.53535 -0.7614,2.96491 1.12117,2.09141 3.22929,1.68928 3.37241,1.75012 -0.39401,0.18487 -0.82636,0.29474 -1.268,0.31165 -4.18328,0.16145 -3.55437,-2.82418 -3.55437,-2.82418 0,0 -2.71771,1.30043 -1.47973,3.83495 0.26145,0.53625 0.83545,0.98252 1.74012,1.32728 -0.59,-0.10711 -1.16271,-0.29134 -1.69756,-0.58237 -1.50149,-0.81814 -2.54826,-2.64225 -2.03043,-4.27171 m -39.08576,-5.62529 c 0.32054,-1.07503 1.18455,-1.89328 2.14478,-2.29039 0.95639,-0.39583 2.00116,-0.41671 3.00601,-0.29721 -0.4364,0.13904 -1.39719,1.55444 -0.72857,2.97005 0.98138,2.07172 2.94316,1.51597 3.07158,1.57594 -0.35899,0.18983 -0.80783,0.42805 -1.20425,0.45204 -3.77166,0.21946 -3.16135,-2.76761 -3.16135,-2.76761 0,0 -2.46874,1.33527 -1.38861,3.84834 0.2283,0.53038 0.73849,0.96789 1.55053,1.29931 -0.5319,-0.0986 -1.04552,-0.27438 -1.52213,-0.55736 -1.3403,-0.79378 -2.25902,-2.60055 -1.76799,-4.23311 m 61.72703,9.0496 c -0.005,-1.12198 -0.60329,-2.15075 -1.41177,-2.80141 -0.80856,-0.65065 -1.80469,-0.96542 -2.80268,-1.13359 0.38092,0.2567 0.90295,1.88506 -0.13978,3.05424 -1.52343,1.71086 -3.23349,0.51979 -3.37349,0.5397 0.2892,0.2834 0.63847,0.7449 1.01339,0.87943 3.55381,1.27539 3.81343,-1.7635 3.81343,-1.7635 0,0 1.89951,1.91439 0.19268,4.04973 -0.6381,0.80063 -1.83763,0.66268 -2.70978,0.75164 0.53638,0.0553 1.99017,0.12389 2.52635,-0.0133 1.51042,-0.38448 2.89905,-1.85807 2.89165,-3.56297"
       id="path2025" />
    <path
       style="fill:#e2b33d"
       inkscape:connector-curvature="0"
       d="m 252.67412,413.26433 -3.66216,25.43845 8.4131,1.24615 c 0,0 -6.01722,-1.82548 -6.08564,-5.84599 -0.0705,-4.02064 1.45089,-7.05749 4.71346,-8.45235 2.66674,-1.13849 3.86236,-4.36328 1.16887,-5.8219 -4.16949,-2.25892 -4.41529,-7.48313 -4.41529,-7.48313 l -0.13226,0.91877"
       id="path2027" />
    <path
       style="fill:#f6ecb7"
       inkscape:connector-curvature="0"
       d="m 245.40639,418.58838 c -0.29659,-0.0427 -0.58013,-0.14949 -0.82004,-0.32959 -0.4881,-0.37101 -0.72199,-1.09181 -0.43639,-1.63294 0.14884,-0.27932 0.41316,-0.48394 0.6882,-0.64229 1.04277,-0.59708 2.27375,-0.64114 3.39885,-1.00117 0.44131,-0.14025 1.26371,-0.67593 1.82655,-0.59489 0.289,0.0416 0.50776,0.24771 0.56829,0.75719 0.0383,0.32767 -0.1474,0.64643 -0.39074,0.86756 -0.24558,0.22275 -0.54623,0.36966 -0.82703,0.54075 -0.52353,0.3206 -0.98234,0.73 -1.46904,1.10438 -0.48641,0.37251 -1.01133,0.71616 -1.60426,0.87148 -0.3025,0.0787 -0.62637,0.10394 -0.93439,0.0596 m -2.26962,2.60889 c -0.0224,-0.003 -0.0464,-0.008 -0.067,-0.0112 -0.63475,-0.13526 -1.08812,-0.82805 -0.97313,-1.46754 0.0317,-0.1823 0.10285,-0.35709 0.19809,-0.51499 0.25595,-0.44002 0.65265,-0.59835 1.04497,-0.54186 0.32141,0.0463 0.64288,0.2375 0.88227,0.53514 0.22662,0.28054 0.34265,0.65391 0.28752,1.01027 -0.0969,0.61919 -0.75612,1.0793 -1.37274,0.99053 m -8.63267,8.40974 c -0.28583,-0.0411 -0.52477,-0.27781 -0.61974,-0.55275 -0.10335,-0.29529 -0.0637,-0.62265 0.0297,-0.92087 0.3499,-1.11862 1.72168,-2.11412 2.93069,-1.94006 0.0879,0.0127 0.17657,0.0333 0.26268,0.0583 0.18814,0.0571 0.40468,0.24154 0.30187,0.41002 -0.052,0.0879 -0.16583,0.11259 -0.26474,0.13767 -0.60658,0.14819 -1.13417,0.592 -1.38662,1.16331 -0.14725,0.33411 -0.2041,0.70366 -0.36182,1.03301 -0.1559,0.32945 -0.46487,0.63071 -0.82928,0.61699 -0.0205,-6.2e-4 -0.0426,-0.003 -0.0627,-0.006 m 29.36736,1.47365 c -0.0359,-0.005 -0.0715,-0.0134 -0.10663,-0.0243 -0.15986,-0.051 -0.30221,-0.15181 -0.44662,-0.23958 -0.47256,-0.28621 -1.00228,-0.44445 -1.54953,-0.52324 -0.49337,-0.071 -1.00209,-0.0778 -1.50058,-0.0566 -0.18049,0.008 -0.36546,0.0183 -0.54321,-0.007 -0.084,-0.0121 -0.16265,-0.0316 -0.24167,-0.0631 -0.24676,-0.099 -0.45278,-0.35311 -0.40305,-0.61345 0.12628,-0.63638 0.89016,-0.75926 1.79693,-0.62872 1.38211,0.19898 3.09768,0.98496 3.40507,1.4416 0.12573,0.18863 0.13777,0.47303 -0.0346,0.62257 -0.10037,0.0884 -0.24026,0.11161 -0.37606,0.0921"
       id="path2029" />
    <path
       style="fill:#dfbb3f"
       inkscape:connector-curvature="0"
       d="m 281.48052,466.12126 -27.99332,-4.02996 0.6539,-0.84142 27.44435,4.14255 -0.10493,0.72883 m 0.53279,-3.70093 -25.88848,-3.72695 1.78357,-2.29915 c 0.46631,0.67278 1.13055,1.13389 1.91455,1.24676 1.74483,0.25118 3.41579,-1.32599 3.73199,-3.52239 0.20938,-1.45442 -0.22745,-2.81576 -1.05431,-3.6426 l 1.2411,-1.59747 0.71087,0.10702"
       id="path2031" />
    <path
       style="fill:#e6bf42"
       inkscape:connector-curvature="0"
       d="m 281.83218,463.67854 -26.60435,-3.83 0.89692,-1.15516 25.88856,3.72695 -0.18113,1.25821"
       id="path2033" />
    <path
       style="fill:#dcad3d"
       inkscape:connector-curvature="0"
       d="m 281.58545,465.39243 -27.44435,-4.14255 1.08673,-1.40134 26.60435,3.83 -0.24674,1.71396"
       id="path2035" />
    <path
       style="fill:#e6bf42"
       inkscape:connector-curvature="0"
       d="m 283.77951,450.15184 -18.91363,-2.72283 0.89695,-1.15534 18.19783,2.61979 -0.18115,1.25838"
       id="path2037" />
    <path
       style="fill:#dcad3d"
       inkscape:connector-curvature="0"
       d="m 283.53277,451.86572 -2.06453,-0.31151 c -0.0265,-0.87339 -0.66786,-1.62919 -1.55585,-1.77502"
       id="path2039" />
    <path
       style="fill:#e6bf42"
       inkscape:connector-curvature="0"
       d="m 284.50219,445.13179 -16.05888,-2.31186 0.89692,-1.15517 15.3431,2.20881 -0.18114,1.25822"
       id="path2041" />
    <path
       style="fill:#dcad3d"
       inkscape:connector-curvature="0"
       d="m 284.25546,446.84567 -16.95191,-2.5587 1.13976,-1.46704 16.05888,2.31186 -0.24674,1.71397"
       id="path2043" />
    <path
       style="fill:#dfbb3f"
       inkscape:connector-curvature="0"
       d="m 278.79516,443.02616 -0.0168,-0.003 0.0334,0.005 -0.0168,-0.003"
       id="path2045" />
    <path
       style="fill:#dcad3d"
       inkscape:connector-curvature="0"
       d="m 266.49458,451.51567 c -0.19775,-0.0284 -0.38686,-0.0881 -0.5579,-0.17253 0.0122,0.003 0.0244,0.004 0.0367,0.005 1.01745,0.14648 1.96197,-0.55922 2.10845,-1.57674 0.11775,-0.81796 -0.31663,-1.58813 -1.01809,-1.93471 0.88842,0.14624 1.5308,0.90326 1.55692,1.77735 0.003,0.10661 -0.002,0.21517 -0.0175,0.32422 -0.14649,1.01751 -1.09102,1.72337 -2.10855,1.57689"
       id="path2047" />
    <path
       style="fill:#e6bf42"
       inkscape:connector-curvature="0"
       d="m 265.9746,451.34877 c -0.0122,-0.002 -0.0244,-0.004 -0.0365,-0.005 -0.99669,-0.16387 -1.68522,-1.09685 -1.54054,-2.10189 0.0126,-0.0878 0.0312,-0.17312 0.0556,-0.25585 0.25505,-0.87701 1.1217,-1.45496 2.05197,-1.32104 0.19947,0.0288 0.38629,0.0881 0.55905,0.17271 0.70227,0.34678 1.13583,1.11691 1.01811,1.93462 -0.14651,1.0177 -1.08973,1.72367 -2.10758,1.57713 m 0.0467,-0.3241 c 0.8387,0.12075 1.61651,-0.46107 1.73723,-1.29963 l 0.002,-0.008 3.3e-4,-0.003 0.002,-0.008 2.3e-4,-0.002 7.7e-4,-0.007 3.3e-4,-0.003 0.002,-0.008 2.2e-4,-0.002 7.7e-4,-0.008 3.3e-4,-0.003 c -0.002,-0.003 -0.002,-0.005 -7.7e-4,-0.009 l 2.2e-4,-0.002 7.8e-4,-0.007 3.2e-4,-0.003 0.002,-0.008 3.4e-4,-0.003 7.7e-4,-0.007 3.4e-4,-0.003 c 4.3e-4,-0.003 7.7e-4,-0.005 -7.9e-4,-0.008 l 3.4e-4,-0.003 7.7e-4,-0.007 3.4e-4,-0.003 7.7e-4,-0.007 4.4e-4,-0.003 7.7e-4,-0.006 c 1.1e-4,-7.3e-4 2.3e-4,-0.002 -0.003,-0.003 l 7.8e-4,-0.008 4.4e-4,-0.003 7.7e-4,-0.005 5.5e-4,-0.004 c 3.4e-4,-0.003 -0.002,-0.004 -0.002,-0.006 l 5.6e-4,-0.004 c 2.1e-4,-0.002 4.4e-4,-0.003 -0.002,-0.005 l 6.5e-4,-0.005 6.7e-4,-0.005 5.5e-4,-0.004 c 2.2e-4,-0.002 4.4e-4,-0.003 -0.002,-0.005 l 7.8e-4,-0.007 5.4e-4,-0.004 6.6e-4,-0.005 c 2.2e-4,-0.002 3.3e-4,-0.003 -0.002,-0.003 l 7.8e-4,-0.008 3.3e-4,-0.003 c 2.1e-4,-0.002 5.5e-4,-0.004 -0.002,-0.005 l 5e-5,-3.7e-4 0.002,-0.0111 2.2e-4,-0.002 c -0.002,-0.006 -5.9e-4,-0.0122 -0.002,-0.018 l 6e-5,-3.6e-4 c -0.0142,-0.73866 -0.55977,-1.37955 -1.31505,-1.48828 -0.8387,-0.12074 -1.61652,0.46117 -1.73717,1.29922 -0.071,0.49329 0.10201,0.96557 0.42652,1.29521 l -2e-5,1.7e-4 c 0.003,0.003 0.003,0.005 0.008,0.006 l -5e-5,3.7e-4 c 0.003,0.002 0.003,0.005 0.005,0.006 -3e-5,1.8e-4 0.003,7e-4 0.003,7.7e-4 l 0.005,0.005 c -5e-5,3.5e-4 0.003,7.7e-4 0.003,7.7e-4 0.003,0.002 0.003,0.004 0.005,0.005 l -2.2e-4,0.002"
       id="path2049" />
    <path
       style="fill:#e5742a"
       inkscape:connector-curvature="0"
       d="m 266.02183,451.02475 -0.0102,-0.002 0.0102,0.002 m -0.0143,-0.003 -0.006,-7.7e-4 0.006,7.7e-4 m -0.0101,-0.002 -0.006,-7.8e-4 0.006,7.8e-4 m -0.0122,-0.002 -0.004,-5.5e-4 0.004,5.5e-4 m -0.008,-0.002 c -0.003,-3.3e-4 -0.006,-7.7e-4 -0.006,-7.7e-4 -3e-5,1.6e-4 0.004,7.2e-4 0.006,7.7e-4 m -0.0122,-0.002 c 3e-5,-1.7e-4 -0.003,-5e-4 -0.004,-7.3e-4 0.003,3.3e-4 0.004,5.6e-4 0.004,7.3e-4 m -0.0101,-0.002 -0.004,-7.8e-4 0.004,7.8e-4 m -0.008,-0.002 -0.006,-7.7e-4 0.006,7.7e-4 m -0.0101,-0.002 c -0.003,-5.1e-4 -0.004,-7.3e-4 -0.006,-7.7e-4 0.003,3.2e-4 0.004,5.5e-4 0.006,7.7e-4 m -0.0122,-0.003 c 2e-5,-1.7e-4 -0.003,-5e-4 -0.004,-7.8e-4 0.003,5.1e-4 0.004,7.3e-4 0.004,7.8e-4 m -0.008,-0.002 c -0.003,-5e-4 -0.004,-7.3e-4 -0.004,-7.7e-4 -3e-5,1.6e-4 0.003,5e-4 0.004,7.7e-4 m -0.0201,-0.005 c -0.003,-3.4e-4 -0.004,-7.4e-4 -0.004,-7.4e-4 0,0 0.003,5.2e-4 0.004,7.4e-4 m -0.0101,-0.003 c 2e-5,-1.9e-4 -0.003,-5.2e-4 -0.003,-7e-4 -3e-5,1.7e-4 0.003,5e-4 0.003,7e-4 m -0.01,-0.003 3e-5,-1.9e-4 -3e-5,1.9e-4 m -0.0361,-0.009 c 4e-5,-1.8e-4 -0.003,-5.2e-4 -0.003,-5.2e-4 0,0 0.003,3.4e-4 0.003,5.2e-4 m -0.01,-0.003 c 2e-5,-1.8e-4 6e-5,-3.8e-4 -0.003,-7e-4 0.003,3.2e-4 0.003,5e-4 0.003,7e-4 m -0.008,-0.003 c 2e-5,-1.7e-4 -0.003,-5.1e-4 -0.003,-7.1e-4 -3e-5,1.9e-4 0.003,5.2e-4 0.003,7.1e-4 m -0.01,-0.003 -0.003,-4.9e-4 0.003,4.9e-4 m -0.01,-0.003 -0.003,-5.2e-4 0.003,5.2e-4 m -0.008,-0.003 c -0.003,-3.3e-4 -0.003,-5e-4 -0.003,-5e-4 0,0 -1e-5,1.7e-4 0.003,5e-4 m -0.01,-0.003 -0.003,-5.2e-4 0.003,5.2e-4 m -0.01,-0.003 -0.003,-5.1e-4 0.003,5.1e-4 m -0.5305,-0.29464 3e-5,-1.6e-4 -3e-5,1.7e-4 m -0.005,-0.005 c -0.003,-3.3e-4 -0.003,-5e-4 -0.003,-7e-4 -2e-5,1.9e-4 -5e-5,3.7e-4 0.003,7e-4 m -0.008,-0.005 c -0.003,-4.8e-4 -0.003,-6.8e-4 -0.003,-7.7e-4 -3e-5,1.7e-4 -6e-5,3.7e-4 0.003,7.7e-4 m -0.008,-0.005 c 5e-5,-3.7e-4 8e-5,-5.5e-4 -0.003,-7.7e-4 0.003,6.9e-4 0.003,7.7e-4 0.003,7.7e-4 m -0.008,-0.006 c 6e-5,-3.6e-4 10e-5,-7.2e-4 -0.003,-7.7e-4 0.003,4.9e-4 0.003,7.7e-4 0.003,7.7e-4 m -0.005,-0.006 c -0.003,-7e-4 -0.003,-7.7e-4 -0.003,-0.002 -1e-4,7.3e-4 -1e-4,7.7e-4 0.003,0.002 m -0.008,-0.006 c -0.003,-7.7e-4 -0.003,-7.7e-4 -0.003,-0.002 -6e-5,3.7e-4 -1.1e-4,7.8e-4 0.003,0.002 m -0.008,-0.006 c 8e-5,-5.4e-4 -0.003,-0.002 -0.003,-0.003 -1.1e-4,7.6e-4 0.003,0.002 0.003,0.003 m 0.53164,0.0703"
       id="path2051" />
    <path
       style="fill:#c96929"
       inkscape:connector-curvature="0"
       d="m 266.02183,451.02475 -0.0204,-0.003 c -0.003,-3.3e-4 -0.004,-7.3e-4 -0.004,-7.3e-4 l -0.006,-7.8e-4 c -0.003,-3.3e-4 -0.004,-5.5e-4 -0.006,-7.7e-4 l -0.004,-5.5e-4 c -0.003,-3.3e-4 -0.004,-7.4e-4 -0.004,-7.4e-4 -0.003,-3.3e-4 -0.006,-7.7e-4 -0.006,-7.7e-4 l -0.006,-7.7e-4 c 2e-5,-1.7e-4 -0.003,-5e-4 -0.004,-7.3e-4 -0.003,-4.9e-4 -0.003,-4.9e-4 -0.006,-7.7e-4 l -0.004,-7.7e-4 c -0.003,-3.3e-4 -0.004,-5.5e-4 -0.004,-7.4e-4 l -0.006,-7.7e-4 -0.004,-7.2e-4 c -0.003,-5.1e-4 -0.004,-7.3e-4 -0.006,-7.7e-4 -0.003,-4.8e-4 -0.003,-6.9e-4 -0.006,-0.002 2e-5,-1.6e-4 -0.003,-4.9e-4 -0.004,-7.7e-4 l -0.004,-7.2e-4 c -0.003,-5.1e-4 -0.004,-7.3e-4 -0.004,-7.7e-4 -0.004,-5.6e-4 -0.004,-7.4e-4 -0.006,-0.002"
       id="path2053" />
    <path
       style="fill:#e9a66b"
       inkscape:connector-curvature="0"
       d="m 265.56861,449.12846 c -0.14584,-0.021 -0.25838,-0.17333 -0.26151,-0.32458 -0.005,-0.16355 0.091,-0.31514 0.21228,-0.42538 0.21228,-0.19571 0.51849,-0.28218 0.80422,-0.24104 0.0183,0.003 0.0343,0.005 0.0503,0.009 0.13483,0.0264 0.20881,0.0733 0.27644,0.192 0.0897,0.1532 0.0463,0.29584 -0.14976,0.30776 -0.0771,0.005 -0.15597,-0.009 -0.23085,0.008 -0.13677,0.0305 -0.23255,0.15014 -0.32247,0.2574 -0.0899,0.10768 -0.20311,0.2182 -0.34389,0.21875 -0.0104,8e-5 -0.0227,-1.5e-4 -0.0349,-0.002 m -0.37265,0.56026 c -0.0545,-0.008 -0.10447,-0.0324 -0.14698,-0.067 -0.0738,-0.0609 -0.12217,-0.15363 -0.12081,-0.24875 7e-5,-0.18759 0.11892,-0.25313 0.24607,-0.23483 0.11109,0.016 0.22893,0.0996 0.27108,0.2223 0.0414,0.12761 -0.0292,0.28881 -0.15982,0.32315"
       id="path2055" />
    <path
       style="fill:#dcad3d"
       inkscape:connector-curvature="0"
       d="m 265.29681,459.83576 c -0.19776,-0.0284 -0.3869,-0.0879 -0.55792,-0.17254 0.0122,0.003 0.0244,0.004 0.0367,0.005 1.01744,0.14647 1.96198,-0.5594 2.10845,-1.57683 0.11773,-0.81782 -0.31662,-1.58822 -1.01809,-1.9348 0.99825,0.16409 1.68407,1.09678 1.53941,2.10166 -0.14647,1.01744 -1.09101,1.7233 -2.10855,1.57682"
       id="path2057" />
    <path
       style="fill:#e6bf42"
       inkscape:connector-curvature="0"
       d="m 264.77681,459.66893 c -0.0122,-0.002 -0.0245,-0.004 -0.0365,-0.005 -0.99672,-0.16364 -1.68521,-1.09686 -1.54057,-2.10165 0.14648,-1.01745 1.08973,-1.72365 2.10758,-1.57712 0.19948,0.0287 0.38629,0.0881 0.55905,0.1727 0.70227,0.34678 1.13583,1.1169 1.01808,1.93487 -0.14643,1.0172 -1.08969,1.72341 -2.10755,1.57689 m 0.0467,-0.32411 c 0.8387,0.12074 1.6165,-0.46109 1.7372,-1.29945 l 0.002,-0.009 3.4e-4,-0.003 0.002,-0.008 2.2e-4,-0.002 7.7e-4,-0.007 3.4e-4,-0.003 0.002,-0.008 2.1e-4,-0.002 7.8e-4,-0.008 2.2e-4,-0.002 c -0.002,-0.003 -0.002,-0.006 -7.8e-4,-0.009 l 2.2e-4,-0.002 7.7e-4,-0.007 3.3e-4,-0.003 0.002,-0.008 3.3e-4,-0.003 7.8e-4,-0.007 3.3e-4,-0.003 c 4.4e-4,-0.003 7.7e-4,-0.005 -7.8e-4,-0.008 l 3.4e-4,-0.003 7.7e-4,-0.007 3.4e-4,-0.003 7.7e-4,-0.008 4.3e-4,-0.003 7.8e-4,-0.006 c 1e-4,-7.2e-4 2.1e-4,-0.002 -0.003,-0.003 l 7.7e-4,-0.008 4.5e-4,-0.003 7.7e-4,-0.005 5.5e-4,-0.004 c 2.2e-4,-0.002 -0.002,-0.004 -0.002,-0.006 l 5.4e-4,-0.004 c 2.3e-4,-0.002 4.5e-4,-0.003 -0.002,-0.005 l 7.7e-4,-0.005 6.6e-4,-0.005 5.5e-4,-0.004 c 2.2e-4,-0.002 4.3e-4,-0.003 -0.002,-0.005 l 7.7e-4,-0.007 4.4e-4,-0.003 6.7e-4,-0.005 c 10e-5,-7.7e-4 2.1e-4,-0.002 -0.002,-0.003 l 0.002,-0.008 3.3e-4,-0.003 c 2.2e-4,-0.002 5.5e-4,-0.004 -0.002,-0.005 l 3e-5,-1.9e-4 0.002,-0.0112 2.2e-4,-0.002 c -0.002,-0.006 -6.2e-4,-0.0119 -0.002,-0.018 l 2e-5,-1.9e-4 c -0.0141,-0.73881 -0.55973,-1.37969 -1.31502,-1.48843 -0.8387,-0.12074 -1.61648,0.46092 -1.73721,1.29946 -0.10713,0.74427 0.33917,1.44033 1.02893,1.67201"
       id="path2059" />
    <path
       style="fill:#e5742a"
       inkscape:connector-curvature="0"
       d="m 264.82402,459.34507 c -0.004,-5.5e-4 -0.008,-0.002 -0.0101,-0.002 0.003,5e-4 0.006,7.7e-4 0.0101,0.002 m -0.0143,-0.003 -0.006,-7.7e-4 0.006,7.7e-4 m -0.0101,-0.002 -0.006,-7.7e-4 0.006,7.7e-4 m -0.0122,-0.002 -0.004,-7.1e-4 0.004,7.1e-4 m -0.008,-0.002 c -0.003,-3.4e-4 -0.006,-7.7e-4 -0.006,-7.7e-4 -2e-5,1.5e-4 0.004,7e-4 0.006,7.7e-4 m -0.0101,-0.002 c -0.003,-5.1e-4 -0.004,-7.3e-4 -0.006,-7.7e-4 0.003,3.3e-4 0.004,5.5e-4 0.006,7.7e-4 m -0.0122,-0.003 c 4e-5,-1.8e-4 -0.003,-5e-4 -0.004,-7.2e-4 0.003,3.3e-4 0.004,5.4e-4 0.004,7.2e-4 m -0.008,-0.002 c -0.003,-5.1e-4 -0.004,-7.4e-4 -0.006,-0.002 0.003,4.9e-4 0.004,7.1e-4 0.006,0.002 m -0.0101,-0.003 c -0.003,-4.9e-4 -0.004,-7.1e-4 -0.006,-0.002 0.003,5e-4 0.004,7.2e-4 0.006,0.002 m -0.0402,-0.008 c -0.003,-7e-4 -0.004,-7.8e-4 -0.006,-0.002 0.003,5.2e-4 0.004,7.7e-4 0.006,0.002 m -0.0101,-0.003 -0.008,-0.002 0.008,0.002 m -0.0401,-0.01 c -0.003,-6.9e-4 -0.006,-0.002 -0.008,-0.002 0.003,5.2e-4 0.006,0.002 0.008,0.002 m -0.01,-0.003 c -0.004,-7e-4 -0.006,-0.002 -0.008,-0.002 0.003,5.1e-4 0.004,0.002 0.008,0.002 m -0.01,-0.003 c -0.003,-7e-4 -0.006,-0.002 -0.008,-0.003 0.003,6.9e-4 0.006,0.002 0.008,0.003 m -0.01,-0.003 c -0.004,-7.7e-4 -0.006,-0.002 -0.008,-0.003 0.003,7e-4 0.004,0.002 0.008,0.003 m -0.01,-0.003 c -0.004,-7.8e-4 -0.006,-0.002 -0.008,-0.003 0.003,6.9e-4 0.004,0.002 0.008,0.003 m -0.01,-0.003 -0.006,-0.003 0.006,0.003 m -0.01,-0.003 c -0.003,-6.9e-4 -0.004,-0.002 -0.006,-0.003 0.003,7.7e-4 0.004,0.002 0.006,0.003 m -0.008,-0.003 c -0.004,-7.7e-4 -0.006,-0.002 -0.01,-0.003 l 0.01,0.003 m -0.0199,-0.006 -0.01,-0.003 0.01,0.003 m -0.01,-0.003 c -0.68907,-0.2314 -1.13486,-0.92748 -1.02771,-1.67183 0.12067,-0.83822 0.89988,-1.41984 1.73775,-1.29922 0.75447,0.10862 1.30158,0.74972 1.31366,1.48816 -0.007,-0.45443 -0.21707,-0.87176 -0.55463,-1.15137"
       id="path2061" />
    <path
       style="fill:#c96929"
       inkscape:connector-curvature="0"
       d="m 264.82402,459.34507 c -0.004,-5.5e-4 -0.008,-0.002 -0.0101,-0.002 l -0.0143,-0.003 -0.006,-7.7e-4 -0.006,-7.7e-4 -0.004,-7.2e-4 c -0.003,-3.4e-4 -0.004,-7.3e-4 -0.004,-7.3e-4 -0.003,-3.3e-4 -0.006,-7.7e-4 -0.006,-7.7e-4 l -0.004,-5.5e-4 c -0.003,-5.1e-4 -0.004,-7.3e-4 -0.006,-7.8e-4 -0.003,-5e-4 -0.003,-5e-4 -0.006,-7.7e-4 3e-5,-1.7e-4 -0.003,-5.1e-4 -0.004,-7.3e-4 l -0.004,-7.1e-4 c -0.003,-5.1e-4 -0.004,-7.3e-4 -0.006,-0.002 -0.003,-3.3e-4 -0.004,-7.4e-4 -0.004,-7.4e-4 -0.003,-4.8e-4 -0.004,-7e-4 -0.006,-0.002 l -0.004,-7.2e-4"
       id="path2063" />
    <path
       style="fill:#e9a66b"
       inkscape:connector-curvature="0"
       d="m 264.37083,457.44861 c -0.14585,-0.021 -0.25841,-0.17315 -0.26151,-0.32456 -0.005,-0.16355 0.0909,-0.31498 0.21228,-0.42539 0.21228,-0.19571 0.51844,-0.28193 0.80418,-0.24079 0.0183,0.003 0.0344,0.005 0.0503,0.009 0.13481,0.0264 0.20879,0.0733 0.27643,0.19201 0.0897,0.1532 0.0463,0.29585 -0.14978,0.30777 -0.0771,0.005 -0.15599,-0.008 -0.23084,0.008 -0.13677,0.0305 -0.23253,0.14997 -0.32251,0.25765 -0.0899,0.10743 -0.20307,0.21794 -0.34389,0.21873 -0.0104,9e-5 -0.0225,-7.7e-4 -0.0348,-0.003 m -0.37263,0.56009"
       id="path2065" />
    <path
       style="fill:#dcad3d"
       inkscape:connector-curvature="0"
       d="m 279.34429,453.45735 c -0.19914,-0.0287 -0.38514,-0.0879 -0.55878,-0.17276 0.0147,0.003 0.0253,0.004 0.0381,0.006 1.01867,0.14665 1.96136,-0.55964 2.1078,-1.57685 0.11775,-0.81797 -0.31621,-1.58823 -1.01857,-1.93493 0.88698,0.14587 1.53042,0.90194 1.55812,1.77543 0.002,0.10708 -0.003,0.21619 -0.0188,0.32611 -0.14647,1.01746 -1.08908,1.72376 -2.10783,1.5771"
       id="path2067" />
    <path
       style="fill:#e6bf42"
       inkscape:connector-curvature="0"
       d="m 278.82415,453.29049 c -0.0126,-0.002 -0.0254,-0.004 -0.0381,-0.006 -0.99733,-0.16412 -1.68326,-1.09666 -1.53859,-2.10153 0.0127,-0.0886 0.0314,-0.17484 0.0566,-0.25795 0.25344,-0.87617 1.12221,-1.4528 2.05045,-1.31917 0.19882,0.0286 0.38662,0.088 0.55799,0.17255 0.70334,0.34684 1.1364,1.11698 1.01866,1.93487 -0.14647,1.01736 -1.08989,1.72355 -2.10709,1.57711 m 0.0467,-0.32435 c 0.83739,0.12056 1.61617,-0.46105 1.73686,-1.29934 l 0.002,-0.009 2.1e-4,-0.002 0.002,-0.009 1.2e-4,-7.6e-4 7.7e-4,-0.008 3.3e-4,-0.003 0.002,-0.008 2.2e-4,-0.002 7.7e-4,-0.008 2.3e-4,-0.002 c 4.4e-4,-0.003 7.6e-4,-0.005 -7.7e-4,-0.009 l 2.2e-4,-0.002 7.7e-4,-0.008 3.4e-4,-0.003 0.002,-0.008 3.4e-4,-0.003 7.7e-4,-0.007 3.3e-4,-0.003 0.002,-0.008 3.2e-4,-0.003 c -0.003,-0.003 -0.002,-0.005 -0.002,-0.008 l 2.2e-4,-0.002 0.002,-0.008 3.3e-4,-0.003 7.7e-4,-0.007 2.2e-4,-0.002 c -0.002,-0.003 -0.002,-0.005 -7.8e-4,-0.008 l 4.5e-4,-0.003 7.7e-4,-0.007 2.1e-4,-0.002 c 3.4e-4,-0.003 7.8e-4,-0.005 -0.002,-0.008 l 4.5e-4,-0.003 7.7e-4,-0.007 4.4e-4,-0.003 7.7e-4,-0.007 c -0.003,-7.7e-4 -0.003,-0.003 -0.002,-0.003 3.4e-4,-0.003 6.7e-4,-0.005 -0.002,-0.007 l 4.4e-4,-0.003 7.7e-4,-0.006 4.4e-4,-0.003 c 3.3e-4,-0.003 7.6e-4,-0.005 -0.002,-0.008 l 3.4e-4,-0.003 7.7e-4,-0.005 4.4e-4,-0.003 c -0.003,-0.003 -0.002,-0.005 -0.002,-0.007 l 4.4e-4,-0.003 6.6e-4,-0.005 c 1.2e-4,-7.7e-4 -0.003,-0.003 -0.002,-0.004 l 7.7e-4,-0.007 5.5e-4,-0.004 c -0.003,-0.002 -0.002,-0.003 -0.002,-0.005 l 5.6e-4,-0.004 c 3.2e-4,-0.003 6.6e-4,-0.005 -0.002,-0.007 l 5.6e-4,-0.004 5.5e-4,-0.004 c 2.2e-4,-0.002 5.4e-4,-0.004 -0.002,-0.006 l 6.5e-4,-0.005 6.7e-4,-0.005 c 1.1e-4,-7.6e-4 -0.003,-0.003 -0.002,-0.003 l 7.7e-4,-0.007 c 1.2e-4,-7.7e-4 -0.003,-0.003 -0.002,-0.003 l 6.6e-4,-0.005 3.4e-4,-0.003 c -0.002,-0.003 -0.002,-0.006 -7.8e-4,-0.01 l 2.3e-4,-0.002 c 2.1e-4,-0.002 -0.002,-0.004 -0.002,-0.005 l 2.3e-4,-0.002 c 4.5e-4,-0.003 -0.002,-0.007 -7.7e-4,-0.0102 l 2.2e-4,-0.002 c 2.1e-4,-0.002 5.4e-4,-0.004 -0.002,-0.005 l 1.1e-4,-7.3e-4 c 5.4e-4,-0.004 -0.002,-0.007 -7.7e-4,-0.011 l 2.1e-4,-0.002 c -0.002,-0.005 -6.4e-4,-0.0117 -0.003,-0.0178 l 8e-5,-5.6e-4 c -0.0698,-0.685 -0.59549,-1.26104 -1.30818,-1.36365 -0.83943,-0.12083 -1.61608,0.46107 -1.73678,1.29952 -0.0926,0.64315 0.22796,1.25038 0.76065,1.55292 0.005,0.002 0.005,0.003 0.0101,0.005 0.003,7.7e-4 0.005,0.003 0.008,0.005 l -8e-5,5.6e-4 c 0.005,0.002 0.005,0.003 0.0102,0.005"
       id="path2069" />
    <path
       style="fill:#e5742a"
       inkscape:connector-curvature="0"
       d="m 278.87116,452.9662 -0.0106,-0.002 0.0106,0.002 m -0.0147,-0.003 -0.006,-7.7e-4 0.006,7.7e-4 m -0.0106,-0.002 -0.005,-7.8e-4 0.005,7.8e-4 m -0.0105,-0.002 c -0.003,-5.2e-4 -0.004,-7.4e-4 -0.006,-7.7e-4 0.003,3.3e-4 0.005,6.6e-4 0.006,7.7e-4 m -0.0106,-0.002 -0.004,-5.4e-4 0.004,5.4e-4 m -0.008,-0.002 -0.006,-7.7e-4 0.006,7.7e-4 m -0.0105,-0.002 c -0.003,-3.3e-4 -0.004,-7.4e-4 -0.006,-7.7e-4 0.003,3.2e-4 0.004,7.3e-4 0.006,7.7e-4 m -0.0106,-0.002 c -0.003,-3.4e-4 -0.004,-7.3e-4 -0.006,-7.7e-4 l 0.006,7.7e-4 m -0.0106,-0.002 -0.004,-7.7e-4 0.004,7.7e-4 m -0.008,-0.003 c -0.003,-5.1e-4 -0.005,-7.7e-4 -0.006,-0.002 0.003,4.9e-4 0.005,7.7e-4 0.006,0.002 m -0.0209,-0.005 c -0.003,-5.1e-4 -0.005,-7.8e-4 -0.006,-0.002 0.003,4.9e-4 0.005,7.7e-4 0.006,0.002 m -0.008,-0.003 -0.008,-0.003 0.008,0.003 m -0.0105,-0.003 -0.008,-0.002 0.008,0.002 m -0.0105,-0.003 c -0.0104,-0.003 -0.0186,-0.005 -0.0291,-0.007 0.0105,0.003 0.0187,0.005 0.0292,0.007 m -0.0292,-0.007 -0.0105,-0.003 0.0105,0.003 m -0.0125,-0.003 -0.008,-0.003 0.008,0.003 m -0.0105,-0.003 -0.006,-0.002 0.006,0.002 m -0.008,-0.003 c -0.003,-7.7e-4 -0.006,-0.002 -0.008,-0.003 0.004,7.7e-4 0.006,0.002 0.008,0.003 m -0.0104,-0.003 -0.008,-0.003 0.008,0.003 m -0.0104,-0.003 -0.006,-0.003 0.006,0.003 m -0.008,-0.003 c -0.005,-7.8e-4 -0.006,-0.002 -0.008,-0.003 0.003,7e-4 0.005,0.002 0.008,0.003 m -0.0104,-0.003 c -0.005,-7.7e-4 -0.006,-0.002 -0.008,-0.003 0.003,7e-4 0.004,0.002 0.008,0.003 m -0.0104,-0.003 -0.006,-0.003 0.006,0.003 m -0.008,-0.003"
       id="path2071" />
    <path
       style="fill:#c96929"
       inkscape:connector-curvature="0"
       d="m 278.87116,452.9662 -0.0211,-0.003 -0.005,-6.6e-4 -0.005,-7.7e-4 -0.006,-7.7e-4 c -0.003,-5.2e-4 -0.005,-7.8e-4 -0.006,-7.8e-4 l -0.005,-7.7e-4 -0.004,-5.4e-4 c -0.003,-5.2e-4 -0.005,-7.8e-4 -0.005,-7.8e-4 l -0.006,-7.7e-4 c -0.003,-3.3e-4 -0.003,-5.1e-4 -0.005,-7.8e-4 -0.003,-3.3e-4 -0.004,-7.3e-4 -0.006,-7.7e-4 l -0.005,-7.7e-4 -0.006,-7.8e-4 c 2e-5,-1.5e-4 -0.003,-4.8e-4 -0.005,-7.7e-4 l -0.004,-7.7e-4 -0.005,-7.7e-4 c -0.003,-5.1e-4 -0.005,-7.8e-4 -0.006,-0.002"
       id="path2073" />
    <path
       style="fill:#e9a66b"
       inkscape:connector-curvature="0"
       d="m 278.41858,451.07016 c -0.1474,-0.0213 -0.25871,-0.17338 -0.26276,-0.32458 -0.003,-0.1633 0.0927,-0.31507 0.21172,-0.42555 0.2151,-0.19564 0.51985,-0.28189 0.80616,-0.24068 0.0168,0.003 0.0337,0.005 0.0504,0.009 0.13368,0.0263 0.20651,0.073 0.27743,0.19207 0.0876,0.15298 0.0455,0.29588 -0.15177,0.30763 -0.076,0.005 -0.15565,-0.008 -0.23113,0.008 -0.13774,0.0307 -0.23223,0.15017 -0.32284,0.2576 -0.0887,0.10761 -0.20128,0.2182 -0.34104,0.21914 -0.0128,-2.8e-4 -0.0256,-0.002 -0.0362,-0.003 m -0.37301,0.55995"
       id="path2075" />
    <path
       style="fill:#dcad3d"
       inkscape:connector-curvature="0"
       d="m 278.14651,461.77751 c -0.19915,-0.0287 -0.38718,-0.0882 -0.55879,-0.17275 0.0127,0.003 0.0253,0.004 0.0381,0.006 1.01867,0.14665 1.96134,-0.55949 2.1078,-1.57685 0.11779,-0.81821 -0.31618,-1.5884 -1.01857,-1.93495"
       id="path2077" />
    <path
       style="fill:#e6bf42"
       inkscape:connector-curvature="0"
       d="m 277.62638,461.6105 c -0.0126,-0.002 -0.0255,-0.004 -0.038,-0.005 -0.99734,-0.16412 -1.68326,-1.09667 -1.5386,-2.10146 0.14645,-1.01736 1.08986,-1.72354 2.10698,-1.57712 0.19883,0.0286 0.38664,0.0879 0.55801,0.17247 0.70336,0.34668 1.13644,1.11674 1.01864,1.93495 -0.14644,1.01728 -1.08985,1.72331 -2.10705,1.57687 m 0.0467,-0.32403 c 0.8374,0.12057 1.61621,-0.46128 1.73689,-1.29951 l 0.002,-0.009 3.2e-4,-0.003 0.002,-0.009 1.2e-4,-7.7e-4 7.7e-4,-0.008 3.4e-4,-0.003 0.002,-0.008 2.3e-4,-0.002 7.7e-4,-0.008 3.3e-4,-0.003 c 4.4e-4,-0.003 7.7e-4,-0.005 -7.7e-4,-0.009 l 2.2e-4,-0.002 7.8e-4,-0.007 3.3e-4,-0.003 0.002,-0.008 3.3e-4,-0.003 7.7e-4,-0.006 4.4e-4,-0.003 7.8e-4,-0.008 3.2e-4,-0.003 c -0.003,-0.003 -0.002,-0.005 -0.002,-0.006 l 4.4e-4,-0.003 7.7e-4,-0.008 5.5e-4,-0.004 7.7e-4,-0.005 5.6e-4,-0.004 c -0.003,-0.003 -0.002,-0.004 -0.002,-0.006 l 5.4e-4,-0.004 6.6e-4,-0.005 7.7e-4,-0.006 c 2.3e-4,-0.002 4.5e-4,-0.003 -0.002,-0.005 l 6.7e-4,-0.005 4.3e-4,-0.003 0.002,-0.008 4.4e-4,-0.003 c -0.003,-0.002 -0.002,-0.003 -0.002,-0.005 l 3.2e-4,-0.003 c 4.5e-4,-0.003 -0.002,-0.006 -7.7e-4,-0.009 l 3.3e-4,-0.003 7.7e-4,-0.005 c 5.5e-4,-0.004 -0.002,-0.008 -6.1e-4,-0.0121 l 1.1e-4,-7.7e-4 c 0.005,-0.75432 -0.54743,-1.41534 -1.31505,-1.52584 -0.83944,-0.12084 -1.6161,0.46114 -1.73679,1.29951 -0.11417,0.79299 0.40112,1.53182 1.16523,1.7113 l -4e-5,1.8e-4"
       id="path2079" />
    <path
       style="fill:#e5742a"
       inkscape:connector-curvature="0"
       d="m 277.67335,461.28661 -0.0106,-0.002 0.0106,0.002 m -0.0147,-0.003 -0.006,-7.7e-4 0.006,7.7e-4 m -0.0106,-0.002 -0.005,-6.5e-4 0.005,6.5e-4 m -0.0106,-0.002 c -0.003,-5.1e-4 -0.004,-7.4e-4 -0.006,-0.002 l 0.006,0.002 m -0.0105,-0.003 -0.004,-7.1e-4 0.004,7.1e-4 m -0.008,-0.002 c -0.003,-3.3e-4 -0.005,-6.6e-4 -0.006,-7.7e-4"
       id="path2081" />
    <path
       style="fill:#c96929"
       inkscape:connector-curvature="0"
       d="m 277.67335,461.28661 -0.0211,-0.003 -0.005,-7.7e-4 -0.0105,-0.002 -0.006,-0.002 -0.005,-6.7e-4 -0.004,-7.1e-4 c -0.003,-3.2e-4 -0.005,-6.6e-4 -0.005,-7.7e-4 -0.003,-3.4e-4 -0.005,-6.6e-4 -0.006,-7.8e-4 l -0.005,-6.5e-4 -0.006,-0.002 -0.005,-7.7e-4 c -0.003,-3.4e-4 -0.005,-6.6e-4 -0.006,-7.8e-4 l -0.005,-7.7e-4 c 0,0 -0.004,-7.3e-4 -0.004,-7.7e-4 -0.003,-3.4e-4 -0.005,-6.6e-4 -0.005,-7.7e-4"
       id="path2083" />
    <path
       style="fill:#e9a66b"
       inkscape:connector-curvature="0"
       d="m 277.22081,459.39024 c -0.1474,-0.0213 -0.25871,-0.17337 -0.26276,-0.32458 -0.003,-0.16303 0.0927,-0.31506 0.21171,-0.42555 0.21506,-0.19531 0.51984,-0.28173 0.80615,-0.24051 0.0168,0.003 0.0337,0.005 0.0504,0.009 0.13367,0.0263 0.20651,0.0729 0.27742,0.19206 0.0877,0.15274 0.0455,0.2958 -0.15173,0.30738 -0.0759,0.005 -0.15565,-0.008 -0.23117,0.009 -0.1377,0.0305 -0.23221,0.1501 -0.32281,0.25744 -0.0887,0.10778 -0.20132,0.21845 -0.34104,0.21916 -0.0128,-2.8e-4 -0.0256,-0.002 -0.0362,-0.003 m -0.37309,0.56037 c -0.0545,-0.008 -0.10452,-0.0325 -0.14674,-0.0669 -0.0727,-0.0605 -0.12141,-0.15369 -0.12266,-0.24926 0.002,-0.18727 0.11996,-0.25282 0.2459,-0.23469 0.11328,0.0163 0.23198,0.0998 0.27212,0.22254 0.0417,0.12745 -0.0287,0.28895 -0.15796,0.32349 -0.029,0.008 -0.0613,0.009 -0.0907,0.005"
       id="path2085" />
    <path
       style="fill:#ecd047"
       inkscape:connector-curvature="0"
       d="m 275.76114,459.80585 -8.33086,-1.19933 1.19943,-8.3316 8.33086,1.19932 -1.19944,8.33168 m -4.05879,-1.45155 3.45568,0.49748 0.99491,-6.91088 -6.91137,-0.99496 -0.99491,6.91095 3.45568,0.49749"
       id="path2087" />
    <path
       style="fill:#dcad3d"
       inkscape:connector-curvature="0"
       d="m 275.15797,458.85168 -3.45667,-0.49762 3.95414,-2.95799 -0.49748,3.45568 m -3.45667,-0.49762 -3.45462,-0.49733 0.99492,-6.91104 6.91129,0.99496 -0.49744,3.45535 -2.95922,-3.95298 -3.97213,3.09743 2.9772,3.81361"
       id="path2089" />
    <path
       style="fill:#dfbb3f"
       inkscape:connector-curvature="0"
       d="m 271.70123,458.35404 -2.97714,-3.81352 3.47127,0.49973 0.50083,-3.59716 -3.97214,3.09742 3.97214,-3.09742 2.95922,3.95298 -3.46007,-0.35583 c -0.0187,0.11337 -0.4941,3.31388 -0.4941,3.31388"
       id="path2091" />
    <path
       style="fill:#ecd047"
       inkscape:connector-curvature="0"
       d="m 272.19408,455.04048 -3.4712,-0.49972 3.97217,-3.09709 -0.50101,3.59681"
       id="path2093" />
    <path
       style="fill:#d3a43c"
       inkscape:connector-curvature="0"
       d="m 271.70123,458.35404 c 0,0 0.47572,-3.2004 0.49416,-3.31379 l 3.46007,0.35583 -3.95415,2.95805"
       id="path2095" />
    <path
       style="fill:#dcad3d"
       inkscape:connector-curvature="0"
       d="m 281.52285,460.99344 c -0.51771,-0.0745 -0.95086,-0.46429 -1.25054,-1.0561 -0.15896,-0.31605 -0.28335,-0.69035 -0.36279,-1.10492 -0.12143,-0.6368 -0.13779,-1.36919 -0.0276,-2.13484 0.21834,-1.51663 0.88113,-2.76697 1.67219,-3.3379 -0.52605,0.6634 -0.93507,1.64637 -1.09782,2.77694 -0.31623,2.19664 0.41812,4.11983 1.6409,4.29587 0.0661,0.01 0.13283,0.0137 0.20044,0.0127 l -0.0654,0.45444 c -0.23317,0.0936 -0.47081,0.12808 -0.70938,0.0937"
       id="path2097" />
    <path
       style="fill:#ecd047"
       inkscape:connector-curvature="0"
       d="m 282.09721,460.43249 c -1.22279,-0.17604 -1.95713,-2.09923 -1.6409,-4.29587 0.16276,-1.13057 0.5717,-2.11356 1.09782,-2.77694 0.49656,-0.62522 1.09596,-0.96664 1.68818,-0.88138 0.066,0.01 0.13129,0.0244 0.19593,0.0441 l -0.0935,0.64976"
       id="path2099" />
    <path
       style="fill:#86b450"
       inkscape:connector-curvature="0"
       d="m 282.49587,459.06837 c -0.82944,-0.41664 -1.2896,-1.9029 -1.04885,-3.57523 0.11357,-0.78884 0.36714,-1.49303 0.69544,-2.03568 -0.64112,0.51029 -1.17415,1.5543 -1.3553,2.81267 l 5.4e-4,-0.004 c 0.27119,-1.88374 1.32837,-3.29042 2.36156,-3.14168 0.0661,0.01 0.13107,0.0259 0.19543,0.0475 l -0.0954,0.66297 c -0.0572,-0.0254 -0.11337,-0.0435 -0.16667,-0.0512 -0.12569,-0.0181 -0.24356,0.0154 -0.33628,0.1312 -0.08,0.10203 -0.115,0.27003 -0.082,0.40266 0.0491,0.20286 0.21947,0.27345 0.33438,0.41154"
       id="path2101" />
    <path
       style="fill:#7fa144"
       inkscape:connector-curvature="0"
       d="m 282.16622,459.95315 c -1.03328,-0.14875 -1.65068,-1.79634 -1.37947,-3.68024 l 4.4e-4,-0.003 c 0.18116,-1.25838 0.71418,-2.3024 1.35523,-2.81268 -0.32821,0.54265 -0.58179,1.24686 -0.69536,2.03568 -0.24075,1.67234 0.21942,3.15858 1.04885,3.57525 l -0.12876,0.89436 c -0.068,0.003 -0.13487,-5e-5 -0.2009,-0.01"
       id="path2103" />
    <path
       style="fill:#b9c67d"
       inkscape:connector-curvature="0"
       d="M 283.09674,454.89454"
       id="path2105" />
    <path
       style="fill:#dcad3d"
       inkscape:connector-curvature="0"
       d="m 259.8246,457.64063 c -0.78279,-0.11268 -1.4476,-0.57395 -1.9136,-1.2466 l 0.0332,-0.0453 c 0.37238,0.29579 0.80407,0.49322 1.28097,0.56188 1.74465,0.25117 3.41558,-1.32584 3.7318,-3.5224 0.15363,-1.06716 -0.0408,-2.08452 -0.48138,-2.87706 l 0.0277,-0.0353 c 0.8258,0.82668 1.26245,2.18807 1.05308,3.6425 -0.31618,2.19625 -1.98714,3.77342 -3.7318,3.52224"
       id="path2107" />
    <path
       style="fill:#ecd047"
       inkscape:connector-curvature="0"
       d="m 259.22401,456.91044 c -0.47592,-0.0685 -0.90866,-0.2661 -1.28014,-0.56184 l 0.29417,-0.37737 c 0.30739,0.24203 0.66337,0.40351 1.05497,0.45988 1.47589,0.21247 2.89053,-1.14259 3.16171,-3.02632 l 4.4e-4,-0.003 5.6e-4,-0.004 c 0.12707,-0.88276 -0.0202,-1.72523 -0.36472,-2.39298 l 0.38465,-0.49371 c 0.44142,0.79249 0.63519,1.80986 0.48155,2.87708 -0.31623,2.19666 -1.98822,3.77342 -3.7332,3.52221"
       id="path2109" />
    <path
       style="fill:#86b450"
       inkscape:connector-curvature="0"
       d="m 258.64899,455.46382 c -0.006,-7.8e-4 -0.0101,-0.002 -0.016,-0.003 l 3.19602,-4.11773"
       id="path2111" />
    <path
       style="fill:#7fa144"
       inkscape:connector-curvature="0"
       d="m 259.29356,456.43135 c -0.39299,-0.0566 -0.74841,-0.21788 -1.05733,-0.46021 l 0.39678,-0.50979 c 0.006,7.7e-4 0.01,0.002 0.016,0.003 1.47369,0.21214 2.88856,-1.14288 3.15977,-3.02677 0.0541,-0.37527 0.0578,-0.74336 0.0204,-1.09342 l 0.2589,-0.33437 c 0.34598,0.66729 0.4929,1.50954 0.36578,2.39255 l -4.4e-4,0.003 c -0.27118,1.88374 -1.68606,3.23876 -3.15975,3.02661"
       id="path2113" />
  </g>
</svg>
