<?xml version="1.0" encoding="UTF-8" standalone="no"?>
<!-- Created with Inkscape (http://www.inkscape.org/) -->

<svg
   xmlns:dc="http://purl.org/dc/elements/1.1/"
   xmlns:cc="http://creativecommons.org/ns#"
   xmlns:rdf="http://www.w3.org/1999/02/22-rdf-syntax-ns#"
   xmlns:svg="http://www.w3.org/2000/svg"
   xmlns="http://www.w3.org/2000/svg"
   xmlns:sodipodi="http://sodipodi.sourceforge.net/DTD/sodipodi-0.dtd"
   xmlns:inkscape="http://www.inkscape.org/namespaces/inkscape"
   width="253"
   height="253"
   id="svg4149"
   version="1.1"
   inkscape:version="0.48.5 r10040"
   sodipodi:docname="logo-crown3.svg">
  <defs
     id="defs4151">
    <clipPath
       id="c"
       clipPathUnits="userSpaceOnUse">
      <path
         inkscape:connector-curvature="0"
         d="m 20427.9,881.301 -2865,3.398 62.2,82.703 2802.8,-19.101 v -67 m 0,340.099 h -2611.7 l 49.8,66.2 h 371.2 v 387.8 l -80.6,-1.5 24.7,32.7 496.4,-3.4 c -28,-45.7 -44.2,-99.4 -44.2,-157 0,-163.9 131.3,-297.2 294.5,-300.4 29.3,-9.6 60.6,-14.8 93.2,-14.8 166,0 300.5,134.6 300.5,300.6 0,62 -18.8,119.7 -51,167.6 l 923.4,-6.3 c -22.7,-48.1 -36,-106.2 -36,-168.7 0,-166 93.7,-300.5 209.2,-300.5 21.1,0 41.4,4.5 60.6,12.8 v -15.1 m -857.5,456.7 v -380.5 h 380.5 v 387.8 l -7.3,-7.3 7.3,7.3 -380.5,-7.3 m 857.5,286.3 h -2052.7 l 283.2,376.4 1769.5,17.5 v -393.9 m -685.7,14.8 c 10.9,-3.5 22.6,-5.5 34.7,-5.5 61.9,0 112,50.2 112,112 0,61.1 -48.9,110.7 -109.7,111.9 -10.9,3.6 -22.6,5.5 -34.7,5.5 -61.9,0 -112,-50.1 -112,-111.9 0,-61.1 48.9,-110.7 109.7,-112"
         id="path13" />
    </clipPath>
    <clipPath
       id="a"
       clipPathUnits="userSpaceOnUse">
      <path
         inkscape:connector-curvature="0"
         d="m 3039.42,1916.5 c -18.04,0 -34.26,16.4 -37.32,34.6 -3.3,19.7 5.57,39.7 18.23,55.1 22.45,27.4 57.9,43.1 93.16,43.1 2.05,0 4.09,0 6.14,-0.1 16.8,-0.9 26.48,-5.3 36.85,-18.4 13.36,-17 10.6,-35 -12.83,-39.8 -9.27,-1.9 -19.04,-1.7 -27.9,-5.1 -15.97,-6.1 -25.4,-22.2 -34.38,-36.7 -8.99,-14.6 -20.68,-29.9 -37.59,-32.4 -1.46,-0.2 -2.91,-0.3 -4.36,-0.3"
         id="path7" />
    </clipPath>
  </defs>
  <sodipodi:namedview
     id="base"
     pagecolor="#ffffff"
     bordercolor="#666666"
     borderopacity="1.0"
     inkscape:pageopacity="0.0"
     inkscape:pageshadow="2"
     inkscape:zoom="0.7"
     inkscape:cx="-402.60641"
     inkscape:cy="95.643021"
     inkscape:document-units="px"
     inkscape:current-layer="layer1"
     showgrid="false"
     fit-margin-top="1"
     fit-margin-left="1"
     fit-margin-right="1"
     fit-margin-bottom="1"
     inkscape:window-width="1920"
     inkscape:window-height="1017"
     inkscape:window-x="-8"
     inkscape:window-y="1072"
     inkscape:window-maximized="1" />
  <metadata
     id="metadata4154">
    <rdf:RDF>
      <cc:Work
         rdf:about="">
        <dc:format>image/svg+xml</dc:format>
        <dc:type
           rdf:resource="http://purl.org/dc/dcmitype/StillImage" />
        <dc:title></dc:title>
      </cc:Work>
    </rdf:RDF>
  </metadata>
  <g
     inkscape:label="Layer 1"
     inkscape:groupmode="layer"
     id="layer1"
     transform="translate(-150.94477,-381.14375)">
    <g
       transform="matrix(1.25,0,0,-1.25,103.26841,967.36591)"
       id="g4105">
      <g
         transform="translate(161.0415,288.0728)"
         id="g20">
        <path
           inkscape:connector-curvature="0"
           id="path22"
           style="fill:#ac5d3d;fill-opacity:1;fill-rule:nonzero;stroke:none"
           d="m 0,0 c 0,0 59.721,-3.3 52.749,50.653 -6.954,53.81 -48.437,73.384 -25.436,117.331 0,0 -63.417,-5.134 -64.706,-70.232 -1.392,-70.344 28.357,-83.377 28.357,-83.377 l 6.983,-17.25" />
      </g>
      <g
         transform="translate(91.7842,337.1763)"
         id="g24">
        <path
           inkscape:connector-curvature="0"
           id="path26"
           style="fill:#c06846;fill-opacity:1;fill-rule:nonzero;stroke:none"
           d="m 0,0 c 0,-10.844 -5.93,-19.634 -13.246,-19.634 -7.316,0 -13.245,8.79 -13.245,19.634 0,10.842 5.929,19.632 13.245,19.632 C -5.93,19.632 0,10.842 0,0" />
      </g>
      <g
         transform="translate(92.7505,346.1899)"
         id="g28">
        <path
           inkscape:connector-curvature="0"
           id="path30"
           style="fill:#ac5d3d;fill-opacity:1;fill-rule:nonzero;stroke:none"
           d="m 0,0 c 0,-4.26 -6.824,-2.053 -14.674,-2.053 -7.849,0 -13.751,-2.207 -13.751,2.053 0,4.261 6.364,12.912 14.213,12.912 C -6.362,12.912 0,4.261 0,0" />
      </g>
      <g
         transform="translate(104.7583,369.1904)"
         id="g32">
        <path
           inkscape:connector-curvature="0"
           id="path34"
           style="fill:#c06846;fill-opacity:1;fill-rule:nonzero;stroke:none"
           d="m 0,0 c 0,0 2.773,-23.749 22.179,-39.737 9.824,-8.096 16.737,-16.532 18.02,-29.88 1.378,-14.331 -7.17,-29.878 -22.949,-31.009 0,0 -46.822,-2.67 -46.976,0 -0.154,2.67 1.386,7.598 10.165,7.752 8.779,0.154 10.782,-0.308 10.782,-0.308 0,0 -15.448,5.307 -14.016,24.952 1.078,14.785 14.17,17.324 14.17,17.324 -4.159,17.405 5.046,44.437 5.046,44.437 l -8.897,5.391" />
      </g>
      <g
         transform="translate(99.0234,375.9673)"
         id="g36">
        <path
           inkscape:connector-curvature="0"
           id="path38"
           style="fill:#ffb169;fill-opacity:1;fill-rule:nonzero;stroke:none"
           d="M 0,0 C 0,0 -2.28,-19.107 -4.775,-39.891 -7.482,-62.45 -15.248,-81.63 1.54,-95.8 c 21.186,-17.882 50.519,1.848 45.59,20.946 -4.929,19.099 -27.649,65.293 -27.649,65.293 L 0,0 z" />
      </g>
      <g
         transform="translate(110.4106,422.3096)"
         id="g40">
        <path
           inkscape:connector-curvature="0"
           id="path42"
           style="fill:#c06846;fill-opacity:1;fill-rule:nonzero;stroke:none"
           d="m 0,0 c 0,0 -3.41,11.614 -2.13,21.184 1.28,9.57 -6.191,2.421 -8.918,-11.915 -1.708,-8.983 -5.547,-12.956 -5.547,-12.956 L 0,0 z" />
      </g>
      <g
         transform="translate(121.6274,420.5669)"
         id="g44">
        <path
           inkscape:connector-curvature="0"
           id="path46"
           style="fill:#c06846;fill-opacity:1;fill-rule:nonzero;stroke:none"
           d="m 0,0 c 0,0 6.773,10.032 8.457,19.539 1.685,9.507 6.634,0.428 4.882,-14.06 -1.097,-9.078 1.355,-14.027 1.355,-14.027 L 0,0 z" />
      </g>
      <g
         transform="translate(132.9077,369.1904)"
         id="g48">
        <path
           inkscape:connector-curvature="0"
           id="path50"
           style="fill:#dd7952;fill-opacity:1;fill-rule:nonzero;stroke:none"
           d="m 0,0 c 0,0 2.773,-23.749 22.179,-39.737 9.824,-8.096 16.737,-16.532 18.02,-29.88 1.378,-14.331 -7.17,-29.878 -22.949,-31.009 0,0 -46.822,-2.67 -46.976,0 -0.154,2.67 1.386,7.598 10.165,7.752 8.779,0.154 10.782,-0.308 10.782,-0.308 0,0 -15.448,5.307 -14.016,24.952 1.078,14.785 14.17,17.324 14.17,17.324 -4.159,17.405 -13.554,46.285 -13.554,46.285 l 9.703,3.543" />
      </g>
      <g
         transform="translate(148.5356,377.0708)"
         id="g52">
        <path
           inkscape:connector-curvature="0"
           id="path54"
           style="fill:#dd7b51;fill-opacity:1;fill-rule:nonzero;stroke:none"
           d="m 0,0 c -11.914,-27.726 -38.99,-23.345 -42.908,-22.562 -3.996,0.447 -31.101,4.484 -34.04,34.518 0,0 8.129,3.201 10.38,12.078 2.221,8.833 14.442,28.581 33.898,19.298 C -11.315,46.274 -5.662,23.749 -6.226,14.658 -6.773,5.517 0,0 0,0" />
      </g>
      <g
         transform="translate(83.7754,335.7681)"
         id="g56">
        <path
           inkscape:connector-curvature="0"
           id="path58"
           style="fill:#dd7952;fill-opacity:1;fill-rule:nonzero;stroke:none"
           d="m 0,0 c 0,0 10.771,-0.925 19.397,8.625 8.626,9.551 12.052,19.684 22.511,11.998 10.459,-7.685 5.684,-27.176 -11.104,-31.831 -16.788,-4.656 -34.038,2.275 -37.273,7.204 -3.234,4.928 1.49,9.297 3.44,7.753 C -0.21,1.516 0,0 0,0" />
      </g>
      <g
         transform="translate(148.5356,377.0708)"
         id="g60">
        <path
           inkscape:connector-curvature="0"
           id="path62"
           style="fill:#ffb169;fill-opacity:1;fill-rule:nonzero;stroke:none"
           d="m 0,0 c -11.914,-27.726 -38.99,-23.345 -42.908,-22.562 -3.996,0.447 -31.101,4.484 -34.04,34.518 0,0 14.239,-11.241 24.669,-6.227 10.434,5.037 14.573,5.191 14.573,5.191 0,0 3.896,-1.402 12.31,-9.368 C -16.978,-6.39 0,0 0,0" />
      </g>
      <g
         transform="translate(109.9019,383.7529)"
         id="g64">
        <path
           inkscape:connector-curvature="0"
           id="path66"
           style="fill:#1a0200;fill-opacity:1;fill-rule:nonzero;stroke:none"
           d="M 0,0 C 0,0 -4.121,4.529 -2.401,5.568 -0.681,6.607 4.009,5.689 4.188,4.337 4.368,2.984 1.549,-0.241 0,0" />
      </g>
      <g
         transform="translate(99.2773,396.833)"
         id="g68">
        <path
           inkscape:connector-curvature="0"
           id="path70"
           style="fill:#1a0200;fill-opacity:1;fill-rule:nonzero;stroke:none"
           d="m 0,0 c -0.193,-1.24 -1.354,-2.089 -2.593,-1.896 -1.241,0.192 -2.089,1.354 -1.897,2.594 0.193,1.239 1.354,2.089 2.594,1.896 C -0.656,2.401 0.192,1.24 0,0" />
      </g>
      <g
         transform="translate(111.2783,376.6382)"
         id="g72">
        <path
           inkscape:connector-curvature="0"
           id="path74"
           style="fill:#ffffff;fill-opacity:1;fill-rule:nonzero;stroke:none"
           d="m 0,0 c -0.295,-0.776 -0.586,-2.034 -0.71,-2.188 -0.425,-0.484 -1.835,0.051 -1.835,0.051 0,0 -1.369,0.338 -1.694,0.488 -0.139,0.072 -0.219,1.005 -0.292,2.14 2.095,1.919 3.125,5.5 3.366,6.41 C -1.141,6.898 -1.141,6.898 -1.12,6.869 -1.187,5.807 -1.72,2.413 0,0" />
      </g>
      <g
         transform="translate(117.6177,374.2187)"
         id="g76">
        <path
           inkscape:connector-curvature="0"
           id="path78"
           style="fill:#dd7b51;fill-opacity:1;fill-rule:nonzero;stroke:none"
           d="M 0,0 C -0.238,-0.193 -0.523,-0.322 -0.811,-0.437 -1.109,-0.509 -1.409,-0.628 -1.724,-0.626 L -2.196,-0.65 c -0.156,0.015 -0.311,0.046 -0.467,0.068 l -0.469,0.078 -0.441,0.169 c -0.293,0.115 -0.603,0.209 -0.85,0.405 L -5.21,0.591 c -0.254,0.228 -0.463,0.39 -0.669,0.676 -0.225,0.257 -0.376,0.548 -0.525,0.799 -0.156,0.261 -0.309,0.522 -0.409,0.833 -0.108,0.299 -0.241,0.595 -0.323,0.896 -0.149,0.604 -0.296,1.207 -0.352,1.823 -0.074,0.611 -0.107,1.227 -0.108,1.84 -0.001,0.613 0.042,1.226 0.117,1.832 l 0,-10e-4 0.033,0.247 0.007,-0.247 0,-0.002 C -7.425,8.678 -7.395,8.072 -7.333,7.469 -7.287,6.867 -7.21,6.266 -7.094,5.677 -7.027,5.384 -6.992,5.084 -6.916,4.795 L -6.678,3.933 C -6.596,3.648 -6.472,3.389 -6.373,3.115 -6.29,2.842 -6.128,2.581 -5.974,2.317 -5.815,2.042 -5.687,1.79 -5.511,1.585 -5.374,1.364 -5.101,1.141 -4.913,0.954 L -4.196,0.44 C -3.967,0.247 -3.694,0.143 -3.43,0.015 l 0.399,-0.19 0.426,-0.101 c 0.143,-0.032 0.286,-0.072 0.43,-0.098 l 0.441,-0.012 c 0.298,-0.04 0.588,0.039 0.886,0.074 C -0.56,-0.23 -0.269,-0.15 0,0" />
      </g>
      <g
         transform="translate(100.1826,376.9277)"
         id="g80">
        <path
           inkscape:connector-curvature="0"
           id="path82"
           style="fill:#dd7b51;fill-opacity:1;fill-rule:nonzero;stroke:none"
           d="M 0,0 C 0,0 0.155,-0.181 0.489,-0.402 0.647,-0.527 0.864,-0.638 1.117,-0.75 1.36,-0.881 1.679,-0.918 1.994,-1.023 2.332,-1.024 2.69,-1.13 3.073,-1.054 c 0.382,0.056 0.784,0.076 1.18,0.24 0.201,0.064 0.404,0.13 0.61,0.197 0.163,0.029 0.384,0.199 0.577,0.289 l 0.302,0.165 0.245,0.206 c 0.158,0.144 0.339,0.263 0.481,0.421 0.309,0.342 0.668,0.663 0.896,1.029 0.13,0.177 0.259,0.352 0.386,0.526 0.113,0.188 0.225,0.374 0.335,0.557 0.442,0.732 0.79,1.46 1.067,2.093 0.265,0.638 0.488,1.173 0.62,1.557 0.138,0.382 0.217,0.601 0.217,0.601 0,0 -0.045,-0.228 -0.123,-0.628 C 9.772,5.803 9.642,5.232 9.415,4.568 9.175,3.911 8.899,3.133 8.468,2.359 8.266,1.968 8.032,1.57 7.739,1.189 7.479,0.777 7.142,0.472 6.833,0.122 6.662,-0.062 6.452,-0.202 6.262,-0.363 L 5.971,-0.593 5.667,-0.753 C 5.449,-0.854 5.304,-0.981 5.026,-1.052 4.804,-1.115 4.584,-1.177 4.368,-1.239 3.945,-1.399 3.497,-1.389 3.086,-1.417 c -0.411,-0.048 -0.8,0.089 -1.153,0.121 -0.336,0.129 -0.661,0.212 -0.9,0.381 -0.25,0.149 -0.457,0.29 -0.604,0.437 C 0.117,-0.206 0,0 0,0" />
      </g>
      <g
         transform="translate(79.4629,357.8701)"
         id="g84">
        <path
           inkscape:connector-curvature="0"
           id="path86"
           style="fill:#ac5d3d;fill-opacity:1;fill-rule:nonzero;stroke:none"
           d="M 0,0 C 0,0 0.183,7.239 -3.258,7.162 -6.7,7.085 -1.463,3.773 -1.232,0 -1.001,-3.773 0.001,-0.308 0.001,-0.308" />
      </g>
      <g
         transform="translate(127.4736,392.4521)"
         id="g88">
        <path
           inkscape:connector-curvature="0"
           id="path90"
           style="fill:#1a0200;fill-opacity:1;fill-rule:nonzero;stroke:none"
           d="m 0,0 c -0.193,-1.24 -1.354,-2.089 -2.594,-1.896 -1.24,0.192 -2.089,1.354 -1.896,2.594 0.193,1.239 1.354,2.089 2.594,1.896 C -0.656,2.401 0.192,1.24 0,0" />
      </g>
      <g
         transform="translate(126.7358,393.4897)"
         id="g92">
        <path
           inkscape:connector-curvature="0"
           id="path94"
           style="fill:#ffffff;fill-opacity:1;fill-rule:nonzero;stroke:none"
           d="m 0,0 c -0.042,-0.273 -0.298,-0.46 -0.571,-0.417 -0.274,0.042 -0.46,0.297 -0.418,0.571 0.043,0.273 0.298,0.46 0.572,0.417 C -0.144,0.529 0.042,0.273 0,0" />
      </g>
      <g
         transform="translate(98.6313,397.8564)"
         id="g96">
        <path
           inkscape:connector-curvature="0"
           id="path98"
           style="fill:#ffffff;fill-opacity:1;fill-rule:nonzero;stroke:none"
           d="m 0,0 c -0.042,-0.273 -0.298,-0.46 -0.571,-0.417 -0.274,0.042 -0.461,0.297 -0.418,0.571 0.042,0.273 0.298,0.46 0.571,0.417 C -0.144,0.529 0.042,0.273 0,0" />
      </g>
      <g
         transform="translate(109.9565,388.4863)"
         id="g100">
        <path
           inkscape:connector-curvature="0"
           id="path102"
           style="fill:#ffffff;fill-opacity:1;fill-rule:nonzero;stroke:none"
           d="m 0,0 c -0.03,-0.195 -0.276,-0.319 -0.55,-0.276 -0.273,0.042 -0.47,0.234 -0.439,0.429 0.03,0.197 0.276,0.32 0.549,0.278 C -0.166,0.388 0.031,0.196 0,0" />
      </g>
    </g>
    <g
       id="g5146"
       transform="matrix(0.08139589,0.01198169,-0.01198169,0.08139589,235.95741,387.53475)">
      <path
         id="path17"
         d="m 271.51311,104.95022 c 0,17.653 -14.302,31.947 -31.944,31.947 -17.642,0 -31.943,-14.294 -31.943,-31.947 0,-17.639995 14.301,-31.932995 31.943,-31.932995 17.642,0 31.944,14.293 31.944,31.932995"
         inkscape:connector-curvature="0"
         style="fill:#e8cc42" />
      <path
         id="path19"
         d="m 246.96911,73.830225 c 5.952,5.813 9.652,13.907 9.652,22.88 0,17.639995 -14.302,31.932995 -31.943,31.932995 -2.476,0 -4.884,-0.28 -7.197,-0.813 5.756,5.6 13.617,9.067 22.29,9.067 17.643,0 31.944,-14.294 31.944,-31.947 0,-15.159995 -10.572,-27.852995 -24.746,-31.119995"
         inkscape:connector-curvature="0"
         style="fill:#e2b33d" />
      <path
         id="path21"
         d="m 666.47708,414.32322 c -11.571,-52.306 -25.494,-134.226 -161.65097,-176.533 -134.779,-41.88 -240.953,-108.067 -243.483,-109.467 l -41.592,1.68 c -2.522,1.4 -106.044,66.414 -240.656999,108.84 -135.987001,42.84 -149.585001,124.814 -160.948001,177.16 -11.363,52.347 7.4,298.58695 7.4,298.58695 l 13.539,-9.213 403.88,54.52 h 0.06 l 403.66197,-56.12 13.574,9.16 c 0,0 17.785,-246.30695 6.216,-298.61395"
         inkscape:connector-curvature="0"
         style="fill:#c13d1a" />
      <path
         id="path23"
         d="m 666.72408,414.32322 c -11.569,-52.306 -25.493,-134.226 -161.64697,-176.533 -134.78,-41.88 -241.204,-108.067 -243.734,-109.467 0,0 -31.829,-3.493 -41.592,1.68 22.667,44.227 47.828,93.134 73.986,136.12 28.816,47.347 60.248,101.414 49.277,159.147 -8.01,42.16 -37.976,76.947 -71.348,103.92 -42.183,34.107 -92.17,59.373 -145.62,68.6 -76.331999,13.187 -154.204999,-6.52 -231.664,-7.333 -25.03,-0.254 -51.325,2.306 -75.823,9.013 3.195,62.08 7.236,115.12005 7.236,115.12005 l 13.538,-9.213 403.881,54.52 h 0.06 l 403.66397,-56.12 13.572,9.16 c 0,0 17.787,-246.30705 6.215,-298.61405"
         inkscape:connector-curvature="0"
         style="fill:#a52f17" />
      <path
         id="path25"
         d="m 661.31408,658.33722 0.01,0.28 c 0,21.2 -20.314,38.38595 -45.373,38.38595 -25.05797,0 -45.37197,-17.18595 -45.37197,-38.38595 l 0.01,-0.28 h -17.818 l 0.01,0.28 c 0,21.2 -19.886,38.38595 -44.418,38.38595 -24.532,0 -44.417,-17.18595 -44.417,-38.38595 l 0.008,-0.28 h -17.855 c 0.023,0.506 0.044,1.026 0.044,1.546 0,21.2 -19.776,38.38705 -44.17,38.38705 -24.396,0 -44.172,-17.18705 -44.172,-38.38705 0,-0.52 0.021,-1.04 0.045,-1.546 h -18.347 l 0.007,0.28 c 0,21.2 -19.776,38.38605 -44.17,38.38605 -24.395,0 -44.174,-17.18605 -44.174,-38.38605 l 0.01,-0.28 h -17.582 c 0,21.186 -19.776,38.37305 -44.17,38.37305 -24.397,0 -44.173,-17.18705 -44.173,-38.37305 h -18.33 c 0.014,0.413 0.036,0.826 0.036,1.253 0,21.2 -19.776,38.38705 -44.170999,38.38705 -24.397,0 -44.172,-17.18705 -44.172,-38.38705 0,-0.427 0.02,-0.84 0.036,-1.253 h -17.837 c 0,21.186 -19.88699987,38.37305 -44.419,38.37305 -24.532,0 -44.419,-17.18705 -44.419,-38.37305 h -17.801 c 0,21.186 -20.315001,38.37305 -45.372001,38.37305 -25.059,0 -45.372,-17.18705 -45.372,-38.37305 h -14.317 V 855.27027 H 675.52708 V 658.33722 h -14.209"
         inkscape:connector-curvature="0"
         style="fill:#e8cc42" />
      <path
         id="path27"
         d="m 688.81008,825.33717 h -891.56997 v -15.4139 h 891.56997 v 15.4139"
         inkscape:connector-curvature="0"
         style="fill:#f4d347" />
      <path
         id="path29"
         d="m -191.13089,825.33717 v 14.9601 l 868.05197,6.0399 v -21 h -868.05197"
         inkscape:connector-curvature="0"
         style="fill:#e2b33d" />
      <path
         id="path31"
         d="m 688.81008,767.60327 h -891.56997 v -15.413 h 891.56997 v 15.413"
         inkscape:connector-curvature="0"
         style="fill:#f4d347" />
      <path
         id="path33"
         d="m -191.13089,767.60327 v 14.96 l 868.05197,6.04 v -21 h -868.05197"
         inkscape:connector-curvature="0"
         style="fill:#e2b33d" />
      <path
         id="path35"
         d="m -149.73589,810.32327 h -41.16 v -41.16 h 41.16 v 41.16"
         inkscape:connector-curvature="0"
         style="fill:#f4d347" />
      <path
         id="path37"
         d="m -190.89589,809.52327 41.16,-41.16 v 41.16 z"
         inkscape:connector-curvature="0"
         style="fill:#e2b33d" />
      <path
         id="path39"
         d="m -170.31589,788.95027 20.58,20.573 h -41.16 z"
         inkscape:connector-curvature="0"
         style="fill:#d3a43c" />
      <path
         id="path41"
         d="m -190.89589,769.16327 20.58,19.787 20.58,-20.587 z"
         inkscape:connector-curvature="0"
         style="fill:#fff250" />
      <path
         id="path43"
         d="m -64.741889,810.32327 h -41.159001 v -41.16 h 41.159001 v 41.16"
         inkscape:connector-curvature="0"
         style="fill:#f4d347" />
      <path
         id="path45"
         d="m -105.90089,809.52327 41.159001,-41.16 v 41.16 z"
         inkscape:connector-curvature="0"
         style="fill:#e2b33d" />
      <path
         id="path47"
         d="m -85.321889,788.95027 20.58,20.573 h -41.159001 z"
         inkscape:connector-curvature="0"
         style="fill:#d3a43c" />
      <path
         id="path49"
         d="m -105.90089,769.16327 20.579001,19.787 20.58,-20.587 z"
         inkscape:connector-curvature="0"
         style="fill:#fff250" />
      <path
         id="path51"
         d="m 20.254111,810.32327 h -41.16 v -41.16 h 41.16 v 41.16"
         inkscape:connector-curvature="0"
         style="fill:#f4d347" />
      <path
         id="path53"
         d="m -20.905889,809.52327 41.16,-41.16 v 41.16 z"
         inkscape:connector-curvature="0"
         style="fill:#e2b33d" />
      <path
         id="path55"
         d="m -0.32588887,788.95027 20.57999987,20.573 h -41.16 z"
         inkscape:connector-curvature="0"
         style="fill:#d3a43c" />
      <path
         id="path57"
         d="m -20.905889,769.16327 20.58000013,19.787 20.57999987,-20.587 z"
         inkscape:connector-curvature="0"
         style="fill:#fff250" />
      <path
         id="path59"
         d="M 105.24911,810.32327 H 64.090111 v -41.16 h 41.158999 v 41.16"
         inkscape:connector-curvature="0"
         style="fill:#f4d347" />
      <path
         id="path61"
         d="m 64.090111,809.52327 41.158999,-41.16 v 41.16 z"
         inkscape:connector-curvature="0"
         style="fill:#e2b33d" />
      <path
         id="path63"
         d="m 84.669111,788.95027 20.579999,20.573 H 64.090111 z"
         inkscape:connector-curvature="0"
         style="fill:#d3a43c" />
      <path
         id="path65"
         d="m 64.090111,769.16327 20.579,19.787 20.579999,-20.587 z"
         inkscape:connector-curvature="0"
         style="fill:#fff250" />
      <path
         id="path67"
         d="m 190.24411,810.32327 h -41.16 v -41.16 h 41.16 v 41.16"
         inkscape:connector-curvature="0"
         style="fill:#f4d347" />
      <path
         id="path69"
         d="m 149.08411,809.52327 41.16,-41.16 v 41.16 z"
         inkscape:connector-curvature="0"
         style="fill:#e2b33d" />
      <path
         id="path71"
         d="m 169.66411,788.95027 20.58,20.573 h -41.16 z"
         inkscape:connector-curvature="0"
         style="fill:#d3a43c" />
      <path
         id="path73"
         d="m 149.08411,769.16327 20.58,19.787 20.58,-20.587 z"
         inkscape:connector-curvature="0"
         style="fill:#fff250" />
      <path
         id="path75"
         d="m 275.23911,810.32327 h -41.16 v -41.16 h 41.16 v 41.16"
         inkscape:connector-curvature="0"
         style="fill:#f4d347" />
      <path
         id="path77"
         d="m 234.07911,809.52327 41.16,-41.16 v 41.16 z"
         inkscape:connector-curvature="0"
         style="fill:#e2b33d" />
      <path
         id="path79"
         d="m 254.65911,788.95027 20.58,20.573 h -41.16 z"
         inkscape:connector-curvature="0"
         style="fill:#d3a43c" />
      <path
         id="path81"
         d="m 234.07911,769.16327 20.58,19.787 20.58,-20.587 z"
         inkscape:connector-curvature="0"
         style="fill:#fff250" />
      <path
         id="path83"
         d="m 360.23411,810.32327 h -41.16 v -41.16 h 41.16 v 41.16"
         inkscape:connector-curvature="0"
         style="fill:#f4d347" />
      <path
         id="path85"
         d="m 319.07411,809.52327 41.16,-41.16 v 41.16 z"
         inkscape:connector-curvature="0"
         style="fill:#e2b33d" />
      <path
         id="path87"
         d="m 339.65411,788.95027 20.58,20.573 h -41.16 z"
         inkscape:connector-curvature="0"
         style="fill:#d3a43c" />
      <path
         id="path89"
         d="m 319.07411,769.16327 20.58,19.787 20.58,-20.587 z"
         inkscape:connector-curvature="0"
         style="fill:#fff250" />
      <path
         id="path91"
         d="m 445.22911,810.32327 h -41.159 v -41.16 h 41.159 v 41.16"
         inkscape:connector-curvature="0"
         style="fill:#f4d347" />
      <path
         id="path93"
         d="m 404.07011,809.52327 41.159,-41.16 v 41.16 z"
         inkscape:connector-curvature="0"
         style="fill:#e2b33d" />
      <path
         id="path95"
         d="m 424.65011,788.95027 20.579,20.573 h -41.159 z"
         inkscape:connector-curvature="0"
         style="fill:#d3a43c" />
      <path
         id="path97"
         d="m 404.07011,769.16327 20.58,19.787 20.579,-20.587 z"
         inkscape:connector-curvature="0"
         style="fill:#fff250" />
      <path
         id="path99"
         d="m 530.22411,810.32327 h -41.16 v -41.16 h 41.16 v 41.16"
         inkscape:connector-curvature="0"
         style="fill:#f4d347" />
      <path
         id="path101"
         d="m 489.06411,809.52327 41.16,-41.16 v 41.16 z"
         inkscape:connector-curvature="0"
         style="fill:#e2b33d" />
      <path
         id="path103"
         d="m 509.64411,788.95027 20.58,20.573 h -41.16 z"
         inkscape:connector-curvature="0"
         style="fill:#d3a43c" />
      <path
         id="path105"
         d="m 489.06411,769.16327 20.58,19.787 20.58,-20.587 z"
         inkscape:connector-curvature="0"
         style="fill:#fff250" />
      <path
         id="path107"
         d="m 615.21908,810.32327 h -41.15797 v -41.16 h 41.15797 v 41.16"
         inkscape:connector-curvature="0"
         style="fill:#f4d347" />
      <path
         id="path109"
         d="m 574.06111,809.52327 41.15797,-41.16 v 41.16 z"
         inkscape:connector-curvature="0"
         style="fill:#e2b33d" />
      <path
         id="path111"
         d="m 594.64108,788.95027 20.578,20.573 h -41.15797 z"
         inkscape:connector-curvature="0"
         style="fill:#d3a43c" />
      <path
         id="path113"
         d="m 574.06111,769.16327 20.57997,19.787 20.578,-20.587 z"
         inkscape:connector-curvature="0"
         style="fill:#fff250" />
      <path
         id="path115"
         d="m 681.58108,811.11027 h -41.159 v -41.16 h 41.159 v 41.16"
         inkscape:connector-curvature="0"
         style="fill:#f4d347" />
      <path
         id="path117"
         d="m 640.42208,810.32327 41.159,-41.16 v 41.16 z"
         inkscape:connector-curvature="0"
         style="fill:#e2b33d" />
      <path
         id="path119"
         d="m 661.00208,789.73727 20.579,20.586 h -41.159 z"
         inkscape:connector-curvature="0"
         style="fill:#d3a43c" />
      <path
         id="path121"
         d="m 640.42208,769.95027 20.58,19.787 20.579,-20.574 z"
         inkscape:connector-curvature="0"
         style="fill:#fff250" />
      <path
         id="path123"
         d="m 234.07911,702.93717 h 17.803 V 436.83022 h -17.803 z"
         inkscape:connector-curvature="0"
         style="fill:#e8cc42" />
      <path
         id="path125"
         d="m 333.96411,375.97722 c -4.126,-21.214 -17.683,-32.414 -37.134,-31.827 -19.452,0.587 -38.315,37.72 -38.315,37.72 l -5.304,-1.173 c 0,0 16.504,-37.134 18.274,-64.254 1.768,-27.106 -10.083,-32.853 -17.419,-41.266 -8.663,-9.947 -11.087,-27.694 -11.087,-27.694 0,0 -2.422,17.747 -11.085,27.694 -7.336,8.413 -19.187,14.16 -17.417,41.266 1.769,27.12 18.272,64.254 18.272,64.254 l -5.304,1.173 c 0,0 -18.863,-37.133 -38.315,-37.72 -19.45,-0.587 -33.008,10.613 -37.135,31.827 -4.126,21.226 15.915,37.733 15.915,37.733 0,0 5.937,-35.067 38.353,-19.92 21.182,9.893 15.876,70.013 15.876,70.013 h 41.683 c 0,0 -5.307,-60.12 15.875,-70.013 32.417,-15.147 38.353,19.92 38.353,19.92 0,0 20.041,-16.507 15.915,-37.733 m -188.721,306.76 h -17.802 v -363.814 h 17.801 v 363.814"
         inkscape:connector-curvature="0"
         style="fill:#e8cc42" />
      <path
         id="path127"
         d="m 169.66211,449.47022 c 0,18.413 -14.917,33.32 -33.32,33.32 -18.401,0 -33.319,-14.907 -33.319,-33.32 0,-18.4 14.918,-33.307 33.319,-33.307 18.403,0 33.32,14.907 33.32,33.307 m -10.861,-138.387 c 0,12.4 -10.055,22.454 -22.459,22.454 -12.403,0 -22.457,-10.054 -22.457,-22.454 0,-12.4 10.054,-22.453 22.457,-22.453 12.404,0 22.459,10.053 22.459,22.453 M 20.804111,702.79017 h 17.802 V 436.68322 h -17.802 z"
         inkscape:connector-curvature="0"
         style="fill:#e8cc42" />
      <path
         id="path129"
         d="m 120.68911,375.83022 c -4.126,-21.227 -17.683,-32.427 -37.133999,-31.827 -19.452,0.587 -38.314,37.72 -38.314,37.72 l -5.304,-1.173 c 0,0 16.504,-37.147 18.272,-64.253 1.768,-27.12 -10.083,-32.867 -17.419,-41.28 -8.661,-9.934 -11.085,-27.68 -11.085,-27.68 0,0 -2.424,17.746 -11.087,27.68 -7.335,8.413 -19.18499987,14.16 -17.4169999,41.28 1.768,27.106 18.2719999,64.253 18.2719999,64.253 l -5.304,1.173 c 0,0 -18.8619999,-37.133 -38.314,-37.72 -19.452,-0.6 -33.009,10.6 -37.134,31.827 -4.127,21.213 15.913,37.72 15.913,37.72 0,0 5.939,-35.067 38.3530001,-19.92 21.1819999,9.907 15.876,70.027 15.876,70.027 H 50.546111 c 0,0 -5.305,-60.12 15.876,-70.027 32.416,-15.147 38.352999,19.92 38.352999,19.92 0,0 20.04,-16.507 15.914,-37.72 m -311.252,326.22695 h 13.985 V 435.93722 h -13.985 z"
         inkscape:connector-curvature="0"
         style="fill:#e8cc42" />
      <path
         id="path131"
         d="m -112.08889,375.08322 c -3.241,-21.213 -13.892,-32.413 -29.176,-31.826 -15.281,0.586 -30.1,37.733 -30.1,37.733 l -4.166,-1.187 c 0,0 12.965,-37.133 14.354,-64.253 1.39,-27.107 -7.92,-32.853 -13.684,-41.267 -6.806,-9.933 -8.709,-27.693 -8.709,-27.693 0,0 -1.904,17.76 -8.71,27.693 -5.763,8.414 -15.074,14.16 -13.685,41.267 1.39,27.12 14.356,64.253 14.356,64.253 l -4.168,1.187 c 0,0 -14.818,-37.147 -30.1,-37.733 -15.282,-0.587 -25.933,10.613 -29.174,31.826 -3.243,21.227 12.502,37.734 12.502,37.734 0,0 4.664,-35.067 30.131,-19.92 16.641,9.893 12.473,70.013 12.473,70.013 h 32.747 c 0,0 -4.167,-60.12 12.473,-70.013 25.468,-15.147 30.132,19.92 30.132,19.92 0,0 15.746,-16.507 12.504,-37.734 m 44.056001,307.494 h -17.801 v -363.814 h 17.801 v 363.814"
         inkscape:connector-curvature="0"
         style="fill:#e8cc42" />
      <path
         id="path133"
         d="m -43.613889,449.32322 c 0,18.4 -14.917,33.32 -33.319,33.32 -18.401,0 -33.320001,-14.92 -33.320001,-33.32 0,-18.4 14.919001,-33.32 33.320001,-33.32 18.402,0 33.319,14.92 33.319,33.32 m -10.862,-138.386 c 0,12.4 -10.054,22.453 -22.457,22.453 -12.402,0 -22.457,-10.053 -22.457,-22.453 0,-12.414 10.055,-22.467 22.457,-22.467 12.403,0 22.458,10.053 22.458,22.467 M 232.86411,703.23017 h 17.802 V 437.12322 h -17.801 z"
         inkscape:connector-curvature="0"
         style="fill:#e8cc42" />
      <path
         id="path135"
         d="m 150.78111,376.27022 c 4.125,-21.213 17.682,-32.413 37.134,-31.827 19.452,0.587 38.314,37.72 38.314,37.72 l 5.305,-1.173 c 0,0 -16.504,-37.133 -18.272,-64.253 -1.77,-27.107 10.081,-32.854 17.416,-41.267 8.664,-9.947 11.087,-27.693 11.087,-27.693 0,0 2.424,17.746 11.086,27.693 7.336,8.413 19.187,14.16 17.419,41.267 -1.77,27.12 -18.273,64.253 -18.273,64.253 l 5.305,1.173 c 0,0 18.861,-37.133 38.313,-37.72 19.451,-0.586 33.008,10.614 37.135,31.827 4.127,21.227 -15.915,37.733 -15.915,37.733 0,0 -5.937,-35.066 -38.353,-19.92 -21.18,9.894 -15.876,70.014 -15.876,70.014 h -41.681 c 0,0 5.304,-60.12 -15.876,-70.014 -32.416,-15.146 -38.354,19.92 -38.354,19.92 0,0 -20.04,-16.506 -15.914,-37.733 m 188.721,306.76 h 17.803 v -363.813 h -17.803 v 363.813"
         inkscape:connector-curvature="0"
         style="fill:#e8cc42" />
      <path
         id="path137"
         d="m 315.08411,449.76322 c 0,18.414 14.918,33.32 33.32,33.32 18.4,0 33.318,-14.906 33.318,-33.32 0,-18.4 -14.917,-33.306 -33.319,-33.306 -18.401,0 -33.318,14.906 -33.318,33.306 m 10.861,-138.386 c 0,12.4 10.055,22.453 22.457,22.453 12.403,0 22.458,-10.053 22.458,-22.453 0,-12.4 -10.055,-22.454 -22.458,-22.454 -12.402,0 -22.457,10.054 -22.457,22.454 m 120.193,391.70595 h 17.803 V 436.96322 h -17.803 z"
         inkscape:connector-curvature="0"
         style="fill:#e8cc42" />
      <path
         id="path139"
         d="m 364.05511,376.12322 c 4.127,-21.226 17.684,-32.426 37.136,-31.826 19.452,0.586 38.314,37.72 38.314,37.72 l 5.305,-1.187 c 0,0 -16.504,-37.133 -18.273,-64.24 -1.77,-27.12 10.082,-32.867 17.417,-41.28 8.664,-9.933 11.087,-27.693 11.087,-27.693 0,0 2.424,17.76 11.086,27.693 7.336,8.413 19.187,14.16 17.418,41.28 -1.768,27.107 -18.272,64.24 -18.272,64.24 l 5.304,1.187 c 0,0 18.862,-37.134 38.313,-37.72 19.452,-0.6 33.01,10.6 37.136,31.826 4.127,21.214 -15.916,37.72 -15.916,37.72 0,0 -5.936,-35.066 -38.352,-19.92 -21.181,9.907 -15.876,70.027 -15.876,70.027 h -41.683 c 0,0 5.306,-60.12 -15.874,-70.027 -32.418,-15.146 -38.354,19.92 -38.354,19.92 0,0 -20.042,-16.506 -15.916,-37.72 m 297.26897,326.22695 h 13.984 V 436.23022 h -13.985 z"
         inkscape:connector-curvature="0"
         style="fill:#e8cc42" />
      <path
         id="path141"
         d="m 596.83508,375.37722 c 3.242,-21.214 13.892,-32.414 29.174,-31.827 15.282,0.587 30.101,37.733 30.101,37.733 l 4.168,-1.186 c 0,0 -12.967,-37.134 -14.355,-64.254 -1.389,-27.106 7.92,-32.853 13.683,-41.266 6.807,-9.934 8.71,-27.694 8.71,-27.694 0,0 1.905,17.76 8.71,27.694 5.763,8.413 15.072,14.16 13.685,41.266 -1.389,27.12 -14.357,64.254 -14.357,64.254 l 4.168,1.186 c 0,0 14.819,-37.146 30.101,-37.733 15.283,-0.587 25.934,10.613 29.175,31.827 3.241,21.226 -12.504,37.733 -12.504,37.733 0,0 -4.664,-35.067 -30.132,-19.92 -16.64,9.893 -12.472,70.013 -12.472,70.013 h -32.748 c 0,0 4.168,-60.12 -12.472,-70.013 -25.468,-15.147 -30.132,19.92 -30.132,19.92 0,0 -15.745,-16.507 -12.503,-37.733 m -44.05697,307.493 h 17.801 v -363.813 h -17.801 v 363.813"
         inkscape:connector-curvature="0"
         style="fill:#e8cc42" />
      <path
         id="path143"
         d="m 528.35911,449.61722 c 0,18.4 14.918,33.32 33.319,33.32 18.403,0 33.31997,-14.92 33.31997,-33.32 0,-18.4 -14.91697,-33.32 -33.31997,-33.32 -18.401,0 -33.319,14.92 -33.319,33.32 m 10.862,-138.4 c 0,12.413 10.054,22.466 22.457,22.466 12.404,0 22.459,-10.053 22.459,-22.466 0,-12.4 -10.055,-22.454 -22.459,-22.454 -12.403,0 -22.457,10.054 -22.457,22.454"
         inkscape:connector-curvature="0"
         style="fill:#e8cc42" />
      <path
         id="path145"
         d="m -43.953889,723.25727 c 0,16.733 -13.56,30.293 -30.288,30.293 -16.73,0 -30.290001,-13.56 -30.290001,-30.293 0,-16.7201 13.560001,-30.2801 30.290001,-30.2801 16.728,0 30.288,13.56 30.288,30.2801"
         inkscape:connector-curvature="0"
         style="fill:#e2b33d" />
      <path
         id="path147"
         d="m -52.732889,721.77727 c 0,16.7329 -13.561,30.293 -30.29,30.293 -16.728,0 -30.288001,-13.56 -30.288001,-30.293 0,-16.7201 13.560001,-30.28005 30.288001,-30.28005 16.729,0 30.29,13.55995 30.29,30.28005"
         inkscape:connector-curvature="0"
         style="fill:#f4d347" />
      <path
         id="path149"
         d="m -58.062889,721.77727 c 0,13.786 -11.176,24.96 -24.96,24.96 -13.784,0 -24.959001,-11.174 -24.959001,-24.96 0,-13.7871 11.175001,-24.9601 24.959001,-24.9601 13.784,0 24.96,11.173 24.96,24.9601"
         inkscape:connector-curvature="0"
         style="fill:#f2501d" />
      <path
         id="path151"
         d="m -69.997889,700.48317 c 4.015,4.4401 6.461,10.307 6.461,16.76 0,13.7871 -11.174,24.96 -24.958,24.96"
         inkscape:connector-curvature="0"
         style="fill:#c13d1a" />
      <g
         id="g153"
         transform="matrix(0.13333,0,0,-0.13333,-499.96589,972.77727)"
         clip-path="url(#a)">
        <path
           id="path155"
           d="m 2998.8,1916.5 h 171.039 v 132.801 H 2998.8 z"
           inkscape:connector-curvature="0"
           style="fill:#f9a88e" />
      </g>
      <path
         id="path157"
         d="m -99.415889,727.13727 c -0.875001,0 -1.765001,-0.2801 -2.518001,-0.747 -1.325,-0.8 -2.31,-2.1871 -2.532,-3.72 -0.435,-3.027 1.344,-4.3601 3.413,-4.3601 1.855001,0 3.944001,1.0801 4.884001,2.96 0.976,1.9601 0.222,4.7201 -1.792,5.5731 -0.462,0.2 -0.956,0.294 -1.454,0.294"
         inkscape:connector-curvature="0"
         style="fill:#f9a88e" />
      <path
         id="path159"
         d="m 64.384111,721.13727 c 0,16.7329 -13.56,30.293 -30.289,30.293 -16.728,0 -30.2899999,-13.56 -30.2899999,-30.293 0,-16.7201 13.5619999,-30.28005 30.2899999,-30.28005 16.728,0 30.288,13.55995 30.288,30.28005"
         inkscape:connector-curvature="0"
         style="fill:#e2b33d" />
      <path
         id="path161"
         d="m 55.604111,719.65727 c 0,16.7329 -13.56,30.293 -30.289,30.293 -16.7289999,0 -30.2889999,-13.56 -30.2889999,-30.293 0,-16.7201 13.56,-30.28005 30.2899999,-30.28005 16.727,0 30.289,13.55995 30.289,30.28005"
         inkscape:connector-curvature="0"
         style="fill:#f4d347" />
      <path
         id="path163"
         d="m 50.275111,719.65727 c 0,13.7859 -11.176,24.96 -24.96,24.96 -13.785,0 -24.95999987,-11.174 -24.95999987,-24.96 0,-13.7741 11.17499987,-24.9471 24.95999987,-24.9471 13.784,0 24.96,11.173 24.96,24.9471"
         inkscape:connector-curvature="0"
         style="fill:#f2501d" />
      <path
         id="path165"
         d="M 38.339111,698.37717"
         inkscape:connector-curvature="0"
         style="fill:#c13d1a" />
      <path
         id="path167"
         d="m 13.624111,715.12317 c -2.405,0 -4.5659999,-2.186 -4.9729999,-4.613 -0.44,-2.627 0.743,-5.293 2.4309999,-7.347 2.995,-3.653 7.721,-5.746 12.421,-5.746 0.274,0 0.546,0 0.819,0.013 2.24,0.12 3.532,0.707 4.915,2.453 1.778,2.267 1.413,4.667 -1.714,5.307 -1.234,0.253 -2.538,0.227 -3.717,0.68 -2.13,0.813 -3.388,2.96 -4.585,4.893 -1.199,1.947 -2.758,3.987 -5.012,4.32 -0.196,0.027 -0.391,0.04 -0.584,0.04 m -4.7039999,9.8941 c -0.875,0 -1.764,-0.28 -2.518,-0.7471 -1.325,-0.7999 -2.31,-2.1869 -2.532,-3.7199 -0.434,-3.027 1.344,-4.36 3.414,-4.36 1.854,0 3.9439999,1.0799 4.8839999,2.96 0.976,1.96 0.221,4.72 -1.792,5.5729 -0.4629999,0.2001 -0.9579999,0.2941 -1.4559999,0.2941"
         inkscape:connector-curvature="0"
         style="fill:#f9a88e" />
      <path
         id="path169"
         d="m 169.66411,721.35017 c 0,16.7201 -13.56,30.2801 -30.289,30.2801 -16.728,0 -30.289,-13.56 -30.289,-30.2801 0,-16.733 13.561,-30.29295 30.29,-30.29295 16.727,0 30.289,13.55995 30.289,30.29295"
         inkscape:connector-curvature="0"
         style="fill:#e2b33d" />
      <path
         id="path171"
         d="m 160.88411,719.87017 c 0,16.7201 -13.56,30.2801 -30.289,30.2801 -16.728,0 -30.289,-13.56 -30.289,-30.2801 0,-16.733 13.561,-30.29295 30.29,-30.29295 16.727,0 30.287,13.55995 30.287,30.29295"
         inkscape:connector-curvature="0"
         style="fill:#f4d347" />
      <path
         id="path173"
         d="m 155.55411,719.87017 c 0,13.7731 -11.175,24.9471 -24.959,24.9471 -13.784,0 -24.958,-11.174 -24.958,-24.9471 0,-13.787 11.174,-24.96 24.958,-24.96 13.784,0 24.959,11.173 24.959,24.96"
         inkscape:connector-curvature="0"
         style="fill:#f2501d" />
      <path
         id="path175"
         d="M 143.62111,698.57717"
         inkscape:connector-curvature="0"
         style="fill:#c13d1a" />
      <path
         id="path177"
         d="m 118.90911,715.32317 c -2.407,0 -4.57,-2.186 -4.976,-4.613 -0.442,-2.627 0.741,-5.293 2.43,-7.347 2.994,-3.64 7.719,-5.746 12.42,-5.746 0.272,0 0.546,0.013 0.818,0.026 2.241,0.107 3.533,0.694 4.917,2.454 1.777,2.253 1.41,4.653 -1.713,5.293 -1.238,0.267 -2.539,0.227 -3.719,0.68 -2.13,0.813 -3.387,2.96 -4.585,4.893 -1.198,1.947 -2.756,3.987 -5.011,4.32 -0.196,0.027 -0.39,0.04 -0.581,0.04 m -4.705,9.8941 c -0.877,0 -1.766,-0.2801 -2.52,-0.7341 -1.325,-0.8129 -2.311,-2.2 -2.533,-3.7329 -0.433,-3.013 1.344,-4.347 3.414,-4.347 1.854,0 3.944,1.067 4.884,2.9469 0.977,1.96 0.221,4.7201 -1.792,5.5731"
         inkscape:connector-curvature="0"
         style="fill:#f9a88e" />
      <path
         id="path179"
         d="m 277.70411,721.13727 c 0,16.7329 -13.56,30.293 -30.29,30.293 -16.728,0 -30.288,-13.56 -30.288,-30.293 0,-16.7201 13.56,-30.28005 30.288,-30.28005 16.73,0 30.29,13.55995 30.29,30.28005"
         inkscape:connector-curvature="0"
         style="fill:#e2b33d" />
      <path
         id="path181"
         d="m 268.92411,719.65727 c 0,16.7329 -13.56,30.293 -30.289,30.293 -16.728,0 -30.289,-13.56 -30.289,-30.293 0,-16.7201 13.561,-30.28005 30.29,-30.28005 16.727,0 30.287,13.55995 30.287,30.28005"
         inkscape:connector-curvature="0"
         style="fill:#f4d347" />
      <path
         id="path183"
         d="m 263.59411,719.65727 c 0,13.7859 -11.175,24.96 -24.959,24.96 -13.785,0 -24.958,-11.174 -24.958,-24.96 0,-13.7741 11.173,-24.9471 24.958,-24.9471 13.784,0 24.959,11.173 24.959,24.9471"
         inkscape:connector-curvature="0"
         style="fill:#f2501d" />
      <path
         id="path185"
         d="M 251.66111,698.37717"
         inkscape:connector-curvature="0"
         style="fill:#c13d1a" />
      <path
         id="path187"
         d="m 226.94411,715.12317 c -2.405,0 -4.566,-2.186 -4.973,-4.613 -0.44,-2.627 0.744,-5.293 2.432,-7.347 2.994,-3.653 7.719,-5.746 12.422,-5.746 0.272,0 0.545,0 0.817,0.013 2.24,0.12 3.532,0.707 4.915,2.453 1.778,2.267 1.412,4.667 -1.712,5.307 -1.238,0.253 -2.539,0.227 -3.719,0.68 -2.132,0.813 -3.387,2.96 -4.585,4.893 -1.199,1.947 -2.756,3.987 -5.012,4.32 -0.196,0.027 -0.391,0.04 -0.584,0.04 m -4.703,9.8941 c -0.876,0 -1.765,-0.28 -2.519,-0.7471 -1.325,-0.7999 -2.31,-2.1869 -2.532,-3.7199 -0.434,-3.027 1.344,-4.36 3.414,-4.36 1.854,0 3.944,1.0799 4.884,2.96 0.977,1.96 0.221,4.72 -1.792,5.5729 -0.463,0.2001 -0.956,0.2941 -1.455,0.2941"
         inkscape:connector-curvature="0"
         style="fill:#f9a88e" />
      <path
         id="path189"
         d="m 383.08211,722.08327 c 0,16.734 -13.561,30.2939 -30.29,30.2939 -16.727,0 -30.289,-13.5599 -30.289,-30.2939 0,-16.733 13.562,-30.29305 30.29,-30.29305 16.728,0 30.289,13.55995 30.289,30.29305"
         inkscape:connector-curvature="0"
         style="fill:#e2b33d" />
      <path
         id="path191"
         d="m 374.30211,720.60327 c 0,16.7339 -13.56,30.2939 -30.29,30.2939 -16.726,0 -30.287,-13.56 -30.287,-30.2939 0,-16.733 13.561,-30.29305 30.288,-30.29305 16.729,0 30.289,13.55995 30.289,30.29305"
         inkscape:connector-curvature="0"
         style="fill:#f4d347" />
      <path
         id="path193"
         d="m 368.97311,720.60327 c 0,13.787 -11.175,24.96 -24.96,24.96 -13.784,0 -24.959,-11.173 -24.959,-24.96 0,-13.786 11.175,-24.9601 24.959,-24.9601 13.785,0 24.96,11.174 24.96,24.9601"
         inkscape:connector-curvature="0"
         style="fill:#f2501d" />
      <path
         id="path195"
         d="M 357.03811,699.31017"
         inkscape:connector-curvature="0"
         style="fill:#c13d1a" />
      <path
         id="path197"
         d="m 332.32611,716.07027 c -2.407,0 -4.57,-2.1871 -4.976,-4.6131 -0.441,-2.627 0.743,-5.294 2.43,-7.347 2.994,-3.653 7.72,-5.747 12.418,-5.747 0.275,0 0.548,0 0.821,0.014 2.24,0.12 3.534,0.693 4.916,2.453 1.779,2.267 1.412,4.653 -1.713,5.307 -1.236,0.253 -2.537,0.226 -3.717,0.68 -2.132,0.8 -3.388,2.946 -4.587,4.893 -1.197,1.933 -2.756,3.973 -5.01,4.3201 -0.195,0.027 -0.39,0.04 -0.582,0.04 m -4.704,9.88"
         inkscape:connector-curvature="0"
         style="fill:#f9a88e" />
      <path
         id="path199"
         d="m 489.72111,721.13727 c 0,16.7329 -13.563,30.293 -30.29,30.293 -16.729,0 -30.289,-13.56 -30.289,-30.293 0,-16.7201 13.56,-30.28005 30.29,-30.28005 16.726,0 30.289,13.55995 30.289,30.28005"
         inkscape:connector-curvature="0"
         style="fill:#e2b33d" />
      <path
         id="path201"
         d="m 480.93911,719.65727 c 0,16.7329 -13.56,30.293 -30.288,30.293 -16.728,0 -30.289,-13.56 -30.289,-30.293 0,-16.7201 13.561,-30.28005 30.29,-30.28005 16.727,0 30.287,13.55995 30.287,30.28005"
         inkscape:connector-curvature="0"
         style="fill:#f4d347" />
      <path
         id="path203"
         d="m 475.61011,719.65727 c 0,13.7859 -11.175,24.96 -24.959,24.96 -13.784,0 -24.96,-11.174 -24.96,-24.96 0,-13.7741 11.176,-24.9471 24.96,-24.9471 13.784,0 24.959,11.173 24.959,24.9471"
         inkscape:connector-curvature="0"
         style="fill:#f2501d" />
      <path
         id="path205"
         d="M 463.67511,698.37717"
         inkscape:connector-curvature="0"
         style="fill:#c13d1a" />
      <path
         id="path207"
         d="m 438.96111,715.12317 c -2.404,0 -4.567,-2.186 -4.974,-4.613 -0.44,-2.627 0.744,-5.293 2.431,-7.347 2.995,-3.653 7.72,-5.746 12.421,-5.746 0.274,0 0.547,0 0.819,0.013 2.24,0.12 3.532,0.707 4.915,2.453 1.78,2.267 1.412,4.667 -1.712,5.307 -1.238,0.253 -2.539,0.227 -3.719,0.68 -2.132,0.813 -3.387,2.96 -4.587,4.893 -1.197,1.947 -2.756,3.987 -5.01,4.32 -0.196,0.027 -0.391,0.04 -0.584,0.04 m -4.703,9.8941 c -0.876,0 -1.765,-0.28 -2.519,-0.7471 -1.324,-0.7999 -2.31,-2.1869 -2.532,-3.7199 -0.434,-3.027 1.344,-4.36 3.414,-4.36 1.854,0 3.944,1.0799 4.884,2.96 0.977,1.96 0.221,4.72 -1.792,5.5729 -0.463,0.2001 -0.956,0.2941 -1.455,0.2941"
         inkscape:connector-curvature="0"
         style="fill:#f9a88e" />
      <path
         id="path209"
         d="m 596.35708,721.13727 c 0,16.7329 -13.55997,30.293 -30.28797,30.293 -16.73,0 -30.29,-13.56 -30.29,-30.293 0,-16.7201 13.56,-30.28005 30.29,-30.28005 16.728,0 30.28797,13.55995 30.28797,30.28005"
         inkscape:connector-curvature="0"
         style="fill:#e2b33d" />
      <path
         id="path211"
         d="m 587.57811,719.65727 c 0,16.7329 -13.56,30.293 -30.29,30.293 -16.727,0 -30.289,-13.56 -30.289,-30.293 0,-16.7201 13.562,-30.28005 30.29,-30.28005 16.729,0 30.289,13.55995 30.289,30.28005"
         inkscape:connector-curvature="0"
         style="fill:#f4d347" />
      <path
         id="path213"
         d="m 582.24911,719.65727 c 0,13.7859 -11.175,24.96 -24.96,24.96 -13.784,0 -24.959,-11.174 -24.959,-24.96 0,-13.7741 11.175,-24.9471 24.959,-24.9471 13.785,0 24.96,11.173 24.96,24.9471"
         inkscape:connector-curvature="0"
         style="fill:#f2501d" />
      <path
         id="path215"
         d="M 570.31411,698.37717"
         inkscape:connector-curvature="0"
         style="fill:#c13d1a" />
      <path
         id="path217"
         d="m 545.59911,715.12317 c -2.405,0 -4.566,-2.186 -4.974,-4.613 -0.44,-2.627 0.744,-5.293 2.43,-7.347 2.995,-3.653 7.722,-5.746 12.422,-5.746 0.273,0 0.546,0 0.818,0.013 2.24,0.12 3.534,0.707 4.914,2.453 1.781,2.267 1.414,4.667 -1.711,5.307 -1.236,0.253 -2.537,0.227 -3.719,0.68 -2.13,0.813 -3.386,2.96 -4.585,4.893 -1.199,1.947 -2.757,3.987 -5.012,4.32 -0.195,0.027 -0.39,0.04 -0.583,0.04 m -4.704,9.8941 c -0.876,0 -1.765,-0.28 -2.518,-0.7471 -1.324,-0.7999 -2.311,-2.1869 -2.532,-3.7199 -0.434,-3.027 1.344,-4.36 3.414,-4.36 1.855,0 3.944,1.0799 4.884,2.96 0.976,1.96 0.22,4.72 -1.793,5.5729 -0.463,0.2001 -0.956,0.2941 -1.455,0.2941"
         inkscape:connector-curvature="0"
         style="fill:#f9a88e" />
      <path
         id="path219"
         d="m -160.91589,720.60327 c 0,16.7339 -9.375,30.2939 -20.938,30.2939 -11.564,0 -20.937,-13.56 -20.937,-30.2939 0,-16.733 9.373,-30.29305 20.937,-30.29305 11.563,0 20.939,13.55995 20.939,30.29305"
         inkscape:connector-curvature="0"
         style="fill:#e2b33d" />
      <path
         id="path221"
         d="m -166.98489,719.12327 c 0,16.7339 -9.376,30.2939 -20.937,30.2939 -11.564,0 -20.939,-13.56 -20.939,-30.2939 0,-16.7331 9.375,-30.29305 20.939,-30.29305 11.561,0 20.937,13.55995 20.937,30.29305"
         inkscape:connector-curvature="0"
         style="fill:#f4d347" />
      <path
         id="path223"
         d="m -170.66989,719.12327 c 0,13.787 -7.724,24.96 -17.252,24.96 -9.53,0 -17.255,-11.173 -17.255,-24.96 0,-13.7861 7.724,-24.9601 17.255,-24.9601 9.528,0 17.252,11.174 17.252,24.9601"
         inkscape:connector-curvature="0"
         style="fill:#f2501d" />
      <path
         id="path225"
         d="m -178.91889,697.83017 c 2.774,4.427 4.465,10.307 4.465,16.76 0,13.787 -7.724,24.9601 -17.252,24.9601 -3.3,0 -6.383,-1.3471 -9.004,-3.667 3.157,5.04 7.716,8.2 12.787,8.2 9.529,0 17.253,-11.173 17.253,-24.96 0,-9.0131 -3.301,-16.9061 -8.25,-21.2931"
         inkscape:connector-curvature="0"
         style="fill:#c13d1a" />
      <path
         id="path227"
         d="m -196.00189,714.59017 c -1.664,0 -3.157,-2.187 -3.44,-4.627 -0.304,-2.613 0.513,-5.28 1.68,-7.333 2.07,-3.653 5.337,-5.7469 8.587,-5.7469"
         inkscape:connector-curvature="0"
         style="fill:#f9a88e" />
      <path
         id="path229"
         d="m 646.29808,720.53727 c 0.148,16.72 9.641,30.2 21.204,30.093 11.564,-0.093 20.817,-13.7331 20.67,-30.467 -0.147,-16.7331 -9.64,-30.20005 -21.203,-30.10605 -11.564,0.106 -20.818,13.74595 -20.671,30.48005"
         inkscape:connector-curvature="0"
         style="fill:#e2b33d" />
      <path
         id="path231"
         d="m 652.35408,719.00327 c 0.148,16.7199 9.643,30.1999 21.204,30.107 11.564,-0.107 20.817,-13.747 20.67,-30.48 -0.147,-16.7201 -9.64,-30.20005 -21.205,-30.10705 -11.561,0.107 -20.816,13.74695 -20.669,30.48005"
         inkscape:connector-curvature="0"
         style="fill:#f4d347" />
      <path
         id="path233"
         d="m 656.03808,718.96327 c 0.123,13.787 7.945,24.8939 17.473,24.814 9.528,-0.094 17.154,-11.334 17.032,-25.12 -0.121,-13.7741 -7.945,-24.8801 -17.472,-24.8001 -9.528,0.08 -17.154,11.333 -17.033,25.1061"
         inkscape:connector-curvature="0"
         style="fill:#f2501d" />
      <path
         id="path235"
         d="m 664.10108,697.60317 c -2.736,4.454 -4.375,10.347 -4.319,16.8 0.121,13.7741 7.944,24.88 17.473,24.8 3.299,-0.026 6.37,-1.4 8.971,-3.746 -3.112,5.0661 -7.644,8.266 -12.715,8.3201 -9.528,0.08 -17.35,-11.027 -17.473,-24.814 -0.079,-9.0001 3.153,-16.9331 8.063,-21.3601"
         inkscape:connector-curvature="0"
         style="fill:#c13d1a" />
      <path
         id="path237"
         d="m 681.31308,714.20317 c -0.127,0 -0.256,0 -0.384,-0.026 -1.563,-0.334 -2.658,-2.36 -3.504,-4.294 -0.846,-1.933 -1.732,-4.066 -3.214,-4.866 -0.818,-0.44 -1.718,-0.4 -2.576,-0.654 -2.165,-0.626 -2.44,-3.026 -1.229,-5.293 0.94,-1.76 1.83,-2.347 3.376,-2.48 0.21,-0.027 0.421,-0.027 0.632,-0.027 3.228,0 6.483,2.067 8.57,5.6671 1.185,2.0399 2.025,4.707 1.745,7.3329 -0.262,2.4401 -1.746,4.64 -3.416,4.64 m 3.34,9.8671 c -0.339,0 -0.675,-0.093 -0.991,-0.2801 -1.399,-0.8399 -1.947,-3.5999 -1.288,-5.5729 0.636,-1.894 2.083,-2.9741 3.37,-2.9741 1.422,0 2.649,1.3201 2.377,4.3341 -0.139,1.533 -0.808,2.9199 -1.718,3.7329 -0.521,0.4671 -1.14,0.76 -1.75,0.76"
         inkscape:connector-curvature="0"
         style="fill:#f9a88e" />
      <path
         id="path239"
         d="m -65.570889,425.67022 c 4.265,4.48 6.888,10.533 6.888,17.213 0,13.787 -11.179,24.96 -24.97,24.96"
         inkscape:connector-curvature="0"
         style="fill:#e2b33d" />
      <path
         id="path241"
         d="m -85.833889,481.43022 h 17.796 l 0.005,24.013 -17.801,-15.12 v -8.893 m 213.275999,0 h 17.795 l 0.006,24.013 -17.801,-15.12 v -8.893 m 212.06,1.36 h 17.796 l 0.007,24.013 -17.803,-15.12 v -8.893 m -106.638,-18.693 h 17.797 l 0.005,24.013 -17.801,-15.12 v -8.893 m 319.913,18.693 h 17.795 l 0.01,24.013 -17.801,-15.12 v -8.893 m -106.641,-18.693 h 17.793 l 0.007,24.013 -17.801,-15.12 v -8.893 m -635.593,-1.187 h 11.764 l 1.111,24.973 -13.985,-9.453 1.11,-15.52 m 211.671001,0.747 16.388,0.44 v 29.346 l -17.801,-18.04 1.413,-11.746 m 639.105969,-0.454 h 13.986 v 23.347 l -13.987,-12.52 v -10.827"
         inkscape:connector-curvature="0"
         style="fill:#d3a43c" />
      <path
         id="path243"
         d="m -186.85089,354.43022 c -2.252,-0.253 -3.227,-2.933 -3.718,-5.147 -1.842,-8.28 -3.685,-16.573 -5.526,-24.866 -1.516,-6.814 -3.039,-13.707 -3.074,-20.694 -0.033,-6.4 1.694,-15.346 7.29,-19.386 1.718,-1.254 3.158,-1.774 4.337,-1.774 4.297,0 5.101,7 3.081,11.694 -3.864,8.973 -5.073,19.08 -3.44,28.72 0.9,5.32 2.636,10.466 3.412,15.8 0.776,5.333 0.492,11.08 -2.362,15.653 m -55.867,29.827"
         inkscape:connector-curvature="0"
         style="fill:#f6ecb7" />
    </g>
  </g>
</svg>
