<?xml version="1.0" encoding="UTF-8" standalone="no"?>
<!-- Created with Inkscape (http://www.inkscape.org/) -->

<svg
   xmlns:dc="http://purl.org/dc/elements/1.1/"
   xmlns:cc="http://creativecommons.org/ns#"
   xmlns:rdf="http://www.w3.org/1999/02/22-rdf-syntax-ns#"
   xmlns:svg="http://www.w3.org/2000/svg"
   xmlns="http://www.w3.org/2000/svg"
   xmlns:sodipodi="http://sodipodi.sourceforge.net/DTD/sodipodi-0.dtd"
   xmlns:inkscape="http://www.inkscape.org/namespaces/inkscape"
   width="472"
   height="472.44"
   id="svg2"
   sodipodi:version="0.32"
   inkscape:version="0.48.5 r10040"
   sodipodi:docname="plus.svg"
   inkscape:output_extension="org.inkscape.output.svg.inkscape"
   version="1.1">
  <defs
     id="defs4">
    <inkscape:perspective
       sodipodi:type="inkscape:persp3d"
       inkscape:vp_x="0 : 526.18109 : 1"
       inkscape:vp_y="0 : 1000 : 0"
       inkscape:vp_z="744.09448 : 526.18109 : 1"
       inkscape:persp3d-origin="372.04724 : 350.78739 : 1"
       id="perspective10" />
  </defs>
  <sodipodi:namedview
     id="base"
     pagecolor="#ffffff"
     bordercolor="#666666"
     borderopacity="1.0"
     gridtolerance="10000"
     guidetolerance="10"
     objecttolerance="10"
     inkscape:pageopacity="0.0"
     inkscape:pageshadow="2"
     inkscape:zoom="0.9899495"
     inkscape:cx="-8.7009441"
     inkscape:cy="185.02284"
     inkscape:document-units="px"
     inkscape:current-layer="layer1"
     showgrid="false"
     inkscape:window-width="1536"
     inkscape:window-height="801"
     inkscape:window-x="-8"
     inkscape:window-y="-8"
     fit-margin-top="0"
     fit-margin-left="0"
     fit-margin-right="0"
     fit-margin-bottom="0"
     inkscape:window-maximized="1" />
  <metadata
     id="metadata7">
    <rdf:RDF>
      <cc:Work
         rdf:about="">
        <dc:format>image/svg+xml</dc:format>
        <dc:type
           rdf:resource="http://purl.org/dc/dcmitype/StillImage" />
        <dc:title></dc:title>
      </cc:Work>
    </rdf:RDF>
  </metadata>
  <g
     inkscape:label="Layer 1"
     inkscape:groupmode="layer"
     id="layer1"
     transform="translate(-107,-446.3667)">
    <path
       style="font-size:1000px;font-style:normal;font-variant:normal;font-weight:normal;font-stretch:normal;fill:#000000;fill-opacity:1;stroke:none;font-family:OCRA;-inkscape-font-specification:OCRA"
       d="m 337.34387,446.86445 13.97397,0 c 1.33062,0.66727 3.3269,2.00061 5.98884,4 6.21041,4.66727 10.86839,12.00059 13.97398,22 2.21783,6.00058 3.32687,20.00056 3.32713,42 -2.6e-4,2.00054 -2.6e-4,17.00052 0,45 l 0,74 48.57619,0 c 31.94016,4.2e-4 48.79763,0.33375 50.57247,1 13.75179,4.00042 22.18052,15.66707 25.28622,35 0.44324,4.00038 0.66505,8.00038 0.66543,12 -3.8e-4,20.66702 -6.21103,35.00034 -18.63196,43 -2.21845,2.00033 -4.65835,3.33366 -7.31969,4 -1.77484,0.66699 -18.63231,1.00032 -50.57247,1 l -48.57619,0 0,74 c -2.6e-4,52.0002 -1.1093,81.00017 -3.32713,87 -3.10559,10.00015 -7.76357,17.33348 -13.97398,22 -6.21088,4.6668 -12.19972,6.33347 -17.96653,5 -2.21831,-0.66653 -4.65821,-1.66653 -7.3197,-3 -3.99277,-1.99986 -7.76352,-5.66652 -11.31226,-11 -3.54915,-5.33318 -5.98905,-10.99984 -7.3197,-17 -1.33105,-5.99983 -1.99648,-34.33313 -1.99628,-85 l 0,-72 -49.90704,0 -49.24161,-1 -2.66171,-1 c -14.63948,-6.66633 -22.40279,-21.99965 -23.28995,-46 -7e-5,-22.66627 7.76324,-37.99959 23.28995,-46 l 2.66171,-2 49.24161,0 49.90704,0 0,-72 c -2e-4,-50.66612 0.66523,-78.99943 1.99628,-85 1.33065,-5.33275 3.77055,-10.99941 7.3197,-17 4.87959,-6.66607 10.42481,-10.99939 16.63568,-13"
       id="text7752"
       inkscape:connector-curvature="0" />
    <path
       style="font-size:1000px;font-style:normal;font-variant:normal;font-weight:normal;font-stretch:normal;fill:#000000;fill-opacity:1;stroke:none;font-family:OCRA;-inkscape-font-specification:OCRA"
       d="m 578.72226,676.93057 0,13.97397 c -0.66727,1.33062 -2.00061,3.3269 -4,5.98884 -4.66727,6.21041 -12.00059,10.86839 -22,13.97398 -6.00058,2.21783 -20.00056,3.32687 -42,3.32713 -2.00054,-2.6e-4 -17.00052,-2.6e-4 -45,0 l -74,0 0,48.57619 c -4.2e-4,31.94016 -0.33375,48.79763 -1,50.57247 -4.00042,13.75179 -15.66707,22.18052 -35,25.28622 -4.00038,0.44324 -8.00038,0.66505 -12,0.66543 -20.66702,-3.8e-4 -35.00034,-6.21103 -43,-18.63196 -2.00033,-2.21845 -3.33366,-4.65835 -4,-7.31969 -0.66699,-1.77484 -1.00032,-18.63231 -1,-50.57247 l 0,-48.57619 -74,0 c -52.0002,-2.6e-4 -81.00017,-1.1093 -87,-3.32713 -10.00015,-3.10559 -17.33348,-7.76357 -22,-13.97398 -4.6668,-6.21088 -6.33347,-12.19972 -5,-17.96653 0.66653,-2.21831 1.66653,-4.65821 3,-7.3197 1.99986,-3.99277 5.66652,-7.76352 11,-11.31226 5.33318,-3.54915 10.99984,-5.98905 17,-7.3197 5.99983,-1.33105 34.33313,-1.99648 85,-1.99628 l 72,0 0,-49.90704 1,-49.24161 1,-2.66171 c 6.66633,-14.63948 21.99965,-22.40279 46,-23.28995 22.66627,-7e-5 37.99959,7.76324 46,23.28995 l 2,2.66171 0,49.24161 0,49.90704 72,0 c 50.66612,-2e-4 78.99943,0.66523 85,1.99628 5.33275,1.33065 10.99941,3.77055 17,7.3197 6.66607,4.87959 10.99939,10.42481 13,16.63568"
       id="text7752-7"
       inkscape:connector-curvature="0" />
    <rect
       style="fill:#ffffff;fill-opacity:1;fill-rule:nonzero;stroke:#ffffff;stroke-width:11.03199959;stroke-linecap:round;stroke-linejoin:miter;stroke-miterlimit:4;stroke-opacity:1;stroke-dasharray:none"
       id="rect3020-4-0"
       width="314.51758"
       height="211.83975"
       x="719.42621"
       y="-306.71793"
       transform="matrix(0,1,-1,0,0,0)" />
    <rect
       style="fill:#ffffff;fill-opacity:1;fill-rule:nonzero;stroke:#ffffff;stroke-width:11.03199959;stroke-linecap:round;stroke-linejoin:miter;stroke-miterlimit:4;stroke-opacity:1;stroke-dasharray:none"
       id="rect3020-4-0-4"
       width="314.51758"
       height="211.83975"
       x="718.9765"
       y="-590.06274"
       transform="matrix(0,1,-1,0,0,0)" />
    <rect
       style="fill:#ffffff;fill-opacity:1;fill-rule:nonzero;stroke:#ffffff;stroke-width:11.03199959;stroke-linecap:round;stroke-linejoin:miter;stroke-miterlimit:4;stroke-opacity:1;stroke-dasharray:none"
       id="rect3020-4-0-8"
       width="314.51758"
       height="211.83975"
       x="333.11935"
       y="-591.49127"
       transform="matrix(0,1,-1,0,0,0)" />
    <rect
       style="fill:#ffffff;fill-opacity:1;fill-rule:nonzero;stroke:#ffffff;stroke-width:11.03199959;stroke-linecap:round;stroke-linejoin:miter;stroke-miterlimit:4;stroke-opacity:1;stroke-dasharray:none"
       id="rect3020-4-0-8-8"
       width="314.51758"
       height="211.83975"
       x="332.26221"
       y="-306.91986"
       transform="matrix(0,1,-1,0,0,0)" />
  </g>
</svg>
