<?xml version="1.0" encoding="UTF-8" standalone="no"?>
<!-- Created with Inkscape (http://www.inkscape.org/) -->

<svg
   xmlns:dc="http://purl.org/dc/elements/1.1/"
   xmlns:cc="http://creativecommons.org/ns#"
   xmlns:rdf="http://www.w3.org/1999/02/22-rdf-syntax-ns#"
   xmlns:svg="http://www.w3.org/2000/svg"
   xmlns="http://www.w3.org/2000/svg"
   xmlns:sodipodi="http://sodipodi.sourceforge.net/DTD/sodipodi-0.dtd"
   xmlns:inkscape="http://www.inkscape.org/namespaces/inkscape"
   width="281.78729"
   height="248.60883"
   id="svg4017"
   version="1.1"
   inkscape:version="0.48.5 r10040"
   sodipodi:docname="New document 3">
  <defs
     id="defs4019" />
  <sodipodi:namedview
     id="base"
     pagecolor="#ffffff"
     bordercolor="#666666"
     borderopacity="1.0"
     inkscape:pageopacity="0.0"
     inkscape:pageshadow="2"
     inkscape:zoom="0.24748737"
     inkscape:cx="1463.2417"
     inkscape:cy="-410.90973"
     inkscape:document-units="px"
     inkscape:current-layer="layer1"
     showgrid="false"
     fit-margin-top="1"
     fit-margin-left="1"
     fit-margin-right="1"
     fit-margin-bottom="1"
     inkscape:window-width="1536"
     inkscape:window-height="801"
     inkscape:window-x="-8"
     inkscape:window-y="-8"
     inkscape:window-maximized="1" />
  <metadata
     id="metadata4022">
    <rdf:RDF>
      <cc:Work
         rdf:about="">
        <dc:format>image/svg+xml</dc:format>
        <dc:type
           rdf:resource="http://purl.org/dc/dcmitype/StillImage" />
        <dc:title></dc:title>
      </cc:Work>
    </rdf:RDF>
  </metadata>
  <g
     inkscape:label="Layer 1"
     inkscape:groupmode="layer"
     id="layer1"
     transform="translate(-234.10635,-408.05777)">
    <g
       transform="matrix(1.25,0,0,-1.25,185.5561,716.97002)"
       id="g3908">
      <g
         transform="translate(262.9004,186.7998)"
         id="g104">
        <path
           inkscape:connector-curvature="0"
           id="path106"
           style="fill:#b9b9b9;fill-opacity:1;fill-rule:nonzero;stroke:none"
           d="M 0,0 C -0.291,-1.79 -0.689,-3.63 -1.199,-5.5 -2.711,-11 -4.26,-15.66 -5.811,-19.609 -14.59,-42 -23.26,-41.56 -23.26,-41.56 l -2.34,18.23 4.83,1.13 c 0,0 0.29,1.28 0.29,3.33 0,2.25 -0.33,5.44 -1.75,8.88 -0.93,2.25 -2.33,4.61 -4.41,6.881 -2.9,3.17 -7.11,6.17 -13.21,8.479 -2.83,1.07 -6.06,1.99 -9.75,2.71 -0.02,0 -0.05,0.01 -0.07,0.01 l -0.01,0 c -7.11,1.39 -13.53,2.77 -19.36,4.21 -3.61,0.881 -6.99,1.801 -10.15,2.761 -7.02,2.129 -12.96,4.479 -17.99,7.259 -3.8,2.1 -7.07,4.451 -9.9,7.13 -7.47,7.1 -11.76,16.56 -14.19,30.08 0,0 7.25,-5.79 21.25,-9.36 4.16,-1.06 8.91,-1.92 14.24,-2.38 4.83,-0.41 10.14,-0.49 15.93,-0.07 0.52,0.02 1.05,0.06 1.59,0.11 4.24,0.36 8.4,0.49 12.44,0.39 6.86,-0.17 13.38,-1 19.38,-2.44 5.13,-1.23 9.89,-2.92 14.16,-5.04 8.091,-4.01 14.469,-9.559 18.399,-16.49 C -0.02,17.45 1.5,9.32 0,0" />
      </g>
      <g
         transform="translate(177.1201,234.5898)"
         id="g108">
        <path
           inkscape:connector-curvature="0"
           id="path110"
           style="fill:#868686;fill-opacity:1;fill-rule:nonzero;stroke:none"
           d="m 0,0 c -0.68,-7.609 -3.4,-17.14 -11.4,-25.47 -3.8,2.1 -7.07,4.45 -9.9,7.13 3.1,5.22 6.12,12.231 7.06,20.72 C -10.08,1.32 -5.33,0.46 0,0" />
      </g>
      <g
         transform="translate(207.0801,235.0195)"
         id="g112">
        <path
           inkscape:connector-curvature="0"
           id="path114"
           style="fill:#868686;fill-opacity:1;fill-rule:nonzero;stroke:none"
           d="m 0,0 c 0.02,-9.22 -2.15,-23.34 -13.22,-35.92 -3.61,0.881 -6.99,1.801 -10.15,2.761 4.07,6.17 9.96,17.769 9.34,32.659 0.52,0.021 1.05,0.061 1.59,0.11 C -8.2,-0.029 -4.04,0.101 0,0" />
      </g>
      <g
         transform="translate(240.6206,227.54)"
         id="g116">
        <path
           inkscape:connector-curvature="0"
           id="path118"
           style="fill:#868686;fill-opacity:1;fill-rule:nonzero;stroke:none"
           d="m 0,0 c -0.681,-9.69 -4.26,-23.83 -17.57,-35.37 -2.83,1.07 -6.06,1.99 -9.75,2.71 -0.02,0 -0.05,0.01 -0.07,0.01 4.39,5.18 14.01,18.76 13.23,37.69 C -9.03,3.81 -4.271,2.12 0,0" />
      </g>
      <g
         transform="translate(262.9004,186.7998)"
         id="g120">
        <path
           inkscape:connector-curvature="0"
           id="path122"
           style="fill:#868686;fill-opacity:1;fill-rule:nonzero;stroke:none"
           d="m 0,0 c -5.57,-3.72 -12.971,-7.54 -22.23,-9.99 -0.93,2.25 -2.33,4.61 -4.41,6.881 7.2,4.449 17.429,12.96 22.759,27.359 C -0.02,17.45 1.5,9.32 0,0" />
      </g>
      <g
         transform="translate(257.0898,167.1904)"
         id="g124">
        <path
           inkscape:connector-curvature="0"
           id="path126"
           style="fill:#868686;fill-opacity:1;fill-rule:nonzero;stroke:none"
           d="m 0,0 c -8.779,-22.391 -17.45,-21.95 -17.45,-21.95 l -2.34,18.229 4.831,1.13 c 0,0 0.29,1.28 0.29,3.33 C -11.83,-0.36 -7.039,-1.32 0,0" />
      </g>
      <g
         transform="translate(174.5835,86.75)"
         id="g128">
        <path
           inkscape:connector-curvature="0"
           id="path130"
           style="fill:#868686;fill-opacity:1;fill-rule:nonzero;stroke:none"
           d="m 0,0 c 0,0 2.839,-12.75 15.903,-18 0,0 6.813,-1.75 6.98,-2.917 0.167,-1.167 -13.55,-6.166 -11.442,-10.5 2.109,-4.334 34.775,6.083 34.942,15.708 0.167,9.625 -8,45.399 -20,43.679 C 14.383,26.249 0,1.083 0,1.083" />
      </g>
      <g
         transform="translate(132.5503,97.1943)"
         id="g132">
        <path
           inkscape:connector-curvature="0"
           id="path134"
           style="fill:#dadada;fill-opacity:1;fill-rule:nonzero;stroke:none"
           d="M 0,0 C 0,0 47.25,-30.437 87.25,-7.315 127.25,15.806 78.5,43.847 60,37.826 41.5,31.806 -1,0 -1,0" />
      </g>
      <g
         transform="translate(98.2896,98.667)"
         id="g136">
        <path
           inkscape:connector-curvature="0"
           id="path138"
           style="fill:#868686;fill-opacity:1;fill-rule:nonzero;stroke:none"
           d="m 0,0 c 0,0 4.156,-23.333 0,-28 -4.156,-4.667 -11.912,-7.667 -7.451,-12.167 4.462,-4.5 18.464,-2.263 22.171,8.833 3.624,10.85 7.624,26.983 7.624,26.983 L 1.492,1.5" />
      </g>
      <g
         transform="translate(104.1206,189.3271)"
         id="g140">
        <path
           inkscape:connector-curvature="0"
           id="path142"
           style="fill:#868686;fill-opacity:1;fill-rule:nonzero;stroke:none"
           d="m 0,0 c 0,0 13.182,22.397 17.382,17.498 4.199,-4.899 6.3,-14.232 3.15,-19.481 C 17.382,-7.233 6.3,-5.95 0,0" />
      </g>
      <g
         transform="translate(81.7368,185.1045)"
         id="g144">
        <path
           inkscape:connector-curvature="0"
           id="path146"
           style="fill:#868686;fill-opacity:1;fill-rule:nonzero;stroke:none"
           d="M 0,0 C 0,0 -19.468,17.216 -21.945,11.257 -24.421,5.299 -23.529,-4.227 -18.91,-8.242 -14.289,-12.26 -4.148,-7.608 0,0" />
      </g>
      <g
         transform="translate(242.1343,164.5986)"
         id="g148">
        <path
           inkscape:connector-curvature="0"
           id="path150"
           style="fill:#b9b9b9;fill-opacity:1;fill-rule:nonzero;stroke:none"
           d="m 0,0 c -0.001,0 -0.003,0 -0.004,0.001 -13.641,12.093 -42.428,13.109 -59.08,-1.176 -42.75,-36.674 -64.414,-5.816 -64.414,-5.816 0,0 -30.916,-26.061 -31.166,-40.811 -0.25,-14.75 28.465,-38.895 31,-46.5 2.666,-8 -3.059,-8.8 -4.766,-11.25 -5.401,-7.75 7.432,-7.75 7.432,-7.75 26.5,-0.176 11.5,50.333 38.5,49 11.875,-0.586 25.117,2.08 28.881,2.203 0,0 -0.862,-6.926 -0.717,-9.238 1.334,-21.263 24.25,-19.012 29.631,-22.262 12.369,-7.47 -15.01,-13.323 -11.199,-20 3.443,-6.03 27.238,3.464 30.905,7.13 3.667,3.666 11.833,7.334 4.102,15.667 -7.73,8.333 3.539,18.817 3.539,18.817 C 42.202,-27.419 0,0 0,0" />
      </g>
      <g
         transform="translate(155.2402,168.0068)"
         id="g152">
        <path
           inkscape:connector-curvature="0"
           id="path154"
           style="fill:#c7c7c7;fill-opacity:1;fill-rule:nonzero;stroke:none"
           d="m 0,0 c -0.13,-2.57 -0.46,-5.03 -0.96,-7.39 -2.11,-9.94 -7.33,-18.089 -13.58,-24.58 -1.42,-1.47 -2.89,-2.86 -4.39,-4.16 -12.41,-10.81 -26.8,-15.92 -29.45,-16.349 -2.73,-0.691 -19.85,-2.361 -36.77,2.889 -1.76,0.55 -3.51,1.17 -5.25,1.87 -8.52,3.44 -16.6,8.91 -22.29,17.44 -1.06,1.58 -2.03,3.26 -2.91,5.06 0,0 11.63,10.13 15.83,20.26 6.95,16.76 14.17,28.75 35.28,30.7 18.72,5.22 32.24,-9.01 41.05,-15.45 C -14.77,3.96 0,0 0,0" />
      </g>
      <g
         transform="translate(136.3101,131.877)"
         id="g156">
        <path
           inkscape:connector-curvature="0"
           id="path158"
           style="fill:#dadada;fill-opacity:1;fill-rule:nonzero;stroke:none"
           d="m 0,0 c -12.41,-10.811 -26.8,-15.92 -29.45,-16.35 -2.73,-0.69 -19.85,-2.36 -36.77,2.89 3.94,8.899 8.97,18.61 14.4,24.93 9.04,10.53 14.18,11.93 14.18,11.93 0,0 5.35,0.89 17.74,-5.36 C -11.55,13.82 -4.89,6.72 0,0" />
      </g>
      <g
         transform="translate(154.2803,160.6172)"
         id="g160">
        <path
           inkscape:connector-curvature="0"
           id="path162"
           style="fill:#868686;fill-opacity:1;fill-rule:nonzero;stroke:none"
           d="m 0,0 c -2.11,-9.94 -7.33,-18.09 -13.58,-24.58 -5.45,5 -19.22,17.22 -32.51,22.689 C -62.85,5.01 -50.48,22.71 -30.54,10.68 -18.26,3.27 -6.91,0.8 0,0" />
      </g>
      <g
         transform="translate(86.4204,153.6172)"
         id="g164">
        <path
           inkscape:connector-curvature="0"
           id="path166"
           style="fill:#868686;fill-opacity:1;fill-rule:nonzero;stroke:none"
           d="m 0,0 c -10.28,-10.11 -18.44,-26.69 -21.58,-33.33 -8.52,3.439 -16.6,8.91 -22.29,17.439 6.06,3.261 15.91,9.87 24.72,21.661 C -5.22,24.449 12.91,12.71 0,0" />
      </g>
      <g
         transform="translate(99.4595,149.7627)"
         id="g168">
        <path
           inkscape:connector-curvature="0"
           id="path170"
           style="fill:#1a0200;fill-opacity:1;fill-rule:nonzero;stroke:none"
           d="M 0,0 C 0,0 -6.985,3.595 -5.382,5.615 -3.783,7.636 2.266,8.637 3.087,7.092 3.91,5.547 1.97,0.405 0,0" />
      </g>
      <g
         transform="translate(84.7275,161.4746)"
         id="g172">
        <path
           inkscape:connector-curvature="0"
           id="path174"
           style="fill:#1a0200;fill-opacity:1;fill-rule:nonzero;stroke:none"
           d="m 0,0 c 0.325,-1.578 -0.689,-3.118 -2.266,-3.443 -1.577,-0.325 -3.118,0.689 -3.443,2.267 -0.325,1.575 0.691,3.117 2.268,3.443 C -1.865,2.591 -0.324,1.575 0,0" />
      </g>
      <g
         transform="translate(113.0093,141.7656)"
         id="g176">
        <path
           inkscape:connector-curvature="0"
           id="path178"
           style="fill:#868686;fill-opacity:1;fill-rule:nonzero;stroke:none"
           d="M 0,0 C -0.1,-0.168 -0.235,-0.312 -0.358,-0.468 L -0.789,-0.874 C -1.117,-1.09 -1.425,-1.362 -1.804,-1.495 L -2.359,-1.729 C -2.552,-1.778 -2.75,-1.81 -2.947,-1.851 l -0.594,-0.112 -0.601,0.01 c -0.4,0.011 -0.811,-0.014 -1.193,0.115 l -1.168,0.281 c -0.394,0.161 -0.732,0.265 -1.095,0.508 -0.376,0.202 -0.685,0.479 -0.98,0.715 -0.305,0.241 -0.605,0.49 -0.86,0.815 -0.259,0.309 -0.548,0.602 -0.779,0.925 -0.452,0.652 -0.905,1.303 -1.253,2.013 -0.368,0.697 -0.688,1.418 -0.97,2.15 -0.284,0.733 -0.518,1.484 -0.711,2.242 l 0,-0.001 -0.077,0.311 0.115,-0.297 10e-4,-0.002 c 0.278,-0.729 0.577,-1.449 0.915,-2.15 0.32,-0.707 0.676,-1.399 1.075,-2.06 0.21,-0.325 0.384,-0.672 0.603,-0.988 l 0.667,-0.94 c 0.229,-0.307 0.499,-0.567 0.745,-0.853 0.228,-0.295 0.541,-0.532 0.843,-0.781 0.31,-0.258 0.581,-0.509 0.894,-0.683 0.278,-0.211 0.692,-0.355 1.014,-0.496 l 1.104,-0.287 c 0.365,-0.127 0.744,-0.127 1.122,-0.159 l 0.569,-0.044 0.562,0.075 c 0.187,0.028 0.378,0.046 0.564,0.082 l 0.538,0.189 c 0.376,0.091 0.689,0.323 1.03,0.502 C -0.56,-0.539 -0.25,-0.305 0,0" />
      </g>
      <g
         transform="translate(90.8389,137.2002)"
         id="g180">
        <path
           inkscape:connector-curvature="0"
           id="path182"
           style="fill:#868686;fill-opacity:1;fill-rule:nonzero;stroke:none"
           d="m 0,0 c 0,0 0.264,-0.152 0.764,-0.277 0.246,-0.082 0.556,-0.122 0.912,-0.149 0.352,-0.053 0.755,0.039 1.185,0.052 0.209,0.059 0.427,0.119 0.653,0.183 0.227,0.053 0.458,0.121 0.673,0.255 0.438,0.237 0.92,0.441 1.329,0.812 0.215,0.167 0.433,0.337 0.654,0.508 0.199,0.121 0.38,0.411 0.574,0.611 l 0.288,0.334 0.205,0.366 c 0.128,0.247 0.294,0.477 0.395,0.738 0.22,0.548 0.508,1.09 0.623,1.64 0.076,0.275 0.152,0.546 0.226,0.814 0.05,0.279 0.098,0.554 0.146,0.825 0.11,0.54 0.151,1.074 0.217,1.577 0.063,0.503 0.068,0.985 0.101,1.428 0.026,0.887 0.041,1.631 0.022,2.151 -0.016,0.521 -0.025,0.819 -0.025,0.819 0,0 0.045,-0.295 0.122,-0.812 C 9.123,11.356 9.208,10.612 9.227,9.715 9.219,9.266 9.242,8.777 9.208,8.263 9.171,7.748 9.166,7.201 9.056,6.645 9.012,6.365 8.967,6.081 8.921,5.794 8.848,5.507 8.772,5.217 8.697,4.925 8.573,4.321 8.306,3.797 8.093,3.239 7.972,2.946 7.783,2.689 7.63,2.416 L 7.387,2.016 7.093,1.687 C 6.877,1.472 6.751,1.244 6.465,1.046 6.229,0.869 5.997,0.695 5.768,0.523 5.338,0.139 4.801,-0.05 4.326,-0.271 4.094,-0.396 3.844,-0.456 3.598,-0.501 3.357,-0.553 3.123,-0.604 2.899,-0.651 2.441,-0.648 2.018,-0.7 1.655,-0.609 1.289,-0.548 0.978,-0.477 0.734,-0.369 0.237,-0.189 0,0 0,0" />
      </g>
      <g
         transform="translate(83.7368,162.3008)"
         id="g184">
        <path
           inkscape:connector-curvature="0"
           id="path186"
           style="fill:#ffffff;fill-opacity:1;fill-rule:nonzero;stroke:none"
           d="m 0,0 c 0.071,-0.348 -0.15,-0.687 -0.499,-0.759 -0.348,-0.071 -0.686,0.153 -0.757,0.5 -0.072,0.348 0.15,0.687 0.499,0.758 C -0.409,0.571 -0.072,0.348 0,0" />
      </g>
      <g
         transform="translate(112.9487,167.2031)"
         id="g188">
        <path
           inkscape:connector-curvature="0"
           id="path190"
           style="fill:#1a0200;fill-opacity:1;fill-rule:nonzero;stroke:none"
           d="M 0,0 C 0.325,-1.578 -0.689,-3.118 -2.266,-3.442 -3.843,-3.768 -5.383,-2.754 -5.708,-1.176 -6.032,0.4 -5.019,1.941 -3.442,2.267 -1.865,2.591 -0.324,1.575 0,0" />
      </g>
      <g
         transform="translate(111.5977,168.1191)"
         id="g192">
        <path
           inkscape:connector-curvature="0"
           id="path194"
           style="fill:#ffffff;fill-opacity:1;fill-rule:nonzero;stroke:none"
           d="m 0,0 c 0.072,-0.348 -0.151,-0.687 -0.5,-0.759 -0.347,-0.071 -0.686,0.152 -0.758,0.5 -0.071,0.348 0.152,0.687 0.499,0.758 C -0.41,0.571 -0.071,0.348 0,0" />
      </g>
      <g
         transform="translate(97.4028,155.4756)"
         id="g196">
        <path
           inkscape:connector-curvature="0"
           id="path198"
           style="fill:#ffffff;fill-opacity:1;fill-rule:nonzero;stroke:none"
           d="m 0,0 c 0.051,-0.248 -0.19,-0.507 -0.538,-0.578 -0.346,-0.071 -0.67,0.071 -0.721,0.318 -0.052,0.251 0.189,0.51 0.535,0.581 C -0.375,0.394 -0.052,0.251 0,0" />
      </g>
    </g>
  </g>
</svg>
