<?xml version="1.0" encoding="UTF-8"?>
<svg viewBox="0 0 141.5322 136.61824" xmlns="http://www.w3.org/2000/svg">
 <g transform="translate(-7.1987 -4.1909)" fill-rule="evenodd">
  <path d="m112.5 4.1909c-20.072 0-36.231 16.159-36.231 36.231v40.257h10.064v-40.257c0-14.496 11.67-26.167 26.167-26.167s26.167 11.67 26.167 26.167v27.757h10.064v-27.757c0-20.072-16.159-36.231-36.231-36.231z"/>
  <path d="m7.69866,74.55001h84.60268a.5,.5 0 0,1 .5.5v65.25911a.5,.5 0 0,1 -.5.5h-84.60268a.5,.5 0 0,1 -.5-.5v-65.25911a.5,.5 0 0,1 .5-.5"/>
 </g>
</svg>
